<mxfile host="app.diagrams.net" modified="2024-07-07T17:00:32.942Z" agent="Mozilla/5.0 (Windows NT 10.0; Win64; x64) AppleWebKit/537.36 (KHTML, like Gecko) Chrome/126.0.0.0 Safari/537.36" etag="5QXRvfc-2tHbVWYoqKNc" version="24.6.4" type="device">
  <diagram name="Page-1" id="RWMKXEMSRjMOLIcTQQzI">
    <mxGraphModel dx="929" dy="483" grid="1" gridSize="10" guides="1" tooltips="1" connect="1" arrows="1" fold="1" page="1" pageScale="1" pageWidth="827" pageHeight="1169" math="0" shadow="0">
      <root>
        <mxCell id="0" />
        <mxCell id="1" parent="0" />
        <mxCell id="Vh4O4ErFu8xfbCtBkyOX-10" style="edgeStyle=orthogonalEdgeStyle;rounded=0;orthogonalLoop=1;jettySize=auto;html=1;entryX=0;entryY=0.5;entryDx=0;entryDy=0;" parent="1" source="Vh4O4ErFu8xfbCtBkyOX-3" target="Vh4O4ErFu8xfbCtBkyOX-6" edge="1">
          <mxGeometry relative="1" as="geometry">
            <Array as="points">
              <mxPoint x="290" y="241" />
              <mxPoint x="290" y="155" />
            </Array>
          </mxGeometry>
        </mxCell>
        <mxCell id="Vh4O4ErFu8xfbCtBkyOX-13" style="edgeStyle=orthogonalEdgeStyle;rounded=0;orthogonalLoop=1;jettySize=auto;html=1;entryX=0;entryY=0.5;entryDx=0;entryDy=0;" parent="1" source="Vh4O4ErFu8xfbCtBkyOX-3" target="Vh4O4ErFu8xfbCtBkyOX-7" edge="1">
          <mxGeometry relative="1" as="geometry" />
        </mxCell>
        <mxCell id="Vh4O4ErFu8xfbCtBkyOX-14" style="edgeStyle=orthogonalEdgeStyle;rounded=0;orthogonalLoop=1;jettySize=auto;html=1;entryX=0;entryY=0.5;entryDx=0;entryDy=0;" parent="1" source="Vh4O4ErFu8xfbCtBkyOX-3" target="Vh4O4ErFu8xfbCtBkyOX-9" edge="1">
          <mxGeometry relative="1" as="geometry" />
        </mxCell>
        <mxCell id="Vh4O4ErFu8xfbCtBkyOX-3" value="" style="shape=image;verticalLabelPosition=bottom;labelBackgroundColor=default;verticalAlign=top;aspect=fixed;imageAspect=0;image=data:image/jpeg,/9j/4AAQSkZJRgABAQEBLAEsAAD/4QBWRXhpZgAATU0AKgAAAAgABAEaAAUAAAABAAAAPgEbAAUAAAABAAAARgEoAAMAAAABAAIAAAITAAMAAAABAAEAAAAAAAAAAAEsAAAAAQAAASwAAAAB/+0ALFBob3Rvc2hvcCAzLjAAOEJJTQQEAAAAAAAPHAFaAAMbJUccAQAAAgAEAP/hDIFodHRwOi8vbnMuYWRvYmUuY29tL3hhcC8xLjAvADw/eHBhY2tldCBiZWdpbj0n77u/JyBpZD0nVzVNME1wQ2VoaUh6cmVTek5UY3prYzlkJz8+Cjx4OnhtcG1ldGEgeG1sbnM6eD0nYWRvYmU6bnM6bWV0YS8nIHg6eG1wdGs9J0ltYWdlOjpFeGlmVG9vbCAxMS44OCc+CjxyZGY6UkRGIHhtbG5zOnJkZj0naHR0cDovL3d3dy53My5vcmcvMTk5OS8wMi8yMi1yZGYtc3ludGF4LW5zIyc+CgogPHJkZjpEZXNjcmlwdGlvbiByZGY6YWJvdXQ9JycKICB4bWxuczp0aWZmPSdodHRwOi8vbnMuYWRvYmUuY29tL3RpZmYvMS4wLyc+CiAgPHRpZmY6UmVzb2x1dGlvblVuaXQ+MjwvdGlmZjpSZXNvbHV0aW9uVW5pdD4KICA8dGlmZjpYUmVzb2x1dGlvbj4zMDAvMTwvdGlmZjpYUmVzb2x1dGlvbj4KICA8dGlmZjpZUmVzb2x1dGlvbj4zMDAvMTwvdGlmZjpZUmVzb2x1dGlvbj4KIDwvcmRmOkRlc2NyaXB0aW9uPgoKIDxyZGY6RGVzY3JpcHRpb24gcmRmOmFib3V0PScnCiAgeG1sbnM6eG1wTU09J2h0dHA6Ly9ucy5hZG9iZS5jb20veGFwLzEuMC9tbS8nPgogIDx4bXBNTTpEb2N1bWVudElEPmFkb2JlOmRvY2lkOnN0b2NrOmM2ZmY0OGQ1LWM5YzQtNDE1MC1iY2RmLTc5NjE3MGFiNjgwZDwveG1wTU06RG9jdW1lbnRJRD4KICA8eG1wTU06SW5zdGFuY2VJRD54bXAuaWlkOjZkNGU4MzdkLTAyYzgtNGQ5ZS05OWUyLWIyMjYwZDU1YzcyMjwveG1wTU06SW5zdGFuY2VJRD4KIDwvcmRmOkRlc2NyaXB0aW9uPgo8L3JkZjpSREY+CjwveDp4bXBtZXRhPgogICAgICAgICAgICAgICAgICAgICAgICAgICAgICAgICAgICAgICAgICAgICAgICAgICAgICAgICAgICAgICAgICAgICAgICAgICAgICAgICAgICAgICAgICAgICAgICAgICAgCiAgICAgICAgICAgICAgICAgICAgICAgICAgICAgICAgICAgICAgICAgICAgICAgICAgICAgICAgICAgICAgICAgICAgICAgICAgICAgICAgICAgICAgICAgICAgICAgICAgICAKICAgICAgICAgICAgICAgICAgICAgICAgICAgICAgICAgICAgICAgICAgICAgICAgICAgICAgICAgICAgICAgICAgICAgICAgICAgICAgICAgICAgICAgICAgICAgICAgICAgIAogICAgICAgICAgICAgICAgICAgICAgICAgICAgICAgICAgICAgICAgICAgICAgICAgICAgICAgICAgICAgICAgICAgICAgICAgICAgICAgICAgICAgICAgICAgICAgICAgICAgCiAgICAgICAgICAgICAgICAgICAgICAgICAgICAgICAgICAgICAgICAgICAgICAgICAgICAgICAgICAgICAgICAgICAgICAgICAgICAgICAgICAgICAgICAgICAgICAgICAgICAKICAgICAgICAgICAgICAgICAgICAgICAgICAgICAgICAgICAgICAgICAgICAgICAgICAgICAgICAgICAgICAgICAgICAgICAgICAgICAgICAgICAgICAgICAgICAgICAgICAgIAogICAgICAgICAgICAgICAgICAgICAgICAgICAgICAgICAgICAgICAgICAgICAgICAgICAgICAgICAgICAgICAgICAgICAgICAgICAgICAgICAgICAgICAgICAgICAgICAgICAgCiAgICAgICAgICAgICAgICAgICAgICAgICAgICAgICAgICAgICAgICAgICAgICAgICAgICAgICAgICAgICAgICAgICAgICAgICAgICAgICAgICAgICAgICAgICAgICAgICAgICAKICAgICAgICAgICAgICAgICAgICAgICAgICAgICAgICAgICAgICAgICAgICAgICAgICAgICAgICAgICAgICAgICAgICAgICAgICAgICAgICAgICAgICAgICAgICAgICAgICAgIAogICAgICAgICAgICAgICAgICAgICAgICAgICAgICAgICAgICAgICAgICAgICAgICAgICAgICAgICAgICAgICAgICAgICAgICAgICAgICAgICAgICAgICAgICAgICAgICAgICAgCiAgICAgICAgICAgICAgICAgICAgICAgICAgICAgICAgICAgICAgICAgICAgICAgICAgICAgICAgICAgICAgICAgICAgICAgICAgICAgICAgICAgICAgICAgICAgICAgICAgICAKICAgICAgICAgICAgICAgICAgICAgICAgICAgICAgICAgICAgICAgICAgICAgICAgICAgICAgICAgICAgICAgICAgICAgICAgICAgICAgICAgICAgICAgICAgICAgICAgICAgIAogICAgICAgICAgICAgICAgICAgICAgICAgICAgICAgICAgICAgICAgICAgICAgICAgICAgICAgICAgICAgICAgICAgICAgICAgICAgICAgICAgICAgICAgICAgICAgICAgICAgCiAgICAgICAgICAgICAgICAgICAgICAgICAgICAgICAgICAgICAgICAgICAgICAgICAgICAgICAgICAgICAgICAgICAgICAgICAgICAgICAgICAgICAgICAgICAgICAgICAgICAKICAgICAgICAgICAgICAgICAgICAgICAgICAgICAgICAgICAgICAgICAgICAgICAgICAgICAgICAgICAgICAgICAgICAgICAgICAgICAgICAgICAgICAgICAgICAgICAgICAgIAogICAgICAgICAgICAgICAgICAgICAgICAgICAgICAgICAgICAgICAgICAgICAgICAgICAgICAgICAgICAgICAgICAgICAgICAgICAgICAgICAgICAgICAgICAgICAgICAgICAgCiAgICAgICAgICAgICAgICAgICAgICAgICAgICAgICAgICAgICAgICAgICAgICAgICAgICAgICAgICAgICAgICAgICAgICAgICAgICAgICAgICAgICAgICAgICAgICAgICAgICAKICAgICAgICAgICAgICAgICAgICAgICAgICAgICAgICAgICAgICAgICAgICAgICAgICAgICAgICAgICAgICAgICAgICAgICAgICAgICAgICAgICAgICAgICAgICAgICAgICAgIAogICAgICAgICAgICAgICAgICAgICAgICAgICAgICAgICAgICAgICAgICAgICAgICAgICAgICAgICAgICAgICAgICAgICAgICAgICAgICAgICAgICAgICAgICAgICAgICAgICAgCiAgICAgICAgICAgICAgICAgICAgICAgICAgICAgICAgICAgICAgICAgICAgICAgICAgICAgICAgICAgICAgICAgICAgICAgICAgICAgICAgICAgICAgICAgICAgICAgICAgICAKICAgICAgICAgICAgICAgICAgICAgICAgICAgICAgICAgICAgICAgICAgICAgICAgICAgICAgICAgICAgICAgICAgICAgICAgICAgICAgICAgICAgICAgICAgICAgICAgICAgIAogICAgICAgICAgICAgICAgICAgICAgICAgICAgICAgICAgICAgICAgICAgICAgICAgICAgICAgICAgICAgICAgICAgICAgICAgICAgICAgICAgICAgICAgICAgICAgICAgICAgCiAgICAgICAgICAgICAgICAgICAgICAgICAgICAgICAgICAgICAgICAgICAgICAgICAgICAgICAgICAgICAgICAgICAgICAgICAgICAgICAgICAgICAgICAgICAgICAgICAgICAKICAgICAgICAgICAgICAgICAgICAgICAgICAgICAgICAgICAgICAgICAgICAgICAgICAgICAgICAgICAgICAgICAgICAgICAgICAgICAgICAgICAgICAgICAgICAgICAgICAgIAo8P3hwYWNrZXQgZW5kPSd3Jz8+/9sAQwAFAwQEBAMFBAQEBQUFBgcMCAcHBwcPCwsJDBEPEhIRDxERExYcFxMUGhURERghGBodHR8fHxMXIiQiHiQcHh8e/8AACwgBaAGwAQERAP/EAB0AAQACAgMBAQAAAAAAAAAAAAAHCAYJAQMFBAL/xABMEAABAwMCAwQDCgoIBgMBAAAAAQIDBAUGBxESITEIQVFhEyJxFBYyQlaBgpGh0gkjM1JicpSiscEVGCRDZJKVwiU0U5PD0WNzslT/2gAIAQEAAD8AuWAAAAAAAAAAAAAAAAAAAAAAAAAAAAAAAAAAAAAAAAAAAAAAAAAAAAAAAAAAAAAAAAAAAAAAAAAAAAAAAAAAAAAAAAAAAAAAAAAAAAAAAAAAAAAAAAAAAAAAAAAAAAAAAAAAAAAAAAAAAAAAAAAAAAAAAAAAAAAAAAAAAAAAAAAAAAAAAAAAAAAAAAAAAAAAAAAAAAAAAAADycgybHcfY19+v1rtTXJu1ayrZDxeziVNxj+TY7kDHPsN+td1axN3LR1bJuH28KrsesAAAAAAAAAAAAAAAAAAAAAAAAAQf2ttZJtMsXprbYXRrkl3R6Uz3tRyUsTeTplavVd1RGovLfdV3RFRdft5uVwvNzmud4rqm4V07uKWoqZFkkevm5efzdBZblcLLc4bnZ66pt9dA7iiqKaRY5GL5OTn83Q2BdkjWSbU3F6m2350aZJaEYlS9jUalVE7k2ZGp0XdFRyJy32VNkVEScAAAAAAAAAAAAAAAAAAAAAAAAAa/wDt5y1cmvPo6hXehis9KlOi9OFXSqu30tyAgT72C5qqPXj0dOrvRS2epSoROnCjo1Tf6WxsAAAAAAAAAAAAAAAAAAAAAAAAABXLtr6Q3HN7HR5bjVK+rvVnidFPSxpu+pplXi2Yne9jt1RvejnInPZFog5qte5jkVrmqrXNVNlRU6oqdy+QY1XPaxqK5zlRrWom6qq9ERO9fIvf2KNIbjhFjrMtyWlfS3q8RNigpZE2fTUyLxbPTue92yq3uRrUXnuiWNAAAAAAAAAAAAAAAAAAAAAAAAAKNfhCLdb6LUbH6mjoaannrLdLJUyRRNa6ZyS7I56onrKict15j8HtbrfWajZBU1lDTVE9HbopKaSWJrnQuWVUVzFVPVVU5bpzLygAAAAAAAAAAAAAAAAAAAAAADdD56uto6RN6qqggTxkkRv8VPOfleMMdwvyOztXwWuiT/cce+7FflLZv2+L7w992K/KWzft8X3imf4QK52655zjEttr6StjZbJmudTzNkRq+mTkqtVdh+D9udutmc5RLcq+koo32yFrXVEzY0cvpl5IrlTcuZ77sV+Utm/b4vvD33Yr8pbN+3xfeOWZXjD3cLMjs7l8Erol/wBx6NJW0dWm9LVQTp4xyI7+Cn0boAAAAAAAAAAAAAAAAAAAD8TSxwxPllkbHGxFc5zl2RqJ3qvchCmpHae0yxJ8tJRV8uSXCNVasNrRHxtd4OmVUYnzK5fIr9mna/1Buj3x43bbVj1Oq+q9WLVTon6z9mfukSZHqrqTkKu/pfOL/UMd1jZWOhj/AMkfCn2GH1U0k71fVTPlcvV0z1cv1uU+f+zf4f8AdH9l/wAP+6P7L/h/3T9x+j2X0fo9u/g2/kH+j2T0no9u7j2/mfj+y/4f90f2X/D/ALpz/Zv8P+6d9LM+B6PpJnxOTo6F6tVPnaZhjmqupOPK3+iM4v8ATsavKN9Y6aP/ACScSfYS3hXa/wBQbU9keSW21ZDToqcT0YtLOqfrM3Z+6WB027T2mWXPipK2vlxu4P2RIboiMjc7wbMiqxfnVq+RNcMsc0TJYZGyRvRHNc1d0ci9FRe9D9gAAAAAAAAAAAAAAAAEN65doTD9NfS2yJ39OZE1OVuppERIV7lmk5pH+rzd5d5SjVfWPPNSKiRt/uz4rart2Wyj3ipWp3bt33kXzeq/MY5hOF5Vmlw9wYrYa67StVEesEf4uL9d67MZ86oWGwPsb5HXMZUZlktHaGKm60tBH7olTyV7tmIvsRxM2MdlXSK0NatZaq++SonN9wrXqir+pHwt+wz+0aUaaWliNoMDxuLZNkVbdE531uRVPYZiOKsbwsxqytTwSgiT/afr3p4v8nLP+wxfdHvTxf5OWf8AYYvulM/wgVtt1tznGIrdQUtGx9smVzYIWxo5fTJzVGom4/B+W23XLOcoiuNBS1jGWyFWtnhbIjV9MvNEci7FzPeni/ycs/7DF90e9PF/k5Z/2GL7p+X4jir28L8asrkXuWgiX/aePd9KNNLqxW1+B43Lv1VLdE131tRFMAybsq6RXdrlo7VXWOVU5Pt9a9ERf1JOJv2EM532N8jomSVGG5LR3diJulLXx+55V8ke3dir7UaV5zbC8qwu4e4MqsNdaZXKqMWeP8XL+o9N2v8AmVTI9KNY8802qGNsF2fLbUdu+2Vm8tK5O/Zu+8a+bFT5y7GhnaEw/Ur0Vsld/QeRKnO3VMiKky96wyckk9nJ3l3kxpzAAAAAAAAAAAAAAAB+ZZGRRukkc1jGoquc5dkRE6qpTrtK9qCaokqcU0yrVigaqx1d8jX1n9ytp/BP/k6r8X84qxZrZdsgvUNstVFV3O5VkipHDC1ZJZXLzVfFfFVX2qpbrRPsjUkDIbvqdUJVz8nNs9LKqRM8pZE5vX9Fuyebi01js9rsdsitlnt1Jb6KFNo6emibHG1PJqJsfcAAdFfWUlBSSVddVQUtPEm8ks0iMYxPFXLyQoh26MuxnK86sMmNXyhu8dFQSw1ElJKkjGPWXdG8SclXbwHYWy7GcUzq/SZLfKG0R1tBFDTyVcqRskekqqreJeSLt4l76CspK+kjq6GqgqqeRN45YZEex6eKOTkp3gAHw3yz2u+Wya2Xi3Ulwopk2kp6mJskbk82qmxVnWvsj0k8c930xqEpZ03c6z1UqrE/yikXmxf0Xbp5tKi3m13bH71NbLrRVdsuVHIiSQzNWOWJyc0XxTxRU9qKWn7NXagmp5KbFNTaxZYHKkdJfJF9ZncjajxT/wCTu+N+cXFikZLG2SNzXsciK1yLuiovRUP0AAAAAAAAAAAAAAFXZFVSjva51+lyWrq8EwytVliicsVxrYXf885F2WNip/covJV+Ov6PwoQ0s0/yPUfKosfxulSSVUR9RUSbpDSx77LJIqdE8ETm5eSGwzRDR/FtLLJ7ntMKVV0nYiVtzmYnpp18E/MZv0YnLx3XmSKAACPNetVbPpVh63avj913CpcsVuoWv4XVEiJuqqvxWN5K53dyRN1VENemp2pWYajXV9dlN2lqY+JVhoo1VlLAngyPfb6S7uXvUxEGXaYalZhpzdW12LXaWmj4kWaikVX0s6eD499vpJs5O5TYXoLqrZ9VcP8A6WoI/clwpnJFcaFz+J1PIqbpsvxmO5q13fzTkqKhIYAAI61u0fxbVOye57tClLdIGKlFc4WJ6aBfBfz2b9WLy8Nl5mvLVPT/ACPTjKpcfySlSOVEV9PUR7rDVR77JJGq9U8UXm1eS+c4dkXX6TGqqlwTM61X2KVyRW6tmd/yLlXZI3qv9yq8kX4i/o/BvEi7pugAAAAAAAAAAAAABVztuayvsNvfpxjVW6O6V0O91qI3bOpqdycokVOj5E6+Df1kKjac4des7y+hxjH6dJKyqdzc5FSOCNPhSPVOjGp/JE5qhsp0d03sGmWHw2Cxxcb12krKx7USWrm25vd/BG9GpyTzzMHXUzw00Ek9RNHDDG1XPke5GtaidVVV5IhD2cdpjSfGJZKdt8kvlVGqo6K0xenRF/8As3SP94ii99tSJHObZcBle3flJW3FGKv0WMd/E8F3bQyziXhwqxonci1ky/yOP66GXfIuxftc3/ohjWzU69aqZXFfrxTwUaU9M2mp6WB7nRxNRVVyoq893Ku6+xPAwQAGd6JanXrSvK5r9Z6eCsSopnU1RSzvc2OVqqitVVTnu1U3T2qneTP/AF0Mu+Rdi/a5v/Ry3toZYjk4sKsap3olZMn8j3rJ21Ilcjb3gMrG785KK4o9U+i9jf4kr4N2mNJ8oljpnXySx1T1RGxXaL0CKv8A9m6x/vEw008FTAyenmjmhkajmSMcjmuReioqclQ7AYXrFpvYNTcPnsF8i4HpvJR1jGostJNtye3+Ct6OTkvdtrX1Fw69YJl1djGQU6R1lK7k5qbxzxrvwyMVerHJ/NF5opbnsR6yvv1vbpxktW6S6UMPFaqiR27qmnanOJVXq+NOni39Vd7RgAAAAAAAAAAAAGH6yZ1Q6dad3TKq1GyOpo+ClgVdvTzu5Rx/OvXwRFXuNYN8ulyv99rLxdJ5Ky4187pp5Nt3SSOXnsn2InhshsH7J2kcem2DNrbpTt9813Y2WvcqetTs6sp0Xwbvu7xcq+CEzghvXztA4vpiyS1wol6yVWbst8MmzYd+jpn8+BO/h5uXwROZR7VLVfONR6x8mS3mV9Hxbx26n3jpYvDaNF9ZfN3EvmYOAAAAAAPIzjS3VfONOKxsmNXmVlHxbyW6o3kpZfHeNV9VfNvCvmXh0C7QOL6nMZa5kSy5K1m77fNJu2bbq6F/LjTv4eTk8FTmTICF+1jpHHqTgzqy107ffNaGOloHInrVDOr6dV8Hbbt8HInipr5sV0uVgvtHeLXUSUdxoJ2zQSbbOjkavLdPsVPDdDZ9o1nVDqLp3bMpokbG6oj4KqBF39BO3lJH8y9PFFRe8zAAAAAAAAAAAAH5lkjijdJK9rGMTdznLsiJ4qvcRrlWvmkmOTPp6/NbdNUM5OiouKqci+C+iRyJ86lR+13rPbtTrrabbjE1Utgt0bpnLNCsSzVLt034V57NZyTf85x3diLTduX6kuyS5QJJaccVkyNcm7ZapfyTfPh2V6+aN8S/yckBXPtaa+e8Wnkw/Ep2PyeeNFqKhNnJbo3JyXbosqpzRF6J6y9yLROqnnqqmWqqppZ55nrJLLK9XPe5V3VzlXmqqvep1AAAAAAAA7aWeelqYqqlmlgnhekkUsb1a+NyLujmqnNFRe9C9nZK189/VOzD8tnY3J6ePenqF2alxjanNduiSonNyJ1T1k70SxgKA9tzTdmH6ktyS2wJHacjV8ytamzYqpv5Vvkjt0enmrvA6eyHrPbtMbrd7bk81UlguMbZmrDCsqw1Ldk34U57OZyXb81pbjFdfNJMkmZT0Ga26GofybFW8VK5V8E9KjUX5lJKikjljbJE9r2OTdrmruip4ovefoAAAAAAAAAAjDXnWnGtKbS33b/xC91LFdR2yJ6I96dON6/Ej3+MvNeiIvPah+qur+daj1ci5BeJGW9Xbx2ylVY6WNO5OHf1183qq+wwFOSbJyTwQKqIiqvRE3U2W9lzCEwbRiy26aFI7hWR+76/lz9NKiO4V/Vbwt+iSgR12htSqbTDTesvv4uW5zL7mtlO5fylQ5F2VU/NaiK5fJNu9DWjda+tutzqrncqqWrrauV01RPKu7pHuXdzl81U+UAAAAAAAAH1WqvrbVc6W522qlpK2klbNTzxLs6ORq7tcnmimy7s8alU2p+m9JffxcVzhX3Nc6dq/k6hqJuqJ+a5FRyeS7dykikX9qPCEznRi9W6GJJLhRR+76Dx9NEiu4U/WbxN+ka0kVFRFToqboF5psvNF7lM/wBKdX8603q2Ox+8SPt6O3ktlUqy0sid6cKruxfNiovtL36C6041qtaX+4v+H3umYjqy2SvRXsTpxsX48e/xk5p0VE5byeAAAAAAAAAYJrrqPb9MNPqvI6prJ6tV9Bb6VXbe6KhyLwt/VTZXOXuRF79jWjleQXfKMirb/fq2StuVbIsk8z+9e5ET4rUTkjU5IibHlgzHRPGky7VrGMdexXwVdxjWoRP+iz8ZJ+6xU+c2ltREaiImyHJr27a+dvyzWCos1PMrrZjjVoomovqunXnO/wBu+zPoEFgA76Kkq62f0FFS1FVNtv6OCJ0jtvHZqKp+KiGanndBUQywTM+FHKxWOb7UXmh1gAAA7KeGaonbBTwyzzO+DHExXud7ETmp+62kq6Kf0FbS1FLNtv6OeJ0btvHZyIp0AAnTsT52/E9YILNUTK22ZG1KKVqr6rZ03WB/t33Z9M2EocORFaqKm6GrTWvGkxDVrJ8djYrIKS4yLTov/Rf+Mj/deifMYcD1MUyC74tkVFf7DWyUVyopEkgmZ3L3oqfGaqclavJUXY2XaFaj2/U/T6kyOlayCrRfQXClR2/ueoaicTf1V3RzV70VO/czsAAAAAAAAGv/ALcuby5Jq8/HYJldbscjSna1F9Vah6I6V3tROBn0V8SAgCwvYEtDa/W6ouL05Wu0TStXwfI9kafYry/B5WYXiLH8Tu19m29HbqKaqduvVI2K7b7DU7W1dRX1k9dVvWSpqZXTTOXq571Vzl+tVOkA9jCMfqcqzGz41RvSOoulZFSse5N0ZxO2Vy+xN1+Y2fabYJjWAY1BY8at0VLCxqJLLwp6Wof3ySP6ucvXy6Jsh4muOlWP6m4lVW+vpIGXVkTlt1wRiJLTy7er63VWKvJzV5KnnsprIqIZaeolp52cEsT3RyN/Nc1VRU+tFOsAAHZTwy1FRHTwM45pXtjjb+c5y7In1qhs30N0qx/TLEqa30FJA+6viatxuCsRZaiXb1vW6oxF5NanJE891X29SMExrP8AGp7HktuiqoZGKkUvCnpad/dJG/q1ydfPou6GsHNrBVYrmN4xqseklRa6ySle9E2R/C5URye1Nl+c8cA7qKrqKCsgrqR6x1NNK2aFydWvYqOav1ohtiw+8RZBidpvsG3o7jRQ1Tdl6JIxHbfaeqUG7fdobQa3U9xYnK6WiGVy+L43PjX7EYV7AJ97DWby43q83HZ5lS3ZHH7nc1V9VKhiK6J3tVONn0k8DYAAAAAAAAAcOXZqqq7InU1M5jdJb3l96vM7ldLXXCoqHKvfxyOX+CoeSAWx/ByUqOvuZ1qpzZTUcSL7Xyu/2oXMIs7WtY6h7OuYysdwuko2wJ7JJWMX7HKa1l6qcAGQ6bZGuI6gWHJ/RLM2118VS+NvV7EX12p5q1XbeZtJxe/WnJLBR3yx10NdbqyNJIJonbo5F7vJU6Ki80XdFPK1Qziy4Bhldkt7qI44qeNfQxK7Z9RLsvBExO9yr9SbqvJDVhXVMtZW1FZPt6aolfNJt04nuVy/aqnSAADuoamWirqesg29NTysmj36cTHI5PtRDafpdm9lz/DKHJbJURyRVEaemiR276eXb14np3ORfrTZU5Kerk9+tGN2Csvl8roaG3UcayTzyu2RqJ3ear0RE5qqoiGrXUnI1y7UC/5P6JYW3SvlqWRr1YxV9Rq+aNRN/Mx8A5Tqhsp7JVY6u7OuHyvdxOjo3QfNHK9ifY1CUymf4RulRt9wyt25vpayJV9j4l/3FTgD1sNuktky+y3mBytlobhT1DVT9CRq/wAEU2zNXdu6Lui9DkAAAAAAAH5lbxxPZvtxIqfWajLjA+muNVTSIqPhnkjci9yteqL/AAPnALc/g4ZWpWZvBv6yx0T/AJkWZC4hEXbGhdN2cMr4f7uOnkX2NqI1U1wd5wADIMRzbL8RWT3sZNdbO2Vd5GUtQrWPXxVnwVXz23PnynKMkymtbW5LfbjeKhibMfWVDpOBPBqLyansRDxwAAAexiuUZJita6txq+3Gz1D02e+jqHR8aeDkTk5Pain0Zdm2X5csfvnya63hsS7xsqqhXMYvijPgovntuY+ADlOpsf7HELoezhinF/eRzyJ7HVEioS6U+/CPflMH9ld/4SoYB9FtgfU3Glpo0VXzTxxtRO9XPRE/ibc4W8ETWb78KIn1H6AAAAAAAA7jWb2n8WkxLXLJaH0XBTVdStwpV22RYp938vY7jb9EjQAsz+DwuLYNTshtjn7e67Q2VqeKxTJ/KRS8hiGtVidkmkmVWNjVdLV2qoZEiJ1kRiuZ+8iGrFq8TUdttum4AABynNdiedN+y9lec4PasstuS2GCkuUPpY4pmTK9mzlarXcKbboqL0Mh/qZZ18rMb/7c/wB0f1Ms6+VmN/8Abn+6P6mWdfKzG/8Atz/dH9TLOvlZjf8A25/umPakdl7K8Gwe65Zc8lsM9JbYfSyRQsmR793I1Gt4k23VVTqQMvXY4AAAVeFquTnsm5tO0VsTsb0kxaxvarZaS1U7JUVOkisRz/3lUy8p9+Ee/KYP7K7/AMJUMAkvsv4rJluuWN0PouOmpKlLhVLtySODZ/P2vRjfpGzJOgAAAAAAAAK8dtzS2bMcKhyyy0yzXmwMeskbG7vqKReb2p4qxU40Tw4k6qUJTZU3Rd08QCVOyZf249r/AIzUSuRsNZM+3y7rsm0zVa39/gNlKdAqbopq+1/w5+DavZBYEiVlKlStTReC08qq9m3s3VvtapgYAABcrsEanUTrPNpldqlsVZBK+ptKvdsk0bl4pIk/Sa7dyJ3o5fzVLZgAqX29tTqJtnh0ytNS2WrnljqburHbpDG1eKOJf0nO2cqdyNT85CmwAABnnZ/w5+c6vY/YFiV9KtSlTW+CU8S8b9/bsjfa5DaC1NkBT78I9+Uwf2V3/hKhgckTdV2ROql9uxFpbNh2FTZZeqZYbzf2MdHG9uz6ekTmxq+Dnr66p4cKdULDgAAAAAAAAFNu1J2a6uKtq8005oFnp5XLNX2aBvrxuXdXSQNTq1eqxpzRebd05JUxzVa5zXIrXNVWuRU2VFTqip3KcHdR1NRR1cNZSSLHUU8jZYXp8V7VRzV+tENq2m2TUuZYFZcoo1T0Vyo451RPiPVPXb7WuRyfMZCVt7dOmUmTYZDm9op3SXSwMclUxjd3S0aru5fNY19b2K8ooAAAd1HU1FHVw1dHUS09TA9JIponqx8b0XdHNcnNFRe9C1OkPa+rKCkhteo1smuLY0RqXWga1JlTxkiVURy/pNVP1SebL2idHLpA2SPOLfSuVN1jrWSU7m+So9qfYLz2idHLXA6STOKCqc1N0jomSVDneSIxq/aQNq92vqyvpJrXpxbJrc2RFat1r2tWZE8Y4kVUav6TlX9UqtWVNRWVc1XVzy1FTO9ZJZpXq98j1XdXOcvNVVe9TpAAAL19hXTKTGcMnze707o7pf2NSlY9uzoqNF3avksi+t7EYWSBT78I9+Uwf2V3/hKhnLWuc5GtRXOcqNaiJuqqvRETvUtn2WuzXVy1tJmmo1AsFPC5s1BZp2+vI5ObZJ2r0anVI15qvN2ycluSgAAAAAAAAABFurGgunmosstdc7Y633d6c7jb1SKZy/ppsrZPpIq+ZXfKexllVPK92NZZabhCnNrK6J9PJ7N2o9q/YQTqnp3k2m2QRWTKKeCOonp0qIX08vpI5GK5W8nbJzRUVFTbly8SzH4PvUBklHc9OLhOiSQudX2xHL8JjlT00aex2z9v0neBbg/MjGSRujka17HJs5rk3RU8FNfnax0RqNO8gkyPH6V78SuEu7EYm6W+Vy/kneDFX4C/RXmibwOAAADlFVOiqN18VOAAAATx2TdEajUPII8jyCle3ErfLu9Hpslwlav5JvixF+Gv0U5qu2wONjI42xxta1jURGtamyIidyH6BXvth6S5fqfLjHvVioHpbvdXuhaqp9Ft6T0fDt6q7/BUinFexnlVTKx+S5ZabfD1cyhifUSezdyMan2liNJtBdPNOpY662Wx1wu7E5XG4KkszV/QTZGx/RRF81JSAAAAAAAAAAABBvbM01fnOmD7pbadZb3YOKrpmtTd00O346JPFVaiORPFiJ3lDMIyW54jllsyeyyoyut87Z4lVfVenex36LmqrV8lNoWmmY2nPMKt2UWWTipa2LiWNV3dDInJ8bv0mu3Rfr7zIz5LxbaC8Wuptd0o4Kyiqo1ingmYjmSMXqiovVCjvaG7MV6xSapyDAoKm8WDnJJRNRX1VEnfsnWWNPFPWROqL1K4ePkuynAAAAAAAOf/AHsWQ7PPZivOVTU+QZ7BU2ewcpI6J27KqtTu3TrFGvivrKnRE6l4bPbaCz2umtdro4KOipY0igghYjWRsToiInRD6wAAAAAAAAAAAAAAO418dsHSJ+n+auv9npVbjV7mc+HgT1aSoXdz4V8EXm5vlunxT4+ynrLJpjlT7fd5Xuxa6SNSsbzX3LJ0SoangicnonVuy9WpvsOpKiCrpYqqlmjngmYkkckbkc17VTdHIqclRU5op2jYibVrs+6e6hSTV9Vb3Wi8Sc1uNu2je9fGRu3BJ7VTfzKzZx2Q9Q7RI+TGq62ZHTIq8LeP3LUbebX+ovzPIpvek2ptme5txwLIokb1fHQvmZ/mj4k+08B2M5Kxytdjl7aqdUW3TfdOPe3kfyevX+nzfdHvbyP5PXr/AE+b7o97eR/J69f6fN90e9vI/k9ev9Pm+6Pe3kfyevX+nzfdHvbyP5PXr/T5vuj3t5H8nr1/p833R728j+T16/0+b7pyzGcle7hZjl7cvglum+6e/ZNJtTby9rbdgWRSo7o+ShfCz/NJwp9pK2DdkPUK7yMkyWutmOUyqnE3j91VG3k1nqJ87yzOknZ90908kirqW3uu94j2VLjcdpJGL4xt24Y/aib+ZLKJsAAAAAAAAAAAAAAAAeHneK2XNMUr8av9KlTQVsfA9OjmL1a9q9zmrsqL4oa1tadNb5pfmUtiuzXTU795KCuazZlXFv8ACTwcnJHN7l8lRVlLsqdoSXA5IcRzCeWbFnv2pqld3Ptqqvh1WFV5qic29U5boXsoKylr6KGtoamGppp2JJFNE9Hskaqbo5qpyVFTvO8AbINvb9Y29v1jb2/WNvb9Y29v1jb2/WNvb9Y29v1jb2/WNvb9Y2QAAAAAAAAAAAAAAAAAAxPVXT7HdR8Tnx/IqZXxu9eCdmyS00u3KSNe5U8OipyXdDXZrTpTk+luRf0feoVnoZnL7huUTFSGqan/AOXonVi807t05nvaB68ZRpbUtoU4rvjb37y22WTZYt15ugcvwHeLfgr3oi8y9+lup2HakWj3fjF1jnkY1FqKOT1KmnXwfH1T2pu1e5VMyAAAIxz3XvS3DamWjumUQVNdEuz6SgY6pkavg7g3Rq+TlQwB/bF0ySbhbaMpdH+f7kiT7Fl3MwwrtIaS5RUx0sWSJa6qRdmQ3SF1Nuvhxu9T94luN7JI2yRva9jkRWuau6Ki9FQ/QAAAAAAAAAAAAAAAAAAAPKyzHLJlVhqbHkNtp7jbqlu0kEzd0XwVF6tcncqbKncpSXXbstZFir6i84KlRkFkTd7qTbiraZPYn5ZqeLfW8UXqV+tFyulju0VxtVdV224Uz/xc9PI6KWJydU3TZU80X5yyWlva/wAjtLIqHPLUy/Uzdm+7qThhqkTxc34D/m4PnLJ4FrtpdmTWMtmVUdLVvT/k7gvuWZF8ER+yOX9VVJJY9j2I9jkc1U3RUXdFT2n63QHDlRrVVVRETqqlEe1H2h7rld3rcTwu4S0ONU73Qz1UD1bLcXIqo5eJObYe5ET4XVeSohXFERE2RERPBAO5U7l6kzdnXXm/aZ3WnttyqKi5YlI9Gz0b3K91Kirzkg36bdVZ8F3kvM2H2uupLnbaa40FRHU0lVE2aCaNd2yMcm7XJ5Kiop9AAAAAAAAAAAAAAAAAAAAGxF+rehOn+o3pKu6WxaC7uTlc6DaKdV7uPkrZPpIq+CoVU1H7J2oeOulqcbfTZTQN3VEgVIapE84nLs5f1XL7CCr9Z7rY6x1BfbXWW2pauyw1tO6J31ORN/mPRxvMsvxtUXH8nvVqRPi0tbIxn+Xfh+wzy1dpHWa3MRjMzkqWp/8A1UUEq/WrN/tPXZ2q9Y2t2W6Wd6+K2tn8lPlvfac1au9mrbTVXS2Mp6yB8EroLe1kiNe1Wrwu4vVXZV59xDCIiIiJyROSAA5NgXYRvlTdtCYqOqe5/wDRNxnoolXui9WRqfN6RU9iIT0AAAAAAAAAAAAAAAAAAAAAfFeLRarxSLSXe20dwp16xVUDZWL8zkVCMMi7N2jt6V734hDb5XdZLfPJTbfRavD9hhNz7HGnUyqtDfMmo1XoizxSon+aPf7TyXdi3GN/Vza+onnTQL/I+G+9jK1wWSumtGX3apuMdO91LDNTwtjklRqq1rlRN0RV2TfzKeVEM1NUSU9TC+GeJ6xyxvTZzHtVUc1U7lRUVPmOsAckRVVdkTqpsf7IWG1mGaIWumuULoK+5SPuVRE5NnRrLtwNXzRjWbp3LuS8AAAAAAAAAAAAAAAAAAAAAAACtvaa7NkWb1tRl2FPp6LIZE4quklXggrlRPhcXxJe7fo7v2XmUuy/E8lxG4OoMnsdfaJ2rttVQq1rvNr/AILk80VTxOJu2/E3b2no49ZbxkNwZb7Ba6261b12bDRwOld8/Ci7e1S23Zv7LlRbrlS5XqXFCstO5stJZmuSRrXpza+dycl2XmjE3Tfqq9C26AAAAAAAAAAAAAAAAAAAAAAAAA6K2jpK2ndTVlNDUwu+FHLGj2r7UXkY4/TXTx8/pn4LjDpOvEtqg3//ACe/a7ZbrXT+5rZQUtFB/wBOnhbG36moiH1gAAAAAAAAAAAAAAAAAAAAAAAAAAAAAAAAAAAAAAAAAAAAAAAAAAAAAAAAAAAAAAAAAAAAAAAAAAAAAAAAAAAAAAAAAAAAAAAAAAAAAAAAAAAAAAAAAAAAAAAAAAAAAAAAAAAAAAAAAAAAAAAAAAAAAAAAAAAAAAAAAAAAAAAAAAAAAAAAAAAAAAAAAAAAAAAAAAAAAAAAH//Z;" parent="1" vertex="1">
          <mxGeometry x="160" y="210.5" width="72" height="60" as="geometry" />
        </mxCell>
        <mxCell id="S_6DLKTQYWsLQOd7YUJ0-3" style="edgeStyle=orthogonalEdgeStyle;rounded=0;orthogonalLoop=1;jettySize=auto;html=1;entryX=0;entryY=0.5;entryDx=0;entryDy=0;" edge="1" parent="1" source="Vh4O4ErFu8xfbCtBkyOX-6" target="S_6DLKTQYWsLQOd7YUJ0-1">
          <mxGeometry relative="1" as="geometry" />
        </mxCell>
        <mxCell id="Vh4O4ErFu8xfbCtBkyOX-6" value="" style="shape=image;verticalLabelPosition=bottom;labelBackgroundColor=default;verticalAlign=top;aspect=fixed;imageAspect=0;image=data:image/png,iVBORw0KGgoAAAANSUhEUgAABLAAAAJ0CAIAAACN6k0AAAAACXBIWXMAAAsTAAALEwEAmpwYAAAgAElEQVR4nOzdebQdV33g+9/eu6rOfOdJupotyZItWZZtDNhgpjAHCCaQAd4LIUnnj/f6vbXSq9/q153XIWkS0p2spDvpdAYaMtJhDBCaKRhjG48aPEmWJUuyrOFKd9KdzljD3vv9cSS1AwgPyNa16/tZy7aWfO6puueee6q+Vbt2Ke+9AAAAAADyR1/uFQAAAAAAXB4EIQAAAADkFEEIAAAAADlFEAIAAABAThGEAAAAAJBTBCEAAAAA5BRBCAAAAAA5RRACAAAAQE4RhAAAAACQUwQhAAAAAOQUQQgAAAAAOUUQAgAAAEBOEYQAAAAAkFMEIQAAAADkFEEIAAAAADlFEAIAAABAThGEAAAAAJBTBCEAAAAA5BRBCAAAAAA5RRACAAAAQE4RhAAAAACQUwQhAAAAAOQUQQgAAAAAOUUQAgAAAEBOEYQAAAAAkFMEIQAAAADkFEEIAAAAADlFEAIAAABAThGEAAAAAJBTBCEAAAAA5BRBCAAAAAA5RRACAAAAQE4RhAAAAACQUwQhAAAAAOQUQQgAAAAAOUUQAgAAAEBOEYQAAAAAkFMEIQAAAADkFEEIAAAAADlFEAIAAABAThGEAAAAAJBTBCEAAAAA5BRBCAAAAAA5RRACAAAAQE4RhAAAAACQUwQhAAAAAOQUQQgAAAAAOUUQAgAAAEBOEYQAAAAAkFMEIQAAAADkFEEIAAAAADlFEAIAAABAThGEAAAAAJBTBCEAAAAA5BRBCAAAAAA5RRACAAAAQE4RhAAAAACQUwQhAAAAAOQUQQgAAAAAOUUQAgAAAEBOEYQAAAAAkFMEIQAAAADkFEEIAAAAADlFEAIAAABAThGEAAAAAJBTBCEAAAAA5BRBCAAAAAA5RRACAAAAQE4RhAAAAACQUwQhAAAAAOQUQQgAAAAAOUUQAgAAAEBOEYQAAAAAkFMEIQAAAADkFEEIAAAAADlFEAIAAABAThGEAAAAAJBTBCEAAAAA5BRBCAAAAAA5RRACAAAAQE4RhAAAAACQUwQhAAAAAOQUQQgAAAAAOUUQAgAAAEBOEYQAAAAAkFMEIQAAAADkFEEIAAAAADlFEAIAAABAThGEAAAAAJBTBCEAAAAA5BRBCAAAAAA5RRACAAAAQE4RhAAAAACQUwQhAAAAAOQUQQgAAAAAOUUQAgAAAEBOEYQAAAAAkFMEIQAAAADkFEEIAAAAADlFEAIAAABAThGEAAAAAJBTBCEAAAAA5BRBCAAAAAA5RRACAAAAQE4RhAAAAACQUwQhAAAAAOQUQQgAAAAAOUUQAgAAAEBOEYQAAAAAkFMEIQAAAADkFEEIAAAAADlFEAIAAABAThGEAAAAAJBTBCEAAAAA5BRBCAAAAAA5RRACAAAAQE4RhAAAAACQUwQhAAAAAOQUQQgAAAAAOUUQAgAAAEBOEYQAAAAAkFMEIQAAAADkFEEIAAAAADlFEAIAAABAThGEAAAAAJBTBCEAAAAA5BRBCAAAAAA5RRACAAAAQE4RhAAAAACQUwQhAAAAAOQUQQgAAAAAOUUQAgAAAEBOEYQAAAAAkFMEIQAAAADkFEEIAAAAADlFEAIAAABAThGEAAAAAJBTBCEAAAAA5BRBCAAAAAA5RRACAAAAQE4RhAAAAACQUwQhAAAAAOQUQQgAAAAAOUUQAgAAAEBOEYQAAAAAkFMEIQAAAADkFEEIAAAAADlFEAIAAABAThGEAAAAAJBTBCEAAAAA5BRBCAAAAAA5RRACAAAAQE4RhAAAAACQUwQhAAAAAOQUQQgAAAAAOUUQAgAAAEBOEYQAAAAAkFMEIQAAAADkFEEIAAAAADlFEAIAAABAThGEAAAAAJBTBCEAAAAA5BRBCAAAAAA5RRACAAAAQE4RhAAAAACQUwQhAAAAAOQUQQgAAAAAOUUQAgAAAEBOEYQAAAAAkFMEIQAAAADkFEEIAAAAADlFEAIAAABAThGEAAAAAJBTBCEAAAAA5BRBCAAAAAA5RRACAAAAQE4RhAAAAACQUwQhAAAAAOQUQQgAAAAAOUUQAgAAAEBOEYQAAAAAkFMEIQAAAADkFEEIAAAAADlFEAIAAABAThGEAAAAAJBTBCEAAAAA5BRBCAAAAAA5RRACAAAAQE4RhAAAAACQUwQhAAAAAOQUQQgAAAAAOUUQAgAAAEBOEYQAAAAAkFMEIQAAAADkFEEIAAAAADlFEAIAAABAThGEAAAAAJBTBCEAAAAA5BRBCAAAAAA5RRACAAAAQE4RhAAAAACQUwQhAAAAAOQUQQgAAAAAOUUQAgAAAEBOEYQAAAAAkFMEIQAAAADkFEEIAAAAADlFEAIAAABAThGEAAAAAJBTBCEAAAAA5BRBCAAAAAA5RRACAAAAQE4RhAAAAACQUwQhAAAAAOQUQQgAAAAAOUUQAgAAAEBOEYQAAAAAkFMEIQAAAADkFEEIAAAAADlFEAIAAABAThGEAAAAAJBTBCEAAAAA5BRBCAAAAAA5RRACAAAAQE4RhAAAAACQUwQhAAAAAOQUQQgAAAAAOUUQAgAAAEBOEYQAAAAAkFMEIQAAAADkFEEIAAAAADlFEAIAAABAThGEAAAAAJBTBCEAAAAA5BRBCAAAAAA5RRACAAAAQE4RhAAAAACQUwQhAAAAAOQUQQgAAAAAOUUQAgAAAEBOEYQAAAAAkFMEIQAAAADkFEEIAAAAADlFEAIAAABAThGEAAAAAJBTBCEAAAAA5BRBCAAAAAA5RRACAAAAQE4RhAAAAACQUwQhAAAAAORUcLlXAAAuP+fchT/7839QT3uA1hw+AwAAL0MEIYCcck5EnIh4EfNMvefPJ6O6VGnovYiIUs/0OAAAgBeQ8t4/86MA4GXEOVHqh7RYlmVJmqSZtc577wtRVCpGRpsf8gwi8mOOue90xHspFmlCAABwGXGGEC9p7ty/tFx05/zCUED9z/6DHHLOKaWUUhfO8dXrrem5+amZ+cnp+bOLS/P15lIzjjtZ5q0XVYjCcimqlKJapTzU3zs+3LdiuG98dDAII/2055TnN6A0CMR7ahAAAFxenCHES1M3857rXrjzIv5H1SNepqxzTx8UOnFm5uCTJ/YdOnlq6uz0XH2x1Y5Ta1QYRkEYBcaEgTFaxDqXpFmaZJlNlfKlKOyrFsZG+jaOj2y7ct3WTWtKhUL3CZ17zm9GAACA5YAgxEvQ086rWJu1OzOtxdNxY0Z8PcsWs3ZTvBRrhUKhagp9pjASFlYWigNBUP7nz+LIwjxwIsp7pZSINJuNhw4c2/XoE4eeOnN2sW1FwiAsFUvFSrkUFQvFQhCFgQm11kpEO+ucsy5LMxsnaSdJkyRtt5MkiW0Wl0KzekXvjddseNWOK1eMjJxblnPMPQMAAF5aCEK8hDgR1Z360Vlfnz1an9/XWDrYmTul0rouiymJ814SFZSDsGBs23WaaZaIN+WoNFSsrS33rukd3FStrRfNOL2Xv//1dhGZX1y658HHv/vA/mMTs15MuVLt6+mp9fRUi8VCqVQsRMoE3msl4pUorb3SIuKcz5wS76zNXJamWZqmSZqknSSp1+uNpUaWdEb7C6/atu6Nr9o+Pr5CRPw/n5sUAABgmSMI8RLjJZs9tWf2yD3tucdFFrS1gTLFkWqpGkqidBgU+sNCJRKtrfeZTeN20mrFcaPTWUqTWMT0V/u3rlj7hsGxa86fIORU4cuQ904pLSKtduuO+x799n37n5qcjwrFwYH+/r6+np6+crlaKVcLxWJUCsNCpLVWShktRmkvXpyzqbPOpdZb6zLnk9QlSZomaSeJ4047jeM47bQarYXFpXZ7cbgWvukVm99007U9PT3CWwoAALx0EIR4KVmcOnjiO5+d379Lh/XicDUqFguVUnm0GBaU9jqsRsFQGFW191qJUlp5ESfKep+lLmlnzflGfaFeryeZqw2M3rzx6p8qVbuD/diBf/lwzimlu2OK9+47+I/ffXD/0dNRWBoZGR0bHu4bHOzt66lVy+VqoVoplkqB0iIixinvnctsbH0ntXGaplmWZplNM++8d8pb5UV7bzKvYuuTdrvVabWazbjTajabs2cX4tbClSsr733zDTuu2iIi/vw4VQAAgOWMIMRLxuzBBw5+6j+39h8w1kT95XCwGFZNdW2ltrmmi2HYF5ZGCkEUehGlVHf+Ud/dIXci3lvvkzRt19NGozM/15g72y727dh2/S8ODV1xWb8tXEreSTfw5ubnv3Lbrtt3Pd7JzMqxsRVjY4PDwyOjg6PDPb21oFIwhUCUEZdJHEsrta1O0mh3mo16q9lImi0bd2zaUdYaryTwEoSiTBAVTFQ0UUmZQuYj68M4cY1Wu9VutZvNxaX6zPTpkm++46ar3/kTNwRh8XK/GAAAAM+MIMRLw9KJQ/v/8DeWHn6kUK6ICbTRQS00JVNdXxm6YbhvXTnqKemCTp2LO5nWShmt5Pw1ZF6UEu/Fe58kWbudLTWSufnWzPRcUNi444Z/sXJ8++X+/nAJXLh+76HHDn3ua/c+cWqxd2hwzfjqtatWrBkfGRutDPRE1UgCJUokzqQZy9xSe3Zubu7szNLk6cb0mcbMVHt+Lm4sps12mqUuc1obpY0pFsNCGJYrhb6+Ul9/qa+/2NdfLA+ElX6ni6kNm3HcaLbbjcb09PT87Jmbrhr9uXe9tr+//zK/IgAAAM+EIMRLgMvSh/7Lx6a/84/FUqR1KM4HkTZlI0HYt6U6/IqBx07XH9gzkSXxK65fufOGlRIYFaggNNpoUaK1lm4Qijjvs8w2W3FjKZldaM/MzPtgzXXX/+r69dd3F8XY0Zci55yI0lrZNPn6d3d/5c6HmnG4es2atetWrl+zYv2a/hW9YUVLoLyIir0sNrMzZ+dOnzp95sTx6SePLp083pqdbi7Ot9qtdmZT8ZlSTov13on3VmlrjZKyCaIoKpfK5Z7e2vBwbWS0Z2hFbXi00DcaFvoSH9XbcbvTnp6dnzhx+OrxyodvfdPY6DATzQAAgOWMIMTy5pxoPXHH7Y/+0ceKummqReWcEqUDoyIp1kI3Xvjywamv3HmktRRrZfpqwXvftvktr19b7S+ElbBUjcIwMIHWRolTTivlxXmX2LQdp/MLydxia2Z2IfPjN9/8f21Yt/Nyf7d4Pi7c7GFhfv7TX/3eXY8cq/YMbtq4Ye26VVvXD68bLlZDFYgXUanIYseeOjN9/PCRk4cOTh96Yu7U8fm52Wa70bJZLMZr7U0ogVLKKKOUEi/ilfjMi3PeWmNd4GwkUg6iWq1SHRypjY/3j6/qHV1ZHVxlSgNJplqdZGp+8akjh64Y1L/0gTevGBujCAEAwLJlPvrRj17udQAuTikRmfj6Z5NH7i8O1JxRPtKqYCQwEmozZr54dO73/vLBM1Otn/7AT7/57e+57a5Hv3PXExtW9a4aLrVa1mZWvHJOrHfinVgv1kn37nLKifbWiRNZaEw8efLJkeHNvbWhy/0N4znrzt0yMXHyzz5z266DU6Pja7Ztu3L71iuu2zS6aSgsme5FhaqZyvHps/sf2ffoXXccuOM7R3c9cOLIE2fOzs6lSd0EaaHoS2VTLEalKIwKURQGOjChVkobbXQYGBNIWHBRlARhrMOWs41ms7Ww0Jqeas/PtxtLabxoVFYplQtRWC6XK5W+J05Mnjp5/KorVpVLpcv8GgEAAFxEcLlXALgoZ602JhM5vbj4uPU9nXRFQUfKZOJF23Agmozst3afSJOsFMr8XJJk1Z5abeL0xP2PzLz62hFvnE1cFvtCOSwWtQtEi9JGiygRp73TThVLOmhHvX29xyce+85dn7j1Xf+upzIgznOjwpcE57zWSkT2P37wE1+4a7YpmzZeeeXmDdu2rNy8olQz5x6WiMwuNI8cfOLIIw8fe+SRM0cOz83NLmVpR0W+VDJRWCxG5VKhWCyEWimlu+MmrHVOWWvFWpslLk4TyawSH0bah8b6oJ1m7Syrd9qN48caszONM9Pz0zMr1k6OrN5aLg2OD5ejYNv+ffv+7iu3feQDb69WapfxhQIAALgYzhBimfLed8cBPvLww5/95p276um0lJRLjcROS1pVfmV07Gzztu+eUKZU6ynOTE0cO/zY3OxEvZWsHKm+evtgqJQXH4a6EOlCKQwqkY4iFwQqMCbQIj5zLvWSiU8yZZ06ceZJm0UbN1yvlDp/V3MsX953a9Dfef+D//1Lu6xEV1655aprNr9y2/jmkUJJe/EiStVTd/zU5CO7dj98++0H77vnxBOHJpcWF71JyiVTK/fUyoN9tcHeWk+1GJlAaS3eK2+V9+Kt885b770SpY0JjA6cs2mSepcaERMEOghSbdredzod21rMGu1Go26zeqkYFQrFnp5SuVzdf+hYUl/YfuUVorVzwq0oAADAssIZQixL5+/h9q3bvvnpT3/2zOmpUqm3EYYPF3qXSkube1u1AZ+F0mm4MDJFVa6WTGbTswszSZaJyOq1PaPr+gqRiYomqhYKlUJQMMpo71yW+e5OuS6puCO66aJQBaEqlIqlWnPXI18cX7H52qtez9Qyy59SyrnsH779va/d/vjQyODKdZuu2LT6xk1DY6VucimvZLbZOfzEkYP3P3B49+5TRw/PLs43lclKZV0IekrFwf5apVjOrG2lnTRWxWJxoFatVXsq5VIQhF58p9NpNOpz8/PzS0tLC0txnEWlUqHY326341ZDJI0KURBqZ0qtLEuSOJ2bdEn7qWaj0+6s3npNT9/o6tFqmlx5374D68f3vvrVN2reVgAAYJkhCLEsKSUiX/rSP/zlX31qYX6xUiwmSaeZ+bhvSzy2KRw82Dsw39PXO7JyaNex2W/dMVUq9ARhwSdBp5MM1Kpvf/P6jdeMWG+01l57Ud55L9aKV1qLUiLe28w7551zTjsdio5Utdo7X5+57e6/Gxu5Ymxo9eV+CXBR3Xu+W2f/9su3f/eeI+OrR8Y3bt6yef3166t9oerO4JKKTEwvHXz0kYMP3H90z+7J0ycXOkknLNowKFULQ/09fb19Xuskjqs9tS0rr1y/fv3atWtXjK2s9fWGxVIUBkrpNEnjTmNxcXFqavLwoYOPPLzv4BMHFxZnw2IlGhhqNOrNViuKTBRGPjKZLs6mqWvW+7U783iWtuP127YPjq1Zv2KgtbTiG/c8tG7dmhUrxrznJCEAAFhGCEIsLxdmjPz6177+Z5/4i2ajUavWkiSutxpGfLnWLkdqxZrayHhU7ekbGa39y9LOiTN3P/jofKALoiSK5CMf2vqWt24IawXfdkp1n1KJEy/Ki/fOOis2cUmaWmvP3bleex14FahKrefo5N7b7vvMB9/5r5UWJ05zqnCZ8V6UUp249bdfueP+PSevWLVqdOuV27auu351oaikO2lyLPLkUxOPPbDn8d33nti3b3J6dklUWioFUTAy0Ds8OCxaUpsND/Tv3LFz53XXrVu/oVAo/OCygpIplYp9/UNr111x4ytvft/72/v2Pfrd27991113zs5PVQeG02KxvjhvbbtQKCttXKTPZpmrt/vSWZuloqwWOzC6ZsuGlQ8+NHvbHfd98P3v1oH5wQUBAABcLlxDiGVHKbVnz54//pP/Mjc/V6vVREmc2cCYof5+Y4rVML5xpxpeXVZR4JW/YsPAK68dXbOyPDBqdu4Y+Be/vO3DH9nRP1xJE6u88yLWi3jvvXfWO5u51LlYbJpa55TRTqt25jpZFmcSZy61Ps6yiTMnx0evHB1apbiMcPlRStqt5l9+/rbdj5zeuGbN6u1bd2xbf8OqKFLixStRjcw/cejIg3fc8fg9dx55+NGp2bONQiEtRIVStGp8ZHRsRZJmfb3V173ude+79dabX3PL0NBwEJw7NOac8xehlArCcHx81U03v2bb1Vc1F+eOHHxcGdPbP5zEsc1iYwKtlXO647xkaZR2Oq125l2tVhro7QkKhUNHnxzp7xkbG7m8LyAAAMDTcYYQy0j39ODCwsJf//Vfnjp1qm9wwCgtStWqpWIxrPQMpC7QqpHqSElBi7KZbzXsVTvHtl43tlRPtdY9fUVR3ratt9K9p7j3yjvvnLepyzIrsXNObGadFidKifK+O3mIFyUqkHKlMlmfv+3+z2xcc1W5VLtwxhKXXbfKGvX6X3zhtgefmL1q7br126+85upVWweCc1cNipprp4cOHNp3z/cOP3D/ySePzrXidhilge6tFdeuXR0WSzZNb7ju2re89a0bN276wUX8iJ+1c677AKX0jp2vuOrq7V/47N//xSf+YuFsZ2B4vLm4kHaaYbEUFrTNgoU4Ue24V81NHjlaLBZKhXDt6Oj0VPm+3Xs2bVxfrlR4XwEAgGWCM4RYRroTyXz1q1/9h69+KSqVisWiKYTFQrFUigqlSlgoh4EfLDTWj9tCOTJaa628950k807KYRCGxmU2izMv4qx3mc2cl0yc8876LLNZbJPE2ThNM5dZ23FZO80W46SRunZqkzhLrbNOOfGnp45XK4MbV29TXO+1PDjvtVLtZvPPP/Ot3U8ubF29fuuOzTuvWbu5z3S7yonM1Fv7Hn7skdu/c/i+e44dOzYbx3ExcsVoeKT/irXrdBhVy4W3v+3tt976vpGR0ee6AkqpC28G770Jwu07dq5aOf7w3vtnZ88Ojq10WZqlsTGBUuK0ZE5pa3Ucd+LEFAojg721Wu3oU8eH+ntWrFjB+woAACwTBCGWC+ecUmqpXv9vf/6np09PVKtlrXWxUCgWCmFUCKPIaKVEuaSxdiAtlYxTopRoLyLKWUnSLMucdyJenPXWusx6cd6Kz2KbtNJOK42bSdZOxTqnvFWqI3YpS+tJ2kqyOLFx5pJUWeeVMs12a3pmcsu663prA5f7hYF477VSSdz+75//zr3Hzm5Ztf6aazfv3Lnmiqo6N4eMyOmzC/v2Pvzod247vOu+p85MLGY2DUIpBOOrV60ZX6O0Wrdu9c984AOvfNVNQRBcGAX6/NZHKdX98g0bN12xfsOue753ZmZ6dOVql9osS7UxorTVyjoXJqnEmVW+UK2sWjnUbLTm5+eu3Lo1DILuG/5SvkwAAADPHUGI5aK7h/3wIw9/6ctfcs4VwoLWOipEQRiYINDaaK+VkUYrGSs3B3qCLFPOWSsimffOO++9F2e9OOesyzLrrPPOZ4nrNOLWfCdpZN46pUWMcoGyRhLlG9bW47SVZnG3IZ2kmXVOGWOm5qaUD7ZtulFrZgG5nLqzyEiW/dWXvvu9g1MbxzfsvHbL9detWluUbg1akZPTZ/ftfXDfd797ZO/9p2Zml6xPjDbl4vqNV4wOjYi3r7zx+vf/9AdWr1kn50cm/5gxppTqFt3qNWtXjq+85zvfbmdudHx1p1736tw0uc4rpWyQZs5lJgwHh3t7qrUTpybGRoeHhoapQQAAsBwQhFguuvvH37v7e9+7564gMFobY4IgCEygldJaK2VUIQrqqQ5cY7zXWavSxLrM29R1rw/M0ixLXJLYtGOTdpY0s047S9qpTcWmVpwLCtpEgYQqFelo31G+bdN6nLatTRObZSrx3mXeOSWinWRnZk6sHNy0cmTt5X5t8ss5p7US7/7HV2//xsMT61eufeV1W264fsXqSCkRUZJ6OXF6ct/eh/Z9947Dux44PT+34E2mddRX3nL1llq5psT+5Nvf9pPvfk+lUhUvouRSldiF59mw4YpCYG771tdKIyv6e/rjpUVRWkSccs6qILM6y1LnStXKqvGhxYWlJE62bN0qTFkEAACWASaVwfJy9uxZl1kdFkQp751zzmbWebGZLZUK1qnF+YW9kwtXDpZWrjJxW5J2FkVGh0EYaaO1aK+UEi/inbdeKVFeTGi8c+LFa9EFZY1JkrSeJA2XthKbWmczb7048SJOGzFWvJFaqTy3sPCdXZ/fvGZ7T62PWUBefM6dm+Xlm3fu+tbep9aNrb/+uq3XXbtyVXjuAamTpyYmD+zd++iddz754N7p5lJdB6n1lf7q1u3bilqHUfTud7/r1a++Sc6fgn4BVtJprX/uFz/ywP33fuuue69//Vv74qG5uVmttXiTaYmNi5Kkfnbu1LGTa1aPjfRXps6cOjs7Ozg0fMlXBgAA4LliBxfLS7vddqJEKe+ciDhrszhN4ySzWZLZydPTJ48efWqi/fgZ32nGcSttLsZLi53GQntprrU032ksJM3FTrsex600jbO0ndk4y5LUi/hAWe87zsXax9o1s7TeTupxmmTn7jXgVHeQn4gR0d4YXakUD5/a/cD+fxIRrXV3nkm8aLoB/vC+g1+56+Dg4Krrrtt63bax8YJ07zaYiRw7fuqxB/fuv+vOo3t3TzWW6ipIRHpG+67euTMS3VOtfOhDH+zWoMglOzH4AyupnXNG6V/5P/5lf6hOn3hyYPX6SiHqLk+HOjVB4pVtdmYnp6dPT/aUC1nSmTg98UKsDAC8LDnnnHPZ03T/5nKvF/AyQRBieUmzzGaZiBORLMuSLOlOCZpZOzs9c+LYsXIhWrPxyjNZ/9TZ1DazTjPttNJWPWvV01aj3a534maatFObWO28UqJCHURBVApVJcwi3UzThWZ7KU5azrWtjTObOme990qJc0qJUqK6vxhGSsWSMsmdD35pYvqovGBFgR+qe4v54ycn/vabu1VUu3bHlp1Xj62v6u5I0UzkyadOHXjowQN33nH4gQemGs2GDjLn+4YHt197fZi5oYHeD334F6++epuIdN9OL7Rrdux89/veO3HkoIrC/pFx5a1oJUq5QCWiXZq2z86fOjFhvQ21O33qxIuwSkAeuPPsD3L/y+VeTTx/3YEYWuvgabp/w08WuCQYMoplRinnnLVeKae6d48InLW2MTW/uLhYKZVWrVk7NLqimcbH5+LesGONtplokyijwkAFgfahkYIJA6UCFUSh0soH2kVKG50527CuGcctm9avV2wAACAASURBVLUym1pnxTnvvXTnnBSttIjTWrwW7714VatWz8wfvn33P3zwHf9KKw6gvEiciBaJW82//+b983X/ihuv3nnNmg2952b3sV6OnZx4/KGHHr/7nsN79k612w1tEu/6R4eu2rFD0mR0bOBnf+6Da9ZcuPjzhf3BdXdKtNa3/uzPf+nzXz519MiVm7fMTp9pZR1lRZSxoU1Sa9rx7OmZZr1ZLJi56elOq1Usl1+I9emeXL/Yqr4QSwReNBcC4MKb+Tm9q89/+aX/VXimMuGX7/nrvnZn5+bOzp5tNJveS7VaHRsb7e2p8bIClwRBiOUlEKNEvBObWW+8BMZ2OkvzC3GS1XprI2Oj5UpJfFIqFE51hgeXJlb2ZVnivVI6UqnXIqKN8s5YJT7QUjJe+U6auUT7QGJv25ltOdtM0ti5zHnxXkQZrb1xWpRSzirxSrwX78U5FwZBuRLueeKbV6674car33C5X55ccO7cYNF/vH3XoeNz2699xQ3Xb7xy0HRzMBM5efrMgYf3HbzvvqMP7Z2q15tBkPisf3h4y9XbdJasXbvy1lvfPz6+6sVc5+5OydYt26694br7H9y/7dqdfYPDnckJCby2Ij7IsixN0qX5xdnp2aGh3sXmwlK9/gIFodbC6A+8/FhruyeFvu/vnbPTM2dnZ8/Onp2dn5+rL9Yz56vVck9PT39vX39/b19/f19vfxQF8rQss9aKiFLqUhUFZXLJXbh0/+DBQ3/zd5+58667pqYmG622Vqq3pzY2tvKW1978Sx/50JrVTPwG/LgIQiwvxVLBee+99d54LzbJFucW0iTtHezt6+tV3rdbbeddoVhMfOnxuR5tZodrRinltdJGO6MzpUS8t84lNgpTCUzsbKsdp0oy5VLnWpmLnbfd6wZFjOre9Fx75ZzSSnltnHFarEggzvpKodjsLH1799+uGFy7emyDiGd+yBdU90Ts7gf33773yLqNV11/3ZYtK4JIvIhyIpNTMwcfPXD4/vuffOShyfpS25jUu56h4c3btuks27BxzQd+5ueHhoblaTsTL6Y3/MSb7rz7/lZ9aWhsfHZq2vlMaStae6OVdUmjNTs9OzxYi9v1xbmzI6Ojl2Sh7nz/7X/swPHjJ4qlUjGKukc7jFZaG9HKO5+lWRx30jRbt27d1i2b5TK9RMBz0r3IW2ttzh0UkqmpqUf3PXbsyacmJydPT07Nzc/V6/V6vd5oNBqNVhzHmbOFQqFULFXK5UqlVKmUq9WeWq1ny6aNN9386mu3X12pVS88m+3OK/3j/SIsLiw+duDxzGWVUtlL9xJ46U5wZjObxB3rfZoko6Oj12zfrjVbkGd24dPpn2677eP/6Q8eefhRa20YhkEYiMjZuflTE6cfeuThXbt2/4eP/voNr7jhcq8v8NJGEGK56H7612q1IAiyzAaBTtPYZZn3rlyrGG1a7XaapmEQxklciNvaFM/EhTgNNo13hquFojdOvPGSOW+si1Mv4oy1Ekmmfex95n0qWept4n2mnHjvRZRXYkREAu0zrUPllPLKKyXeBJJa5ax3qS6VK6fPPvr1ez/1Cz/5b4tR+QWarxJy/m0wPzf35TseLPSv3Hn91VevKtbEdzN8dmH+wL4Dh3Y/cHzfQ2dm5+qiEutKw32br96us3T9ulUf+JkPDg0NdaP9RU6d7prf+Mob+/t6ZiYnNm/dGRWiTpwoE2hvnTaZtTpO5qYWOhsTSZL5hbOXatHeOjF6cWnhj//bn955591hITIi3osT7533zjnxWimtlAmizKZvfMPrf/uj/77WU7tUKwC8QLop2P1zJ4737N7zP7/+jTvuvOf4yRM2S71X1rrQmCAMdGACEyitiqVi9zahcdxpt1uTU5n3PsmypN02gen7i74rrrjiple/8ife8PrtO7b39fYareXHmIXYWmuMeWD3nn/zb/99p9VSRltnRUREizgRpUQpo4rFYpqm1+245nd/52MrVoxxLOYZdX8cj+0/8Jsf+93Dhw4PDg4Yo7VW1oqIV0oppbz3u/c8+Bsf++0//a9/vGb1KjbNwPNGEGJ5WbFiRaFQaDWbSnklptNuW+8K5aK3ztrYmSQLC5nN0jQxuuN9dDKOFn19xbAdqES1kimUAuN14EV7o72IE0nEaaWN8kYS5RJnRXkR0VqMdDtDvFfeq8CIaKUzbb1kqjvtqPJepaFXNqhVigdO3PaN+9a8+7W/bLTmPOELpLuT9PU798y2zatetW37+t6ByIlTVny92Tx04OCTD+49sX//qcnpJecSrcO+6sartukkXTE++IGf+/kLNXi51n98xfjatavOTp4Jd7yiUuvrJE2jtdFe6cDp1FvXmK+30472rrGwcOkW60Uk7iRnJibbzVaaxll27nIm772oc1P0aK3DMOl04pmpaef8pVs6cOl1d+67+/dPHX/qrrvu+dY/3bb3oYcWFpe0UkbrQrkaBKY7iNQ7/32/9MaY7jnAQqEgIsor29fjMpckyWMHDux/7MCnP/O5q7Zcecstr3nLm990zbZt3QU9r05TIjI7O3/69BmlJQwj7510e8Z7L6K10tp451ut1pnJ6TRNLsXL8/LX/Yn86Z9/8omDh/r7+pTW1jprux9c537YWuu+gb777t31P/7+c//m//k1ahB43ghCLC8bN2wcHBhYmF/wzr/7ne8ZXjH82c9/7tSJk729vZVKOdSRsjbrbrZNprT3Yqbng7pv9/alvXFYTYJyMSyG2kTOJKJDrQLRxqlAKSOiRbQXEaVERHslIqJEAi1OiXLilbJaaSdKiffKaGUDpazKUpGg6KR53/6/H+gZft3O94ooJ05zpdYl1S25fY8feuDA8fUbdlxz1YrxqmgvmfOtuH348OFDex48efDgxMTEYpZkOgjKxfWbN5W8XjHW9/Mf/NDoyJiIXN5QL9dq69atP3bP7iyOK7We2bnTXmkdiA6tz4xVadxsL9bbFa2aS/Opz0IVXLJzBUp78UEURlEUBD98fosgCOIkUeqHXIgFLB8XfikeuH/X1775rbvvuf/o0aNxGkdh1FOrGWO640hFxIl4a0XOT0x8EUopb30QmDCsaq269y3YvWfv7j17v/DFf3jfre/98P/+vw0PDWqtvfdPPy35LGklURSGURhF0fkpnbpnCMU5UcoHJtDeG6OUNs/rJcmX7hvg6JPHHnzkoUKxpIxxzomo70u+7iBSpf3d9947M/sLw0ODnHoFnh+CEMvL+g0bNl2x6cjhJ5REN77yxne9613Xbr/2b/7mb/Yf2F9vNLx3xgSFqKCNFi1aB1FUDCqqHfusHseZa6SukvhSwRQKKiwa41zgvInEKKWVjrTXopXySsQr0d1b1XvvtRgRZUSUMlp5L9p471SWKaOVMqKVzzJVKpY7neZ39/7VQG1g+8bX6XPbe7Y9l0Z3Q+59+k/3PKJLfTt2brpiNArFZtbHafLk8acOPfzo5NGjE8eOzdcbNgpsIVy9bm21WOnrK73v/T+9ernMK2CGV6yMkzRN02K5HOige3mSDozXyjmVpklcbxf7So36UtqJw9Il+xBWIuK9tc57e7ETgNZZm2XWuu55cmB50lovLC5+4pOf/PSnP3fmzFQYBVEU9ZZ6vXglKsuy7sOUUlrOHeF7Ns/pnBfJuv0YBGFPT2htduLEyT/+4z99YPeeX/2VX3rzG9/QPS35XLrCi4g24p13529zISLfN9OvUjZxTvwzhCvO6c4lc+jQ2bm5IDj3IfmDP+fuqNFiqXzi+PGZmZnhocEXeTWBlw2CEMtFd+trjH7ta2/5xje/GRaj/sFBEbnlllt27tz56L5HH92/74knDp2amFiqL1prQxOWSpWleLblFwpK2VTayloRKz71puBN5F1YUKGoSJvAu1C81cppMSJatBLRSpR4MaKedj8J70VEjNfOS2DEORVYSbTXxrlMh6bUbE1+7b7/qozZtv41IowdvWS6h37v37v/6OmFHa++Zcu6/qo4m7o4SU6dmThy4ODUkSMTR4/OzM8loUmNGRod6+8dqBTMrbf+1KbNWy736v+vSSlq1V4jzqZJWAhNoJVorSQwziqtvMucbbXSWi3sxE2bZFK6dCtglChxznopiNgfHD3lvRd/PrwZMopl7Pjxkx//T7/3P7/xzSyxPb0VrQM5f1+H7jj/5zc48Glf5b133ovWplbridPk7u/de+jxg7e+9z2/8pEPr1q9+rmfZfLdLcoPLOjcwsR78Va09i/KbVFf6rqv/tTkdKcVh9GP2lP13gfGTE5PLywuidDbwPNEEGIZ6e6q3vK6WzZv3nz8qeO1SkVEvPe1Wu3mm26++aab0zSdmZ6ZmZttt1qBCqulylPThz/5j//5xJkjNd2TZU6nEhultHglTiuvvWittFdaaacyJ4ETJaID0UqUFqVElFZKvDxtM+1EKa+VKCNGK2PEBD5Ilc18mgY9tZ6F1umv3P2H1sY7Nr5Jzl2hRRP+WLo/+k7SuWv3vp6+se1b1gxHIs62m+3ps7NPHjk2ffTJM8eOTU5NtZRKtS711oaHx0Ll3/LmN+249npZThNmmsgUojBJ2qIiZSLtrDI6VM5r8V7Epp12EseFinf2ku67dEdUiZw/qvHDdEfZee8Yt4bl5sKMILt27/n47/7+7t17w0JQ6S377rxIIvJ8O/CHUed/V7x4icIo6gkXl5p/+Vd/++i+ff/6X/3aTa9+lTyXT5Us9UrpH7F6TolzyjunuJ/ts1YoFHSgu9P2XPxRSkSMDsMgfNFWDHj5IQix7Az2D/7ku975hS98sVQuiUj3io7uMJ4wDFeOr1w5vvLCg7fIlrZr/OGnfjPJkmJQtJlkmVgrNpMs8yaUwHlrnXdGRMQr5URMd943UUq86i5AlHiltDZKGdFexIuzPrWue6WKMSoKA6+Ut8Y56ekpzNfnv37fHy20z7726p/WzDHzY+vuSO1//Injk40bb7lx7XAp8rbVbM3OnT1+8uSZo0/NHj9+5tREI86S0LgwHBlbFRp59Suuff0bXt99hstegxeuKXWZrdWq3jmrRJlAnIsCY5xopTMvTiROkjhOtTHmBdg1fDZn/px4xcT3WGa6HwKf/9KX/vAP/ujYUydL5bIJtHfeyws4deS5qV+cVyKlUiFz2b337f5/f/3/+63f+I3X3fKaZ/+p4rzrrqS/yOEYLec2EYotxbPQTfHVa1bXqpXF7qm/i1BKkiRevWrt4GC/CNth4HkiCLGMaK27m4Gfetd7hwaGe3t75Wk7+hcOEouIFu20884bbd56y0/teuSeO3d93ZpAS2gzm6YSam2tt1ZnmTKBcpnzgfJeuXMVKN57Z8UbXwh0uRCVKmFYMCZQWmmvRFmxzlrn08wnaZalEmgVBKGWILMus2pgsDI7V7/3sb+O48XXbvvZUpEZ/J+/84fh7f0P7q8ODG7fOt6jXdxszC+cPTM9PXnq5Pzpk1MTEwtLjSxQzuiRkdFiqbRmfOStb31bEBYv9+qfd/560mY7rlZKhcgknVRpowMdRGGQ+diLc2KMZImNk7RYKkeFS3pI24tS+mnD1i5+kML9qLOIwIuse8iv3W7/yZ994hOf/Kt6fbFWq4p4ceen63ymL382S7no86juvWu9OGdU0NvXe/Dg4f/wsY/XPv6x667f+Zy+D6X1xRZ0YfvlGdT4rG3ZvHFgcHB6eqZYLMoP3Bqk+3PXWjeb7Q0b1g0PD122FQVe+ghCLC/d/BseHn7H29/x9FEiPzh0R4sWLd77cqH0c+/6yOETj5+efDIMqs4G1vnEW+O179593nkr2nnVnYFftDjvlKhiQffUSpVKoVQOjPHdQ7fnZhsVURI4L8pr57x14jLllTjrM+utSJbq8WJ/vdHef+orS80zr9vxC8N93UlNOFX4PGgReerEqUNPnN7+2ptWDFR80lqYm5udWzh9+vT8mTOzk1PTM7OJd6k2xVpP39BQtRy++SfePDS64nKv+ffLrF1aWCpXaoVisd5qRIFWKoxMoLJUi3jxTuvM23a7XSpWwksbhM4ZpZQoL+rCDIffhwzEctP9bM+c+/0/+KNPfOpTzrmeWo+zzj9TCl7oQCVKaaUuXD7WvcfsP//aC7OSXuw5u1XonNNaVau1/QcO/PpHf+t3f+e3rtm+/Vl9G0pEvLowvejFHsJw0Wenu7kfGRl5+1vefOjxg0kcF4pFa+33xX9oTKPVKlcq73zH22vVqiyDoSLASxS/OVimCoXChbnFnn5u8Pt0t+7XXHndW171TqWCTuK88zbzNvNZal3qrXPOOrHOe+nO8eac996XS9HQQK23v1wqB0pJNxed9dY6b5VYsdY7p6x4URIYFUSijdeh06EPtUShCkPd31cbX1WZbu36xu4/OHTi3u4aMV3Hc9Xdgj/y2BOJV1esHS3YpL6wuLC4ODUzM3vmTH1mZub0mXa7nWrjgrBvcNCLu3HH9uuvf4X8yPfGZbG0uDS/tFjr7y8WSsa4IAoLUWiMCZQRUeKd88Z5n6RptadfKyOXcA+m+zyq+88Pf1m4TReWm+77//Of++LfffrvlahqpWqt/dHDRLvXEXS/1hjjxcdJ3O50Wq1WvdFYajQW6/XFpcV6vVFvNtvttrVWax0EgVKqO73LRSitlYgoJdVqbe+DD/3Gb/72kcNH5FmchOwOF7dK3EV/m8/9D+6V9yx1P9t/6SMffuc73lmvN1utllIqeBpjdKPVWlxY+Pmfef+t732PLL/NAfASwhlCvGRc7Pp+57zW6i2ve89de7517PRR64y22tlz5wbFaRFlvfLeKRV0jyEXw6inWo6iQJx450RrJeK8KC3aay9Kdechdd6du8BEixKjnfLinZJAlPdaxFpXLRcK48Hc/LHbH/uTs4snbrz6fYEOn3YfKjwrLksfe+Jo/0j/SE9fs7G0dHZmbm5h8vSZ1tzc/PTM/NxCIj5TUu6phVFpxVD/69/4BhMEz+N2YS+02bNnW3EyNDhaLpbKxahULpksKymVtjveW+/FizjxIlLr67/Ey1bfd30S+51Y7rqDAA8eOvTnn/xUo16v9fZYa+VHVtOFFNRKZdbW6w2lfK3WWyoVKpXK6PDwyMhoWAjb7dbiUn1xbn5yampmbi5JklKpUClWtO424Y8KTq21UlKr1e66+57/+Pt/8Hu/+zt9/X3PZoIZ86M/9N3FDtTgh9Bai/dDgwO/+dF/19NT+eJX/vH06UltVLFYVCKZzbIk6+3r+z9/9Vd/7df+70q5tAw3B8BLCEGIlwEvotaNX/Hq69507NST1rrQGWe9y3wWds8HOu9FvFbiurOORlGkxGRWvIjSokW0FqV89/oPrZRWWnslRrzzVjkrznkvSnuR8Pxd7FWotPHOigr12HDvQqP14InPTi2cev3OD/VXxy73a/KS0d3NmpyamJqe3nLNdYUomD87s7Q4Pz07Ozc9m9YXz87MtuPYaS1BEFV6C8Xwda957eo162WZHWvv7oscO37Kq3BgaEW5EvS2Ku1OLHEntFlmM59Z77w3OvM2isr9/Vzxglw7N1g0zf7szz/1xBOHy5Wye6aLBrshp7VO03SpXlcimzZufOMbX3fzTTeNDY/09NX6+vpKpbIxxlqbJkmr1ZyanN61Z8/d9923f//B0xOnVKCr5arWunva8CJLEe+9MaZaqXztG//0ylfe+Msf+fAzx8YzXx3oRDhO+FwoJSLjK1d8/Ld/6w1veP3Xv/bNEydOxGmmtIrCcNOmDe9429ve9IbXm8B4v7w2B8BLDkGIl4ALk81c7P96b5Uyr73hzd+++8vz9dkwDIwT55Xz/z973x1YR3Xlfc69U15/6lax3HuvFJtOCGBKQqihpEEgkJ5ssmx6YZPNbgq72WwS8gGhhxZ6tcFAjHuXbVmWLdvqXe/p6ZUp95zvj5EeAixZGNOc9/sDnkczd87cuXfu+d3TFCsA1pCRGZVCjUCAZBAuKUlSCCY1aBWRgplQIIIEgQIBJEoWzGCzctkVACz7iw9KBtZQSCACIiqIBgKm09i44uFX6k+f+4XJlfPep975aIKIPA4lUADAvv37rZRVWVbqJhO93R098d6Wlg4rlbB7472xXpKoEPVQUDfNyRPGLTlxyaBGPlxBI9W1db5IcaSoICJdUnkZx3L6ENPJhOO6jkvIQtfJdUKR/LzCAgAAIjia8nuD+bDubTnk8MHDm7l/e/iRZ5571tANT6EfSq3PRgAiYCwWZ1bz5845b9m5F1xw7oRx4w9xga75fWYkEi4tLZ07b861135u546ax5568tFHHm1pbQ8Gg7o+pP6DCMxARH6/P53uvv9vD33sjDPGjRszvF3xcA8LXhXFnOn+CGCa5gXnnXvBeeemM2k7YxOA3+/3mUb2hBwZzCGHd4kcIczho4HhlX5ikAhTxk2dMn7mqk0rSBGxIFcxSWIkIgLBAIiEoAFL5bByQWmefoFEoOksABSDlIKZXVJADJoUiIgACAZLJHDJ9RLPSAGM/bEoQgCRYKZgUJs0sbCuce+Tq//ztFnXLpx5JrwtMdo/OQi8enmDXihCrC+9evNOU8dI0IjHuuKxnvbOru6ubt1KdXfFUqm00FChiITD+aGoIfVYvNdjU14jDEBE8kNACw/UNzR2dJWNroxGIvk6CwG9iVTGdpw0u45LpAiFMHTXsYpGlYQi+QBwVNlgDjl8ZOB9GKt27Lzt9juSyXQoFBpmIyPrJgpM3d09Y8aNvf7aL5x37tmjR79RguiQ8WNeji8hhEAxe/b02bOnn37KyXffc9/zL65wHNvvH9LPEBG9SMVwOLxzV/XjTz71ja99+TBf8pF85hFypdOPAETklZ7y+/x+nz973HtHH6o9wRxy+IgiRwhzOBbgRU75fIFpE+ev3fIaKSIXSWN20NWZSIACUMAALoHjguGCUqwUCACFgBKEAygFaMwKWSAiO0zKFZpUgiUIEICIKCQqxYD9+5HeRjIOMEMg1nUxaXxBs9714vb/7extPX3RJYZufpBd82FCv5l3YPHuifUeqG/ZfaB5T11D1aZtk8eXu1Yqlujt7Opq6eh0rCRk0j3dcQZSIEATgVDQDAa3N/Q03P73aZPGz5xSOX1CZVlpEaKUQjAAf9C16Tds3cVapLRiTF5IFvmFoxxd1xSi4yg7lVZEICRrAllVlI8J+D40BTNyyOH9hfcpSGes3//xz3v37gsEAp5uP3xcHxHFe3tnz5390x9+/+ST+t0EBieYGeZ20L/7hyeftGTe/HmT//TnP992RzqdCQYD2VK3h7xQ0zQh5YMPPXzG6afNmT1zOCGHJXoDHhG5MMIjgRCCAPhQnD/HBnPI4aggRwhzOBYghFCkpJBTx8+IhPPSmTgpzQV0gXViz0JIQMSCXXYUuSYrBaSYBKICZCBdCEBB6DJIBpZIyEwuMaBgSQKAFAAxZ5WBLBsEAE0DZkEESoEAHDumKBhO7Dj4YN/rsbMWfyYSzFUpBBhYua1MZufeg1t21e3a19zSGSMwTOmyawUDgXg81tna0trWHo/FddvKpK10XxoQGVA3fKFgUIF0WG/qTh5cu2P5+qqivNCM8ZUnzpsyb8bEYCiEH5Bm4Gm3be2dVXsb8kvHhsOhogj6DSljcSmkBLYyace2lOtyyO8yBEPh8RMnfSCifrQwRM7AQ+vUHyq9cITZDt9PmUci0vsmj3ejJx5/6qUVL+uaLqX0TEBDnY+IRNQTjy2YP++XP//JwgULYGDeeTRvJLcDAAJA5nAw8N1vfcMw9N//7x/T6bRnJ3w708saCUOBQO3effc/9OCc2T/1JDl0Rw0vBQF7GaWGTVj6oXpNg/GOJiO8B0IK+ID9KT6EkzqHHI4icoQwh2ME3lo8unxMXqSgJ9EpdV05oAxQSijFRECErFhJYuXaGc1nukoJIQhQIhMIz59UsiACYBeEREAgIiBW/eWlGADYs0cOrOlZFYL7M9OAUkAMRQXhgC9df+DFJ1fFz158XXFByT9niUICEAO8ubcvsWZLzZotu/c39liEuunPLxpTOnaCih2sObgWNNHXG2tvaW3riVHGikpKJFK244CUxBDw+0yfP00AAFF/kAXaRLGE+8qWfa9XHZhUWXT6omknL5gVzgtDf06I98lamNUOV2/annDNaSUlhQExqjCSzlgMIInItpOxpG3bCgX4DEVWafn4yvGTBl+bQxZZrUsIMXTnHPq4V2vOSzry3kh3GBARe3mr3okARPTeaZHZONsR3mFw/783EvUP+0wm/fSzzyWTyWg0OpyqzQyIRNTXlzxl6ZIf/+gHc2fPOmIJvbRh3iD5xle/bGUyf7rtdsdxdF0/pAweJ/SKW6x86ZWaa2qnTpkyTPvDft9JCJBCMB/iRopIAOA7fU3v8UD/SE/GowVvUkv5Dh7k/Xk7OeRwdJEjhDkcM0AAKC4YVZJfWlu/ixmJgBUrxaRQKVbEigWSIJdt23UdqTQWKBBRSnRdYgRDgARBCIzELggJiECAXuibEACADCDY438Dd6Y3KQICgRCUAn8gMGmKe+DgmufWq3MWf6mksPifjRP2Ex5Ex3ZeWb915brqAy29UvcXl48tLikuLoiOKgiUlRfvWNO607Ucl1Kx7s6unt5kJggOA6ZSKSBXaDoB+sIBQ9PjlmAWjK6h6UFN54DOgCmbag527Wt8/R+ba5edPGfJoulSmojDJSI6ivCsCvUNjWt3HogWT4gGjLICfzAUTKUzrkNAyk5nkomE47isGyyEjvaU6TMKC0vea8E+ciAiRhgcC+o4TkN9Y1dPdzzeG4vFeuK9id5e27YNQ49Gw9FoXn5efn40WlxcVFZWqul69nUrpd5/TVQpJaXM/rOnp7ulraOjo7O9vaOroyOZTikFwaAvLxqNRqNlZWXTpk4JBgMwoDeqox0H62nkg0VSrtvW1tbY3NLSQ3XiNQAAIABJREFU2tba1tobTxiGUVpWOmHc2EkTx+fnvxGX+17I8xbs2Flds3ePYejePw9p5fMYBSOm0qm5c2b+7Mc/mjVrBrzrnRQc4IQ3felL++oOPPPs8x7hGcYd1O8PNre0bdi4eeqUKUMmOWNQADB00iZib61409+VUlKIbFf3Jfuamlra29vb2ts727sSfQkpZX5+3qhRo0pKisvLykaNGiVlPz1TStF7M86JiJGlkIOOcGNjY2dHR6w3EY/HemLxeKLXSltS16LhUF5eXn40Ly8/v6gwv6ys1OfzZ6X66Ib5vX0GtbS2tLV3trV1dnZ29HR3p6y0RBkOh6LhcH5BwdjKyslTJmf3g4iZPpoPnsM/J3KEMIdjBN5nN2AGK0dNkPAKkSKFrkOaya5i1c8MiQQQSTujLJtMnR0BQjAiggJbEKNrapoQ0M8BFTGiQAAkjxYygxAD1sGs4w96dsOBAwgCgBFIsZTa+HHhxqYNyzeJcxbfVJh/tEvPfbjhvZTt1bVPr9y862C75ouMnzi1orJ8dEVRRZGvOCiD0vUHjf2YthxlWZlYl90V70u7rl8HBZxJZhgAEaQUgVBISh1AhHx6KGCYhmYIAaxAuXkaFPqMuIO767v2P/Taxl37Lzpr8bjRo9+flRgRgdRzr25KU2hsUcGoqFZelI+gXEWZTIpSqWRPLJWIO0CuZiJyfl7+3PmLALyxlNMV+jFYZWxqbNpRtXPVmjXbq3a0tnfYtu3Yjm3btmXZpJAJEaWum7puGqZuGLqhl5eVLlo0//jFi2fNnFU6qsTT4d5pPicv4Ws8Fn/4kce6Yt2hYJAQXNcVgChRgECBCEhEGStTWTF62Tlnh8Oh7OXeTeO9vateX/3ss89X796dSKatdDqTyWRs23UVAOtS6rqmabrf56+orJg1Y/rxxy0++eSlRYWFXhzsUdwuyvZnT3f3y6/+Y8XLL+8/cLC3N5HsS6XTqUzGcl1XaMJnGOFQOD8vf1RpyeTJE49btHDhggVlZaVyEEHy+E9jU/Nzzy/vScQCPh9KoWwXBEghUQggBgFMEI8lJk+aeOGys03/kCGynmCvvbaqubnVZ5rDu1AiYjqV8fn8N11//VFhg9lmmTkcDl1/3bVbtm5raWkNBoNDRQESkWnqsZ7ktm1VV195xVBtMgIeLoUvE73lHXvDpi/R94/Va1a8/PKOqh3d3bGMbaVTGdtJuzYjomlqPr/f9PmC/mBZWcmSE09Ydv65UydOOrJxflgMnozt7R27duxavWbd5u1bm5tb0+mM6zq27di2ZbmuNxmFpvl0wzAM0zClrhUXFy2YP/uE40+YM3tW5ejRnk/vEQv5+uq1a9au9QX8umYodpVyBQhEFAIVMRG7ygGGU5cuXbBg/tsv90bL7pqap595AQX4fD7FSikSiFJIRAQEZHTIVa47f+7c0089uT/zz6BOaGxqfHH5yytWvNTQ1JRMZmwr401qJkJATZOarhu6HgmHx40fO3f27KVLlxx//GLTMADxn2sPOIePMnKEMIdjDaMrxkppKNcFTSNi5SjloOMIw2XlgpBMRJaLqZTrMzVdkCsQGFEKRYosQiJNE4iITOR5jSJ5+UkBiAGA+hPFsVd9AgRgNoyCvJ8ogBiQwGUQKEdXBJqa163cHv74oi9EgqF/Hjthd0/s2Vc3v7xxtwP+ygmzxo2vnFyRXzkqUBwWJihyiVwEh610ShE5jtPdZ6UyFiMBQsYl27GlEASgGzLo95MSiCpkiqjPCEeDkWjQ0IyMZSWTfelEn99yozrEMvja5vq65q6Lz1hw2vFzQcj3oa9fW7d1+4HusrEzCoI4YVQ0Gg33xGKpVCadSGR64rHOrpTtuEJjUwpwpkyZPHXaTABgJsQcIexXZxExncm8/PIrL7388tbtVc1NrfFEr1LK0HUhPYuI0E1DB0AUAEzEjkuWk4REwrbtun3716xZf1f0/rGjR8+bN++888497ZSlg8nMyGQhAFFdU/Pr//7vWCwWDARcVw00wuQqAMVCaij60umJE8bPmD5t9qyZSpGUAgBa29qeeer5Z557btuOqng8IYQ0fYZAoWnSNAzTeKOYge046UymtaN908ZN99734Ny5s6+4/OILz1sWzcs7un1bt2//sy8sf+Kpp7Zv355IpHw+nz/g03VdIJqmYZoGAbCirp6elvb2Hbt2Ll+x8nbj7mnTJl191ZWXXnJRKBgCeCPmbeu27bf+9+97ero1Q/e+hYBIrqvY80qVuq71xGKLFi48YdGCyrGVh+x576BtWevWrXcdRwsGh6IK/eZB5nSq79yzP3HO2WfBUWKDg9tftHD+Beef/+fbbnNd5aWYPmQkoZSSEWr31vbGeyPRyKHaI+8yGpoTMjECeqMli/aOzqeffvrZ51/cvHV7rCemadIwTE2TUkpT8/sMBASlVDKZSSZTrXZr9e7qVavX/O3hR884/bSLLzx/0eJFR5ENZsMymejVVa8vf3H5pi1b6xua471xx7Y1Tdd0TQghAKWuBXXdm4xM7BA5qVQimbQta//+Axs3brn/b4+OLi+bM3v22eee9fEzzzB0A46Iuz7w4MN333tvfl6+66oBex2RYmJCBCmlruvJVDJ1U9/cuXPf0rfZ0bLipZd+9etf+30+KSVz/5qgPMchICEkACRT6fPPW7Z44cJQKJi9cOfOnY89/vTylSv37d2XSVu6qeua4bmP+n0+AEAEYmCijGUl+voONDS88so/br/zntNOO+nTV1xy5mmn53KM5/BRQY4Q5nDswPuIl5VW+oxgOtNLPlAuKJcdAoOU46LuCqkjIDsWWRmVSjtBFIIEmiwBEYVLboYcjTQdWQiBAIwEjEICMLkCBCMJYAQBgORZeQj4DYrHgAwAbv86gQBKMaA2qjTQ3rJy3a7wafM+q+vvkzfjB4Lskr9lZ+3fV2zc39pbVDxm8uQJ0yaWTioLFYaEKUg5LjOTq5KplJNKd/V2CpCOnU709jmujQgKwFYOuUogMLBpaAHDsIEEZSRqAFo0VDBxTFk0L4+E3pOyOjt7u1raEt1tAT0dMmVnt3X742sbW7svPudEvz/4nj0pIMLBhsZnXt/hL6goLjAnjPKXluQzQ8ZyYoleq6enp629pyfmMrimISRGfMYJS08N5JIMAcAg7RMA/rF6ze133vX662uSfUkhUNf1YDDgmeTewuiJSAiQUmSVP5/PBwBKKcd2q2v2bK/a+dSzz5515hk3XPf5WbNmeQ5+MIKIHu/PiVRSOcrUDBRSav3anKYhGLo3zRHRVMpxHWIFAJ4Yz7+44n9+/39bt28nIp9hFORFUUohgAjeyD1FlA0SM3TdZ5oMYFnWxk1bduzc9eRTz3z1K1865aST4V3YfLIflraWtrvuve+JZ54+cKCeGPz+QCQSFVIIFNnAMCaSQqAQmq552i0z27ZTvXvvLb/4j1f/serLN96weOECjxEBQDqTsmzLMAxN19/YZ9ENAGYARJRSmobp2Laj7KEk9JratGXrnro6n+/Q2VyyQMRkMjl+/LhrP/85z+R4FD+bXm16KeVln/rkyytf2bdvXyAQGMpcycxSiIMNDXUHD8ybM2eIJnEYC6EQAhCIlPes/WbSVat/89tb12/YKATqulFQkK9pGuJANk0GAgIGTdM0DQDA7/d7foyNDY3/7y93PP3Us1dcfslXbrohGo2+q74YGDmeVFu3V93x17tfeumVnliPEEKT0u/3BQOBoSYjSmEMPLfPNAGASLku7avbv7t6zzPPvXDKqSd98fOfXbrkRERkppE4R2R5dSaTESgNw5BSwaABwMAIyMyGYSRT6ey+zCGR6EtLFqZuKMCsi4+maf0/EQDAdhzbyXh7dF6auj/+6fa77rm3oaFRSGGaZiAQQMQ3T2oCElL0Z7sxdV0xE5FtW08+9dzrq9ece+7ZX/vyjePGjoWjupeRQw7vBXKEMIdjDaMKKyKhSCIdY2JiIMXKZiWBdFYOkwlCsFKUSSnDpwxJ0sdssyEQERQBMSIqllID9jIQIIJSxIRCgssggZgAJCAIRhQDtkHvdIA3HEoZCFj0F6UgvbiE2tuXV+0vWzDlnGNzYSDyMrsr13765Y3Pr97pYHDm7AUzpo6dOiYyNl83JShF5LpEkM5k6hvq99c1dPfF9tXs8QfMdMruTWTYVSiRmMlR6GXxQdA13TT1jOWmemMhgzNIPd2mU16c59OD4fDYUQWJ0WX1FZUH61s7Gw+KnlYD7B7bfPofu3uT6U+fvzQ/r+CoP6unxaZSycdeXJtwA+MLCyryxaTKYlM3bdvuTafine2x1raO1va0ZTlSoGFKVNOnT58//zjIKQeDeqC+vuH2v/71ySefa2tt0009FApmHcyIvIoCb9XRieDtuQ2llFJKwzSIqC/R9+BDj27atPXTV1xy9ZWfzs9/B5Y3Tei6IV0ldSnpUO9ICGEYOg5oxkx87wN/+93//KGxsTEYDBq6DsyKCImJBiTP0oxBmUsYQAjh8/l8Pp/jOq+tWn3gQP23v/X1Ky67ZLhUlsPCu2TXjl2//M9fv/zqq4AQ8Ad1XVdKMTMpRW/ptzdEBABAIQzT8PlM13VfeGHF7uqaKy6/5AufvSbi8Q0CANZ0XdO0QxInKaVmGFJoyIcmeETkeTmu3bCxq7PTMDwby5DmQaUUMF962aXHH7/4nXbFSODdetr0qYsXL6yurvH5CAZZRN8iuc/na21rr62tnTdnzpFNXiZSBKz623/kkcd/87v/3ndgfzAQME3TI+pKqTeL2H/3wceEEKFQiALUE+/+wx//3NDQ+MPv/WvF6IojEGlwmwDQ2dl19733PfzI3w/WN0iph4JHOBkRhWFIwzQgyOl0+tlnnt+2dfsln/rE5z5zTUVFOWK/e/ZIgAi6rnteAoc8gZnhcKF6UtekIYWmDUPXpdQYWKAAgK7Ozlv/8Kd7770/Y1nhUEhIwcxeItw3XsVAsans0xMAA0gp/X6/aZp9qfT99z1Ut2//D79/88IF84cMPc0hhw8HcoQwh2MNZcVlRYVljW37STEIVAqVy45izWFNJ92V0kQFxJZyLZXRXE0KiaAcBAEugwByATVmVwAKAASBntcQMBMzAiMyuAzIhFL0Z5d5k1YFTABIQEJ5CzoCEQtpRgtTdd2PF3VUjime+UH1z3sIIQCgp6v7oeXrVm9riBaXz581fdaU0mnl/nwDWClyGRGTSbu+4eCevXv31dZ0tDS3tXf3xrsjBXmpvj7LsZmJGJXDQA4zMqBg8Gm6oWtO0upoaUErU1rGnQ7V+mRe0B/w+w2fUerXC8L+oqLo3qLi1v0N3a17Md7dg+arWw6mMta1F52RX1iQtdO8ewys6/zoi//YUZ8YPW7KqDwxa3xZfijMzGnXam9u6alvam9q7In3ZJhd09Q0EfbjyaecUVwyCnL55wZ6YPOmLT++5ZZ1Gzb5DDMUDnrb78QMA3r5CA1lnrrm/UbEYDDo86uDDQ3/9evf7di+6/s/vHnMCNRlzyih6/3mfxrU5mAgouu6miZ8Pj8A3Pr7/73ttjt6k3150ahH5OCNPB/DCY+e/ygAAOiaHo1EGpua/v2X/xUwzQs/ccERj5CNmzb/8Cc/37J1m9/vN3QdiBzHGRB82DaZPX6oABAxHA7VNzb+8le/rW9o/tEPbs6LRlxSTIwCeYieEUJ4PngoDv3g3juNx+Nr1q5TSkkUxENWm0DEVCo1cdKE8889B96DSLl+gZkRcfGChQ8++JDjuH6/7xCEEBERTdNs6+zYubP60ouP8HaIQkgwAj4AuPOv9/zmd//THY/l50UB0OOBhy6h8eYD2c5HxGAg5DjuE0893d3V9dOf/mj6tKlHKBkAANTVHfjRT3+2YuUrmpChQAClBCZvx+AdTUYYVBwSAfx+v880u7q6/u+Pf9m6terHP/n+rOnTRz66uf+JaSjjrRACmFX/puyhJdSFZI+6DZHOFhGJlGH4TJ/Z2dnx/R/97NlnXxQSI+EwAHhUcCRTEge9nYDPp3R9zdp1P/7Jv//6V7dMmz4t5z6aw4cZOUKYw7ED73MdCoTLi0dvR00xIWtExISKUTEyIylmQqG5dgJsm4XmSCFMRsHIAhQRoHAZmMjLlYAASiMJgAiKAZC9uoXAXokJJuxXoPqDarJlmRiJuH+jnAGBXQel8AmztablocLIV4Jm8QfVUUcdWfee/Qfq73t+/Z6G3jETJs+dO33epKIx+dJE5SoGBJtUa3N7VdX2ml1Vrc0tHR2dXbGenngyEJA+21V2ynWJAYHYlYwuIAILEFIaAnRduuT0tLepZBwBCosL6ve5goGJxo0fp4WlX5MT882Qf1RNIKwFo7B/F3W36NLcXN1uaK9de/EZwXDkaOmUnmbw/CtrXtvcmF8yviTfmDWhsLK0AEAQU2tbV3NdfWtDY1tDcyqdcXQNfQHB1ty5C0845fR3f/djBlu3Vt38ox9t3bI9Eo5ITRJzv6vcO39Jg6/oz2qIIhQMWJb9xNNPo4Sf/fTHJcVFIwrf9fb5BxTHt8iStZbkFxQy8V/uvOuPf7k9nUoFAwFvxwhGHrM64IGXNT6EQqGOjvZb//DHyVMmTZ8+feTDNWt5WPnqqz+/5T+qq3d7Zg0aiPQbUSuDPAI95TscCvX19T38yKPjxlZ+7Ss3Bn1+IZAG9PK394z3/8MU2gPYXbOnqmqHlNpQReyy0YOK6PhFi6ZPnwLvDSHMNrto4YLRFeWbtm4P+oOkFKBX03TACIwoBEqAdCxevbsmlUoHAv5hYgWHAgKYmqEc55mnn//trb/v7ukOhUJE/Wa3Eb+lAamYmVlKEQoFVqx8Le388E//e2tFefmRddSBA/Xf++GPX37llWAgZJqGIjriyfhWIYkA0e/3O46z8rV/iJ/94paf/2TypImHaSJrQ2T23oY6pCzsGVyF7I/mHxoMQAKB3r4vmKWvpSUl9Q1Nt/7P75959gVd1zxL+OGG85sxIGI2t2o4HN64eePv/+9Pv/7VL/yBQM5ImMOHFjlCmMOxhP7vbHnJGIFCuUqXkgBcYs1F5aIiUAREoBkiqVQmpTQJKXCBQBGxQGalSWKQRIguSo0FCFDM0vvMM0oAFl7sgmRgycCAAt7ID0gAA1oneUUqCABAIQCxYtA1M2Hv2NHwwLxxXzC1YyHBDA+scFt27r7vuY2xPpg5Z96CBZPnjAmOMpGZHAVCYE9P7+6de7Zv29y2v7a5o6OhuS3Wl0Sk/KKiUCjsWGlLEXm8WrDtgsbKo9PIoAnUhZAoXCfVE08q5bru2KLS0r21+xzLclx74uQpoUhUIBb6xYxxQWmOYcOHddXQVg8+ffXOpqBv1dWfPNP0me/yYbPL+Wvrtjz1yq5AtKK0ODBjbGT6uHKJkol6En0Ha/e17tvXuq8u1tubEgJ8AUPj4kj47GWffC+cVz+i2Lpl23dv/v62XTvz8/L7C34eofL5VvTPVWYANk0DEZ545jldM3784+8VFRYeVl1mgYedkYjg08wVL738wMOPZFLpYDCYtfAcscDej1AotHNX9V333PfLf79l5I6j/WPy9TX/evOPDtbX50UigPAu9HnIxg2GQqG+vr4//eX/nX7aKXn5BYZhJlOp/oC2IS8esjCd5y+6ecvmeLzXi1ocRgDLskzdWLRwofc+3iM12mt23LjKr375S1u2VOm692islJc4VXm9KBFcpTKZzElLlxqGAYdmg8MxB2ZGgUUlRes3bPnfP/6xu6crGOwPb343w4aZhdAKCvPXrll/5x33/OAH//qOWvOmw4GD9d+9+eZXV62ORqJeaOURSzWUkMSs63o0En511es//tHPf/HLn40bO2Yk3JUUCYHcH3pxCAiA/nxvw8nxRg7wQ4KZNU1zLfeee+9/7rkXDEPXdf2d2kXfdMOBq4QQps//7AsvnnHaKRdf/KkcG8zhQ4scIczhGERlaaXUdKVcJmDF5NUDIlKuIAKlEDVJIpNK2r6ADyxHClbAgMwCyON3LoNgJgQEoQExS2QG0JRwJSMCMjAyKgAUqAA8XcDb7RYD/yFgCQTgneDtKBMJTejN8VVGQ3Du2M8IoX+kOSEDeHvpr67d/MjKnRb55i+ctXjBhGllZkQQucQIKGRDY/OWjevrdlU1H2w52Nza2NmuEAsKS8pHVwQiJd0djT3xbgQDpIYMCOR4eSRRACAxSAG6IE0IBmbXIaDurjZp6lBQvHd/fSqdTmesmXNm+8P5oDjfD9NGBwBKJQODdDvqfSBf3nygMG/tJ885+Z1v678BGlAf12+uemT5Vg4Vl43KmzY6tGDqaL+uM6m04rr9B+praltq97W3tSeBXcPnC/ml23fSKWcdt2Qp/NNHD3qP39nZdct//nrL9u15eXmE/X5cQ8WSeT+GsEcNqa55lIaZDMNggIcfe6xkVPH3/+27h08tw2J4FVAppRtGW0fbA397uLmlxTCMwQr0Ie0JIzb0sZTS0PWnn3vxwgvOX3LiCSO50OvSrs6u3/72Nwfq9+dF871IuBHc9dDGD++6LCcMBkNtbW2//NV/zZw5wzDNtGUdplAEDBFBOICa2r0IoGnaMPXohRCWbVdWjl6wcB6897NGCHH5ZZdecvElUgrh5Y1kgDd3EDMTKdMcalPpMOIxsz8Q6I7F777n/n21dabpy/bz0DbVEQ0cIpJC+Pzm/Q8+uGDhnGXnnnv4awYuFEJkMtZ//vbWla+9HgmFsxmYhp+MbzlhqOODD3pmcE3TAoHA8ldWFv3u97+85SfBQfk8h4LHyYb5q/Ccd4aFBDlMI57MpmlurdrWE++1LFvX9cH98C4ntd/n6+rqeeChR086eemoklH/5EtADh9a5AhhDscUvE9tZcWESCjaFWtnBCYgxS6BA0JnVIpJsSZBMzgdd21LgYm2zYgKABmZSUpdaRIFo60YhauzAOEVE0bS2IsLJASJDCi8rKJvWi4UAIALgNzv9cIDBYs9bzRiAKaDnS8GzLyp5Rd/hNmg5z7nOI+vWP38prqgr2ThghmL54+ZlC9NJlIsNOmQ2rVz15Y1a5r31jbUt1Q3NCXsTFl5xbiJUwKhYCqZaG/Y097a7JBrmKB7ITQMigmZkImIERWC0DWpG7qUsrm1ntkN+sqS3e1+wx/KK6pvbredjQA0Y/a8UDQPQSv048zRAaBRCkCxwu7mOOnPr64eU1qwYN7sI35ebw3fsqP6vuc2pkV4fEnBlNH+xTMqI4EgABDKppbG2q1bG3fuaGw4GHccW9ONYEAoa/KEiRdefLkmtY9ogeajCO/x733g/vXr10fCEU8BRTiEUS67Pf+GkWGAP2TTIfKw0YZZNdRnGo7t3P/Ag6efdupJS088nIQ4jInQu4uuaT2xbsdxs5K8VWBEBAIQPIA3NzDUrYGZ/MFge3vbnXfdM2fOnFDwMD5m2b/e8de712/cGg5FEZFpyMC8waICAHp5XL2TmWGgGPfgMxEhGolu2LBp67Yq27a9EurDtI9SDmUkBABijvXEs5RxqHaIyMpYM6fPmDh+wjAPchQxqDg8DBECCe9GZfK8gqurdzMRC5bYX0LQ+yt6Sa0ZB0qao7cndrh9j4GNDyK/z9fR2fWHP94+b9688rKykbAO74S/P/HEiuUrQv6gpmtDscFsQCAOtJlNfoNvngKHnYy6pgUCvsefevLkk5dcevFF7/57yMxy6MHuLVIovcrCQ25AeKc1tzTbtqvrevabM3hSo5dW9G2Tevi55vH9cCS4bv36Rx578ss3fPGffAnI4UOLHCHM4RhEWVF5YUFxR6xNKfZKAjIAEysih4ROIBQahojbdiKhRQQCo0AUkghAEFskSRdSoBAEhEiAEjXNWxEFISMAogAJyMrLKIODwhc4aydk4S2bDCBQEIAaWJCQpcNWTfNjhswfP+qMD6KT3i2IWSCS5f7tuX+8XHUwP3/0/IXTTphdMS4kBDMRCymSGWvdpo27N6ztPli/s7a+rq3DlxdcvGBpWXl5Mhlr27+7rm53Jtk3unJ8rC+dTqc0zSBBzIisBAF5mqpi13ElghQ0eszEBXPn7a7Z1dTYVFhc6A/4/aGoLxjp7Olbt2Grz++bMWuOroc1xlEBoUb7M1aRY09xmTDeGU+Kx1/ZUlE+alRJyTtNMJONZ9m2q+beZ9b1kX9cRcGEUv/xM8eV5OURMQps7YnVbNnSWLWjse5Ad7IvjYCBgG6KfJ+86OJLKivHwVHywvrowsvyv2171aOPPQXMQgryZsuhesXTwIjItqxMJkPAmpRSaszsuo7juJqm+f1+wzC81CCHvGO/Gqo4GA51dHY+9vgTJxx/nKbJ4dTlkb0iItQ0/S338tztvLLdTASAmq4bpq5JzfMiJxo+Fg6ZWTD7ff4VL7365FNPX3nFZSNRHzds2vzQo4/pmqZpOIzZDd7MWhFRKde2HMd2iEjTNU3Xdd3UdaEUZSMbAUBKyQDpdHowAT4kXC+SGoc02diW3deXHD7cCxGVUrohlp543DC1BI46hu86D0emzeOAx6NyXUQUKHAge6fXw0opx3Fc1yFFDGD6fIamofSYTj8zHN4YLhDD0ci27VVPP/P89dd9/rA5Lb3J2Nzc8sADD6VSab/fP4yHZP9kZLYtK5NOM7OQQtMMYHaVYzuOQOH3+30+3+EnI5HfF+jq7Hz88SfO/tiZQxR1HAx+I3P324ZNv7Be/rfhIQCGClp9wxKIuq4PPujBdV3HcSzLQSQAYRiGYehCCC+JzGE9S4lI1/R0Kn3//Q+detJJs2a+g/DgHHJ435AjhDkcg4hECkoLRu/asw10AAImAGJwCRSyAkUMCjVDFyLd22P5fRIYhRC6gYjMhApcVig1qWmIgpAZSSAjelWkhBCSvUx7wEIgsABU2aoT/UDleR0xeWkjkL181SRQACOgJCNt9+72HfTcAAAgAElEQVQ8eL/PiJblL/xgeupIwcACMZ3M3Pf0a+trW0vKJy+aO3XJrKJSn5doh0BiZyy+bvW6um1bW/fv37q3riPVN37KxJnzFpKjmg7UNO3fk4h1l5aVn/npqxcsWnzHX+9as259MJwnGJlYMbvMQggWAkg5luu6bthvmH7zxptuLC4ddfdf73pl5Yq6uj0K5NgpC3yhgq7e3qrtO4vzC0ePGy/9fsFUFtISFaFM2rbtCYqU0JINbanlqzZc9YmzUWojzwmR1as2bt913zNre2z/+LKSCWXh4+eMqyjO8+h+VzK9a9PWPZs3Haytbe1qTzGQz4xE/Iab+thZF5xyxlnv6ev4SCAbQvbIY0/U7asLBAIAcEjboAdmtizLsp2iwoITTjh+xswZ5WVlIb+fARJ9iebm5pqavTuqd3V2dBqGYRjGYdRl5kAgsHz5y1dfVTV/3rwRaGPDcYM3+8v1GwGYONGXIEWBgL+osCiaF3Ecp7ujK5m2iDLMbiAQ0HXjsCkqmNnn83V0dD3698fOOvP04uLioTR777jjOLf95c7GhqZwxMtQMuTDeZqrRxXS6YzrOozoM83S8nJ/0J9KJnt6YoneuKtc0+fVnUMGBvaK74A0jBEk2GAgMIb+c1+qL5FIDDP5PF3ZcZxoOH/+vLnw3vuLZvHe3sXrQykHH0BE27bT6bTUNF3XCwuKotFoKpXs7O5KZzIOKQ2F3+/vL6c+bGwBERlS9lnpV1559fJLL4lGhyt2mp2MTz7z7NZtVX7TP0jGQ4CZbdvOWFZeJDp/3rzZs2eOrqgIh0KAkE6nW1pa9uyp3bGrurm5Vdc10zQP58jN4Uhk9eq1a9atO/vjh/k2Hj6i1wvYH/4sz7b3zie169p9yZQUWigUKCosDIZCyWRfd2dXKpVRyhUCgsHQMBwYBj1yIBDYs6fm8aeemjVzOh5pXZkccnjvkCOEORyD0KQoL6lkIle5jBpq7DIzoKNQOKRpiAC6oQUjentzJpnQAhEAQmQpJLpAklEXxNjvEooaSQQClMisCQSFIJhJSEBUQKI/OtAFGFBzvDyFIAi8vJMCQA1sPntZvJGQWENfb7JlZ909vml5+cGJH5VgQm+vOtmbvvuplZv2t48ePX3x/MnHzygo8ug3ohCyqb1tzevrGrdtadp3cM2eGjCNE5YsrZw4Nd7VUbdrS0vTgWg4fPHlV52z7MKp06YAwIbNm1a9vtqxLdMwENjj1yRQMGrMtmMnEsmS0opEMrlm7Zpv/8t3fn7LLZs2fvKO229/fc3rGQdnzDs+nFfa0tW7q7Y2FM3TNN2nm6bGlQVarDyaStlWujKJDVEUm3c2zJlSO2fW9JEvxf3Fmqtq/vrE63HHP76yZHx5YPHcMeNLiwCAARIZp6aqumbDugNVO5taWvqUUv5AsDAfncSc2bMvuuTTuvFuk9kcA/B0pvqGxpdWvIyIUsq3llwbgGeoSaVSeXmRyy/51EUXXTRzxvRIOPSWyZHoS27ZtOWOu+9Z+eprtm0Pwwm9u5s+3/4DB1548SWPEA6tkOHw2UHe0iwiArBtO8Q0Y9q0s8464+STllaUV/j9flLU3dPd0ty2s2bXihUvb9q8NZ22Q6HAMJ7DWcNRKBSs3l2zt66uuHjIdMTe8z77/IvLly83DW3g2uFE9bhWbzxRVFiwZOnHTj9tyexZs4uLiwxdtxw71hOv2l71/IsvrV6zprunJxIK67qugIZ3zc1ioP7OkDIAQCqZTCaTw/Nx7+1Eo9GikmIYZCE6ZsADaVRTqZSU4rjjFp15xhnHLV5QUVbu9/msTKaltbV2/4EtW7avXbt2T+0+w9R9fh8OEJW3o591AJimWb27ZueuXUtOPH54AQAg0Zd89tnnHccOBgPDTEZETGXSftO86OPnXXrppfPnzsnPj75FjlQqvbt695333PvcC8styxqGE3ptmqZZX1//7PMvnnnmGZoc1mI/6CkPd8Lw4BE2MjCpKZ3O+H2+004+6eyzP75wwfyiwkLdMBzHbm/vaGxs3rR18/IXX9pXt980faZpHHZSG4YhNLlxw4buWHdBLrtYDh8+5AhhDscUsnWlxlZM0jSf47gokRQol11i4ZLDkAbCoK4RBsIGYqq7KyUlKhMQQdcR+9PBSQ1IELJA5fE3RBAMyiuDCwIQkKSnOgoGF4QY4HMM0ksxCgCetyGAGvg3er8BJIAQYKDZ2V2zs/a+hdO/6jfzP/yc0OveZG/6tr8/X9UcnzBu3nFzJ5wwPRLRgBlQAAPsb2ha/dqq9h1V++rqNu6pKa4oP27pGcFItGl/9d6dm9Lp1PyFiy+79KrjlyzJ6gyzp88wDSPVl/QVGqSYiV0kDZGkIEbHsuPdiZKx+piK8meeefbss86aNXfewkWLpkydet89f73/wUd2VG2df/wpRiD/QEPr6LKmQDCsRzVJMqLD2GJfvDeaTmVsJ2UYia5W67V126ZMGucVkRsh1myquvfp9XHbN35MyeTK0Amzxk0qLwEAYuhzuXZ3TdXq1/Zu29rY1JBwHEc3/flRnTMVo0qu/Nz1xaPK3osX8RHFjh07G5oa9cPZmjKZzISJE779za9feP4yOYSaFQ4FTzn1pHkL5t5x5123/eWOeCIRDATgUPUJPIVMSolSrN+wwXZsQx9GgHfABj0rTyqdiQRC13zmyquvunx0xejB55SVjZo5Y/rHPnbapy+99NHHnrjzr3c1NDZl00sOA9M04rF4c1MzDGG5yurQf//7E33JZGFh4TAej1k2mEqlGHjZsnM+e82VS5cu8ZlvMuaNLq+YNXPGZZddunrtujvvvOvZF17UHS0YCKiRp1v0dseGDsLr9Qjh4TpZKRWNhgL+AAAcLknNRwzZ8ZlKpfML8q+/9vNXXHFJSdGbaP/oMZWLj1t85eWX7q6p/dNtf3nssSfSyWQgEEDE4ZcIn9/f0tq6ceOGJScePwzF8gSo3VNbs3evMexkRMRMxhpVUvyVr3z505de4h8iUXMg4F+wcP7M2TMXL1p463//obWtNTioqP1bGvRuZ5rmps1be7q6i0uKD2d5PqxVfeSz9nAtDQicSCSnTp5845euW7bs3HAoNPic0RUVC+bPu/CCZVdceuldd9/76GOPp9Npv98Ph/r4DIYutZbmtu6OHCHM4cOInME6h2MNnlY0rnJ8fqhAkWICIlKO69qu6yjXUXaaLJsVgSaNQJ6RSKZ7Y2nbctJp27Vdx3EcW7m2Uo5yLOVajmu5ynFd1wWH0GXhMCuF7CIBuAyswCVmABcEAStg6l+ykQAJEABdkARIIAjYBVAMxEQIpCSgBL2xde3u/Y8Su1nXlg8nvNUunXBu//vyqpbeqeMWnzh/6okzBtgggktQW9e4asVLLVs2Ve/avW5X9fhpM04+95OaJvbv3rRnx3qha1dc/fl/+8HPT1i6xPPJ8d7XzFmzS4oLM5kUInr2VaVQASuBCKgs6u1JZJKZ6ZMmpB33qaee8iI1w+Hwl2766r9++5vS6d1dtUlovgyJhqam3t6Y5boKSTCU+LFiVDC/IBQI5gkjXFhSXFPftqNm30geFgCY3BdWrr398dcTypw4ZtTkMdET54ybNHoUMiqGlFJ7a2q2rVq1b+vWxoaDMcu2NNMsLvAJN+KTV1/7xRmzZsPIYpOObWRd1Gr37lOukm/OQvEW2LZdUVnxo+/ffNGF50shaACDW+s/whwJh7/+1Zs+c82nEdGyrGG0MUQ0dKOlpSWZSA4r7EjpByJKxEwmAwA33fTFm7/7LY8NMrMaBE9TLSkpvvGG6/7jF7dMnTIlM5Cocyg92Kto6Chqb+/MPvIhz6zdW1e1c6enfMOwySERsa+vT9e1m2744u9v/c2ZZ5zmsUEiepO0zFKKk5ee+Pvf/eaG678ghEjbdjbHxgh7ZphvWG9PPG1ZgHLIM7wGmCPhiK5LGC7H5EcPWa/dvmRfOBT6zre+/rWv3OixwcHDJvu6p02d/O8/+8m3v/WNwvyiTNpm4OG9RoXQLNvZsHFzb28chh42Hlfcs3evlU5ni4gMMRmdaH70X7759S9cc5XfZw4zGZnZNIzPXH3ljV+61h8IZDKZ4S32Pp+vo72tJ9bzDrvwvYUXCdzbmygvL//Jj793+WWXemxQKRr8dryZMH3a1F/c8pNvff1rkUjYcg4zTYhICJlMpTq6ut+/58khhxEjRwhzOOaAAABlRRWlo8rJdZmAEcklxwJlAwMTg510bct1CfwBAzWOxdOpXiuZyPT1OVZGOWmybeXaDrkOO4qVIpfJYlLEipUCcAGI2XP+VB7TUwzMxIIYgVExKgbF4P0ABlJCESiFzAJAMCIzKkYiTUhgrtn/1N6DLwDAh3ZW9sf2pNVdT764rbV72viTT1ww6YQZZlgCMSAqB2BXXfPqFc83bdu8bXfN9vq6OSecsPj0c9KxjrrdG/fu3F4yqvyb3/r+56+7obioAKA/ZYWnmhQWFS1etEA5DhF5mRTY62aUSghASvUlE/HevLzwhAnTVr76j1WrXoOBpfe8Cz/5ra99mdLd9Qf36Wa4Pd7X2dVlZzJKMTP6BJfmyaKiSDgaFUbQHy6QZmj9pu2ZdAqGVpi8h7Ut64GnXr3vxc0kwxMri6eNy1s6b+Kk8lFITEwZxXtr9m99dWX1uvUH99X1pO205tPy84KCTHCvuPpzp556FgAQ5GJF+sHAVVU7mNnTQcXboGmaEAIRPnvVlR//2JkAoJTK/jXbTvYI9Sc+ETdcd+1JS04Yyu3NAxGZphGLJxqbmmE4e9c7sDWkMhnHcW647nM33HCdlxLGG9VyEHhAXQaAM04/9cs3XR8Jhe0BlvV2eMeFQGZqaW0fSr/0OmTN2rXd3V3ZmmlDQQhhWbZhmN/42lf+9Tv/Eo2GPVE9M+ObpB04HgwHf/rDH3zz618WgLbreCk0Rt4zQwnc0xOzLfvwE4I5Eo0Y2jDRiB89ZNlgOp2WQn7pi9d99pqrAMDjGIOHjRi0DxIMBr72lRuvv+5zhk93HXeoxgeGE5mmsWdPXUND81BnZj9527dX2ZbjTbpDTkZN01zXvuSiT1x5+WVwuMnopQICgM9ec/Wyc87K8sZDjkxmNk0zlUrXNzTBCI3P7wOIGDEe7y0sKvjB97572qmnwsDbkVIMfjvZSS2EvPFLX7z4ok+yIq9/hmleaDKVTre3t8FAKO/79Fw55DAC5NSUHI41eDHoJYXFY8snMHgWPCBm5bqOYlIIgEpRJq0sR2lShqOmlXET8bSVdpMpO512Xct2HNexybMTkqsUKXZcspXrKmRCxUAARMiEQAiEROgSEjGQxiSBBJCW/S+ThiRQaUgSSUOWSIjEAKgYmU1pkpXcWXN/W8fWgef4cC0VnnMcuXT/MyvWH+yYMvakE+dVLphqBFEAgEC2QW6vbd2y/NHmndu3V9fuqz+4+JQzFpx2Vld9Td3ODW1trXPmz//2d7536mmnDnx0MLt2esvix874WNjvc21H13RmFkCK2ZXCAkFATjLd1d4tiKdMn0bSd99997e0NHmxRgDw8XOXffbTl3c27o3H+xww2rq60+k0KUXECFRoQkl+IC8SMM0ga/7CorLagy11Bw7CoCzqbwEidnf33P7w8mdW1/iDBePKC6eMK1o6f/LEsiJmZoSUgn21+za98nL1+o31+/Z09CVSUvryo1EfSid13kUXn/eJS7ymRO4zO4BUX3Jv3b5kMpnJZKxMxrIylmVZluVYViaTsayM41gtLW3jJ4w/f9m54CWUl8OZkrJDKL+g4JSTTpKa9IpYDMWODNN0LbuhoQGG8MMEgJHTHtd1Hdu+5qqrv/mNr3s1RbIbHG8R0lOXvbH6iQvPP/XUky3L8TjAEOoyCCFIUWNTU8ayh5Fh46bNlmVnGz9UU4yIijmTSV126aduuP46KUVW1KGkzebJ+OpXvvypT15gpdJKucMVzHsLhu7Czq4e13EOu0WiFBcV5uvmR4oQHq5vcCAPLTB85uorr//iF2BgkB/2RXz2s9ecvGRpOp0Z3rYMAAG/vyvW097VOaQcA0Nlb92+3kTcztipVMqyMt50HDwZ29raCwsKPnHBBTDgdD38A3obCoZhfOy0MwIB/zCRgd6uEDPXHzwIHwJ21N+riJlUXygc+rfvfueiT1wIAAQwzNvxMq8CwGeuuXLixImpVGqgtUPfRRMilUo1NLW8dw+SQw5HjJymksOxBu/bjUKbOmmm6Q8qYmIFhESslGu7pBQpxbatbItcwEDQ9Ie1vj4rnXactJNJOVbGVZbrZBzXYddhZSnKKNdVymV2FbnETKBIkhKkpFJSKaFIEqEiTRGTEkoJVoKVUN5vQkVCASrWWCETen9iFqSEUqDINP2JRNOWHXf0pVpg6BXlAwEReb4wDzy98pXq5injjz9x4dh502RoYE/aBty+p7X6xQcbdtZs2bG/sbVpybILZxx/Sv22dXW7t8V6+04+6ZR/+e6/zZw1VA1AAoDFx58wdeqkvngiGAwbhkGEgEgCbCktRmXb8faueE+8KC9v2uy51fsa/3zbX2LxeHapvvSKy05fclz9/hpHyZ54orsvYRMxKWJhIhTnYUFeMOD3IRrhvEKHjS1V1ZAtBTCAbLfX1O6/9e5nXt3eVJBfUlEanTm19PTFk8eU5DMRMyQctbt674blK3atXlVfu7sjncwYPl9BQTigg9V35rLzP33153SZi9B+K4ihdFRpYUFhNBoN50VCoUg4HA6Fg8FoOBwJ5+XlmaY/HA6ed87ZY8ZUwsjsBv0aNsDkyZPCgZCjXBw6gE0g2q7T3t7RL88R6aBZjTyTySw79+ybv/vNYCAwfOxQVlRmNnTjqisvKykpymSGc3AFAClFY3NTOp2Gt30QPMkP1jfs2FGdZaHDFAzojcWmTpnyxWs/bxrGSESFbOClEDd+6fqp06Yl+pLv2HH0UOjs6lSkxNCFCqHfd1HlRfJ07ZiaRJ53biaTOfecj3/nW98IBP0jeRfeiwiFgpdcfFEweBhXTG/rzslkUokUHC5vaklJSVFRUSQvnOdNxugbkzGSlxcIBA1TP+tjZ86ePQNG/N69kTlh0oT8vALXPbQ9Mys/Mbe2dYyk2fcB3q6KlMZNN1x/9ZWXewcPryIzA8DkSZMuvuhCIYTrul5FyUOd2p8TuKmp6WjKnUMORwnH1Nc2hxw8eBuTkyqn5oWjHd3twpEoWWoAipXDNijDkOSCclkzUNNlMN9MJ+zeWErk+0FxhhEFICMCsA6IqCOwCy6QEAJRSERiBOiPb8H+XDJufxJ9FgggvFgPBAQQrLwzCACJJTAjMAIBg0DBAACSOaj72tu2VO287/gFXxPSGMjP8AGDBrSKF15dt7Jq/+Rxi06YN37uJBkGQQwCwQGxs7Z19/P379+zZ0tNS2f7waWfumLczPnVr79YX1slfIHzz/vk5VdcFs0vHOoWnqLsDwSWLVu2bcevpZShaKQr0wGMjEAaWiT8rpPujbe1t4/LL6ocU5noS7y2an0wfMeNN3wxFAx5NbWuvvrK+v+6ta2lJT80JtYVyxSP8umaYAbGqAl5eWYk5EvbNkphhvKrdtfFY93RgeB+IhqoDg0vvb7hiRWbO5NQXlxUXBCYObXipHkTCkIhV7mIImG5e6prN7/y0p5NGxrq9nValqX7/Xl54YCkVOzk08+86prP+30jYgj/PPCGUDgU+uH3b+7q6tR00yuBjv1pd0FKBJCOkwH+/+y9d5xdV3Xov9bap942VTPqvdmyJFtywxUbbLAxNtjgggEDAdL4Je8RCPUl1BdI8ggk/PgFkpeEEsBg4wKuuMvdVu+9a6Tpt99zzt5r/f44M2Mha+4dzUiybN/vxx9rPjPn7Hb2PmetvdZeC844Y8Eoqpg0aXxjc2N2dwHsYa+Jd/QrQVC1pNqCLyKWy2XP9z54y01NTY0wYp+3eFYsPXvpkrPO/P0jj8phv3z1xUSq81BXoZBvbmo8wuYWS+fr1q7btXunZQ/b4QHP50g7jv3BW26aPWvmyJs6dOXsWTM/fOstX/n6/46iyLbtEWnRww9hqVRkUyNJACICouW8rsyDMIJMeESFQqGlpfXmG9/XeCzTJr7siiveduFFF/z+4cfiXx5l2iAKACFWxPQX+qs0I/7hL//8z95//fW24xx1MbKOQh3NmzvHUhbU0i2PoK2tdVx7a8fBaqawuPHVDeAnhyFX3mw2u+SsxbfcdAMM5mmseW+8IaWUeutll/7y9l/v3bdfWdbRFgAyi2WR1rqj4+Dx70OdOmOmrhDWecMybdLM9pb2Q10HxGKOgC1bLATDBiECFFscg8IISjmOlWiye/aXMEctjYgBBRihEAggkGZFqAlQIiQQQmAkhSIaBRAojqgnAAPpJlBpAAIBVDCQkiLOgESgUAAJhVkkDlrKSAhIJDoyNqFvqZ3bHmzNnDZn3rtOBW0QBhvx0soN9z67aeLE+ectnbNwrttACAKEoAHW7dq/8eF7dm3d9dLabfls5yW3fHTy7Dkrf/+bjj1bM+Pa3n3Ne6+//n22Y4sIisAwUkUcdOSdV1/9m7t+09XVMXPOaeViuZDPAQgTBaTKmt1K0HfoYFNbe6Z98ux588REDz38ZBiaT37iI+NaWgGgffyEa6++8he/eTg3oT1XKJbKQUMiJQoAIIHYmrYPZBJWPmDWDS3tu9du27J9xzlLm+MN+IEDTv39dz7wzGMvbbW89OT2xrbWxNJFM5fOm5ry3VAbAsoVKhs3bl755BObX35+/4F9fZVyYHtec3ODi1zqf8vFl3z043/S3NIKp86pmFMKhAWnn3b8S0UEgOaW1taWlh07dlW/mFlq2TpGZD0rlcrnnXHGosWL4NgT5fmOe/rppz362BPMrIZxlhMRy1a5XLanp2fqlClHtCmubuOmzb392ZbGxip1KaX6+/vPO++ca6979yiaGgu7115z9Z133bVi1Wp7eOVzhDi2NyL7JEAURWOs62Qz/LSKp5xSKgiCc5YuXrr0LDj2Z+HY1mUXXfT0M89orS3LevW0GRpW1qa/e1AhHH5fcc6c2XPmzB55A0YEIgA0ZDLtbW3GmOrbK7Ep+Dg3YFQQkYkiY8y5554zfvx4OPYX+NTJU6ZNm75j9x7vaG8QxNiUiITY1d1dKhUTidqhhuvUOZmcEhJnnTrHl/gr29Y6YerEOcIoLMysjRgjBsAwc6SNNpoBEInIIuX5jpdRuWwlWwhZm7DMQVmHYRQEJtDaRCKGRYOJjERaNLMW5giMAdbAGpjBMGgWMGRAGW0ZDZEmDZbWNmvFbIvYArZmxWwLKNFKwGZWYixhGxmFbcsFU1y3/r87O9e/1qMIMOiotnvv/jseX+kmJ5y75PQFc5ItaiCBBgNsPrB/yyMP7Vi3Yfn6TYV87/k3fXTirPkrHr5n385N7ZMnf/TDH7/pppsHtEHE4bRBGPz6NjW3vue6a7O93Yg4Zdo0z3MBAQkMWUVlBVqH/fnOffujUqmpoXHO3LlTpk999Knnvv6t76xety4u58ILL5g2ZXxfb3+hEhbyeY3IAgKiANI+JVOu77mIqrGpFchet2kHDPrUAfDTL63+5r/e8dALW71U46RxmWkTGy86Z/45p033XS/UjAjdheLK1WtfePiB9S8+v2f//u5yUHYSiZamBh9MKXv+xZd+7JOfGjeu/cQ/ltcxPAJqXXxkmfHkSafSiWSypn2PCKGqv2JNBnMYwoUXXdDSPMrw8e1tbWQpqWpts5Sl2WRzuSN+Hx8+BICOg522UsqyhovbAQNuinLeOWe3t7WNop1xRa3jWi+86CIdGWPMcOce//C2Yf/S0tKk1FGUmVeTy+UMDxtD5VSkqgYR+xMqonPPPTedTsMx2tziEZs9e5Zne9WDJ8UOF33ZfpZ4J7LaUI95Pb6qdkQA8DwvnU4jYs2ZckyDcOIQkVCb5pbmiy688FjvjddIJpVsam4iqHHew3bscqlcLJZG3dQ6dU4Qp8RSrFPnBLFw9pm25URRBII61DrUbNgYjLREIRvDEMdjd5Xj2umMZyWwt7eYL4TCrAMTlFmXdVg2lcCIBiUc56IwkeFQa22MNhwY1iKa2WjUGiMN2kBkwBglQqIVs2JWAIq1MqyMVppRa9SMWiujMdKkjSXsgFiGk45X7Nu6ZvmPy+U8ABy3/ErHjggjQiGXv/3B58o6sXTJwkXzm9rtgUYxwM7OQxseeWr7qpXLN27MZXMX3vjRKVNnr3zo13t3bJgxa+5tt/3x2668EoaPhn84Q0EFrrv+/afNnbN5w9q28ZPbxk8kJAQFFoSWKrBIpZTtOtS5dzdHQVNz25x5s+bOn7tu3ZYvf+0f/+9PftHZ3et5/hVvvdDocqVcKZZLYWgAgYVEJGlBOuH4vqMIbcdvbMjs3XegFIQAsG7zjn/4919/92cP7e6stLU0T25NzZk1/pK3nL54zhTXUtoYEOnoza544eWXH/rdphdf3Ld/X38Qho6famnJuMTl7KVvv/ITf/KX4+spB2tx1HiGR4QuHAq7X/WqV4hn1/bt27s6O2t6eQlU2ZcYuqQGzGxZ1pxZM4c6VfOWoSvjrrW2tniOWzM0KCEOdxArDKNsts+yhvLRH9XplIIgaGzInHXWWcfa1KHrY/Xj/HPOaWxqrBIc9Q8YvlstLU22bdXUB5Gop78/rLz2/oTHDaIwDNPp9MwZM2G0QcOmTpniuE6VY4QCgoDMUiqVjK5dSc3FOJQZaJiLjywwbtieffs7Duwf3GuryqnhSYGIWkeZdGbmjOlw7MZbAECi1pYmjIMADd8pIsUguqpKX6fOa0LdZbTOG5P4hb5g3lmNydaD3fs8z2PNIQLZZFlKg4CGMDIsNgESke1ZXuhmGk1/VOrsKxJCJmFrjCIhFBMIVdAhlwwDijgWWxBHKzVACCpDv+UAACAASURBVNqQgoGD5DpOOgGgBAEUAaIgEAmDQQAGZAZQ8QlDBkOgBECMCJEwIURISdfr3Lds6/rfLDr7tsHMhCd772boi/jbx1/c1RUtOWfJWYsmTPYx7iYidPbn1j/94q4Vy1ev21gqhRe8+4bWtvGrHrv7wL5tc+fPv/W2T5573nlQK1Hv4cQb26lU+hOf+ORn//qvd27fMnv+GZVy5VDnQUGLSBeBrErY0JftdvY5iWT7jDmNDe2O5SQ9Z9OmHf/2Hz977Mlnb/nALdMntrQ1pYuVoBgElaCS9FMEDKhcgrSvXM9VVlmhNDe19Ozbet+jz3Qc6n1+zbZiAE2Nmea039qUnDtn+pkLpk9syaBoDaSZDnT2rF+xfONTj+9Yv+FgX3/ORMbxG8Y1+agxKF159XUf+NAfNTU1QVVRoM5w8GBWhqOqc+VKJZ8vFAuFQr6QKxVKhVKhUCgU8sViuVgqVeKIpZVo69Ytu3bvtatlnB9i9C6j8XxmZsd1mxoytSo6egkA0Nba4vleEFRGcMeR7YlLqJRLhWIRayX0q1Qq8+bNPXPRQD7MURtk5s2bO2P6tDXr1vuju3+w9ubmZsu2K2ENTY9QFfL5SEejru41oOq0IgBjTHNzc3NLMwAAc82diVczrq01k8lUj0oiEB9/H6XTOnMcOPPoMUXDIMwW86VcKV/MFYqlYqGYz+cLhUKxWCpXKqVSqRJUgjDavWv32rUbqqe8jzl1Xpcikkol0ulj9+QcfIytLeOUUjyYc7UKp06v69QZoq4Q1nkjM3vm/PmzF+w7tJOZCVFHHAaMgArRMOuS0Um2bAQGpZSXsI32dCT9vbFOmExi7IulmanAIpFlKdBG2SSOT0bQMCgSJlJKFAIIEAAqMEAsYhErRYgoyLHrDAEhIKIhRgAAAmRgAdYgqFFi4U7QshhLW9fe3jp+4cTJS16Tz0csOD7/8tpn1++dPu/MMxdNnZ0Z8LRDgGwlXLFi1Y7ly9dtXN+dL1z4rvc0Tpyy7rlHD+zZOnf+/I9+9JOLlpwNAMA8XF6HoxKLMJdcdvlNN974Hz/5Sdv4SacvWmKWP9vb2y+kjI25iO1SSfV0H7Idy/VaJ07z/Yapk1RDOr111/6Nmzf/zVe/OXvWnAnjG6clkpVSWAlCEQQCFrARUi55nrKUhaCbWpr3bCr+/O5HNPkJLzG51Uun/PET2k9bMGfBjPGNCVuY0bJKJd69d8+6l17YsuzJnVs2HyqWSkgqlWxqbHAxUia65n033/iB23zfiztw3B/EGxs+LBdlTKVcOXioc8u2LWvWrt+6dUdn56FcPh+EoYmiIIp0qJl1EGnWWhtjDBvDsTMyItm2HYtiVWRhQsQa2yu1RFhEZvYTiUxjI4xWy0o3ZHzP668lLtPw7SmVyvl8MU7aWQUWmDVt+qRJE4+1hUPEgzlp4vg5s2bFaSRHcM+wf2lsbHJdOwgqAFTFTqYU5nP5cjnIjEbpfo2otfrFcCqZyIyhS57vTZo4fsuWzcM3YTCA57EX/urFGIVRZ2fX1h3b1qxdv3nz1oMHD+Zyucphi9EYHerIRMYwax0ZI4hChCNcjIh46ihHzJzJNCYSiWO9kYDil0BjY4NjW3HW+uF3QlGNzWW9Tp0TRF0hrPPGJP6qOZZ1wdmXPvni78MocmyHNUekLQtRoQKJQlMuaeVgHBGUbPKTttbMRrJ95YO9xXGcaEhaoQArEdZsOOFaluGyKAKyFSoUBGJbkAc/bcIiJMBkwJCwBaTQIhSIMzcAAlrMyCAABKAAWCACBM1xli8EQMC0n+jv37tl5U9bW2c7XiY2y5200Ystkt09Pfc/uybdNnXJmXPntlrOYCO0wOoNW3Y999z2dWsPdvae/dbLM1Omb1nxbNfuzdOnz/jgbR8f0AahtnPeq4m/o5/440+uXr36qd/ff+V7bjlt0dJ1q5f39/aRUhrc/jCgfAGtQweUYsTW8ROTyZRtKSfhphsbN2zc9NTTy+bNnjl52qwgDHUUCRsgFQtKSUdsR9kWcUSJlOf5xP16QlsmaVuNTa2TZ047bf6UGeMyGZtAhIEO9Ra3bdqyacXzW595fu+uXb0mqiBZCa+puQF1xSG84daPvueGG227/iI9ZhgAB2P5iMCePXs2bt6yevXqlatWb9++s+PgwUKuYMBYyrJs21LKsqw4d6VSCECI5DgKBqZYXEhtRUUAgEXGvJLYsOe4nueNugRL2Uqp6kYcBqgiTpcqQb6Qr2kGUgStbcMG+B0JQ2u4vb0NBrMgjDqIbiaT9hOJbDZXXWdBxHy+UAnKo6jiNaT6iDCI43mJxOitnoTU0tKCOOB4PNxTQEQ8FpXw8MUIAPsPdGzZsnX12jUrV6zasnXbgQMd2Vxes7EIbcdVStmKABXFPs0Yq3+WbVsjX4xjTF5yIkDERNJ3HHfUJSjbBlCI1c7ZMoicWlml6tQZoC7H1HnDwmyI1EXnXDZz0rwtu9ZZaYtFUBtjFAIxoWiulCKlyHbQUkBElmN5SWYWFsn1VQ72lFC8hqQFbEQIGGwO0aWQWRhthaQw5SAAAikkIQBBMMIKAQAZMWRGC5Wl7IFs2UYjAMNApluNACAIKCYwIkbi7ykaEKSM7x/a8eTWtb9dcM6tJ3kbNbZL3P/EC/2R+5aFZ5w+MZFRr6ikm/bs3fLCix3r1u/YvWv+2Re0zjlj+8aVPbs3tbW23vzhP1p69rljqTr+lKYzjZ/73Oc+87nPPPXoA5e98/rZp5+5df3KfC4vCAHYPWEk2ZwAdmgRiSZMmGRbTsY1MyY2pRKLU0mv2N9fLuW11oaFAeOWi4Cj0HHQsi2jyfWccRm/LwgbE+n2SZOnzZk2c3LzxLTlEYtQYGDfwUNb16zZ+uLzu9asOdBxoB/EuJ6fSqaSPlTyzc2N77vlQ1dd8x48FrfYOjEiQoiAmM/n7v3d/Y8+9viWLdsPHDhQrlQQybKUUlbLuJaBU0qIAjB8eIpXQlvUPqqKCIQ1TYC12w9iWWMMh8EItU5YMQDKcO7ihUK+VCzhMNaGwYgyAIiNY7Sy0YABJJ1KKjXwc42oMMOPcCaZTCVSIjXUFSIqFAr9vf3Tpk4bVaNPPgwC8cmw4eaFCFtEtlU7mUEVXNcdSpNQ9SmMdHYOLcYoCu974KGHHn5k88Yte/fvKxRLiKgUEamWlubjvxiJAOg1PCR/BCJiW2osyhoKE4qpXsDg8Iy6ljp1ThB1hbDOGxgEgMkTprzjsmu2/OemKIwUkdEQVgzYYpEyFpiKLiMZT7ke2ZYQkeNZYgxrVxgKueBQX0mM35SyUEuoIjQEgGgzASApUlwyKLYCm0kBCwTMviLXQiIgFGSMDIDWaCs3VhMFCmWtQGcSNiKwAAqgoAHWDEQMhhBAmBO2E2B5y4qft006a9zE00/aqMXqzdoNm1Zt65w5d+kZs1vbfYBB8+Ch/vz6VWu71q1bv2P7uBlzxy9csn/v1p7ta33ffu8tt1588SUAMMZDjygCiKcvXPT5v/78F7/8pWVP3HfJ5e+au2DJzk2r+rP9Gp0yYFdQ0f3ZjOb9rEGkra1NCXogbRkvufiM3Tt3Z3t7DE9HFWuDEheqCGybCBkRlYWuSynHmzBnzry50ya1OC0uWgQRqK5sYc/OPduWv7Rz5cq923d05/qLlmLXyzQmfRtM2D9t6sxbb/vY+RdcBHVtcDQMjNjv7n/gZz//5QsvvJjNFVzH9RNeOp2Oj5K+cmlsCakhNh7fJzAiiXAE4TKqwTwSmbDaRcVCuVwuVWlEHA9GETU0N42ukUeQbsiosSkzAOAnk+l0skb3RSzb7u3r37Bxy+IzF9OgRjrGqk80EmedrXYJxhFfxlILDk33o2qDx3iMeej19eSyp37ys18sW/ZMT0+v7Ti+56XTKSQ63NT1WizGkwoCjunZCABWc4QGABo4LlKnzilHXSGs84ZlSIy49u03PPHswyvXv5RKZFBEBxqYwGICKyAGiuLk8uQR2mAphQmHWYQcQCwWyh25CovT4lsiEsbJ9LQCAbQABCuaJWLLVWyjZigGGhyyPUtAQCESKYPaCBoBiyxCw6IrpmjYEmnwLQRiAMUSGREBMIBgmIEEBLExkdzfuXXDCz++8JqvWrZ3EqLLxCMWBeVHn1/vZMYvXDRzRgspAGEggqLmTVt2dK1bv2n9GpVpmnX+pT3ZQ5071oGuvOP6D1xx9bthQMIYWyMHJb9L3nr5Zz/9V//77//PEw/fc8Fbr5yxcMmBrev7e3vKpEKgnqjCpWKqu/PQJpQgaGgaR4hsQguwvbUx4FCHgVIuIAAIAygAC8C2WCkRMLalHJKGJE6b2jQ5YycVacGufKXj4N7dGzbtWb18/+YNhw519gdR6NhWKtXakLAljCqlpUvP++BHPjlrzpy4ka9j8ec1A7t7ev7pu/9y511353I5z/PHtbbGIW2Z5dUh9WuqXjKYWfDkPotaRq5atw+4kI+WSIeRMTW7jKTSydSoazkc3/NrxrCpieu6mUwDoAyrVSCyiKVUfzb7/Msv3XLL+8dY4wgZSSYMqBamleKAW9Xe0UhcpeMj4xVV+miPXoZ8ekdQVKwNFkulf/3hv/34p//d2dnteW5r67ihxShjWIzwunw3ju3Z4NA/w84lZpC6ebDOKUldIazzRib+eE8cP/nGaz+8dfumICgnEgkQ1hEQgIXMiIYosoyyOIpsQLIsQFJu0hFBFCAlxVxwKK+1kXEJi0QCEGADQOiwq1ALaGISBlDGQFjRxMoFsi1ABiRGQsWimURzSCwGSMRGyhWMCSXj256DiNxZDINAmpIOWaiFgYEQbMSM6+7d8PDumRfOWnztYBiGE6gTxjFglq/ZuLOrdNYF582ZlEwBAAMSCMDeg937Nm3cvnp1Lqqcfv7lIXLX9vWlvkNvv/qa97z/A1atEAKj4Lrr3yfK/va3vv3ofXedfdHlE+ec4e3fkevtzVcqpRL1BuUgKHNPlyCUwyiRSpGYIAoiLcKRNlqUx4aAhCDOfiGK49xYxiVJ2OTZ2rMh1CbbW+zv6+3cvv3Apk0dmzd1H9jfVyoViSSZSGSSTRk/KuWB8J3veu+NN9/aOm40Kd3qxOzfu//LX/n67x99lIhSqTQiMhsAEMGjTp+RCLfx7k9Na+3IVLiRT+AxTHVEQEGsbV7GYWpxHMsmFUqNcJ0oR9GxR4cYIyJHN0wdWeuwf1GETU0NIK9kNThiBGK1SilFgGtWrzl0qKu9fdyY2j0yjosFUlV9OyMAAcooU04MIMagIhh+MiMAs1DtcC2CiLlc/itf++add99rtM5k4syBRmSsixFGoGCPbT/lxDGWRQ048J8COPqiO6nBAOrUORbqCmGdNzix/nTN29+7YvVLd973U6MNWkRgIhRBEAVgCAMJyQbUiBYiKYWOpSCJzAKISKpcCLrLJtLSlrQSLJEFwAia2FFIwgBiMIqYAAxIITS2SMohQQVKRCHZSICajYL49CDaCEZBqayDwDQlbNfCvpze112e0uRObPYdQo6/yQxpx+/r7dz0zM/aJp2Vbp1yQr8mg+bB4OmVWzJNk06fPbHNAxj8hvWWo507d+/bsOFgZ8e0BYvdpqY9O9f37t911tlLb/rgx5LHHpytJrGw+J7rrmtsyHzr7779yD23LzznvPb2icpyUpVSuRLkstlKpdIVVIK+njJrL522bKV1pCNxbRANTDbaBMgIgBhLOQLAFmriyHXtSlf24J69fXrvoZ3benfu7Nmzs7+np7eUL5JlXN9OuA2ZhOdiOd/f0tx60wc++PYrr3Ycu/5RHwXx09y1e/fnv/C/nlz2dDKVspQysY5xNNnzcNHziMRoCMB/KJgy1zxSBTDSp1Zb5EVEGUXEpCMqISKk6k2qcsQqlUi5vlcoVwm7IgBgDOfzhVE383DyhaIYg7bNRCNSC4dhyuRJxujqZxGZOZFK7t27f/mKFVdf9Y5jClY8OjZt2bpx48aB2rVmkVjAV0opRBYyHJUrwRmnnXbWWYtOdGNqgVB1MteYVYOLsbun9ytf/fqdd93rJ3zfS458MQ79X4SHItwcTu08k4MXnjqv0jguXM2hq4YAEhJXsxDWI4zWOWWpK4R13uAQgIg4lvOJWz+1bcemletfSKczoAiMGDSIFIFGUGSxIdTESIiAoNC2lJ90kSIQJBDAqL+kw5yM96nBU2ADsjEaLIVkQaCBNVuKbAsRpCBMgr7FIGiJGAClWAQCLb4tFqEIEKClINDckw0tCy1AYNx+sGw0T2r0HJsAgBhcwYST6tz58tbldyx5x/88oZ/P+Bu/dtPm3T3l8y6dP6NVxVEUkcAAHOzs7diydc+ObcnGxqZZZxzq3t+1e1P7hLb3feC2ca0nZAt/SC5561sva2lt/ftvfXvZM0+2T546deaclOs3uV4mnSoXS4VSqVgJo3zRZ3AsJYhRFCZsRcoRX4ECAIqlO5b4GIwWCEgHXsIuHOp84e67KF/I9XQXyrlCJSyzsOvayWRDykv7NkeVqBSesWDh+z7wwbOXngv1Q4OjIpb+gzD8u29/59Enn2xIZ9RgxvPhpE8EHDqxFkVRqVTSWg86pMX/xGoCibBlW5ZlgaDj2GN+OiMJKhPHUhxTHTTCQ4TDXJVIJZOpZHd373A1xEqygPT3Z0ffUAAYfDPksvlIa59IuNY5qKONzMCZRqUWLlqUSCSjKHLdKhEdxXfcXCH/4svLr77qHXjCXCPimblv376//eo3nn/2eSBUipBU7ADKIBJbngFs2z54sOuWm9//vX/6h6O1nAFqBJWJOQ4vj1qnEHlk5/y++88/uOOuuxN+wrHtmosRaSAjRRRFQRActhjjV2JcLIkw2ZZtWQRgWXYtu+spFFQG4pU/pkWNBMgAcdbJo14jQ/+rU+cUo64Q1nnjE3/kpk2e/qcf+Z9f/oe/6uo5mEomBQmNKAQmYOIwMEAKB9JHkA1ABJZFnmejICoUREVUKes9JW5nafEUWchsokiUQqWIbQEBBUoRGgMl0WiUbYlRiAaJFAAUQl2pYEvKtogMixLyCSI2UQguwpQG52A+3NcT6FDGpR1HIQFEBghtYrPjpTsmz724bcbZtbo7JoT1My+vb2qfNH/OhEZ7MIAAQU8h6th/8MCuXaVyefzchdlSsWv3Jhv09Td9aNGis2BsOa9HwsIzFn7vn7/3b//2o5/99KcvLdvbNmlKc1NzJpNOJ9Kun6gEQRDpyHDERpEdRcYBtryk8pQICw5ItAaB2YgxEBXRCizbKXQf2r27R0Qi5sixMOG7rpdIer5vgQ7Lhf621nGXv+2KK991bVtbe9ySujY4CuLxf/CBhx57/PGU51uWNawAGp9TQgSEQqFQLJdNFCUSfmNDU7ohnUgkfM/zXM9P+knfTyV9z0u6vtfS3JTNZu+7/8EDBzpc1z3RnlkIwMcU1/9VHINIOMyliUQilUjG3ravBnHgNC8z92f7R9HCIYaWdn8+C0PGojGsgjMXLZx/2txVK1cPrxAisyiFArBy5ZoDBw5OnDh+dJncR8ja9RtXrFgRGu2QbQwji9ArqR3ia4glqFRE5KiZCVgAAKu4jA7NlrHmHMCRBT4ZfqjiLa3nX3jxt/ffZynbcZyRLMZKuVIsFnWoHd9pamzKpDOJVMJ3Pc8bWIwJ30/4Sdf3mpoadKTvf/Ch7dt3nITFeBwRJB6DtiaDJ4NrUbcS1jkVqSuEdd4UxDLNpW952ydu+dT3//NbpXLR8xJEwMYAi9EESquKhCKIzGKBgLJRkeV4hESoQARRCBFKZbO/xKVIJiRU0hZDqA3YisUgWEJOnJ8JKhUjBAklYiMoFAJFyJH0VoxE3J5xXCJtGAEdBEIgFLZpQsbpKwR9+RC0pDwCIGPAROyoRKlzz5bnftk86QzLOSHRZWJxa9fuPfs6cwsuOGdCC1mDcfMYoDufP7hvX9fBgw3NLZRuyh/aVc51XXTBpZdd/g448dogA5NQc3PL5z73hUULF/3kv/7zhRWrOvbta25ubmxsSqYyllIEaNgYZiAdlEuNTUknlQECpPhkBwBAqEWH2kQBRCWiEIwpBWGJkJSDNqUTvpv0PVtBVK7kcolk6qKL33rVVdcuXnLm60WgOTWJp0cun7/jrrtLpXIimahijkBEEClXKrlcbtKkiVe+/W1z5syePHnS1MmTW1pbEwnfdWzXcVzXc1zXtu2hMnp6e5cvX7V7917X9YZMFqNipPL2SRDrqhhQfN9NJdMjONOFezs68sViOpkcS0uCSmXPnr2GpUqOtZrET3x8e/u555y9csXqIWvvkccIcSBZm++6q9eueeSxxz/8wVtOxBtm6MW1evWacrmSSiaHqyU2b6YaMwsWnF5lalUfFwKIg7WMpc0jocpQDXrqyq9/c3dPZ4+f8GK9d7jFiCJBGGaz2ZaW5ndeecVpp82fOHHCtKlT29rGJRIJx7E923E9z3Fd27FpsBBjzObNWzZu2jLmxXjSOS5hZcZwQZ06rxV1hbDOm4L4E0iEt97w0UIx96Nf/HOlUvL9FAJgxBGCREQiggIkjmgECwDRBkRlu6QQESMiIBBCLAW6OzCVPI/3rUZHbMKIQQyDIBmDjlgKEaSgmUlSmkABKFYKFSCKdGV1GPH4tJO0VBRnqBewBBwABmx2nX6OsmWNAdmuip1/CIjQ2bv691NPv3LqmVeeiOgysQyxauMWcTPTp45vIMC4CoSScHdXb2dXF4c6PW6SBl3s2Te+re2a917vJ3w4TvEYqrUNCAYsHnjV1e9asnTpfffec9fdd63fuKWvtyeZyST9lG3bCIIIAhBUirMmtHupJoXsxIkeAQAg0BCVIxMUMMiTqgTFQsV2vObGpO86FhGyDsvFQslPpM5/y8Vvu+IdZy49O+En4I3lJhpnRDmZXkvx0D399LPLV6xSyiJEPtp4yuCVhWKpsbHxxptufP97rztr0ULHq5EqOl7abAxLrGeO0QhzUkOVVv/zUY9YxaPkeX66MWmGsRDGxKnDd2zdvm3b9rMWj/LkW6y2bdu+c/OWLWPMoTfkNXrhW867/fZfl8sV13WHO0YoIrZlZ3PZn/38Fxe85bzZs2Ye92UYd23/gQPLnn5GRKofQy2Xyy2NjfPnz4HRbYENpGw4GVQ5whd3efmKlcuWPRN7gTJzlcVYLJc9z7vxphtvfv8N5y1dkkjV2FaIR8YYZjYQv5BfXw6Sx2F+Vfs0v74Go86birpCWOfNAhECgCL1R7d8KoiCn935w2I5n0wm0CgOBUSDkAACAhpgQTaGgT1yCMiyyRUAAQFmRQkkwKhQMTsLepyDE33wlNIG2bAoBGMcW1kKGbjAQprFRtFK2QBACIgoPVldKJlJaafJc2zCiEUYbRZtGAAbbAVGcgEnjDgWxX6bRHYp27P1uV9NOO1C200eX/+p+Cuuw8q2HR0tE6dPakslAYAp/q4Vy2Guq69YKCQyCUol+3s7yvneq6+6ZcHCM49bC0YAIsbtbG8f/7FP/PHlV1zx0AMPPvroI+s2burY3+W4biqV9lxfR6Kh3NQ2ycs0+cjO0DdYIAyjoFLWpQKFBUM6XypalpNwQhMW8vmKbVnNza1vOf/Cy99+xRmLFicSg6IP80mIaXHyEAGEMYY6HDlDovOTTz3d29ubTh/dqDVkjujt7589e9aXvvDX77rqqsPF1OEkdcS4CisKIx1Fx+NBjVxmG7t0V0P8rGIhdB0nk0qz5ioOeczseV5HR8e61WvPWrxodBs3sWKwcuXqg4c6Pc8bUa+H71Zc2tIlZ8+YMXPF8uXDeY0OqCgIqXRq9eo1P//F7X/z5S8MvQFG0YtXw8xKKQC4/4FH1m/c5HneH1R9GLGuqKNo4uxZc2bPGaZjI6iSKM6KeqIZboSGRu+ZZ5/bt39/wveHW4zxKGRzuZaW1i987q/ed8P1nuscUdSrbxx6QJGOoigaQYCWUyioDMDxOtJYbX6eSr2tU+cPqCuEdd5ciIjrOn/+kc84tvMft/+/pVIxkUgRKaMFgAkMoCCTEYM2EmBEgkoRsrItFxFRSKKSiAuCAGFo9gaSj2RaAhsUGpLQIBkRg2wjIbBAFkU0skI0CMRIYCMqReWK2RaUWrxwQtJJOESAEYsDxMJKJGWpktGViI0Bm4BECMgW58CGZw+sf2LaknedCKPc3n37ugrB0qVTW5KAMGCG1AR92bA/X4ZyMdHYABYVOvdOmNB+wcVvPe4NqMlgrwUAp0+f+cd/+mfvvf76F55//vnnn9u4cdOefXtyuSyypMa5LRNnJlOpJAGBEkAUCAVy5aBULJhSn0SFQKKu7t6wXLQAG5uap86YuXDhwjPPOnvO3Hmk1BG1nvyenjhiH1o58X5rh5PNZXfu2hnbIoaz8yBiuVJpamz4/Gc+fc3VV8EfGmarTPj4UFU5CEqlCuIb6qN2VCV4aCjGjx8PSGwMxf4NrxpVZnZdt7e3f8XKlR/68K1w7Katwevl2eef11GUTCS4RlL5GsS1Nzc1nH/uOatWrjLDNx4AQMBSllLqrrt/e9VVV5yz9OyRROIZIXGNe/bsu/3Xvw7DKJ1KVI9Sqw1PmzplyuRJR/0rxc09KYxlCBBRBLZt266jiJLJ4UaeEKMwtC3rL/78kx/8wM0wkGBQhibPcLMoLk2HUb5QAhhr1so6deqcNN5Q3846dWqCiCLs2PYff+h/+F7y33/xvd7+rkymUZAMSxhpRyhgsoAozpSlNCLZtiJUYKHtxV88RTLoCYPSF+hS3kz2sd0GRKkYxaKFUREhQCggxMYGjkQIE47yCAnBtyAMsbs/yhZ0wqIG32pOWp5Co9kYsDR6pERxGBotYAPYBJZtl3N925+9e8JpFzt+5nh6jSIBwPYduzU50ye2+QADoiBCANBXDEphYJNgqtGU+8kUFy+5YsasWQAnOi3i0mXQXQAAIABJREFUsM0FABYhxLb28e++7j3vvu49B/bu37BhzcsvLV+5YoVJ4bjp8zMpJzF4MSAEzIVcoZzrDwvdLpayYaVcic4+79ylZ58/Z/a8yVMmJVPpuPQjRJ83HGMMkHlsxCaIbDafy+Uc2z7qCbQhqTQIwve99z3XXnsNAMS+hSOvqKuzM5vLKTV2hWHEJYwpRH3MKJ9DPDinnTY3lfLDMPSPZuqJh5qZU8nEcy++uHL1qrMWn3msLpfx9atWrX3xpZeGrHm1y6jarVjJvOCC82//1R25Qn44OxXEPhkCyWTyUOehf//3H8+ZPbexIXNcjIQDR+lEfvTv/7Zp48aEn4gzIA5zlA60ZmXRafPnWtZwUtMp9LoYTrGNx7lYLPT09lqWVf04aKlcvuzSS2+95RYYnG8jnzw9fb09fb2WRbXuOLWijALUXUbrvHmpK4R13nQgkohYSn3s5j9pyjT+4Mf/Z0/HzkwmY4EyLCGCg8wCgUHDhiUEic2KNgIqBeggggYSQawAEGu0qaR5W1HyNkx2pYHQGKzY4BDbAIY5jyAayEIEYK3JsTwbCMgmExGWDR6sRLt7K61JZ1aL71mkQYwYZcAFAIIglEjQFmMT2co9sO6ZvSsfn3XBdcdLBBkSsHYfOJRIZcY3Ji0A4YHSA+ZiMWLRXiphe25XZ3cynTnnwosRFYgcD5l4lBDiUDgERJw4ZdLEKZMuveyK//q/P9rS2dcyfUZTipzDYn/nSlG2L1vMHqpku1MJ6Cn2tk2cet1Nt02bOn3omrhAInrDnBg8Kgh0kn2X+vuz/X1ZNawwDYgYhqHrOueed04VK+KrGXL8W7VmXV9fn1Jq1CFPBhnx7cfByjrKpxAPzpJFZ02bOm3jps2+7w93pYj4CX/Hzt0/+/mvFi1cqEiNXKEauvKn//3L/fs6UpnUiNtX+5IzFy+aNn3KqlVrhtr56icezwQi8nz//gcfamho+PIXP5fJpEfajGEY6tfPf/7L39z1W1KWUtVODyJSEFQ8z1u6dCmMLDn7a0v1x5sv5Lt7eqrstiCiMUYEzjlnaSqdgmMJrTyQu2jdhkMdh5RStYbqFHMZhbrLaJ03L6fQnladOieNoc/be6+++Yt/8Y0FcxblsvmwEgmjDk0YQhRxFHEUmqCsy8WoXAqCSqS1CJBSynFsL+Emkrbn25Zn2bZKWIoIOgLZmOe9ZR1EWkIThlyJWIcmCEwx0lHEoeZSYLKlKAwk/hpbQCnCZttKKnWwt7Jmb65Q0ElECxABlIgSsAWVNqHmSshGrHJ/7+aH/6vQtec4D0q5fKC7L9PUkPYHEg8DMCCUQi6XIkeRk0x6FgelvslTps2ZMw9elRz85BPnK48PrmhjACAw0f6+vkR6Usu4powNACqWODRAd38x292T79yri9mgUug41DN5yrRYG2TmIVXwjWsYPJyTdIBwiL7e3nwhT8MrhBCrLn6iubkZABBxhA8ils7LlfJTy5aVg8CyrNdVBKBRrqB4cKZMnbxwwelD+slwRkIichz33nvve+yxJ2AgwtaIJkBcy+8efOC+Bx5Qtj3yG6t3Ky62taX5He94OxFpras/a2a2LYuI/vsXv/jq17/Z1xdnvxjlHJZBbfC39z3wvX/+Qb5Ycl1nuITsMYhYKpUWLVy0dMmZMHikcHS1nxyqP6V8rpjLZoez+A1NItexx407tgSzQ/FpnnzyyVw+r5SqlaL+1LMQHgeqdblWhsg6dV4zTumXWp06JxgBgMsufMfXPvtPl5z3tlKpVCqWRIiZw4hNxJEWHUpQ4UoxKpcqYaCNZgG0bOU4tp/wUinPTziu79iOcm3lWJRj2FLmjQXTU9Im5DDkcgRBKJWAgwrrkI2BQmB6CyYIhRiJARlswEbbGuc7pYpZezDfkw2STDYjMCkGG0AJKI1Gm0pkNLl71j6z+q7vc1QBOC5mCgCAXLHY019oafAzNrCJSyUDUCybyAg5tu8nHTSkeNbsWanUWDfpjy9EpIgA4PmXl+/qyE2cdXpLg5uIfUUZACQf6K6ebF/X3mzHfhMG3T19pUo4adqModtPcQnveBGLayc/L5gRYxjE1LIXGBNFwcDPI9A9RGQgLsj9D73wwsuubY+9qSfXZbR6+bUvOefcs1PJhKmqoohIIuHn87nvfu/7O7bvgkGdsMoAM3OsI+3Yufv7//LDbD6XSHjVtaZjIq775hved9biheVyeSj/xKuvHJixIo7nWZb7y1/9+kt/87cd+zsQ6fCiRlLjgENBrA3ee99XvvbN/R0HfM8dTKp+VO1IELFSqaRTqY98+INNjU1Q5Tjr60TSN8YMZJUfZkcvTmLJAEEQjLzYIbvrU8ueeeTRJ0kREcUuHMel2SeJE9/Y19Vw1HkT8aaQgerUGQZkYAA4Y/7ir372H2++9sMIlM/1R5ExGsJIR5EOIh0GUVCKSoWoWAjDchhFbAwoW3me7SecdMpLpVw/4Tqe5Tgq4ShUdEBwbUV2lHU51GgMaw7KXKnoKGQTMIeQr0SdubASCiEQAzErAs+ica4tZdzYWezKVxKCNoMyYAnYQgpYsQCLiIqMtfaROzY8/AsAAMJau7A1iIWCYj6fqwQNKdfCVxQGA1AMNZBSyvU8x7aM6/qTJk8/1T5p8c50Np9/9IkXW6ecPv20+eMSECsHSMCAXb3FnoN7e/bsKvX1RGH5YE9fOtM0Y8ZABPnXtvEnGwEBifMvM7M5Abx6SNPpjO95XHXv3LKsUrm0efO2kfZj0BJ4/4MPfee7/1ypBI7jHQ93vteByygMztvzzzm7obGxXCwORFsaxkgIAJlMZuWaNV/5+jd27toDAEQkYvhVemH8BGPD+/btO778v/52w4YNyWNNvjKyq9rHt//Zn/5JS3NzpVKpGjQIQQRFPM/x/cQ999736b/+4lPLno7/GsekGZp4R3RnaIYPbfp09/T+/T9+98tf/VpHR0cymYThM8UPRL5FLOQKV7z97e+88nKo/ro4ZV6L1Xe3EsmEn6y2UuIgozrSm7dujT0vajJkNX3hxRe/+Xff7u7uGToaWnVU6i6jdeqcKtQVwjpvaggGnKAmtk/+/P/zjc/+6d9ObpseBqEwiwYdQhRJpE0YRUElqhSDYiEql3QUMRggVLZjeb6dSFrJlOUnbTdh2Y7lOsqzqEi4VcO6CnRHSIyguRyaUsWEIRvNHEGuog8WwnLIxEKMFoMtbAO22Mo3uLW71Jmv+EYUIAqQgA1ADBQhhoZsp5zPvnTnD/avfx7g+ITBzOfzocFMwoPD3LE0QBhpRgVi2xahQNJNNbVNBACAE5uM/piIW/LI4892ZcvzFi6Z1Jpuolc+7PmS7O/oPLhzW8/eXVG5UAiibK44bcacceMnvHZNfs1QFillJZMpALAsS50AXj0xGjMNDQ3pKjsX8VFAEf79I4/s2LkTqno2xnJ/rJz89L9/8aUvf3X7jl1+0kOUo8YFOUZOoTyENZkzd87iRQtLpRJLtcCPsW6T8BOPPPb4X/zlpx97/GkAiJ9UnBswJra4xkbXZ5574c//4tNPPPWU7TjxkB7DwNbq1tDDveqdV954443GsNa6WowTRIhDm6ByXeeJp5d9+jOf/8xnv/j008/FDRuaeEd0h4iGelQpl+/57e8+/sk//Zcf/H89Pb2pVKpmv4ioWCq1jmu5+ab3xXloqr30ThkLYfU9rkwq1dLcPJzDfzwYSinbUsueWrZq5SqotRiNMfEY3nffA5/93JdWr1nnJ7yRzZm6y2idOqcK9aAydd7sxB94EXEd79br/6gh3fwPP/xKvtDr2B6KEUEtyAqZtTHCzDLwIbUcT5GlbEABFCEQQlBKwiAEUOiHqA13G86FMgFlAolnJDLCGl1b2YREUqjIfi3jXStj0cCX0UhI2GCTCnBPXxAlTaNrEyCKwThzHAMykAH0Er17t6z6zQ+bp8zzM01jCfeJQADQn8srgYTnAADIQNqJCCDSKGgJKQHRUcXPJDONzQBwfBMhjoVY2N2yfdeTz62ZOHPhtDkzx2dwIGCCgAbo6M/t3bmrY+vWYmeH5dv9xaJtW4sWL8W4l6dIN04KIqLIOtBx4J57fztxwgStjVKIiLHdkACYEBkAABUNs38vIAAMoAjj9J6x8x4DgCBhoVicNmXyjJkzDr8n05DJZBrNMNaGIU0g4SeWr1j1ne/+y9/8zRfbWloHHs0fiqJDph5h/v4PfvSDf/1RLp87LNDISVTnxuYyOsaGDmVruOn9Nzz+5JOVKPCco+f0i4lVbs/zlq9c+enPfOadV1753vdet/CM0xMJ//D4IpVKsHHjpt/c+9t77/1dZ2dnMpkc1QKpLfQOtf+Tn/jI8pdffP7F5Q2ZtFS1QxKRgFiWlVLqUFfXz2+//dFHH7vgwre86+qrFi06vSHTmE6lAOGIcCnZbG7njp0vvPTS408+vXLlqlwhl/B8S6nqdcV/EuawUnnnDe+58MK3QM2kHSNKRTjmBz9mfSKRTLQ0NbMZVm+JF6Pv+9t37PyHf/re333zazOnT6++GAHgl7+849v/+J2DBw9lMskRf4xOvoWwlr983WW0zpuVukJYpw7AYFw1pdT5Sy+a0Dat41BnJi1EwoIELKxg4FCNCAhLvAfreh4qRZal2BFhgPhiJNJRGDt5Aodsdmno0zIeoRXZIQhAGJWtEBDyFaMjnujbzS6hQRG0QAxi2iYrMl05bRxucm0LlDA72hBCBGAMW4o829v93MNbF9+76Nrbxm7tL5RLikPHdjg+ZoMAAMzAoBjIGNBGR6ITqXQi4R2HET9OxCJaWAnueeAJ7fpzFy6d3p5sGXyxMUJ/Se/esWPf5vU9e7aXSgXLbSj05ZYsPuu0MxZCTQnvdUgtcZEti/bs2fONv/uWRTQUjmTAKMwDgf4BqmeuH9DHDOuhg0iIiEi2ZWWz2Wuvfdc3vvHVdDI5ZMdraWka19YSBFEqOazRgJmVZSUSiXvu/V1PT+9Hb/vwWy+52HHto6nssnzF6p/ffvvd9/w2qATJ5DE6NNZAhvpYgzG4jMY6tQCOoIgqrn2CiFdeecU1V73zzrvviRXCKuE6Y4tZMpns6e//8U9++sBDDy5YcPq8efPGj293HUdHurure/3GDavXrD3U2aVsNWRDO9xwV2uQcXCLqTZxUe3jxv3lp/5s5199rj+X8zwvPr5YrRYRJEr4vmbu6u351R13PvT7R6dPndra2tTc3DJx4oQpkyd7vl8uV/r6+w507N+1c/e2bTu7ursBwLGtdCoNgLHLdBVtEACVUt3dXbNnzf7Ih25zbHsksWRqzD8+SeGchmtm3F/XdcdPaA91KCxHjeg7FIsonU4ve/rZv/gfn7ntQx+66h1vS6VSR90/27R58+2/uvNXd9zZ25dNpZMAKHJqnhyk2g9gbPo2A1QPvY0DV9Wpc8pRVwjr1Bkg/ig6tut7rtFsIjAIliWEIiSGkAwKsAYAiYjAskiRrayBiIhKkWWjFsdlTSDCOgJUCj1jaTA5DUXDPQBtJI3ASUQSIFQAUDa8x0SRttod5SKg4VCDEfCJFEOubFiHTY7toEQCzGAxEkAUskNeub9380M/n37eFZn2iWPMCVjRGiVwiQReKUYEmBEFIzDEyOgkfNc6PqE7jgND6tzvfv/Uln1dp599yexZbZOTr4hlJYE9+w5s37C2Y+vGcm9XRCoMIwI5/8KL05lGeGOZB/GVuK/DCSQYb+9bll0pl4VFXhH15Shb5/Fvhoo84gcAzYwgPCABIQCUEbv7evfu38+Rjq8hIgGwlLVwwYLf3nt/pKOjBgId0lhc142i6Mmnlq1ateb888+75JILJ0+a1NLS0pBOB5XKgUMHd+zYtW7d+peWr9ize7ftuIlEMs4cCYN6Sw2NRWp51A10r4bQZnhMxxXjuB1YXR9kqK4wxo58RPTxj/3R8pWr9u3Znxg+u/rQsCBiwvO04/Tl848/8dSjjz2htWFmRLBs27ZtRVZDQ8PhDpzxUToYScYFEuCqmwlHdJGZiC67/LKbbnz/9//1h5bW8fSofpcwC4BFZCWTvp8MdbRt29bNWyWKDLOOB1dro5RCpRxFyrJd17GIYMD1UXBwxh6l8MGjg/l8LpVOf+rP/+zMxQtgJDsOMpDl5qjvFCRgERnMkjJqEKtv1sSbm4yIiEdWRETGiFK4eNFC33XDKHRdd7jRZmbbtoloxYqVmzZtuePOuy677OIZ06c3NTU1NzZobQ52Htq1a/f69Rteennl9h3bETGdSg7e/co+UfXu8NgO4saaJwuPMElNjdK0GZPVHwWlhk/oaIPj1qlzwqkrhHXq/AG+l2zIZBwXRTAKIQzYtsFNsMXEAyqXgOigjJZlEaELNCAsEShlOZZBmwFtACCUINIMYCMScADcyaafpSGSNjTjNKZJLAuZKdRmvxbjyiSLHCE2hgQExCUBolJoTBQ22JaNSAKh5ojFYgAjru13rVu+4+n7zrzhE4Pbn8eu4RAAQLkSaBPawCGAhQO+PISiNWgGZog0CthAjjpl9n5jde7ZF1f//vlVk2adPu+0BTNarQQNaDYC0NnZt2X9+r3r1mf37CxVKtDQFFRKi06fe+bZ577WbT/+CEAcPXDA6fNVxM9NYo1IKSQU5kFRfzQ4SsFhcSABgIgc27FIHT4NhRmJ3n75Zb/81Z379u21bXu4eJKxTmjbtlKqUCw8+NBDTy17yvcTtmM7jmO0CSrlQqkchSEAeL5vWRYPdGGkGguDcFUta/Bv1dcRCesRmfeGux9Ba621Uaqqyhcb3Gpx5pln3HrLzd/+x+8YY+I8q8OJ4kPetgrQclzfcUVEa83ChBQnKwcAEY4ldQQEBBGJoigIAs/zqiQoj1WAgci+I2PIcfTjH//ouo0bH3nkkWQqbVdNTxL3TESGUsV4jg1gD84f1nogiowiosNay8wwmLl0uLIP0wbznud+6YtfuPWW98cDUnPzSBBweOMoArAYY1ipsW1CEQ3Y8Iff/tBaA+BRX9SIAoAXXXjBwjMWrVq9ynVjq/KRBr14MGM342QyGYbBk0899eLLLyYSCdu2XddlzUEQlIrFIAqZ2fO8WJMfGsBqJ0IP05kQj+5G/odjhIM3HaVHceaS4SoagIUIAUiqqY5opFY5VRHBKIqMkSoqPwLUg3fUOTWpK4R16gxCBAC2rZqbmm3XUjax4SjicghhqJMZ8lwLRQGDFhbWthUpC0mBUiSCilAQyWIbFAKKMJIRJK3FGAQhS4BQGKQfMQfQIzyeuSWEFBoFGLHZqzly1GTL8oFCEW2QSVwEQgwj6QvDlCLPIkcQjAAgG7bI1fneHQ/dOe/S6/zWtlGe62MGIsuyg1IRtJY46DwSIhAgCQhDxEprILENM/OYvprHlx07d//6wWWJpknzF5w1d2pinBPLZQAAvaVw2+at29eu7tqxuZDvr7g+kvhKXXLZla2tba91w48/ImL+f/buO06So74b/7equnt68s7m3bu9nPOd0p0SQskSEhISUckKFgKBRbDBj3F4wPaPH2BjHmxjY8Njm+CEsBACAUYECeVL0uWcd29v8+TQoaqeP3p2bu9ud+9OJwmk+bxfvMTu3ExP98z0bH26qr7lq6BJNtn9GFNa0/HpfMebbbUm5tgfakFr7O0Tb5sFIynZmKZb0JJesmTRxWsu+Pf/OBhEuElGNgZ3iEQiROT7frFYVPlq9UiDc26a4XA4CBK1jSilXNdljJumMUk1i6CVqiZd/UIrJeVpuo4ZI12ddHnWRp+bSd+fPL1yzqVUWk9W5rHWSXjHbe995rnnn3zyyVRDAzEWjHCf8J0KspOqvpuCC4Mbwa+1Dsbq282IGJWKpfa21oZUqru7W8qg/M/43WU8qBNyNkk52E5rS/NnP/OnYdv68Y+f8A0jEo0En4RJKuXQmFg49nbDMAzDICJFSpFiip30qInULmrk84VQKPSJ3/v4vXffMfrA07/XTDNSinGhxv9sU9Ajb/Bz6iEkIqmrSXjCkqdaM841Gyc/Ba/nlM6OK6+4bNPmTZ7vm4ZQapysNfZktO2wbYd93y8VS2NXbTUMI2TbYvRkrH1LOI4T/CtjfKI6T5wx0lqebima4PrCeAMYavtJUp7mSqiUSmninE0+OEAr/spO6urDtfSV4oxPumIn11oyVJaB3zy4UAFQVTsZmhpbLNsMGSwUNq2IKSzyfcoNq+yI57pSKa0V+b5frrie6/vu6KV0zrjBDGEYhmmEDDNkmpZpmkYoZFimwQzOOXEuLIuHQsIIGdmQtdcM7RTiMLGiUiFfm546Vvb3VfyKpyxFFpHhkeGRJSmkuJaUL8tM2Xd9bWpmSxKaTMUsIzaweWPP2icp+GN/9osoVKvSJyOlXLZYKkkiKat/ezkjLljQMPM97VOo4vm+475ar/krFuxz/8DAv3zvF4pHFy1bNX92a1ec89EkkvP1vgOH9mzedGzL5vxgX0FqFQlrr7J06dI1l5+ufPwbE682m8afvaN19X9sdATgqYISEcGPjHEiFvy39sPo7TUnPHz0icZp6wQ3vvMd72htaS6VSoyN11Yds8WgJaqUMgzDsizbtiORSCQSsWzbEIJOfPuCkpKpVEM4HGKTrmjPKJgLPHkg1Izp0xXLl698vGjtgUFun7z/73Qj0Gi0ky2VaviDT3x86bIlmWyuNtttkiMd+64xPua/J3bvMMZcx1VSPfjB93/kQx+MRmNydF7ouEfGSCuS3uSXJCYwc9bML37hcw88cJ9pWoVCibHjncanPYqTPoTVV4Y4r47gGOdfT9jz0TAjhCgWi4Zgv/vgBz74/t/h1e7WM8BGO0gnWt2emCatlObnNmSUj/6pmjBwEAVrRUx0tMG5c9Pbb5g9c0YhXwxO8Ik67Sc5GYNeQU6kT7yI4HleQ0MyHLaJgn658bHqlIQJBqyOc/cJSaWDJQ8nciZvotKSmDqnki+6OrJmkifjwc6cw+ACgNcIAiHAyRqTTbYd4ia3bGaHyA4bYZtzgypllR12c2nXKUvpKyW1L5XvKS119ZJs0OZgZBjcMLlhCtMWpikMk3MxOg+HMc6ZJVjYZIYtcmHzgG1tM639nJWUDnmqUPIOlpyCK0OSLGJB6gspHSYyifueLlT8oqd9X5seM6QM25YsFg499/Mzmvk0sYZkKp/P5HIFTqR0MMeGDCJhcKWJMy4196RVKOt8vkC/1tl3SmnGWCGd/udHfpbJugsXr5gzb+acZqNWY9Ej6jl6bPeGDYc3bBg52pN1fS8c4wZLxuxrrr+pIZn89e7/a6U6uvCE46pduSfSnOsxN0yEMaY5Z5wzzvXof/WYXxnnVCsuOGb71V+Jqmt/n7QbRHTJJWvuvee3GWOe63E2yUX045PW1HjoxO6LXC4/c9bMT/3BJxYumO+6XrCFSarkT946VForJU8384krrc95PpCqDf+bEDujtmzwWp23csWXvvD5Sy5enS8UPM8Lsn313Tmb/Fp9CGNCCN+XuVzulne8/f777k00NJQrZT5pJ1twNeEVpOVgal8qlfrff/ypP/mT/9XclMrlC1wIzjmr7dJroLbl4OUaGRkRhvjIQx/+0IMf4CIYYXhmEUHT6LfvBPvJSEmtSJ1bbdrj3/CM1LhbUkRS60meJTh1582b+8EHHkjEo065LASf5PWd/GQMLhvUumrz+UJjY9MnP/Hx1Rdd4PvVzu2JTkat9ZnMIeSTNlVZdTDwRD3JRERKS1adODrhU5AmpTQ7h4ovwZD809yJkzqeoAF+g7zpmkQA50QRUWOqOWybxKVhcsPkpsFFiFu2YdmGUlTKy+ywn0vLYtYpFz3XlaQ1EeOkucEMQYYhDEOYpmEYwhDcMIQQ3DQMzhkjzWoFODgzBQsZXIREPmLujYZeCll7DF4gyvt+T9nNOdL0yVZkaC2YMjQZRBZx5pPjyJIvS75yfS19xkXoyPPP9Kx/joj4GQxtGle8ocEtF/oG+3wi0jJoh3KiiG0IzhkxySyXrEJJ5vLpsS/X60xrzTlzioVvPPZkX292/qKls5bMWzo1FB+97O4THR3M7Ni4ce+6tf2H92WdStG07GRMyNLFl1x+4ZpL6M3YPUhEWpGW8pQ3pdrvxzkfrRI/GeKkqDpddvQHPuaHMbcr4oz4idE6uOZx6vISQS8WEX34Qw+84+abSuWiL2VQXWOStv5EPZk0OoTVsqxyucw5+9AHH3jHzTeZpuW6Tu0ZT90gDxLt5JFGkxo9TSfaq+ossHNo2WvSweDsifZlzJjMs+hQWr582Ze++IVrr74qlyuUCkXOOReCxlwJmHB/xiAiITgnyuVymUz6ut+65g8++XtENDgw4LnuaQOSVHK0uspZ4JwTMaW0EOK+u+/63P//F/PmzB0YHKq4LqstNHLi1YdzMXZTweDGUqmUyWSWLV32hc//fx/9yO+Gw7bW+kxGigaqQ+yJiE7q/lajz0icM8aZPLfrCFrVZgPzcXsjOeec8cnfgeAL8I473nvPvXd50ndd1xBi8uB92pPRNE3f9yuVyj333HHXbbfFYvFKpVLbpXH3kxhN0oVYe2JFSrFTxp2OfodrIsaZnPCPESMiknry4MlEdXDJuXy2JNNKUfD9cupR1brcJ+lGBvg1whxCgOOCiQjxSDxkhnzHY4Ir4kIrEpwzbQgyTO57pCQrF32nLMPRBh1jnvItxZngnDFmMq60VNpgWvtaME5cC845V1xw5WstleTENOPEGBNBI0IwkgYvc3ZQin5fNbt+s6vKnjPbM5pMw2C8ornnK0Mr0kwS+VIryVwtuSatXcnszOFD67/1lYb5C+KJpokm308uGU+FTfNY9xFfUfBwRmSRiplMmMSEwZnpaqOkzIGBoeApXv+lCINaGdItf+Pxp/fuG5g7b1HX4iXLuqKNY77JhtLF7Rs37nruuZ7du0baAchoAAAgAElEQVQKhQJjZiLOZGX6tGk33PpuQxhEpy8f/0ZUa8qMWXJaVUuMnHFL5yw+N5ppRppVC+eN1qMkrTQfb0Ro0FsVskJ/8ImPp9Ppn/38F+Fw2LZtxlit1+60YaPWWg0S5sjIiO+rD33g/nfdcnMulwsGo+qxM7hO/IwG3VCTv/u+VlrLoO7O8WIbJ85mU5oJfk6rXLCgWmS1CT7aj0HER3d4dNDmZIPuxjVj+vTPffYvWppbH/7uw/0DA8lkMmRawTYn7x2tHZ8mqlTcQrEwbeqUd976jrvvumvq1E4iYow442rSSMaIna4LdjK1g33bdddO6ez8wl9+8We/+GVJ63giYY4WNz79uhSTGvsRCn7wPK9QKDQ2Nt199833/869M7qmVY/lrJ6CcaUkDwYTaxV0gHNOYy+7c06Ccd89p0AYTNJVShMpzhkRO2mmpdbBYqKTPUutls9DD36o71j/I997zPW8SDgcTH57RScj5fO5QqH8nne964P330+MCvkCO6muzCkno9aTjNQYvZ0zrhSpal9iddIsUXCZI2AKY/J99fU4pW9PfN0YI8bFOUU1poKtKsZotPYy1fZ2tJdVM6LfnMJsADUIhAAnM0yLMa64tgRnzJBMKSmlQb7UzNWMS62ZIh2LxM9bdmm6fCBd6BbcEIyTYJwzHVzLZEKZWvhcKckY58EcekZakfJImcHwFcWqDSAmFHHONGcVkx0K8WOuPuz43Z5a5PlzNIszUWbaCaYUSUZaa62YZloprclgnFv2sZ//ZON5/3TJPX9kVpv/Z/onJ/hD1ZRKtre2dncf9soVyY3RwnM8EaZI2BgRJhmG1NpR4YO9Q67rWNbrvRph0ILxKqVv//j5Pbt7Z8+Z2758+QWzk+328X8eKnlbNq7f8eyzR3buHE6nc1LyVCoaFhGD3/zO982aOSc44td5z18fXHDDsoLiir6S1SKR1eb78ap+k29k7EdH0/EgeertxCgYsxa0bbjWikhwQZyZlilOKXlPo5+0aV1T/+rzn/37r077zsOPpNPpZCJhWpaU8rSDOYMtCMG45oVyKZfLzZg5896777z7jtuJqOI6jAvTMBjjUvqj9w/mBI6+RJyHQrZpTvaHT5MWwiQKtlDdI81OGLtpCmFZ4XO5rMAYmUJwzjkXUvpK66BXQRGx48/DQpYVCllnvtmgjdvZ0f65v/j0Wy+/5LuPfv/5F9YOj4zYdsi2bWGI4DnGzjAMAjljTEoppXIc13UrLU1Nt77jxjvvvGPViuVUKymkxrbvJ/4gaX2OQ+KCo1i+bMlX/uZL3//B49977Ae7du3KZLOWZYVt2zCMoAv6pE/L5FMEx94tmCuolXJcN5/Pa02XX37xBx94/7VXXUW1RvxZvrmGEIbBSTCTC08pVS2vQrVTTwghDMMwjHNcdsIKmYy0YYjRUZr6pNzFuQhMvp3g5Uom43/xZ5+ePm3aN7/1b/0DA8l43LJtqZSS8kxiveBcCFEql7PZbGtb2wceuP/+++62LNNxXc2ZaRhCCM/zap+0sScjEVkhy7ImWMRo9OUXQjDOOReMtFSy+lGkauWi4K00zNO9qpybwuCcy7HHNfZ109owTNMITTi5+Qxwzg3TEDwobKvUaHWv2rxCxhhnLPybtHQTQA0CIcDJYtGEaYaU1oJzIs04V0xzyQxDS0N7LmklXKfS1Bi74YobX9r9wlMbDnjCZMwSQtPo+oKcqeCKelCgjgWrFZJQQZeK0ooY11IoYoxIM82DEvPc0EwQ800aFHxIqoO+P9vV5/tylifCTJeYdkkLTUpzRpo0yWCgjx2Wmfzub/5zdNG8Cy58FxFTpPjZjAnnjGbNnL1p5+70QH+ybaojKcRJE0UtisVM07LIsDlJbYSPDBT6eo9OmzH79RxzrpTmnDnlwrcef2HXvt7pXbPali47f07DlAgRkSbNGMs53taX1u98Yd3hbVv7BnrzilQ4kkxGhJN/67Vvv+LKa1+3vf218H23UCh4nqekDNaIr9ViDO5QbZ2y0eIHY8c96moVRKKTf6gtVnHi7YxIEyOSmjgLRqAJIk0kpXQqjpyoVoQizqmzs+Mzn/6TZUsW/dPX/3XHzj2a8pFIxLIsPtqRdeoDg3o3vi9zuUKlUmlsbLzn7rvuveeuZUuWBHfwXL+Qzzuua4fDQnAhODFRmzsXNPE9zysU8tlsdtx9C57ddVzHKWvNLYvVmu9BKlSyWlzR8ZxMJudUnDN+c8bSROQ4Xr5Y9H1fSck5G13vQUnJg1eRM+5oXSgWc7nx93aiQ1CKGNNmyLrhxre99cq3vPDCuke+/9jzz68dHBqS0ldKc0aj42Z1UGJHaWVwgwsuTNHU2Lhk4YI773rvNVdfHXTK1RrNmVza86VlGbVPwgRHx88lKlOtF4izxqbG++797bffeP2L6zY8/sMfr12/vq+/T2kdsSNWyKqWElWqtpMnZ5jRjFgb3BhsuVwuVxxHMBGOhFetXPWOW29859tvam1rpdExk2e1/8GWfSkrlYowTMsIBStzjI6IVkoxIqW19lzfdR3PP6eiXBXHqZQqXsy3TJOCvMQYEdXGaSullFae6yqtJ5/wSURaU6oh+cnf/9iSxYu++o9f2/jS5lyhFA6HbNue/GQMUmihUCiVStF4/NZbbr7vnrsvXnNRcAcpVTFfqDhOOBI5fjJSdcBr7S0rl0qZTPrU7Y8lPb9cqsTivhg1erzBtxhJpXzXdSuTvaqVcsXxHN/3GWPH11YhRXp0Z4gqlXI2k1O+pNAkW5pMsVwulcoRO8wFF4IHuxqUZCPSWkvOuev7uWy2VCw2NTa+wqcBeG0gEAKcrKNxSjKWOjbYS2GlteYGIyWIEWMqmMyifZEXMhqJLJi7KBQVT6//frlc4cIQhqgOJNOaCSYMLgxSiislgz+gFbdcKJUMQ1hWyLJMEkxzzUZXrwqKkmtNipgRXL4UPMOMdULvkXq5oy4sU6enHcErTPtaGVozxoUmpZRkxOIxua9/89f+KtzRvKTrCq75GV7rDK6bCiHmLpj3018+eWj/7qWpFl+EQ0SMKGpQc9zqta2iGTZNI2SJoQLbsn3ftBmzX89xl5yz3PDwN376/OHukRldM9sWLl49v3FatHqEjFjWVVs3vbzr+RcObHmp59jRvK/ckN04tUUX0ouXLLnlvbcHy9+dyzC/33jMddxj3YeHwlFFzDAEKWKvdHHKM3zGah1MpUkTY5obRjk7VCiUvAlWBhstRUOmYbz3ve9Zvnz5o4/98Klnnt27d9/Q0BDnPBQKCcPgx4uFMt+XUnqu65YrFa0pkYhdc/XV991z19VvvYIbgoiCtbaFEL7v9x89NDyS4IwJIRQFvWFMqWoxebfiauVPNJguCI1Sq+GRkfxI1oqEGWOMczZ6PUIpRZxpqd1SftrsWZMVqZjkJauuikEVx+05dEiEw0RkGYYmYooRD0YDai5EOZ+37JDnnV1vWzDgNPg5EoleddVb3/LWy7dt3vrci+u6u7vTmczQyMjI8HCxVDaF0JrZltXS1jx1ypTOzs6Ojo55c+fMnTs7mUhQrWNwNCB1d/f4vm/b5iT9f56nLNsKRyOv4JU58SiOf2RbWlrefsP111937fbtO3/8k5/86ulntm3fOXh0yAxZ4VAoCAm8ushBVW0wrlZKBqlXaylluVx2Pa+trXX5sqXnrVp52WUXr1p1XiqZCJ4o+ACc7VdEkEKVUsPDI16lbMXipFSwKDzjLBjArZkSjJfz+fKcWc65VWl2K142PZAvlQzDUFqZQqjqh1zVOvOdYr5UKfuua4VOE25qF32uv+7axYsXff+xH/7iyad27tw1NDzMiFl2yBzvZPQ8r1KpSKnDUXvNmjX33HXHjddfZ0dsGj0ZOWNaqcFj3SOZDGPMFEIR8TEfb+LMd33plKQ//qWF2tvv+n4uM1CqlIRhakVCBFMVmFZacU0qON5CxXOUknyCJT183x/qPTYylDYMwZgYHZhDurozpHztlXNK+ZMPtZ2c4DydSfeVjgnLDI6aqDp4tLpcquDl7FCuo80//WIbAK83BEKA44I/Qg0NDc0NLVpq6RPTWjPNRfAHUXBBXDBlcVFi07pmtjS2JZPJqa2zdx/eFLLC3NDMMGi0gAOR1owFyxOSIUh4C+YuCNmx7t5DI+mhQimvlWJaVkf4mMIQhjAEZ0bwp1MQ05pZmiRTacGfDOv9Yba6LJbk/JjUDucOaamVUMQ0Z0SSKcOOVJ7f/fx//zW/J7YodT4RnVUaWDR/Eed8y8ubZsxeaBvNEStMjAyipoRIJMLZdFjacdvLpJm9bseR81cea+/seG3eh3H09fZ+/YfP5bKl2TNmNc9dvHp+alqUaLTNmnf9LRtf2vr8i/s2vnToyKGcp7xQKNHRKNxSU2PT7Xc/0NbaTmc7KeiNIziuttbWv/iz/71j125DcN/1PelXp8wR0Wu5HjLTnAkWXNRgXHi+v3DhgkQiShM/JWMUrIS+YMH8Ty2Yf89dd7y0efMLa9du27ZjcGg4m82VSiXP83wpDcHD4Uhry5T2zvb2lrbp07uWLllyycUXxmJxGn33hWBE1N7W+uk/+aOtt9xsWabven5QAlFrEaQ6gzNNvlLJRPzqq68KduOkjqDg1wtWrfzyF7+YL+Q5F57jyCDsahKMcSG4YEpqTTR71swF8+adupHTv1yMEdGsWTP/z19+/tCRI4YQnuP5ylWKNGnGmWA8yKFS6mQydcmaNZNs7XgHzngj/IIsZ3CxYuWKFStXEJFSOpfPDQ2PlMslwzAF55ZlNjU1xmPxU7c89tAqTqWvf0DraufwuKcS56SUl0wkmlKvWu/H8SXvhFi+bMnyZUvuvefuF15cu2HDxp6jxzLZbHpkJJvNFIrFYrHoup5UPiPOtGacCUNYphUslmCF7Eg0PLWjY/nypWtWX7B82YrW1paTDvaVdWwGL8Wll1z0lb/7slupaCZ839UqGN9IQjBucFKMM0Gc5sye3dzcRGf/sand/+7fvn3x4vmMMelL3/eUDkaHM0MIJogUMYObZFx4wSrTMs/kiRirHv60rqkf+d0Hb3/fuzdt2bp23fpNmzb3DQzmsvlCseD7nvR84iwajjQ2tnd0trW3tnV1TV20aOGlF1/U1NRMJ56Mth36xO997PLLLxWCS08F30WaNNNMCM4448Sk1uGw/ZbLLjvpAE/y/t+558JVKwzD8KXyXU8zJaUmRoYQjDPSxDgPWaHVay48NQ3WtvmeW29pbWkORkd7jhMsbMh0MB61ujOGKc5fdV4sGnvF7851117ztX/4+0w+K4i7jqO0DAZKiOCE5pwx5nn+vHnzurqmBA87q2cBeE2Nv/gMQJ370tf//OEffyMSDTMSREqI0TIPRIyT6/puxf/gHb9/1y0PENG3H/3qtx79m0jMDkdsKywYJ+VqrbVUSvpKSu27qlRyCoXiXTc/+I5rbxsYPtZzrLt/sPfY8LGhof6RzHD/4NH+wb6yU9BSKi2IKcaEwRljwrCEyTnnhq+1b4pYzJzv68W95RlpFdLMM7TPmNSKJFOkiJHOysJ5CfODV1627P75nauJ6EzmEwYNgnw28/7336+Y+cBDH56/YH57Q6MQgjMqKdp61N2+62hmsK+Y7skW/cF07uZLZ996w5Wv6ajRWpN0375D//qDJ0sVWjhvYWrmvPPnN86M6WCyFWOUdbztGzdtfeH5fS+/tPfAgbRTkYYV6WiOMc+S8v0f+dhVV1//2u0kvGLVq+ZjosWxvr5cJp/NZXOFgue6UvqmaSQSiVRjU3Mq1dzcVCv58AqG9sGZqCXM2msbDB84fLj7gQ8/tH3bjmg0ok5ZijBoSBiGcayv77b3vvurX/kbekUz8SbfsZM+LYVCMV8o5HP5XDY7ksmkMyP9/UPpTJoxrpQqV5xYJNra0tjQ2NDY0BiLR6ORaEdHe0tz89jdrhUafbX2840ruEZT+3VwcDCdyeSz+Uw+77oV6SvOWTKRaGhqbEk1Njc3jV1QsZbbfw37DQCvBvQQAoxj+tQFlhHiTDImfF+T1iR0cOWeNDlueXrnnItWXRLc+a1rrn967U8OD+4zhcEYMU7SV8pXmjTjgqozWEhq2ZBo6myf1tk+bcXii4hIKuW5bsWr5PIjx/p7e44d7us/Opge7hvo6R88ms4MZvP5Ujmfdcpc87AdFpblMOqdkfBmJw8fKk49WJiRc+OKe4LKnGnNiRELyfieUnHH3qftfy4X8ivmXhNMUpw8EwZ/yOPJhqVLln7/R49v27ypra2lIRKNhyOaKMKps8noa04W8yUjkoj5g0U78quXDi6YvWfRggWv0VugR/dqy9bd3/rhrxxlLl6wuGPB/JUzk1OjVC1rwihXcbZv3LT1xRf2vvTS3gP7047rW3aiJRUjX5VL777vA0iDv7HGTlIKfu5ob+9obz/tA1/Z0L43pWKhcKinx3d9y7KC81wE6wcQaaWYEJVKuVwqz5+3oKEhdiZrNpzUpldKBXPhnn322f37909SjycYeW4ZRtfUqa/KoY27Y2M/LbFYNBaLdrS3jXt/JRUTE1ZorW0Hn6Ka2tKgQfBuaWlpaWk57aPOpXMVAH5zIBACnCD487ZiyfLWxqm96f22JaSUipFgWhHjnJSUpmFffdnb5k1fFDxkavuMi1ddc+gn+xzP15xxg5HSUmmmtGSeZpxxrRVZhhmMc3O9UlAdzTAs27Zt226IN0zrnHXRykuDDZadSjafyeTSAyP9PUf2b9+zZdvuzQd79g9nhq28iBJji9rUmqm75hQO7hmZ0VPqzHmJitScHMGVLWSmEtlTLC1Jv7j3m44qnj//JnEGq2kFB37xpZc+9sPHX9rw8vxFi5oaUiHLMg2DiJoifGpbPDuSq7gpv5RvjJSOjtD3fr6xo6U11dT4WszNCzb3i6fXPfrkejOcXDx3ycwFs1bMSrSNmRQzUixtf/nl7S+s2/Py+n0HD2VcX1mhREsqYXE3l73xXe+++dZ3vbp7Ba+6sU3J4wMgR28dW9Oidk+0Pmu+893vffs//rNcLDEuiLT0ldKydgGIG4KTLpcr119/3Z/84R/E4rFgNbwz3HjttT9ypPtb//6dUrEUj8fVhJFS+54Ugk+Z8hqOJD/h0zJ2F0/5THBxcrIde0d8hMaFkxGgbiEQAoxjdtf8t199y7/+1z8VinkjqHitiAtmmOR4laXzzr/u8luCEddKK8HFBSsu/+nzj47kjgnGlaKgupvS5DqSmDINw/f9eDTR1NhGRFoLIqW18n03WPg4aKDx0e7EcMgOh9rbm9sXzFpI51+hiY71dR84sm/9yy9+70f/3tt3hBtioSXmzWnKzWzcdTS7uyff3FOc2ldszUmLGHnK25+xi+REy+t3/lvZKaxe+E7bCp9JbFu9es2cOXN279i2Y+u25sZGW5jJhqTgPEw0vcVM5xqLjuOXG4VbaorxnUey3/3RM3e/6+pQJFqthHHOjYPaMLNSsfTYz559euOuRGPn3IWL58ztWjYt1mge7+wcSGe3vPTS7nVr97z88v6eIyO+R1Y42dqUNKicHbryhhtv/+37DMPUWp356tLw63Xq5wfNzcmNjIzs3bOPGAnT1EoxrfVoQ50Fo2qFkJ7/8MP/PaWz46EPP8hHS8LS6V5bKWUw80lJ+eW//crWrVsi0WhQ+WqCrxHme17IDs+eMZNe7fGi4wqC3dhbJiqJSfggnT2cjAB1RXzmM5/5de8DwG+Q2sLWSxYt1SVjy6atFb9oWDxYllkxT5J+73X3rVl1RXBn0sQYa2ps3nNgx56DO4yQQcS0JE2klJaeklJrRaVKuaOt64Yrb21Ktvq+J4TgxKsrLFUL41VXBA5K42kdLL5cHcATjyWnTZm55vzLGmLNv3rhF+lcrlwhrWna1ER7W1S32PmOaF9npL8zXEiGVFjopgibnww3xUl73f07c5VsR+P8kDnZyoFBI880zYrn/OznP/OVTjWmEolYNBo1DYsxiggi0yo6uuwq1/WFl2da7OoeKRWzC2dPMS2rtpFXrDYrbP+R3v949ImXdhxumTpn3oJlixZ1LZsWaQiuXzFSRH2Dw5vWrt/5wvP7Nm/ad6R7xJfCslOtqURIFNPDq6+44nce+HAinjz3XQL4zRTMqeOCP/HzXzqOE41EDCGEYZiGaRqmaRiGYZimaQgRsi3H9Xbs2GlwsWz5UqNauF/Xqv/XzhE1WolHkw6K5peK5S//3Vf/878eJkaWZSmtxz2jgq+wfLGw+oLz3//++2079Gup6MvG8zrvAwDAGxECIcDJGGNaasHNxoa2p37x7LFjh+2o6fie55XzxdySOeff864PJWINwXqz1bLsTHDO165/tuQXBDeU1LU0qBRppctO6ZLzr7nm4puEIZTSjDgxzak2g0Wf2JgJfqlejlWqGhE55wvnL+49emzDhhcZsZIri47XnIxOaQgnbMuO23xKojw/VVna6C1qElNiliFsbmjh9w7tHcz0pmIz4pHkJAceNDGndE557rln9+3ZH45EEolELBKNRCOGMIgoZjMtQqWKciV3pW/Koq9o56HBkUx6zrSWcDhC1UV4z5pSFBy17/m/fG79d374dH/W6Zq7ZM78JcuXdCzpsEYXmCCfqPtI70tr1+548bm9W7bu7+vLSMlCdlN7YyzEC0NDF15y2f0PPtTS3Hr2ewHwhhEkrtbWll/+8lcHDx2x7VAt4J1EKW0IUSgUXli7bv+hwx3t7R1trbWyh8FXUO0EDOaDBcVFnvrV05/7/Be//6PHXcerLSB+asQK9sTzPMbZRx/68AUXnEcn5kwAAPgNh0AIdSS4+H0mzZRgofMDe/c/+cSzuUzGKbsiZHW0di6YtuquWz+wfNF5RFQLPsEGOzunDgwc27J7o2Ie10a1xKjSgnHHrSTjjXfe9MDcmYt83+OcBf9j1dk8euzWRn9mtR+CcMhY0Mbi8+Yv2LRlw94D++PRSKXgZguVUNhIJG3TYiGfRRg1RsOd7fFkwmakldTCME1Bg7lDvYP74+EpjYkJk1Lw4kQiEcdxf/XM067ShmlEwlYkHA5Ho4ILQZSIcjJDRVc7SvhSWlTSSu48MnS4Z6AlYbc0N7IxL/UkL7ZSFPSCBncK7rb3wOH/+sEvn96w0wwnZyxYOnfhglXzmuc1CXP0URXf37f34NZ1a3etfW739m0HBoZyUlrhaFt7Y0RQbnjoossuf+BDD7W3v37rYQD8WgQnlxCir7/v2eefNwxDCDF6No3DMAwp5c4dO3719DObtm7N5Qsh0wqF7CDp1aq3Dg6N9Bw5uv6ll77xL9/60t/+/eatWw1umGZ1NfCJ0iBjLJ/Pr1qx8qMf+VA8FnsdxosCAMCrCHMIoV7UqpZrrceWTR+34aIVEaeeIz3EVDTeEDFjd9x216WXrkmGU0HYUEoFM1NqjzDIuvd9Hyn5xSdf+KmvXM2Z8hgReUwVSqVLzrtmxcILiYiYZiS0ClpztSc8YR9qlQBPan4xxrSWXe3TP/bh//XxT324b3Bw6ozW4YHi5pI7bWbjtNkNkWZTllUuXc4OFZpbI43tEU3kK21aZqNpFEr7fv7y3+Xd9yyfeSUjOnWJQs550JK76aabfvbETzds3pJIJOyQxUlzg7e3TzUYsxnN6whp3iqY6GMiK0SSD3Aqbt19tOfYyGUXHr5qzdKO1tbaq3pC4Yexx8I5G/PsR3p6n1m/deO2vSVXtE2d3zlr5txZU5Z2RVtCrJaXc6Xy3j37dr/80t4N6/bu2dudLVY4s6OxlpaUxbxsOv2Wq6697wMPNjedvjIewBsd59V5erfefNPjP/qfHTt3xmKxSe7PGLMsSwjRe2zgu488+qMf/WRaV1d7W3symUylkrZtu647ODQ8NDw0ks4MDQ1nMhnOeTwWE4JPshJ9sGXXdRnRjTdcHxSJRRoEAHhjQQ8hvMnVegVrg6OCYVG1W2rTZogoyIpEFCw8+NgPHj109IAwqCne+sHf+dDcuXPjiTjjtSvlJ/bpaQrbkeWLzovy1t7uoUxuSHq+7yvF2KqlF9z37g9PmzLb9z2tiVWXTGCM+GjiO76p2rpYp/SvVYvJM8Znds1hBj393FOu6ycSUU2Uy1ZG+otCczNh5qQaGCxl0p7jk+8rpyRdV5KmeMz0/fRQemBq8/yInVKk2SmjO4PAHA6HY/HYU08+NTKcUUS+L23TiIUjkVicMTIZNcQMI2z7ZPnSkMQ4U2FT5QrFHfuO7th7JJ3NxiKhWCTCOWcTTOwJnjhfLO3af+DHT734g5+/uPtgvxVtmTFvybyF85Yv7Fw+JdxgsupxM+pPZ7Zt3rJr/brd617cvXdfd67kcRaORNrbUlw6hXTmuhtvvPeBB5tSTRirBnUi+KgnG5KmZT73/POe54nq/MDx7xzM0bUs07YsxdjISPrIkSM7du1at37DunUbNry8af++/f39g9l8Xitlh0KhUKi2tXG3WjvXRtLpt77lLR/7yIPxeOI1O1wAAHitIBDCm1wtfaSz2V/84hc/f+LngwP9wjQ554bgXIjatJnq0EzOGWNS6h89/oMfP/64Lz3LCJcK5ZXnr5g+fVqwzWw2rbU2TfPEZyKlVDgU7Wqbvm3Dzt6DacMVQ735iy+8/rOf/MsZXfO00oo0Z5yYJsZZ0EvGgm46RmM6BoPr6yeuGFYNs0RcKck5X7lsVSY3/NwLLyjpNyQjdtR0XP/Y0ULPobRbcts7Yk1tEUnc8ZSW2nWlW5bSk5FotC25uKt1VTgU0+MFQiJiTBOx2bPnDPX3rX1xvSSqVLyy41iChcPhaDTGOTOJGqMinrQNK6KZ7ZPFhbBMbgoaGclv3Xtk3eY92/Yd6h9KF4pl1/M933d8xy17FddJp7MHe/pe3rH/yedf/slTLz714ubu3mwonGqfPm/2ghus1joAABkCSURBVMVLF09fMadpboMwR3dNkjrc3bNpw8Z969ft2rBh+94D/Y5UhpFIRFpbk8orOfnize9+333vfzAWjdF4o9oA3pSC61mMsUUL5w8NDL20aQuRDpYNPPWySG18RPBPgnPLNC3LioTD4XA4Eg1HwmHbtkOhkGkYwddg8BV0/PrNGLV/IqJMOnveihV/9pk/nTdv7utz4AAA8OrCkFF4k5NaD/X3b9m69cknn9y2bevQ4JBhiLb29taW1sZUQ3NLS1tbe3NTU6KhIRqNWpZZqTjd3d0bNqzbvGlzuVwO25Ym7grnxRefmTKlVWu+fce2555/1jTsu++8c+6CBWPXeg7+v1J2hgeHuMuZSLi5kUKPZ/AoESktqdoPSZqUDlYn1JpxRVRdM+v4SMsTSsNXuzCD5hfnQkkphPX7H/rjgfTAf3/vu1rzaTObm9pCnPNSzk33FQVpY3ZTMhW1DGaYxJnWUniezGWdRMQlJoiIE59gqk+1c/L9Dzywedu2TVu22yHbk55bccquu2yJM2Vql2VaJlFXjMdnx5pS1v7uRF9/Kj08WCqko/FcKV8olkrbdx3ZvvOQFbKS0VgkYlumMAymlCwVnGKlXPY8ItO2Iw0tM1JNbc1tHZ1Tm+Z0JLqSIiyItA66JDL5/KFDB3dv2ty9a8eeHbsPHBssEHHTTCbDqWTMK2Wlr2+7+553vuc207TQNwj1JhhKIITx0Ed+t29g8Ic//kkwNJQmKOtSu2XMF1cQ+JhmSgcTe6mWAyfsbKTqqu40MpKdPXfWZ/7sj1etXE6vy2oTAADwqmN6wkVmAd7YXNd9ce3aLZs29R7r2bNnXyaTiUUiUqpiqaSUJMYMITzX1aRDlm1almkYwjAYUalc0lqH7ZBhCsaYlloyraWyQhFGOl/MOeVKOp19xy23/OEffurkfkKib33zG//2rW9bIatYLg72D5bLlffdcecnPvnJVDJBQbmaE/vlpPK1JsEZY9U5heMuFFa7kTFGipRWwhC9A4f+/Et/8sgPvxuPR+bO7+yakQyFzVy+khuuWCbvmpXsmpqMRW3GtWEYBtMV1ys5bkfjeW9ZendragZN3IBTijin9evWPvTRj+dK5amdXXYkPH161wXnLV+5dGnX9BkNyYbgnh7RUFn1jng9A7n+/pGRTN4t5d1i3vMrnuc75YrnVrTv+UoyIm4Kg1uRWCwciUdiiVhDqqGpcUpbamZ7pD1uRI9PqiTfl0f7evfu2n1g2/aevXv3Hzx4ZDDtch4KhxuSkUTUzA0PxZLJ2+6858abbmGoagh1r/do7+e++KVHH/2B1joej526qsQEgi8WrkhxOk2W09UZvWRw4Us5MpJetGjBpz/9x1dfcQUhDQIAvGFhyCi8ab344ov/92tff/LJX+7bf6DiVAzDUEpL3zcNI5lsiEYipmlEopFwOGyaJpFWSivlkVSMaUaiVCpns9n0SHZoJJ3L59LDmexIhkiHQ3bEDoJlceacmVM7pxJRJpPuPtK9c9uO7zzy8CMPPyyVjMfjxVKRNDHODuzf33esv7O9s6W1hRFTSu7fv3/z5s253Eg8EQ9ZYc65VL5mFFR7H7eoTG3yndaaccY4I0WJeOqiCy6xQmzH7l2HDvW4jt+QspvbonbcLBf8dL9TrqhQmIdCBmOCODMNIRj1jRw40r83Hu5oSrRP3AmgGGNTpkxNJeLPPfdMvlAQwshks4PDacctM61sw7ajEc65IIqbrDlhtLZEWpsTqVQqFm+IJFPhWEM0low3NMYbGhNNjYmmlsb2zpbOaW2dMzqmzeiaNWPunOmL5nYsndm0oMNuDXOL155aj6Sz23fs3LJ+3d6XX9q3fceuAwd7MjmyQtFYuKkxanOVGRnsmDrjgQ8+dPW1v8VOea0A6lA8Eb/04jWmZW7evHlgYNi2Q7Xho8EdJjhHqtOhxx1AHhi7BU6cNJVKxYrrXrzmoj//9J9efuklhDQIAPBGhh5CeLMJ2iVDQ0Of/exn9x/cf/mllx471v/kk09qoqhlR2IRK2QxYkpL3/dN0wybFhdCEbmuWygWctlcPl9QSoUjkWgkLKXWSodsKxaJ2ZFQ0B+olHQqTsVxFi5YuGDhgnQmffjwkaNHu4eGBrOZvGmaXdOmC86Gh4d932eaudJTpKdO6br0sks6Otr27tu/c/vukaGh5qbGi1ZfdP5FF6w674JkPKG0ChYgDC7tT9S6Cv61OqdQM+KktX7qxZ8+/IN/27xjk1S5jimRrtkpM2bkht38iGtboa7psc4psXDY1sQYE0r5mUyOsdY1C99zwcLrDRGUqzm5OVhr4X37G//6+b/+a87N1o5OYiyRaJg7Z+ayRfOWLlkyrWt6IpEQxvHB566motQlhwquLFRkpSKlr5Qi4sw0uMl5OMRiESMe4nGLQoxOeGqlBtPp7u6e/Xv2du/bO9B9qKenrzebKzi+GRLxWLQhFvGdUrGQXbHq/Hvuf3D+/Pmv9scH4I2q1hn4g8d/8vWv/9+NG172SSeiEcOyagNEldYnnecnpcSJmgS1bFkqFUplZ86sWe959zvf8653dnVNeW2OBgAAXj8IhPBmE8SYXbt2/ed//ufq1auvv/76fCH35S9+6bvfeyRmRxYsXVwsFHqP9jJGjAnT4EKIYqmUTmccx0umEp0dU6dN65o9Z9bcOXMj4cihAwePHTvmuM7Q8PDQ0EC5UuKMc0ZKkes6pWLZcSrZYs4tOZoxIbgQoq2tvaW5uVwuZzIZpZTWpLT2fb9UKmmlLCNk2VY4YtshwxAG4yZnYumypXffc9eixUvP/BjHzgUKYlu5XNi+b8vWXZv2Htza07fdZ3krJqQny0VlMLOtMzJtRqqhwVKkBReep9PZMsnwsllvv2LFOyPhyLhPVGti/ss///P/+Zu/9SV1dHaQ5twy21pbZs+esWLxovlz53ZOmRKLxYRp8VrbUpNi5BMpTVpXC6QyRoKRcTz/HY+CjuOOpDNHeo4c3rfv6KFDA71HB/oH+oaHR0quIm5ZRkPCjkfsQjartP9b193wvtvubmlrIfRLAIxRO2GP9vY98cQT//297296eZMnlW2HDMMI1iqkMePP1XgLStROqKBIMBF5nuf7vud55Uol1dBw0w1vu+vO21etWlHbCM5BAIA3NARCeHMql8v5fL6lpSVoHhULhYcffvixx35ghqxyqdTT3U1EpmX6vl8qlpKxxPIVy1ZfvHrZypVdU6YkGxrDtk1E69ZvfPTRR/bt2dPX1+9JN2SakUhYa1JSVypOOjtScbymVMPUrq6pU7rmzZ8nONu2fWtmJO057sDgUKlcKjtOpVisOBWluDCYVlprHratRCze2JhwfHdkOD99epfvK8fx/vh/f+qqq64+k6MbGwiJSCnJGOO8OgOv5BQP9+zefWDt3p6tPcP7RzIDxbzrl1UiFVm5bFZ7e7Sic+VK2fWpVK5ks/6lS26/Yc29hrDHfa5aE/O//us7f/XXXxxOZ9vb2qPRGHFu2qHGVGrm9GkL5s6ZO2vGlK7ORDIVDkdNwyAiOZr2GBEbjX4ndkZQuVLOF4qDg4Pd3UeOHD4ycLR3ZLg/Ozg4kMmnixWftBBmyDIaYiFL6EwmnWpofN8dd13/tpuskDVOnyZA3Rsbz/r6+372sycf//GPd+zYmcvlS+UKkbbtiGUZnHPSmovR+lJ0fNyB0kr6MsiK5bLjuq5pGk2NqZkzZ523asXVV16xes2Fljlh3RoAAHjDQSCEN7+ghbRn9+6HHnpo5cpVl1526TPPPPvC2hdGBocMQ6w677zbb7t99erVsXh87KMyIyMf/uhH9+7enUoms4WC57jFUlmQtkKhilMpFHJtbe3XXHPtlVddFYlGnYqTzWaPHD54+NChgYGBocGhvv6BdDrNBSUSDW3NzbPnzZszZ3bEjnb3dK9d++K+ffuJayXpwosu+tjvfbStpe0nP/qfmXNmXX/9daZx+tq/JwVCIkXEgsNkxIOcpImyhZG+wZ6e/n2Dw735QtoU0XkzVqYakiOFA8P5PUV3yPWdYlHObl/91lXvDtnRiZ6u1uz72U9/+tdf/vLOPbsaEs0NjQ2cC82YZdsN8XhLW+u0rilTOzs629uaU03JhnjEDluWaZqG4IwYI01aMV8qz5cVp5zJ5YdHRoYGh/oH+vt7e0eGB7MjuVIhWyhV8o7reJJxZplmPBoKm9wplzzPWbxk+Xved+eFq1e/ws8BQN0YGwvz+cKBgwe37dixfv3Gnbv2HOs7VsjnPc/3pdJKKimrrQDOmNbEucGFaVqGKSzLikQj07umXbz6wtUXXjR3/qy21rZxnwIAAN7QEAjhTavWXgl+WL9+/de++rXffehDy1euLFUqWzdvOnDgQKqxcfXq1bWCmcGdlVKGYWzfvv1Tf/RHV1951bVXX6O5LhQKmzdvfux739+9Z3eqMXXpZZfdfMs7Lr/0cs9z/+Er/7Bh44bh4SHf9yORcKlY6u3pcaU874ILrnnr1QsWLeia1tXW1h7UgieinTt3/PR/frJt285p06bdcedts2fPPWmHz+TQTgmENNphpqXUpIkxIcSEdSKkkp4qeJ4rmBmy4oKL8e93il07d/7DP/7jjx5/nAne0tZhh8NaVRdwNC0rFo+kkg3JVGNzqiGViMfiUTscMYTBOXFNrvSKJbdYLOTzuWwml8/n8rlcuVRySyXHcUqO60opNRFxw+DhkBUOCZJuoZBrbW299rduvPHmW1uam85wPwHg1K+UbC67e+fe3v7ebC6fLxZK+VK+UMjnckKISCyipbYsK5VqSKZSkUikIRaf2tU5Y+ZMe/S7i8YscP+6Hw0AALxWEAihXuRyuYH+gZmzZgazaMaqVVwYGyAPHjiwdcuWK6+6MhZP1O65b/fu3Xv3NLc0L1++3LYjRHTw4MFPfepThw4fSiUSpmm6rjc0NJhqbHzPe99709tvbmtvowkU8vlYPBakuLO91q6UGl2n/oSbx96iSHHFGCdi/FUZXFnbyXw+/8gjj3zjG988ePBAJJZMNiTtcJg0Mc5JcFMIIQzTsoRhmYZpmAbngnNOpKVyfd/1XFe5vu95vpRKSt/zldK+lJpIaxKcmya3TMG1dJ2SaRlrLr7k5pvfu3z5smBlQvRLAJyVyYtUEZHjukIIQ4hJhmGPuxYOAAC8OSAQQt0ZN/6dejfP8xjjhlGtwcCI2Il3CwZSPvWrp77whc97jmeHQ0qq/oG+aVO6Pvp7v3/FFVcEdzu1bMPYFZ9rozFP22gbSymiMXN+ajcTUXBkwe+cExEbc/fRQyY19kGcH3/I6Z5X1XZ+x44d//Hv//7EE0/0DQxZdqQx1RCyQ5wx0lozTlIzHlRBZcQ4Y4wzIs611jyoNENaSqmUUoo0aaYZE4wzZjBN2pO+Ew5HFi1efN3b3v6WS99iR8KErgmAczD2i+jMRyKc7UMAAOCNCIEQ4Cycmh6//c1vf/vfvt3V1THQP3Tg4IF4LP6Rj33s9ttvp/HWoJ98U69gZ068gQex73Vruknpbdyw8fEf/vCXTz3V3X1MMYrHk9FomDPBGWOG4KQZY5xxYowFWVVz0lJp7SmSUmotSXPOmeBaS1+6FWFQR1vr0qXLL73iigsuXJNqSL0+xwJQt1T1qhAAANQpBEKAc/Lyyy/3HDkyY/bM3p7eHTt2zpg+8+prr4rH42/u+ntjuwqJaPv2bU8/9atnnnt+x64dmUxOM2YIwzJCRsg0DMMSggcJ0TA0ke9L3/c931fSV1Jr6XPybUu0NrXMnDtr+cqV559/0cJFi207XHsu9E4AAAAAvEYQCAFeoSCojBtX3pBpUGs6y30+KRYODw/v3btn+7btW7du3bNv39He3mKxKH2pNWOkuDC4YMQ5SWJMC4NH7FBDItbZ2TFz1qz58+bPn79o5oxZTa0to7tzwsheAAAAAHgtIBACAJHjkNZkj78U4eROnf3oOs7I8HDfQN+xvv7Bgb7B/oFMJl2qOEpryzJT8URrS2tTU3OqKZlqampt70wlGywrdNI2ORHGsQEAAAC81hAIAYDI84iITPNctnGaujhKa62JnVyb56QtoD8QAAAA4PWEQAgAr6aTSt1MEvDO/J4AAAAA8BpBIASA19Cpq27UIAECAAAA/NohEAIAAAAAANQpXKEHAAAAAACoUwiEAAAAAAAAdQqBEAAAAAAAoE4hEAIAAAAAANQpBEIAAAAAAIA6hUAIAAAAAABQpxAIAQAAAAAA6hQCIQAAAAAAQJ1CIAQAAAAAAKhTCIQAAAAAAAB1CoEQAAAAAACgTiEQAgAAAAAA1CkEQgAAAAAAgDqFQAgAAAAAAFCnEAgBAAAAAADqFAIhAAAAAABAnUIgBAAAAAAAqFMIhAAAAAAAAHUKgRAAAAAAAKBOIRACAAAAAADUKQRCAAAAAACAOoVACAAAAAAAUKcQCAEAAAAAAOoUAiEAAAAAAECdQiAEAAAAAACoUwiEAAAAAAAAdQqBEAAAAAAAoE4hEAIAAAAAANQpBEIAAAAAAIA6hUAIAAAAAABQpxAIAQAAAAAA6hQCIQAAAAAAQJ1CIAQAAAAAAKhTCIQAAAAAAAB1CoEQAAAAAACgTiEQAgAAAAAA1CkEQgAAAAAAgDqFQAgAAAAAAFCnEAgBAAAAAADqFAIhAAAAAABAnUIgBAAAAAAAqFMIhAAAAAAAAHUKgRAAAAAAAKBOIRACAAAAAADUKQRCAAAAAACAOoVACAAAAAAAUKcQCAEAAAAAAOoUAiEAAAAAAECdQiAEAAAAAACoUwiEAAAAAAAAdQqBEAAAAAAAoE4hEAIAAAAAANQpBEIAAAAAAIA6hUAIAAAAAABQpxAIAQAAAAAA6hQCIQAAAAAAQJ1CIAQAAAAAAKhTCIQAAAAAAAB1CoEQAAAAAACgTiEQAgAAAAAA1CkEQgAAAAAAgDqFQAgAAAAAAFCnEAgBAAAAAADqFAIhAAAAAABAnUIgBAAAAAAAqFMIhAAAAAAAAHUKgRAAAAAAAKBOIRACAAAAAADUKQRCAAAAAACAOoVACAAAAAAAUKcQCAEAAAAAAOoUAiEAAAAAAECdQiAEAAAAAACoUwiEAAAAAAAAdQqBEAAAAAAAoE4hEAIAAAAAANQpBEIAAAAAAIA6hUAIAAAAAABQpxAIAQAAAAAA6hQCIQAAAAAAQJ1CIAQAAAAAAKhTCIQAAAAAAAB1CoEQAAAAAACgTiEQAgAAAAAA1CkEQgAAAAAAgDqFQAgAAAAAAFCnEAgBAAAAAADqFAIhAAAAAABAnUIgBAAAAAAAqFMIhAAAAAAAAHUKgRAAAAAAAKBOIRACAAAAAADUKQRCAAAAAACAOoVACAAAAAAAUKcQCAEAAAAAAOoUAiEAAAAAAECdQiAEAAAAAACoUwiEAAAAAAAAdQqBEAAAAAAAoE4hEAIAAAAAANSp/9d+HQgAAAAACPK3HuSySAgBAACmhBAAAGBKCAEAAKaEEAAAYEoIAQAApoQQAABgSggBAACmhBAAAGBKCAEAAKaEEAAAYEoIAQAApoQQAABgSggBAACmhBAAAGBKCAEAAKaEEAAAYEoIAQAApoQQAABgSggBAACmhBAAAGBKCAEAAKaEEAAAYEoIAQAApoQQAABgSggBAACmhBAAAGBKCAEAAKaEEAAAYEoIAQAApoQQAABgSggBAACmhBAAAGBKCAEAAKaEEAAAYEoIAQAApoQQAABgSggBAACmhBAAAGBKCAEAAKaEEAAAYEoIAQAApoQQAABgSggBAACmhBAAAGBKCAEAAKaEEAAAYEoIAQAApoQQAABgSggBAACmhBAAAGBKCAEAAKaEEAAAYEoIAQAApoQQAABgSggBAACmhBAAAGBKCAEAAKaEEAAAYEoIAQAApoQQAABgSggBAACmhBAAAGBKCAEAAKaEEAAAYEoIAQAApoQQAABgSggBAACmhBAAAGBKCAEAAKaEEAAAYEoIAQAApoQQAABgSggBAACmhBAAAGBKCAEAAKaEEAAAYEoIAQAApoQQAABgSggBAACmhBAAAGBKCAEAAKaEEAAAYEoIAQAApoQQAABgSggBAACmhBAAAGBKCAEAAKaEEAAAYEoIAQAApoQQAABgSggBAACmhBAAAGBKCAEAAKaEEAAAYEoIAQAApoQQAABgSggBAACmhBAAAGBKCAEAAKaEEAAAYEoIAQAApoQQAABgSggBAACmhBAAAGBKCAEAAKaEEAAAYEoIAQAApoQQAABgSggBAACmhBAAAGBKCAEAAKaEEAAAYEoIAQAApoQQAABgSggBAACmhBAAAGBKCAEAAKaEEAAAYEoIAQAApoQQAABgSggBAACmhBAAAGBKCAEAAKaEEAAAYEoIAQAApoQQAABgSggBAACmhBAAAGBKCAEAAKaEEAAAYEoIAQAApoQQAABgSggBAACmhBAAAGBKCAEAAKaEEAAAYEoIAQAApoQQAABgSggBAACmhBAAAGBKCAEAAKaEEAAAYEoIAQAApoQQAABgSggBAACmhBAAAGAqbx0D/dmQSm4AAAAASUVORK5CYII=;" parent="1" vertex="1">
          <mxGeometry x="354.2" y="130.00000000000006" width="94.2" height="49.3" as="geometry" />
        </mxCell>
        <mxCell id="S_6DLKTQYWsLQOd7YUJ0-7" style="edgeStyle=orthogonalEdgeStyle;rounded=0;orthogonalLoop=1;jettySize=auto;html=1;" edge="1" parent="1" source="Vh4O4ErFu8xfbCtBkyOX-7" target="S_6DLKTQYWsLQOd7YUJ0-1">
          <mxGeometry relative="1" as="geometry" />
        </mxCell>
        <mxCell id="Vh4O4ErFu8xfbCtBkyOX-7" value="" style="shape=image;verticalLabelPosition=bottom;labelBackgroundColor=default;verticalAlign=top;aspect=fixed;imageAspect=0;image=data:image/png,iVBORw0KGgoAAAANSUhEUgAAAOEAAADhCAMAAAAJbSJIAAAAgVBMVEX///8AAAD29vbz8/PHx8ednZ0lJSV/f3/o6Ojr6+t4eHh1dXX5+fnw8PDS0tKTk5Pb29u2trampqZUVFS8vLxcXFxvb2/V1dUTExMwMDBiYmKFhYU9PT3h4eGjo6NlZWUcHByvr683NzdOTk5HR0cODg6WlpaMjIwyMjIpKSkhISG8gZckAAAKvklEQVR4nO2da2PiKhCGjbVV22i9t7XVVrf29v9/4DEqMAxDQgaSLXt4P+0m2PAkgRmGgXRG3X9bo07e+beVd7p/uwoNq5sIo1cijF+JMH4lwviVCONXIoxfiTB+JcL4lQjjVyKMX4kwfiXC+JUI41cijF+JMH4lwviVCONXIoxfiTB+JcL4lQjjVyKMX4kwlK4mvcVi0RsPWrkaVBuEvfs/mdLbarZp/JJAjRMu1pmpx8/2IJslzD8IvLPeew1eF6pRwnsrX6GncXNXBmqQcFHKV2h51dS1gZojpNqfoWlDFwdqinDjwnfUqpGrQzVEWP2GCu2bXg3RDOEOYXw/Tyej4/F8MN6+onOPDTfGRgh1wLftUD89vtPOH441GD70FtNF76EBl6cJQu0VfaLsXq7Zke8X8J+v/jTsQ22AUOtkbJ1ld1XSNl9mARtnA4SgqvOSmvZKELPsLphbF54Q2MHP0oIVBuV1FKY+wQlBI9yVFrS7rEL3QSoUnNAR0Mlg3oR4VUMTqk6y7Als3l0AK18DJwUmzGXdliWFbh35jnr2rlJgQvUI7WW2BsbrbHx2Coa97RKf861SYEJZsYWtRO8NI2CXYLEMihiWUPYf75YCgzni61M2YaC5A7d+dQpLKOv/QJ9/Rnxzmx+62YNSM686hSMcztTb9UKW2CG+t7JQDTSXE596hSKcQu+Z9EYfnhBgxaMZg6I+NQtDeI0qb5YY4aDGbaVzPQjTFEMQ4rcvmxtFcNTt3cVbGQZ5T/0JB/sMa4uKGC6a1Zbomsgf0A3bSd6ExgM8Sg+ETl7Q6Q/GH+fHj30JyYEstHH5HTq5qjOEl90z/yF6EtIeNCgwQqf29VpUV/6Q3RL9CLEBOOsASiA3kwxq5B/Lla1lyl76jltHL0K9j/mcXf5xo0rkegnyr8xKHy71YtSSD6HmY96ryAsgBB1+tiTDEsoTX5E1kXaG29d4EH6C2s+L7qOU8JucaRpqd+maKCEbcp9ZTT4hjJXttCMUIT1Yx574I/GgRGf2xqwnnxBU7NKE7IT0/d9lpuZDXEoOmJmBYjYhMHOiUlZCsh80PPGLcHckHRvmhCqXEAQ75V2vQzjCEzRAyKSIw8yoFJdQmXo12K1BCDzxo5mAfdblENC35eE6ikmoBm/Ay3YmhJ746YGNcPwJWg5xjjmEYhLKTh4GZBwJN8ATl89lfIMY1Z0Tscc1p6JcQmXmYNfnRNgFXZTmA8wyXdJy9EVpRkU7XELZjLTAtgshiAbc4M6xn+m6WI6/QvgoKqGFIqoJe/KH2YHoGgcwO6zQ6SUWD50ZOGURSlOhN/4qQg3A4qU+Zrqmqqdhum0sQtlk9LBoBSF+CekpCRzU2g+EtXAPDWhiEUprrR8uJcQdSSHShlvnv5nZRSxCcU1koayEt5oxAM/yi4yNG4Gds5ijfA6hDC2gu2olXAMX7WjL4VN6Jf3pKUVYu56X2jIIpS+M7mrFCLjQy/knExAdoJuXmdbIjUVxCOXIMKeP2wlVNAY6buTo3QiSc2f1OYQ7y3tTRajXETwlOgI+/oY/zrhz+hxC2S2i4+WERvYIHEA5DJG5cxc+hAd0vIzwieo14SCYtBw5tBzMacSWnqFt9AqeEh2qgu2VZy4abofnGTJzLkoJBNvWlCMHggmPtWtayKsv7dLHDcIyj1ILt1H95ZU6zRrlN2wPz4RlnQTyVonoPpj64KSfevk0qHWFIMxeTKugphE5w3wvvxSloXsQwvwSc/5bee0Mo9jw2MKVsKs5coZdkJE9Rmq/3/hQ7+AFIejzXAkL/xu42z/IcqikBUab8hrj67dU1kOZ9zqE2lzPkipFPd5KecZp9B8r2yZctHqEnaGKm/7RSsn+tP4IwzPWpkcicjB0PZu2moRHd/uHbgGy6dfOjfaNl6ILwqFrYdpqE6qOWk9ZkV5G7ViGb8zbcMhAWzoOdz0I0XSpOFw74uY9b2H41HAO4m4SjFC8pvu6VfWfezKNsDEHEYLQNqCpVID5Q+IP7MITyrfGmCSuEHsOWGWjv1F/oe9K+OxIKO2FJTnXqhDz+AfqtsIQvi0nutDckVAer5t1wieEGa7kVeEchM0VEa9zDULHvEYpj3wamKdMv4dgDuKHugkqmvY7CfW8RNISw+lQI2sdmpVfSvgACUU4GwlOaesunpae8CvboZnRRCemwWiZcg/QzEQ1oQzXtNeXdjrYsNOJaVp0+xIynODM6WpC+cK0Zg9hdqvSgZ6DANHt9Uibe1qtHAl34njtavIJoblQoucgYHQbrFw7PlJXn0bcldb80g49q1uoT66k2BEli2b5W8cWhURnuB8fUM1p+447pnPX6kgoX5i6xsKHULw3azO9gLTvnRFMlxXm0ZFQNt3aOZgehKK+xXtjpBcsiS4PLK1Ui7rcCKWtKHNxaXkQiiHieTbBSC/AkwzQTQURCjdC+YbXT8EMRkikF8DawKWVWlDbiVBNXdTfbMGDUAyPVO+G0wtUMgnoZZA5cSKUt4ex6sKDUJhxEBY20gvOySQ7cAT3hS6E6veMyScPQjGM14K0KL2gSCaB1t5MLXEgVBETzo5EHoTSROiH4QNDohZ1VRMC75CzVYYHoRw0YD8Nm/aL6HU/t1WEuVrezkqp8SCUEzFGD26sSS9EL+q6OKl2wqFymH5Y1fQZPYkrE8m7xr4C9BQ8tVpEJ4Qrc3g5Qz6EckxE/QltbwjKw9Fug40QBiVbXm9RSJp4vO73JLW/h5HQfZL2KtOEmg/RZk6U/K28On3+skeLy6IucEIc+phqbzozj91zhaUMltnCob2712uX0SLMschIsQH9CFU3UM9dHONFXeAlzTNKHpsP+q0D/uHUwHDttBgduT8WM4n9JD9C1RW4D72xe44cAWqTM6+NTj1Xq6uAoqOxMrZXwI6Amf786rc9nSchiLe5+IyVw+ROB5egkzJryHdPBdCmKhFdQh1Xeomn2oEn86qehLDrq8hwxeEq0hHQQpR3dSP4lLx3/oA9A+nbiHJuIUfZsL+fA20W7b97C+wa3q37PuFVaZbArrxf4XbfDbADj7Zm+ZbysYd4f5M/tjvxJUqE2+07xB5D+mhwjSvXw4t8qX0FzlL21btSUkH2icII663YQ2+8NTe9pqfgTpWRZcpadE2F2QkLv4UloqdRz1KNNUCdhALtZmabh8Kip8IvUvPe9sdcX6H2a5tgY0Cq1H6ru4QX43gp3J57lggbUHmoDLwGQT+bEHDfxAHucJDK49XgBoXdiT7ozpCbsi2ss0NJG+wCj4C3+Mf+p0MSHh3nrbk/nZJ1Q1kt5BR4X/bwu12PprcwSPH+A2tPOqO9L1gk9LdLGvo2wmB83id/aOzYhr8wM5rpaTnBv3jRwreC8Grnx/50cgo95ZvFJx7whv+kRxtfQ+qayVM2NfB5nXa+aFVhR+TTbeJ7Vy19s8vJq2vmiyxtfZVsWL0Le0MfgGrvy3ILvDGLrpDOtqY2v523+Gqfr13C4wgEr4k9ydiVPajaJTxqcq2N+uf3TX9/rXXCQvlmvCi+hjiJ+6tkv0WJMH4lwviVCONXIoxfiTB+JcL4lQjjVyKMX4kwfiXC+JUI41cijF+JMH4lwviVCONXIoxfiTB+JcL4lQjjVyKMX4kwfiXC+PV/IPTbseD3K++Muv+2Rv8BTKxt60e+PzYAAAAASUVORK5CYII=;" parent="1" vertex="1">
          <mxGeometry x="354.2" y="215.5" width="50" height="50" as="geometry" />
        </mxCell>
        <mxCell id="S_6DLKTQYWsLQOd7YUJ0-6" style="edgeStyle=orthogonalEdgeStyle;rounded=0;orthogonalLoop=1;jettySize=auto;html=1;entryX=0;entryY=0.5;entryDx=0;entryDy=0;" edge="1" parent="1" source="Vh4O4ErFu8xfbCtBkyOX-9" target="S_6DLKTQYWsLQOd7YUJ0-1">
          <mxGeometry relative="1" as="geometry" />
        </mxCell>
        <mxCell id="Vh4O4ErFu8xfbCtBkyOX-9" value="" style="shape=image;verticalLabelPosition=bottom;labelBackgroundColor=default;verticalAlign=top;aspect=fixed;imageAspect=0;image=data:image/png,iVBORw0KGgoAAAANSUhEUgAAA0IAAAE5CAYAAAC9JJBfAAAACXBIWXMAAC4jAAAuIwF4pT92AAAgAElEQVR4nO3d3VFbydbG8W7V3OMTAUwEaCKwHIE1EYAjMK7SveFeVcYRWERgiMAQgVEEY0UwJgH1qdasbW9jPqT9tVZ3/39V1JzzvmdgS2y0++levdqHEBwAAAAAlGTEbxsAAABAaQhCAAAAAIpDEAIAAABQHIIQAAAAgOIQhAAAAAAUhyAEAAAAoDgEIQAAAADFIQgBAAAAKA5BCAAAAEBxCEIAAAAAikMQAgAAAFAcghAAAACA4hCEAAAAABSHIAQAAACgOAQhAAAAAMUhCAEAAAAoDkEIAAAAQHEIQgAAAACKQxACAAAAUByCEAAAAIDiEIQAAAAAFIcgBAAAAKA4f/ArBwAAANDGaO7GzrmJfL1wzr185NstnXPfnXPX8Ws92/xThQ8h8EsHAAAAsJPR3B04506cc1Pn3H7Dd+/OOXfpnFsMHYoIQgAAAAC2NppvVn1On1j1aWoVv+965hZD/DYIQgAAAACeNZpvSt7OnXNHPb9bN3GlaT1zt33+EJolAAAAAHjSaL4pf/s2QAhystL0dTTfrDr1hhUhAAAAAI8azTerQG+V3qG4OjRdzzYNFjpFEAIAAADwoNF8s19niFWgp8ROc5OuwxClcQAAAAB+YyQERYex1bbsUeoMQQgAAADALwyFoErnYYggBAAAAOCH0XxzNpClEFSJYaiz1trsEQIAAACwMZq7cezYZvzdeLeebRo4tMKKEAAAAIDKIIeZtnQ6mruDtt+EIAQAAACgKok7TOCd2IthqO03oTQOAAAAKJw0IfgmISMVr9Yzd930WlkRAgAAAHCcWAhycs2NEYQAAAAAnCT4Dhy12StEEAIAAAAKJp3i9hN9B6ZN/0WCEAAAAFC2ViVmyhpfO0EIAAAAKNsk4Vd/KI0edkYQAgAAAMqWQsvsp4yb/EsEIQAAAKBQo3nSq0GVRq+BIAQAAACUq3HXNUMavQaCEAAAAFAughAAAAAAlIIgBAAAAKA4BCEAAAAAxSEIAQAAACgOQQgAAAAo1/cMXvm3Jv8SQQgAAAAo120Gr5wgBAAAAGAnOQShRq+BIAQAAAAUaj3blMatEn/1BCEAAAAAO7tO+C1brWeUxgEAAADY3WXC71njaycIAQAAAAVbzzZh4i7Rd+C86b9IEAIAAADQOFAoumlaFhf9UfyvHAAAAFnw3r9wzo3l60D+WXkp/7y7t7n+WtovfwshpLxXpq2Fc+59Ytd82uZf9iGE7i4FAAAAGJD3PoadY+fcxDl32MFPvpF9J9chhBxaS29tNN8Ei1TCUFwNmrT5BgQhAAAAJMV7H1d7TpxzU+fcfo/XvpKVkkUIoXEJVipGc/dCVsf2ErjkV+tZu253BCEAAAAkwXs/kQD0WuF6LyQQZV0+N5pvwuVnA5fylI/r2eY+aIUgBAAAANNkBehcKQDdF0vnTnIumxvNN6tgRwYu5SHL9eyXvV+N0TUOAAAAZnnv476Vf4yEICdNF7567xfSnCE769lmz9XS4Ou6k3LIThCEAAAAYE5sguC9vzW8eT+umHzz3nc2MDdmYiwMxRA0adMu+z6CEAAAAEzx3scVia8ddYHrU2wq8DnH1aH1zH03FIaqENRpOSJ7hAAAAGBGDBWG96c8JQaGSQjhu91L3J10krusncM0tNi5b9p1CHIEIQAAAFggKyoLQ3uBmriTMJRdI4XRfNOs4u3AP/YqnhElq1OdIwgBAABAlYSg6wRK4baRcxiaSFjt8+wmJ+/hyXq2+Vm9IQgBAABAlTRFyCEEVbINQ+6/QBT3cJ32EIjupE36eV+rQHUEIQAAAKhJeE/Qc+KgfhxC6KzLmTUSiI472D+0kgC0GCIAVQhCAAAAUCFnBFltj92FLBso3DeauwPpMBdbiY+3WCmKIfFWmjBc99EIYRsEIQAAAAxOzt/5XMA7fxFCODZwHYMazTeB6LeW4uvZZi+YCQQhAAAADMp7fyArAnuFvPNvQgi9bvzH7ghCAAAAGFSGzRGek/1+oRSNSn8DAAAAMBzv/XlhIcjJyte5getADStCAAAAGERB+4Ie8yqEYGaPTOkIQgAAAOid934sh6aWsi/oITchhIm9yyoTpXEAAADolfc+dg9bFB6Copfee4KQEawIoXMy4/NC+sk76SdftU88aHEKcezFX/Xhv5X//K36YgMidiEdiw5q92f1353835o8rFdyP7oH7tHb3M+RwHBkIPVC7lVX+7x1DQ82rN+71T37Xe5jPl/RWsaHpjbBqpARBCE0JgPJsXxNWoacrtzUHuLX1OHC/Rw0TmrBR3OT7k01uJR7VOUQOaRBJpbuf2nNqC/r9y7hHtvy3sczdD7xhv3iTyYY9BGEsDV5IFcDym1ODbZiKQ/taxl48uDOmJRfTGpfKXQmuqndn4T3gtVC+6TFyuSQ+HzFk9gX9KiPIYQTo9dWDIIQniTdXabyUE4l+DwnPrgv4xez8XmQB211r+bQkvVKBg6XzBjmTYJ7/XM29cEin6/4Qe7v24zGD11ahRAOhvtxeAhBCL+phZ9pATM4K3loL3hop0XCz7Hcpzk/ZJeywZhQlAkZHB7LV85nqfD5Wjjvffz9vy79fXjCX/xt6CIIYUP2+5zIg7nU5euVHHa2oLzDJrlPp3KvljjDeCWBaGHgWrAj2ScxLXRguJJAvyDQl8F7Hz+nP5T+PjzjLIRwavoKa7z38VrfD/xje32PaJ9duLj6472PJTj/OOfeFl7Duy8f2v/G7jYy6IYBcd+EzCz+I7+jUsss4gD6k/f+ezyZnXvUvvg7ioOH+DuTzeKlzo7vywDqn/i3TPvgvMmKPSHoefwdKCMIFSrOTHrvv8npzk1arebuSB7Y1zyw9dTu0y+UV/xiTyYu/pHQPt7h38UA4u9E2gX/IwGAjeI/xb/lL/FvW1bJkBEp/bw09orunHMXzrk3zrlX8s+PslKpifGXMoJQYWoDy09sXtzKS3lgE4gGxH26kxjav3KP2iCrl3GV/StnpjxrX1Y4CUR5uTT2uR0D0EEI4TiWFcfOnPLPE2lW8E6CkgomsnQRhAohD+dbBpaNVYGIkrkeEYBaqYd27tGBSQnctaxeMsu7GwJRJmQPiaX7/0IC0KP7fkMI51KiphWG+LxWRBDKnDycL+XhnHN3oqFUJXPJbG5MAUG9Uy9rJXMvMnpdJsX3uFYCRwBqpx6IWN1MjPzOht5I/5SrGIK2+R9K5zatEM6KkCKCUMakY8steyt68Z6HdXsE9V7F0P5NPgfQA5kQ+UYJXOf2Wd1Mi8F9Qatdg00I4VKOKxgaE1aKCEIZqpVofGCDbq+qh/V5xq+xNwT1QcS//w9xtY069O7UVjBpgtCvl6zAJ+Pa2N/CtOExGBpHE/DZrIgglBk5DPWWEo1BvWWguT3ppnVLUB/UoTRUYEDZgpTBnbOCObj3fMbaJX8Tlv4e3rU4pJTDTQtDEMqI1Kl/ZnCpIj4Ertno+zRZBbpmEKmmGlBSbrQjGYRfS9tyDI8wb5BMvlr6m7iS5gfAVghCGZBZylvq1NXtyUZfPoTvkXv0klUgE+KA8pbQvj0J8F8J8Ca8l71D7KtQJhMqGqVkj1kqNjxAoghCiZNZylse0Ka8lZPTeVD/eo+yF8iOKrRbGsSYcy/Aw46X0giEZjW6Lg1NbMXW10+2yQYeQhBKWK1Ug3bD9ryWUrmiw5CsOnzlHjXrSErlCO331D5fCfA27UmzGroiKpBJFEsTsCct9gWhYAShRMlMmLUuLfjVYclhSB6UnwxcCp5WlcqxEV3UPl9ZabfvAyubw5IJLkul+PHQVO4BNEIQSpB8CH0hBCWhuDBUO2CSPWvp2Jf7tPgwxOdrko7YNzQM+YywtA827gtiVRCNEYQSY/BDCM8rJgzJa7wmBCVpT7pyFbvZWF47q5hpekk5cr/kvV2wLwg5IQglpFazzkxlerIPQ7UQRDlR2j6VGIYo5cxC0eXIA7B2XhD7gtAaQSgR0qaSEJS2Q2OtRjtDCMpOUWGIUs6sEIZ6IE0p2BeE7BCEEiAf6JbaVKK517mdM0QIylYRYYgQlCXCUIekGsVSC/llCIHzgtAJglAarLWpRDtvcxlgEoKy90lOjs+SwVludIcw1IHaRKwVcV9Qtp9JGB5ByDjv/SnnWGTpPJMOXZeEoOwtcuwmJ5MRHJSaN8JQewtj58DF5gjfDFwHMvEHv0i7ZPDxPuOXGNtePtft5SDTwzj3ZIA5SbXjjZQUvTRwKX1axRPst/j+Ob8Pe1Vr7VwGILLKVUJjhG0+Y3P/G672ZrKKsCNZMbU0EfsxhGBpdQoZIAgZZXA5uqmbeFijDCY3/2w6mJJDDuP7Mq59pRyS4gP6NMUzEGSlMpeSomXtHo1lfi6EcN3kG8nf7VgCfPyaZBLmYxi6TDm4V2SCKadN1vc/Y7836aRVu3dz+oytbPZmhhA4b2ZL8ry1ti+I3x86RxCy6zTRB9BSAtx108HkY2rf70dAlIf3RGb7Jgm+Z3G/0GXX71WfZDY95ZXKGwk8fdyj36swVSddH8e1ezXFv+3kZ9YzaDxzV927cv921jr43r370Gdsyveuk8/aWzqNPY99QSiJDyHwCzdGZmK+JHTJSzlf4FJ7tlhme4/lK5XBTiy/Gqcw057wWVZX8mBXv0fdz2A0lfs0tT1W70IISXY+9N5fJ1gKdle7d9UHp4nfu/G9nHD2zNMM/p38PdS9rzT+ugkhTAb+mY1INcjQE6FnIYTTvr45zRJsSmHGKj5QLpxzf4YQ4iB+YWGAGR9wcfk8hBBntN7I7L91+ymUxxk8Vfw5S7kH/hdCmFq5R91/92ksEY2lOjFY/hlr3+VvKgUfUmyeIA/wlELQlQwAX8RWwVb2RiR+71YlnjRPeITBvxP2BaFXBCFj5EPIculBfOCdxX0P8nA2u3laBr5xluVVAoHovcy0WnaayAxwHEC+shTQnyIDy3p4X9m92h+SGkzKLG8q5ZzVBNPU+gAw0Xt3P9eDrdsyWPZ8w74g9I0gZIgMhC3/0X+UAHSa0obpuA+kFoiWBi7pMWYfzjKQfGvgUp5yVRtAJrPnqk6C20EC9+q+lMOaV1vJtK4KQEm2B67duykEotc5n4/VhIw/LP2dsC8IgyAI2XJqtOwoDsj+kpm/ZDtGSSCK5RzvjJZyvJTAYUoCHQyXsgI0zaW9c+1etTyoPEpkMGl9lf0q5QB0Xy0QWf2crSwSWIUfkrUmItPUO1QiDQQhI+QD2WI74jMpMcpmc6ls9B4bnXHvbUNgC+dGA/qdbNwfp7oC9BzpcDWW1ViLzi2XyBlfyVzlFuDr5HP2QFa6LNpLZVWzb7G1uLGy57NcP9NhD0HIDmsD4Dt5SFscmLcmte0WB5imVoXkWiwG9BvptJf9QCbOikqd/F8Gw/u+0fBuvSTuo9y/WQ/25N49llJPi6tDxZfIyeu3NFlwk+u4AzYRhAwwuBq0lL1A2c/IyADzjYFLqbP0ELA4kIyzhZMcZ9GfIquyE4Mz7G+NdpE7MVgSV00wJV1mvCt5lhxIGaA1i1K7yBk8XJh9QRgcQcgGSwPfpZyzUNJDemFsxtLEqpDBDoZZr1JuozbD/sbYDLuplTmZXLLWJW5ZwirQY+TencreIUv2Uji+oGtGj0NgXxAGRxBSJh9GVlaDigtBFRmcTAwNLlUfzHJfWhocVPcmdeM/w7ul+/WlsRIjayWTF3L/FrWK+RApZ/3bWJBP4fiCrlnbF/SOz3doIAjpszLYLDYEVWqlRxa8Vn4wW2qQsOQ0+N/V7lcr+4ZMhA9ZTX1t4FIqF9IRjpluIecjWQryzupetz5474+NleNflbDfEzYRhPQdG7iG4kNQRQaXVvYMqdwbxvascW8+wVgY2pcBljZLA9p3UsqIe2r3rpUwdGTx+IKuyb4gS6FjZWQchEIRhBRJKYn2Hoz4EGK2skbKjs4MXIrWw8HKQJIQtAV5f6yEIdV7RwayLzWvoeaMWe6nGQxDWa8K1c6EY18QIAhCuizU1B9TcvQ72ZB/o3wZ+0PvuzC0GrQiBG1P3qepgQGl9qqQlYHsBS2At2MsDJk81LpDC2MNcN4x/oA2gpASI00SPkqtNh5mYWA5dFi2MHi7Y5Zwd7IR38KAUuUeMrQadEE53G5kMGyl2UaWvzvv/YmxvXPsC4IJBCE92h/6q5I2hzYhA3Hth+Jg94mhDoasUjYk75t2A5bBVzKFhcYzyxJbMXdBOoZZ2J95lFsHOdkX9MHApVTYFwQzCEJ6tIMQ+4K2ICtmmocA7g04qLQwgGOVsiXZ4/ZR+TIGvZdk4Ko9281KZkty71o4MDibScLaviBL+DuBGQQhBfLBpPnQvqJf/060A8JQQUh7hm4ZT9xXvoYsyPuo2Tzh5cCz6hbum2POCeqE9r0bTeU5nYNLY/uC3rDiD0sIQjq0N2My2NyBDG40u8j1HoRkg7v2w5JSiW5pv59Dfs5ov1ZWMjtipCR5z9Cepca896eGuig62T+3MHAdwA8EIR2aH7AXzFo2cq64CX1Parz7pP3QP2OWsFvyfmoG+EEGsxLiNdsBs9+yYwbuXZf6hKE0D3lv4FIq7J+DSQQhHZorQjywG5BZSs0ON73dMwb2V6xoNdwPeV9XSj9+qP1t2qsH7LfsgfK9Gx0OMAHVC4P7gjivEGYRhAYmg06tEiRWg9rRXNLvc0CpvRrELGG/NINCr/eWfJ5qlv6w37Jf6iFX+ec3dW3s0NQTVvxhFUFoeJqrQfTsb0FCpFZHoz4He5oP+xv2VvRLBupahwP3HbIJ8RmTe1eza2dy+4S89/E5f2jgUirsC4JpBKHhaQWhJTMynVD7QO+jTENm1DUfmpTEDUPrfe67PE4zxLPCPgzNsLmfUnmc/K29NXApFfYFwTyC0PC0PlSZkemAzFBq1a33EaI1ZzxvKCsaRo6rQrIPghCfOeWVeJdKeZxMall6zrMvCEkgCA1P68FNEOqOVilXHyFas1STe3JYWgP3vsI23TfLoRk6tY+72NalsX1Bx1ShIAUEoQFJO0sNS2ZlOqU1gO8jCGl1i1tRNz4sxdXMvtq/awYhVoMGJKFTa0XzcODDgXfmvV8Y2xfEuVpIBkFoWJTFZUBmuTQGlJ0+6AZqbfwY7kkdWg1T+pgE0ppYumE1SEWWxxe0JedoHRm6pDjxyr4gJIMgNCytWSX2YXRP5T3teGadsrjyaL3vnYZu+TvQKgOi+6YCWWHIaX9ma/J3YOl+vEux0x7KRhAalsaK0Io63V5oLft3GaY1SzWZUVcgJbIa7Yi7bv+ude/eUfKjSuu9NxeEpFnIwuC+ID7bkRSC0LA0ghAhqB9aq2xd3kM07iiTymAyk9VMQpAurdWPfYP7hKydF8S+ICSJIDQsjZkbyuJ6IDPrGmUanTyMFRt3OAaT6nKYVdfab8m9q0hWG5ZKV2DmPCHv/Qn7goBuEIQGongoGytC/dF4b7ualdS6HymLUyYhXmMw2ck9JyVB+118rx1RFmdDDqvxjclY4oOFaxHsC0LSCELDeaHxQzmwslcEod1xP9qgMaBP/d4lBNmgVVqrvk9IJgGs3YdTJreQsj/47Q1GpVGC0mstRRzUvx/4tXY1E65V7z5VXB3FTxoTM101TNAakBLiDYjNf7z3dwql5hb2CC2UVkMfc8ZkK1JHEBqOxsCDWZp+pfz+dt3Fa1v7xh7kGFDccN7B7DHHEOBa4TBo1c8t2RekdQD2Q+J5WhwsjORRGpc3Htw90ioHaNvowPop6chaF/eexv17R/mPKSp7X7WazMjPZV8Q0AOC0HDMnkyNVlIsPyQIQUsXZZEapZVMKtmi9fsYvLLD8L6g7wauA2iNIJQ3Ht79S3GWmD060NLFQFLjGAK6b9qi9fvQ+Oy8NHZoKvuCkBWCEJCetis6Kh0MgbYDSY4hgPvZAv5O4c0Y9LPTe3+quJ/zIewLQnYIQkA7GjNjbYMQpXHQ0nYgqRXi2R9kj0Y4HSyIe++nCl1Jn8K+IGSJIDScwWd1WL7GIwhC0NI2yKjcu7Fls8bPxZOy/Z1IQxut85IeM2FfEHJEEAIADOWw5c8hxKOiMSgf6v6zti/oHZMByJXqOUKj+WaZdSwd1Q6e6NO/ktmf+HW9ntEEAGiBPULA9m54r0zSKFfs/Swh7/15BxMGXboKIZwbuh6gU4MHIQk/xzseDFYdwhj/nfej+aZWNc6YnK9nbGIFdmTpIQsATWS3b8t7H8dGbw1cSmUl4zUgW4OVxo3m7ng033xwfe7gdOS4ZHzknPs6mrvr0ZwzeqCG1UlgOJTGIUvSEdHaygvnBSF7vQehGFJG882qzaeelpVjE4Ivo7m7HM15SAKAZS1P59f4jGeyA72SQ1MX7AsChtdrEBrNXew3/2WgUpy4ynQbV54G+FkAAECPSmmcdHTrGvuCACW9BKHR3L2IJWsKPfDjbMqn0dxc20kAANCREILWHqFOg5DsCzrq8nu2tGRfEErSeRCKIUhKCTRPQz6SUjm6YwEAAHMM7guKjaiO2ReEknQahGohyMIS72vpLAcAAGCG7Auydl7QCfuCUJrOgpCxEFR5SZkcAAB5kSChoauSvPMhziXawUUIgfESitPlitDC6PkksUzuxMB1AACAbow13scu9iZ576cG9wUxTkKROglCEjTang3Upw+juc6HJgCgMxob5DmnDp2RlSz2BQFGtA5CcnbPaQK/UJZ8ASBtWp3CgK6cGCuJY18QitbFitC5sc1+jzmUc42A0i1LfwMAJC+5A9RlNchSCRr7glC8VkFoNN+UDFguibvvhJbagKMEAtgeZdU2aQShVct//8TQxDH7glA818GKUGp/RHscFAYAydIojUuh4qFEGpOaje8/Y6tBcV/QlH1BQIsgJHuDUloNqjADgtKxzwKpUrl35eBL2JLa7+TYUKg+7qL7HZCDNitC00Rf/z4d5FA4HoDAbpLbj1IAjd9Jm6YCViZhP4YQOGweEH+0eCNSLjE7ZmUIBdMqh7igeyPaDCZDCNfee433ME6eMXg0QsrMNDqvNfrslBVFC53iliEExj5ATaMgJA0HLB6eui3OhUDJtFqlvogDWe48tHSnUGJEFYEtWr+Ppp+dFiaO7xKu5AF607Q0LvWHwiHd41AwrdI4yovQBY0gz+SZLVq/j6ar6RbuH/YFAQ9oGoRyeCgww4ciKT4MD6WkBWhDpXOc954gb4fK87vJirZ85mlX0LAvCHhE0yCUwwOBhxpKdqP02plZR1taQZ571w6N38Vdw39Pe9L1hn1BwOMIQkCZGEwiVVr7zLh3DZDGAxptqJuWZGreN+wLAp7R9kBVAGnSapjAYBJtad27DCht0Po9NA3gmpOuHJoKPIMgBJRJazB5yF4LtCEDu5XCmxj3CRHk9WkFoaafmVqfdzd06QSeRxACCqT8gGQwibZYFSqQTKJoNR5oes9pNYjhzDZgCwQhoFxaDRMYTKItrSCf8kHiOdB6/1ctum1qBTdWg4AtNA1COfSip58+Sqc1q/6a8ji0pDXIi+VxBHk9WkEouVDBmUHAdghCQLk0H+4MJtFYCOG2RTvjtlgVUiABdF/pxycXhNjPBmynaRDSmknuUg6vAWhM+YA9zrVAW1qDU1Y0dWgG0BTLzDg0HthCqUFouZ45WkoCzl0pvQf7lBihJc0gf8ovbzgSPF8r/fhlyzKzZYfXsgsmm4AtNApC69mmrEzrj7sLB6M5pTmA8kwnD2q0oXnvHrEqNCjN4Nn2PtOadI2TTXzGAs9o0zUu5Y4k8VTqz6O5uxzN1VpbAhZozqq/pI4dTcksveaEHKtCA5DAeaR4CW3bUGvuR/7gvWdPG/CENkHoPIM3Ni61347mnGuCMjGYROI0z0phVWgYmmONlTTmaEO7MdMn7/2CexV42B9N35dYHjeab84heZn4exu70HwZzd3HOChj7xAKFAeTH5Re9mZViBPQ0dCl4r3rZJBOmXVPZMVYa2+Q62jFPH62ve/g+7RxJMH9hvOFnqURGA+8931MCi5oo/68xkFIxF/cl2EutXdv4wNtNHfH65mZD4rqwMsXioeyIX/ag8mF0sMHiYsPeRncaU3IvSbI90q78qT1imO8N7z33VxNey8zmLzO0X5PYfmao2Ke16Y0zklg0Dqdvg/V6tCQ5TqxLOnCOffGOffKOfe/EIKXr4l8jav/m3PuT/nfvZN/bzXgtSJDMmOk1T3OyaZeSuTQlGZ5XBTLjthr2jH5TNCcAFx2UBZXyWmcBGSlVRASOXYleT+ab/YO9dWH/0aCz58Sco5DCHEJ8zqE8GRpXhy0yv/uXP69OJP+lwSjlDv5QZf2YPKEGnY0dKl4uKqTCTSCfIe892MD5WRdrkZpNqUB8ITWQWg925wpdJbhmxxnor52uDp0J+/Tn7LK01ntZpy1kmA0llB00cX3RTnkcFXN1cU9BgtoQiaPtO+dt3RA7JT2xMxdx/cUn22AUW33CG2sZ+5UzuXJcR/Le3ltUzk/qZEQwiClE7KUf0ypERpYKM/CHsb7NoTAvduSDMo138c4OTNktcCpcovl6DKuaj63qo+nxQ5nBsYSl13+HmUv25Vy4wcAD+gkCImJbMray/CNPpQ227GrXBJtw+kUggbODZSjvPfe38oKFRqQ/SoLKdnSMujvz0DTBCfPvrhvtq+S6uzJmTfagdb1NIlwThAC7Olij9CGtJ2eKNdq9yk+5D6M5u56NKfDFfIjM6AWyioXskcADd8/5RB0p1TaZGEl8VBWNLAj+Zv/ZOB9u+pjIlE6C9I0ATCmsyDkfu4XyjkMOZlxjKtDOTaJACwMJvfoxNWMlMRqzzqfa5SHGRpoHhGGdiMhyEoL8j6rPij7BYzpNAi5X8NQzh3MqtWhy9HcMVhDNmQm1MKqUCxHvSYMbU/KirRLG53yRncrA80j+X3gGbUQZKGs/qbPM6Hke3j4HdYAABJLSURBVGseVQDgni73CP0Qw9BovglDC4XZydiZ7Xig0pD42r7JIayta+KlXfcLqTGvDwBjuIwzrLdSggj0ycLGc1cLQxM2oD/NUFnRheb+RDm8UnuvUOVTPEgzdgg1cC0mGQtBbqAgfSKTxTnupwaS00sQcj/3DE2l49pigD/6+PA7kRB2LsvbQwzm4uv6PJpvZnmOdwkqEnyOJfhs9eAezTdlh9eyGfmSYISuycbzC8JQGgyVFd0ZWZGJ1/DFwHU4CUPjgTvoJcFgCLrqczWoIp+v8R790PfPAvC8zkvj7pOVkgNZqelj71A8++TNeuYmUpa3CWHr2SZg/D3gfqVqdejJsyRiKV3cXzSabzrsfY3nT+w4e7knPyvO/v4r5XmcX4GunRja61eFIRoo3GNsMHluoVulwU3pb9kz9Ctp724pBLkhD4eP5/5x3h9gQ+9ByP0MJqcSiN50tH8orsD8vZ65g/Xs4Zr0WggbqiY3fqh/iStS9/cOSQA6lRbjHzos3XstP/OaQISuyOqLpVbxP1aGDFyLCbIH5auRweSdsfvF2v6cuGfolj1vm/v2RFbsLIWgjwoh/iTzvdRAEgYJQhUJRIv1bFMK9qdz7p2ElG1OtF/KDEoMUv9bzzYHnD67L0d+5nTg1aG30lluM2iTf97KRua+PvxfSiBa0MABXZCDTbf52xzKZqKBw4J/dIezsCeocmKpdFEGtWcGLqUuhvlvpYb5GAK995cGS8JUSjrl7yX3LruAeT6EYOYa5Xye+2f0dNYgQL7/YuCNtBobd+PgdVqVCqI/MqgZej/CmYSU3im9vm3Ev6vj0g4OlhWFSyPNACrLEIK5skV5r26Vz1R6zMeS9g3J54j2+VaP+VvzAGeDe6WQj1dd73uTSbihu5P2OuYZdEXoOeuZ+7aeuet7X53NMsr3n8hK1FCzMBoDlviw+Rq72Sn8bGREPkQt1rJvzvOSMpsieO+nUlprKQQ5g2VoGzLjbvUzMO4byn51SFaBzmUyxWIIutEMQe6/+7Q6csTS6jtQDFNBaCjr2aaWfVzAKc+fCEPogKXGCXWb87xk70W2A0rv/YH3PgbSzwZnjT/KQM4k4+e27EupZzw8+H4lRPJkD9s3KRW36M5KUJa/oTF7hoDhFRmE3O+rQzkjDKEVmVmfGn4XD2VAmVUzhdps+j8GV4GcDNpS2K91bHy2/UhWN09zaKYQA1Bc7ZI9bJbLvU4sldbGz1kpMaWbHDCgYoNQRVaH/sp8JuaTnOcENCIz6x+Nv3svcwhEsgJ0bnw23ckeLfNnOxkvkavsSd19LJc7T3GF6F4AslgGV3dl9aDbEMLQR38ARSs+CLn/wtCtdLKz1mWoSwtpFgE0Ipu7U5gwqAJRHFSepDLLHvcASVetfyQAWZ5NP7NcEnefBPkUPt/35Hf/T7wXZF+YWRLa40rW90QCkJPVQdPBWPYtHbA6BPSPIFQjZx3lujq0J92mgDamCc1U7kur3n9lUHlsLRRJ+FnIQPKznAtm3c1QXQu7JNec0r7QeC98jveGrBKZWOWU8BMnGG4ltPd5LEQfpqmsZMrq0KsC9jMDaghC90jL6UkCZUBNHI7mw52ejfxITX2Ke85ey4z1v9JcIc5iT4YORvIzTySYVeHnKKGB5Mr4frHnTBPszlWtEn2RUFSF+kFalstetamEsSr8fJC9eal5k9JKppPVzBDChEAE9MPUOULWyEGoVs8+aCrO5h902Za8ZLmfI/QYaVtt7WDEppayH+dWvr63OXtB9nfErxfSCWos/z3FgWNd/OyYpDaQvC+zc1vu5J69lnt489W0CYB8ntXv23FGz78LWWFJmny+nEioz2lsgu5xjtAW/ujrG+cgnmc0mm8eBKfGNy3vYk8+RIs/nR/NhRDOZUB5lMHbeChfP8rSvPfVf6wGms85KGBQcpJ6CHLSqlhaO382cDlt7cmeuF+6Ctbu321WEEq4d29yCEHu56p8fIafyGfwsVSxpD7RAqggCD1DVk5ORvPNjNsik1lEghBaiwMLmZ202Nq5K3uZv75tvbHaZauJuBnde/9GyiVzxr3734pvll1TZWJiU+4uZb5jCUXj2speDmMWoDcEoS2tZ+5Suq4tEtnQ/JS9eLbQeuayGdhAzVTKcpiNzNdFTiGoEl+TzKjnstqP3y2lnDP7UnB5jdfy9Ru515M/p2oAY4Wy72UVaDuW/Ar+EAhCO5DVoamcyZP66lD1GoDG4sNX9hUQhvKUxb6Kx8SW8DKTnkOJJ351V0oI2kYOZa1DqJWVDqnVvlS0Q9e4BuLqkNRVp9zBJfVVLRghA41J5ocSlyjrEFSR18h5LXkhBAHYCkGooRy6rklXPKA1wlB2ighBFcJQVpY5dDcEMAyCUDupb0QlCKEzhKFsFBWCKvKaz2xcDRoiBAHYCUGoIWmrnbocXgMMqYUhZtfTdFZiCKrIWRVvbFwNdlRMYwQA3SEINZdD9xU6yKBzcSAig+mPvLtJeaN9UK8F0iHvb9lngjTEVcwxIQjArghCzR2keuE1ObwGGBU7cjG7noQ44P8rxxbZTcVzhmRlc5XmKyjKu5JXMQG0QxBqLocQkftp4lAmg+u/GFCaFcuJxuyp+J28J7F8+MratWEjBvhXIYRz3g4ATRGEAPSKAaVZH6Wc6Fvpb8RjpMwznrn2zuYVFqsK8Jy9AqAVglBz1CIDW7o3oGTvha74/v8tpYvYgqw6sLJpwxkBHkBXCELN5VBKkvKBsEiQDCjH3Htq4qrcgeyBwQ5qK5s0AdGxlL1sxTf0ANAdghCAQcWZ3BDChNWhQVWrQFM6azUnK5txJe0Vq0ODqlaB2MsGoFMEoYbWM5dDbTIPFaiprQ6xd6hfH1kF6lbcmxJCOJADWAnz/Ykrx3+yCgSgLwShdlKfESQIQZWsDk1lhn3Jb6NTN1JKdMIqUD9kgD7mAOHOrWQFc8JeIAB9Igi1k3qQoOMOTJAZ9rGcO0TJUTsraSs8oZSofxLmjyXMs/etnTs5F4gVTACDIAg1MJq7F6O5i2U9r5O7+J9W65ljpg2mxHOHpOSIQLS7+H69kUEkkxwDkzA/IRA1cidlhgecCwRgSAShHY3mmzKIOMv6NqkL/x2zbTDrXiCiZO5pN1JGdCAH2ELRvUBEydzTVvI3Hu/dU0o4AQyNILSD0dzFevCvzrn9ZC76ccy6wTwJRGMGlQ+6kD1AE8qI7JFAFEvm/pSGFTRV+OmX8E4AAqCFILSFuAo0mm9Wgd6bv9jt3FAWh5TcG1S+K7hsbikz6P+L7wd7gOyTPUSxYcUL+d2V2iVxJYHwT8I7ACsIQs+orQIdmr7Q3dCKFEmSQeW5lM39JQOr3ENRfQA5ZgY9XfK7m9YCfe5ln3eycvlKVn9O6AIHwJI/+G08bDR3caAV6+1fWry+Fm4yOQPJilsp2xoSA4mfJ/3Hwy1PvPexfG4qXzlMWtzIPr5LBo75kd9pLE8+997HZ81E7t2UG/BUltKRdMGKJQDrCEIPGM03g6u4arJn7uLaibNzxym/AGtkZp5gqUwGXPHr1Hv/QgaW1VcKwehGrj/eS9es+JRDQtFCvpz3vn7vpjARt6ruW7l3Ce4AkkEQqsl4Fahyyt4g5E5CxGW9M6IMLsfydaD8N34jq3qb8Eara9TJ/fDjnpDVzvtfWpN0y9q9ey33L6EdQLIIQmI035QlLDJcBapcrWd0ikOZ7g8u3X8DzAMJRXFg+UL+84H8vw8adoeMA8VqYHgr//lbNXhk0Ihd1VY7f5BVz3Htnq3+u2tx797Vfs732v27+SdlbgByVHwQioejSgDKoTb7MUtK4oBfSQnPN0obkRpKcgEUpNdJmKK7xskq0LcCQtBkPXPMRAMAACAlvY5fi1wRklWgWCZ2ZOBy+kQIAgAAQBcmub2Lxa0IjeabX+JtASHoihAEAAAAPEx9RWg032zwnMhmz4eSZrVZc1PL37TrmawCxZbYb9tf9dau5JyTITvR3Ul3OBojAAAAoCsHCu9kr3uEfAihz+//oNF8s3F/KsFn1y5t1ZkFi20PBpVVoEXDTjpNxDBysp79dy6E+/maz3vuSnclP5cW2QAAADuQoxa+DPye3YQQkig5894PHhpCCL7P7z9YEJIVmRP56ioMrGT1Y/HY/2A036wCve/o520jnhFy/FAYqb0Hxx2Hsht5H+giBAAA0ABB6HFy5MQ/Q//cLIKQhJEuA9B9K1kJ+XGAopTcLQY8VX6nkjTpWHfcomPdSg6MPGcFCAAAoB2C0OO893Hc+nngH9v7e9PrHiEJI5cDlKTF7/95NN+Uhh1L6BpyFSh2Z5vuEkgktG2Cm5TuTe4d6FjtKVrJ/ignJYGt9koBAAAAOxrn+Ib1FoRG800Y+dDX939EXF35d+CfebaebVa8GpOSNsraAAAAYJHGqlXvY+NegtBovilJK+GMnrgXqNduFgAAABhErLY5G/itTqXCZ6jux4PqfI9QISGo9SoQAAAAYJ3S/qDoVQih11WhTleECghBK1kFoowNAAAAJZgqvcbeV8tGnX2j//YE5RyCPsaNYoQgAAAAlMB7/0IpCN2FEHoPQp2sCEl3uKEbIwyFVSAAAACUaNrj8TdPGWQPfusVITkk9HKL/2mKLlgFAgAAQKG09sQPMvbuYkXoZIBzgoZ2J6tAuQY8AAAA4FHe+1PFMf4gK0KtusbJatA3pSWzvlxJCPqe0WsCAAAAtuK9H8uqjNYY/38hhN7H4m1XhE4yCkGsAgEAAKBo0iBhoTjGXw4RglwHe4ROOroObTeyF4gQBAAAgJLF8fCh4usfbG9+4xWh0dwdZ7AaFFeBTtczd27gWgAAAAAVshJ0rRyCnKxGDaJNaZzW4UpduZFSuN57lAMAAABWyZ6gSwMN0FYhhEEaJbiWQeh1h9cxtOV65iYJXz8AAADQiqwCxe5wb428k4NuU2kUhEbz5EOE9pIfAAAAoEJWgE4UD0x9zGBlca5Fs4Rxx9cxuNE8/dcAAAAAPCeu/Hjvp977c+993Bby1Tl3ZCwEDVoW51qUxr3o+Do0HAx1WBMAAADQJTnw9CljGbOPE2lw9tzr6VzTIJTD/prx0HWIAAAAQEfeZ/RG3mmMy9ueIwQAAAAAbZwPdYhqHUEIAAAAgJa4GqRypidBCAAAAIAWldUgRxACAAAAoGSltRrkCEIAAAAAlJxorQa5FkHouuPr0JDDawAAAABSdBVCUO3g3DQIfev4OjTk8BoAAACA1MQGCcfa19w0CKV+EOndekYQAgAAABQca5bEVRoFofVsE4TuermiYVAWBwAAAAzvTLskrtKmWYKJF9BQytcOAAAApOgihHBq5boJQgAAAAD6FpsjqO8LqmschNazTZhY9XJV/bpYz5x6TSIAAABQiCsLzRHua3uOkNoBSC0sErxmAAAAIEWxHG5qoTnCfW2D0CKxVaGb9YxGCQAAAMAAzqyVw9W1CkJSYmZmw9MWzP4iAAAAgEzE7tJ/W2qM8JC2K0IxDMVVoZterq5bZ5wdBAAAAPQq5oKxlRbZT2kdhMSx8XOFlutZUitXAAAAQEpiFngTQpiEEJJYfOgkCMlKi9Wys/hLmRq4DgAAACA3cax95pw7CCEk1ZTMhxA6+2aj+SYMfersG7YXfzGT9czdGromAAAAoBXvfXeD+GbupIP0ucWOcNvoNAg5W2GIEAQAAIAsKQahpQSgy1QDUKXzIORshCFCEAAAALI1cBBayrE5l6ns/9lGL0HI/ReGJvHNcs7t9fIDHhd/UVM6xAEAACBXPQeheE7odfWVU/ip6y0Iuf/C0AtJj697+yG/OqM7HAAAAHLXYRCK7a5jidutBJ9vuQaf+3oNQhVZHYqBaL+nHxF/gcesAgEAAKAE3vsmk/+3EnpcCOG69BtlkCBUkb1D8etlR9/yIgas9cwV/4sEAAAAsL1Bg1BlNHcHcrbPdMdQdCdLdnHv0eV65pLuVAEAAABAh0oQuk9K5+J+ovEj/5MYfr7TBQ4AAABAF0wEIQAAAAAY0oh3GwAAAEBpCEIAAAAAikMQAgAAAFAcghAAAACA4hCEAAAAABSHIAQAAACgOAQhAAAAAMUhCAEAAAAoDkEIAAAAQHEIQgAAAACKQxACAAAAUByCEAAAAIDiEIQAAAAAFIcgBAAAAKA4BCEAAAAAxSEIAQAAACgOQQgAAABAcQhCAAAAAIpDEAIAAABQHIIQAAAAgOIQhAAAAAAUhyAEAAAAoCzOuf8DIwQ6QI/369cAAAAASUVORK5CYII=;" parent="1" vertex="1">
          <mxGeometry x="348.4" y="280" width="100" height="37.53" as="geometry" />
        </mxCell>
        <mxCell id="Vh4O4ErFu8xfbCtBkyOX-16" style="edgeStyle=orthogonalEdgeStyle;rounded=0;orthogonalLoop=1;jettySize=auto;html=1;" parent="1" source="Vh4O4ErFu8xfbCtBkyOX-15" edge="1">
          <mxGeometry relative="1" as="geometry">
            <mxPoint x="170" y="241" as="targetPoint" />
          </mxGeometry>
        </mxCell>
        <mxCell id="Vh4O4ErFu8xfbCtBkyOX-15" value="" style="shape=image;verticalLabelPosition=bottom;labelBackgroundColor=default;verticalAlign=top;aspect=fixed;imageAspect=0;image=data:image/jpeg,/9j/4AAQSkZJRgABAQEAeAB4AAD/2wBDAAMCAgMCAgMDAwMEAwMEBQgFBQQEBQoHBwYIDAoMDAsKCwsNDhIQDQ4RDgsLEBYQERMUFRUVDA8XGBYUGBIUFRT/2wBDAQMEBAUEBQkFBQkUDQsNFBQUFBQUFBQUFBQUFBQUFBQUFBQUFBQUFBQUFBQUFBQUFBQUFBQUFBQUFBQUFBQUFBT/wAARCADnAZ8DASIAAhEBAxEB/8QAHwAAAQUBAQEBAQEAAAAAAAAAAAECAwQFBgcICQoL/8QAtRAAAgEDAwIEAwUFBAQAAAF9AQIDAAQRBRIhMUEGE1FhByJxFDKBkaEII0KxwRVS0fAkM2JyggkKFhcYGRolJicoKSo0NTY3ODk6Q0RFRkdISUpTVFVWV1hZWmNkZWZnaGlqc3R1dnd4eXqDhIWGh4iJipKTlJWWl5iZmqKjpKWmp6ipqrKztLW2t7i5usLDxMXGx8jJytLT1NXW19jZ2uHi4+Tl5ufo6erx8vP09fb3+Pn6/8QAHwEAAwEBAQEBAQEBAQAAAAAAAAECAwQFBgcICQoL/8QAtREAAgECBAQDBAcFBAQAAQJ3AAECAxEEBSExBhJBUQdhcRMiMoEIFEKRobHBCSMzUvAVYnLRChYkNOEl8RcYGRomJygpKjU2Nzg5OkNERUZHSElKU1RVVldYWVpjZGVmZ2hpanN0dXZ3eHl6goOEhYaHiImKkpOUlZaXmJmaoqOkpaanqKmqsrO0tba3uLm6wsPExcbHyMnK0tPU1dbX2Nna4uPk5ebn6Onq8vP09fb3+Pn6/9oADAMBAAIRAxEAPwD1T/gnN8CfBHjj4e+IPFXiXw7p/iHUF1ZtOhTVIFuIoo0hikJWNwVyTLySM/KMY5z9f/8ADPfws/6Jp4P/APBDa/8AxuvAP+CX/wDyQLX/APsZrj/0ltK+v6APP/8Ahnv4Wf8ARNPB/wD4IbX/AON0f8M9/Cz/AKJp4P8A/BDa/wDxuvQKKAPP/wDhnv4Wf9E08H/+CG1/+N0f8M9/Cz/omng//wAENr/8br0CigDz/wD4Z7+Fn/RNPB//AIIbX/43R/wz38LP+iaeD/8AwQ2v/wAbr0CigDz/AP4Z7+Fn/RNPB/8A4IbX/wCN0f8ADPfws/6Jp4P/APBDa/8AxuvQKKAPP/8Ahnv4Wf8ARNPB/wD4IbX/AON0f8M9/Cz/AKJp4P8A/BDa/wDxuvQKKAPPv+GefhX1/wCFZ+D8/wDYBtP/AI3R/wAM8/Cv/omfg/8A8ENp/wDG69BooA8//wCGe/hZ/wBE08H/APghtf8A43SH9nn4Vnr8M/B5/wC4Da//ABuvQaKAPP8A/hnv4Wf9E08H/wDghtf/AI3R/wAM9/Cz/omng/8A8ENr/wDG69AooA8//wCGe/hZ/wBE08H/APghtf8A43R/wz38LP8Aomng/wD8ENr/APG69AooA8//AOGe/hZ/0TTwf/4IbX/43R/wz38LP+iaeD//AAQ2v/xuvQKKAPP/APhnv4Wf9E08H/8Aghtf/jdH/DPfws/6Jp4P/wDBDa//ABuvQKKAPP8A/hnv4Wf9E08H/wDghtf/AI3R/wAM9/Cz/omng/8A8ENr/wDG69AooA8//wCGe/hZ/wBE08H/APghtf8A43R/wz38LP8Aomng/wD8ENr/APG69AooA8//AOGe/hZ/0TTwf/4IbX/43R/wz38LP+iaeD//AAQ2v/xuvQKKAPP/APhnv4Wf9E08H/8Aghtf/jdH/DPfws/6Jp4P/wDBDa//ABuvQKKAPP8A/hnv4Wf9E08H/wDghtf/AI3R/wAM9/Cz/omng/8A8ENr/wDG69AooA8//wCGe/hZ/wBE08H/APghtf8A43R/wz38LP8Aomng/wD8ENr/APG69AooA8//AOGe/hZ/0TTwf/4IbX/43R/wz38LP+iaeD//AAQ2v/xuvQKKAPP/APhnv4Wf9E08H/8Aghtf/jdH/DPfws/6Jp4P/wDBDa//ABuvQKKAPP8A/hnv4Wf9E08H/wDghtf/AI3R/wAM9/Cz/omng/8A8ENr/wDG69AooA8//wCGe/hZ/wBE08H/APghtf8A43R/wz38LP8Aomng/wD8ENr/APG69AooA8//AOGe/hZ/0TTwf/4IbX/43R/wz38LP+iaeD//AAQ2v/xuvQKKAPP/APhnv4Wf9E08H/8Aghtf/jdJ/wAM8/Cv/omfg/8A8ENp/wDG69BooA8//wCGe/hZ/wBE08H/APghtf8A43Sf8M8/Cvr/AMKz8H5/7ANr/wDG69BooA8+/wCGefhX1/4Vn4Pz/wBgG0/+N188/t1fs8/D7R/gDrXijQ/CmleHtY0eW2kim0m0S1EiyXEcLI6xgBhiTPIyCo565+x6+f8A9vX/AJNP8c/9uP8A6X29AHAf8Ev/APkgWv8A/YzXH/pLaV9f18gf8Ev/APkgWv8A/YzXH/pLaV9f0AFFFFABRRRQAUUUUAFFFFABRRRQAUUUUAFFFFABRRRQAUUUUAFFFfNf7Q/7Q32H7T4W8L3P+k8x32oxN/q+xjjI/i9W7dBz048ViqeEpupUf/BPXyvK8Rm2IWHw69X0S7v+tT6MOoWqkg3MII/6aCk/tK0/5+of+/g/xr8/Lf8A494/90fyqSvA/tx/8+/x/wCAff8A+o8V/wAxH/kv/wBsfoHDdQ3BIiljkI67GBxUtfCHhLxbqXgrWodT0ybyp4+GU8pIvdGHcH/6/WvsX4d/EPTviJoi3tm3lXEeFubRjl4W/qD2Pf65Fergsxhi24tWl2Pls64erZSlUi+em+trWfmtfkzqqbJIsalnYIo6sxwBUV9fW+m2c11dTJb20Kl5JZDhVUdSTXyb8Y/jHceP7xtP09nt9Ahb5U6NcMP439vRfxPPTfGYyGEheWreyODKMnr5vV5IaRW8u3+b8j6w/tK0/wCfqH/v4P8AGj+0rT/n6h/7+D/GvgCivD/tx/8APv8AH/gH2/8AqPH/AKCP/Jf/ALY/QWOVJlDxurqejKcin18OfC/403/wq8USxyeZeaBcsv2qzB5U7QPMjz0YenRgMHsR9qaFrth4m0m11PTLmO8sblN8U0Z4I/oQeCDyCCDXsYLH08bF20kt0fIZ3kOIyWcef3qctpfo+z/Mv0UUV6Z8yFFFFABRRRQAUUUUAFFFFABRRRQAUUUUAFFFFABRRRQAV8//ALev/Jp/jn/tx/8AS+3r6Ar5/wD29f8Ak0/xz/24/wDpfb0AcB/wS/8A+SBa/wD9jNcf+ktpX1/XyB/wS/8A+SBa/wD9jNcf+ktpX1/QAUUUUAFFFFABRRRQAUUUUAFFFFABRRRQAUUUUAFFFFABRRXzb+0N+0N/Zv2nwv4Xuf8ATOY73UYm/wBV2McZ/verdug56cmKxVPCU3UqP/gnr5XleIzbELD4der6Jd3/AFqH7Q37Q39n/afC3ha5/wBL5jvtRib/AFXYxxn+96t26Dnp8rUUV+a4vF1MZU9pU+S7H9KZTlOHyfDqhQXq+rfd/ouh19v/AMe8X+6P5VJUdv8A8e8X+6P5VJVLYzluwrY8KeMNQ8DaxFqunT+TLH99W+5IndWHcH/645rFZhGpZjtUckmud1PU2vG2J8sI/wDHvc0vaOk1KL1D6vHFRdOavF73PZviV8dbr4owxWlojafpMYVpLXdlpJMclj3UHoPxPPTz2uRtrmS1lEkZwR+R9q6azvEvYt6cEfeXuKqWIniJOdR3ZnSy6jl1JUsNG0F/WpYooopFHM6x/wAhKX8P5Cu++Cvxqv8A4Vat5cnmXmgXLg3VmDyp6eZHnowHbowGD2I4HWP+QlL+H8hVKsIVp0KvtKbs0ejXwlHHYX6viI80ZL+vmfpZoeuWHiXSbXU9MuUvLG5TfFNGeCP6EHgg8ggg1fr4Q+Cvxqv/AIVat5UvmXnh+5cG5sweUPTzI89GA7dGAwexH3BoeuWHiTSbbU9MuY7yxuU3xTRngj+hB4IPIIINfouX5hDHQ7SW6/rofznn+QV8kr2fvU5fDL9H5/nuvK/RRRXqnyoUUUUAFFFFABRRRQAUUUUAFFFFABRRRQAUUUUAFfP/AO3r/wAmn+Of+3H/ANL7evoCvn/9vX/k0/xz/wBuP/pfb0AcB/wS/wD+SBa//wBjNcf+ktpX1/XyB/wS/wD+SBa//wBjNcf+ktpX1/QAUUUUAFFFFABRRRQAUUUUAFFFFABRRRQAUUUUAFFFFAHJfFm8nsPhv4gntppLedbVgskTFWXJAOCOQcHqK+F/7HtP+eX/AI83+NfcXxk/5Jh4i/69v/ZhXxVXxud61oX7fqfsnBLccHVcdPe/RFL+x7P/AJ4/+PN/jR/Y9n/zx/8AHm/xq7RXznLHsfovtJ/zM+tfDvwI8DXfh/TJ5dD3yy2sTu32ucZYoCTw9aP/AAoDwF/0Af8AycuP/jldb4U/5FfR/wDrzh/9AFatfpEMLh+Vfu19yP5xrZrmCqySxE939qX+Z8uftF/DPw34Q0/RTpGnfZDcSyiX/SJX3bQuPvMfU14b/Y9n/wA8f/Hm/wAa+mv2sP8AkG+HP+us3/oKV85V8XmdOEMVKMYpLT8j9m4ZxFatldOdSbbfNq22/iZS/sez/wCeP/jzf411fws8LaXrHj/RbG7tvNtbibZLH5jruXBOMgg9qwa7P4Nf8lQ8O/8AXz/7Ka48PCLrQTXVfme1j61SOErSjJpqMuvkz6T/AOFAeAv+gD/5OXH/AMco/wCFAeAv+gD/AOTlx/8AHK9Cor9D+qYf/n3H7kfzz/a2Yf8AQRP/AMCl/mfEPxo8GaN4d+JGq2Gn2f2e0iEOyPzXbGYkJ5Yk9Sa4j+x7P/nj/wCPN/jXqP7QX/JWta/3YP8A0Qled1+fYqEY16iS6v8AM/oHK61WeAoSlJtuEevkil/Y9n/zx/8AHm/xr6K/ZJke3bxFZJJILRRDKsJclFc7gWAPQkAZx1wPSvAq97/ZP/5CHiP/AK5QfzeuvK0li4W8/wAmeTxRJyymtzO+3/pSPo2iiiv0A/n8KKKKACiiigAooooAKKKKACiiigAooooAKKKKACvn/wDb1/5NP8c/9uP/AKX29fQFfP8A+3r/AMmn+Of+3H/0vt6AOA/4Jf8A/JAtf/7Ga4/9JbSvr+vkD/gl/wD8kC1//sZrj/0ltK+v6ACiiigAooooAKKKKACiiigAooooAKKKKACiiigAooooA4z4yf8AJMPEX/Xt/wCzCviqvtX4yf8AJMPEX/Xt/wCzCviqvjs6/jR9P1P2Pgr/AHKr/i/RBRRRXzp+hH3n4U/5FfR/+vOH/wBAFatZXhT/AJFfR/8Arzh/9AFatfqFP4EfzDX/AIs/V/meCftYf8g3w5/11m/9BSvnKvo39rD/AJBvhz/rrN/6ClfOVfC5r/vcvl+SP3LhX/kU0v8At7/0phXZ/Br/AJKh4d/6+f8A2U1xldn8Gv8AkqHh3/r5/wDZTXFhv48PVfme5mP+5Vv8MvyZ9q0UUV+lH81Hx3+0F/yVrWv92D/0Qled16J+0F/yVrWv92D/ANEJXndfm+L/AN4qer/M/pDKf+Rfh/8ABH/0lBXvf7J//IQ8R/8AXKD+b14JXvf7J/8AyEPEf/XKD+b105Z/vcPn+TPN4m/5FNb5f+lI+jaKKK+/PwEKKKKACiiigAooooAKKKKACiiigAooooAKKKKACvn/APb1/wCTT/HP/bj/AOl9vX0BXz/+3r/yaf45/wC3H/0vt6AOA/4Jf/8AJAtf/wCxmuP/AEltK+v6+QP+CX//ACQLX/8AsZrj/wBJbSvr+gAooooAKKKKACiiigAooooAKKKKACiiigAooooAKKKKAOM+Mn/JMPEX/Xt/7MK+Kq+1fjJ/yTDxF/17f+zCviqvjs6/jR9P1P2Pgr/cqv8Ai/RBRRRXzp+hH3n4U/5FfR/+vOH/ANAFatZXhT/kV9H/AOvOH/0AVq1+oU/gR/MNf+LP1f5ngn7WH/IN8Of9dZv/AEFK+cq+jf2sP+Qb4c/66zf+gpXzlXwua/73L5fkj9y4V/5FNL/t7/0phXZ/Br/kqHh3/r5/9lNcZXZ/Br/kqHh3/r5/9lNcWG/jw9V+Z7mY/wC5Vv8ADL8mfatFFFfpR/NR8d/tBf8AJWta/wB2D/0Qled16J+0F/yVrWv92D/0Qled1+b4v/eKnq/zP6Qyn/kX4f8AwR/9JQV73+yf/wAhDxH/ANcoP5vXgle9/sn/APIQ8R/9coP5vXTln+9w+f5M83ib/kU1vl/6Uj6Nooor78/AQooooAKKKKACiiigAooooAKKKKACiiigAooooAK+f/29f+TT/HP/AG4/+l9vX0BXz/8At6/8mn+Of+3H/wBL7egDgP8Agl//AMkC1/8A7Ga4/wDSW0r6/r5A/wCCX/8AyQLX/wDsZrj/ANJbSvr+gAooooAKKKKACiiigAooooAKKKKACiiigAooooAKKKKAOM+Mn/JMPEX/AF7f+zCviqvtX4yf8kw8Rf8AXt/7MK+Kq+Ozr+NH0/U/Y+Cv9yq/4v0QUUUV86foR95+FP8AkV9H/wCvOH/0AVq1leFP+RX0f/rzh/8AQBWrX6hT+BH8w1/4s/V/meCftYf8g3w5/wBdZv8A0FK+cq+jf2sP+Qb4c/66zf8AoKV85V8Lmv8Avcvl+SP3LhX/AJFNL/t7/wBKYV2fwa/5Kh4d/wCvn/2U1xldn8Gv+SoeHf8Ar5/9lNcWG/jw9V+Z7mY/7lW/wy/Jn2rRRRX6UfzUfHf7QX/JWta/3YP/AEQled16J+0F/wAla1r/AHYP/RCV53X5vi/94qer/M/pDKf+Rfh/8Ef/AElBXvf7J/8AyEPEf/XKD+b14JXvf7J//IQ8R/8AXKD+b105Z/vcPn+TPN4m/wCRTW+X/pSPo2iiivvz8BCiiigAooooAKKKKACiiigAooooAKKKKACiiigAr5//AG9f+TT/ABz/ANuP/pfb19AV8/8A7ev/ACaf45/7cf8A0vt6AOA/4Jf/APJAtf8A+xmuP/SW0r6/r5A/4Jf/APJAtf8A+xmuP/SW0r6/oAKKKKACiiigAooooAKKKKACiiigAooooAKKKKACiiigDjPjJ/yTDxF/17f+zCviqvtX4yf8kw8Rf9e3/swr4qr47Ov40fT9T9j4K/3Kr/i/RBRRRXzp+hH3n4U/5FfR/wDrzh/9AFatZXhT/kV9H/684f8A0AVq1+oU/gR/MNf+LP1f5ngn7WH/ACDfDn/XWb/0FK+cq+jf2sP+Qb4c/wCus3/oKV85V8Lmv+9y+X5I/cuFf+RTS/7e/wDSmFdn8Gv+SoeHf+vn/wBlNcZXZ/Br/kqHh3/r5/8AZTXFhv48PVfme5mP+5Vv8MvyZ9q0UUV+lH81Hx3+0F/yVrWv92D/ANEJXndeiftBf8la1r/dg/8ARCV53X5vi/8AeKnq/wAz+kMp/wCRfh/8Ef8A0lBXvf7J/wDyEPEf/XKD+b14JXvf7J//ACEPEf8A1yg/m9dOWf73D5/kzzeJv+RTW+X/AKUj6Nooor78/AQooooAKKKKACiiigAooooAKKKKACiiigAooooAK+f/ANvX/k0/xz/24/8Apfb19AV8/wD7ev8Ayaf45/7cf/S+3oA4D/gl/wD8kC1//sZrj/0ltK+v6+QP+CX/APyQLX/+xmuP/SW0r6/oAKKKKACiiigAooooAKKKKACiiigAooooAKKKKACiiigDjPjJ/wAkw8Rf9e3/ALMK+Kq+4/iRot34i8DaxptjGJbu5g2RozBQTkdzwK+Zv+Gd/HH/AEDYf/AuP/4qvlc3oVatWLpxb06LzP1XhHHYXC4SpGvVjFuXVpdEea0V6V/wzv44/wCgbD/4Fx//ABVH/DO/jj/oGw/+Bcf/AMVXhfU8T/z7f3M+5/tjLv8AoIh/4Ev8z6p8Kf8AIr6P/wBecP8A6AK1aoaBayWGhadbTLtmhto43UHOGCgH9RV+v0SGkUfzvWadSTXdngn7WH/IN8Of9dZv/QUr5yr6v+P3w/1rx5Z6NHo1ulw9tJK0m+VUwGC46nnoa8a/4Z38cf8AQNh/8C4//iq+OzLDVqmJlKEG1p08j9i4bzLB4fLKdOtWjGSvo2k/iZ5rXZ/Br/kqHh3/AK+f/ZTWv/wzv44/6BsP/gXH/wDFV0vw3+CPi3w5450fUr6wiitLabfI63EbEDBHQHJrjw+ExEa0G6btddH3PYx2bYCeEqxjXi24y+0uzPpmiiiv0A/n8+O/2gv+Sta1/uwf+iErzuve/i98GvFXi34ganqumWUc1lOIgjtcIpO2JVPBOeoNcd/wzv44/wCgbD/4Fx//ABVfA4rC15V5yjB2bfTzP3zLM1wFPA0ITrxTUIprmXZHmte9/sn/APIQ8R/9coP5vXHf8M7+OP8AoGw/+Bcf/wAVXrPwB+G+veArzWZNZtUt1uY4li2TK+SpbPQ8dRXRl+Gr08TCU4NLXp5M4OIMywVfLK1OlWjKTtomm/iR7LRRRX2x+JBRRRQAUUUUAFFFFABRRRQAUUUUAFFFFABRRRQAV8//ALev/Jp/jn/tx/8AS+3r6Ar5/wD29f8Ak0/xz/24/wDpfb0AcB/wS/8A+SBa/wD9jNcf+ktpX1/XyB/wS/8A+SBa/wD9jNcf+ktpX1/QAUUUUAFFFFABRRRQAUUUUAFFFFABRRRQAUUUUAFFFFABRRRQAUUUUAFFFFABRRRQAUUUUAFFFFABRRRQAUUUUAFFFFABRRRQAUUUUAFFFFABRRRQAUUUUAFFFFABRRRQAV8//t6/8mn+Of8Atx/9L7evoCvn/wDb1/5NP8c/9uP/AKX29AHAf8Ev/wDkgWv/APYzXH/pLaV9f18gf8Ev/wDkgWv/APYzXH/pLaV9f0AZ/iHWYvDuganqs6l4bG2kunUHBKohYj9K+HNV/aa+ImpX0s8eufYY2Ylbe2t4giD0GVJP4kmvsb4uf8ks8X/9gm6/9FNX5zV8bn2JrUpwhTk0rdHY/Y+A8uwmKo162IpKbTSXMk7adLn0H8H/ANpzxKvjLT9P8U6kuo6ReSC3aSWFEaBmOFfcqjIzjOc8EntX2HX5c1+iPwZ8Zf8ACdfDXRNVd990YfJuSTz5qfIxP1I3fRhWmRY2dbmoVZXa1V/xObjnJaGD9ljcLBRi/dkkrK+6dl31v6I5D9pD4yXfwv0OytNGeNNc1BmKSOgfyIlxufaeCSSAMjH3vSvmY/tG/EZmLf8ACTzZzn/UQ4/LZUn7Rni7/hLvixrDpJvtbBhYQc8AR5DY9i5c/jXmVeHmOYVqmJl7ObUVorO2x9xw7w/g8PltJ4ijGVSS5m5RTeuttey0Ptr9mb4war8TNL1a011459S05o2FykYjMsb7uqrxkFTyAOCOK9sr5O/Yn/5Dnin/AK94P/Qnr6xr7PKas62DhOo7vX8z8a4qwtHB5vWpUI8sdHZbK8U3b5hRRTPOj8zy96+ZjOzPP5V658kPooooAKKKKACiiigD5p/aU+PHiDwb4oi8O+HLhdOMUKzXN15au7M2cINwIAAwc4zk9sc3v2Y/jfrvj7VtR0HxDOt9cRW5u7e78tY22hlVkYKAD99SDjPBznjG98cP2c0+KerRazp+prpuqLEIZEmQtFKoztORypGcd8jHFXPgb8AIfhHcXepXOo/2lq11F5BaNCkcUe4MVGTkklV5OOnSvmI0cw/tDnbfs799Lenc/TZ4vIP9X1RjFfWLL7Pvc19XzW2+e2h69RRRX05+ZBRRRQAV578dfiJcfDH4f3Oq2KRvqEsqWtt5oyqu2SWI74VWP1xXoVeD/tlf8ku07/sLxf8AomauDH1JUsLUnB2aR7uRYeniszw9Gsrxclddz57k/aO+I8kjOfE0wJOcLbwgfkEr3T9mv496r461a68PeJbmO6vzGZ7O6EaxtIF+/GQoAJA+YcdA2a+Qa3PA/iibwX4u0nXINxexuFlKr1dM4dfxUkfjX57hMyr0a8Zzm2r63beh/QebcO4HGYKpRo0Ixnb3WopNNbapbdGfpVXzD+0V+0NrfhnxY3hzwteLYmzQfbLoRJIzSMAdg3AgAKRkjnJI7V9GX3iCy0/w7ca48obT4bVrwyr0MYTfkfhX5ta9rFx4h1q/1S7bdc3k73Eh/wBpmJP86+qzzGSoUo06UrOXbsj8s4IyeljsTUr4qClGmrWauuZ+T3sk/vR3kH7SHxGgmWQeJZX2nO2S3hZT7EbK+x/g946l+I3w90vXLiNIryUNHcJGML5iMVJHscA47Zr87a+4f2S/+SPW3/X5P/6EK8zI8VWqYhwnNtW6u/Y+m44yzBYfLo16FKMJKSV4pLRp6Ox7LRRRX3R+GBRRRQAVzPxK8YDwD4F1jX/KWZ7OHdHG33WkZgqA+25hmumryv8Aae/5Ih4i+tt/6UxVy4qcqdCpOO6Tf4Hp5XRhicfQoVFeMpxT9G0mfN2k/tVePrPXY7271GK/s/MBksGto0jKZ5VSF3A46HP1zX29Y3keoWdvdQndDPGsqH1Vhkfoa/MCv0p8BnPgfw6T1/s63/8ARS181kOJrVpVI1ZOW2+p+lcd5bhMHDD1MNTUG7p2SV9rbG7RRRX15+RBRRRQAV45+0p8XdR+F/h/TYdGaOLVtSkcJPIgcRRoBuYKeN2WUDII68V7HXyn+21/yEfCQ/6ZXP8AOOvJzStOjg5zpuz0/Fo+r4WwlHG5vRo1480dW09naLa/Eg+A/wC0Z4n1jx5YaF4kvV1Oy1BjEkrQokkUmCVwUAyCRjB9R6Yr6zr86/g2cfFfwlj/AKCcH/oYr9FK4cixFSvQl7SV7Pqe7xzgMNgsdTeGgoKUdUlZXTetgooor6Q/Nwr5/wD29f8Ak0/xz/24/wDpfb19AV8//t6/8mn+Of8Atx/9L7egDgP+CX//ACQLX/8AsZrj/wBJbSvr+vkD/gl//wAkC1//ALGa4/8ASW0r6/oA5L4uf8ks8X/9gm6/9FNX5zV+jPxc/wCSWeL/APsE3X/opq/OavhOIv4tP0/U/dfDz/dK/wDiX5Hqvxq8FpouheAdetoVjt9W0G1WbYuB58cKZJ9yrJ9dprqf2c/i5F4F8G+NbK5mVHt7Y6lYpIRh5sCMrz1yxi49ATXpXj7wf/wl37K+hGNN93pmkWeoQ+vyQLvH/fBf8QK+N648Vz5dio1qf2o3+9Wf46nsZYqXEOWVMHiXfkm0+/uyuvw0+80NH0y78T69Z6fATLe39wkKFjkl3YDJ/E13P7QuhWnhn4nXelWMaxWtpaWkKBQBkLAgyfc9SfU10/7JHg/+3/iS+rSputtGgM2SMjzXyiD8t7fVRWT+1N/yWrWf+uVv/wCiUrl+r8uXuu95SS+ST/X8j0/r/teIFgYPSFJt+rcfyVvvO7/Yn/5Dnin/AK94P/Qmr6c8VeJbLwf4dv8AWtRcx2dnEZZCOp7BR7kkAe5FfMf7FH/Ic8U/9e0H/oTV337Yl9La/Cm1ijbal1qkMUg9VEcr4/76Rfyr6rL6zw+Ve1W6v+bPyzPsGsw4p+qydlJwT9OVX/A+cviJ8efFnxA1Cdn1GfTNMLHytPs5CiKvYMRgufc9+gHSvPPNcyeYXYyZ3bs859c00ckCv0hX4d+HV8I/8I1/ZVv/AGP5PkmDyxzxjdn+933dc8183hMJWzaU5yqarvrv+R+j5tm2D4Up0aVKh7s76Kysla783r8+rPiT4cfHjxV8PdSgZdQn1PSgw87T7uUujL32E5KH3H4g9K+0Nc8bLdfCvUvFOgv54/sqW9tGZc4YRlhuHqCOR7EV+dUi+XIy5ztJFfbH7KMv9rfBgWd0BNbx3dxbCNumxsMV/Eu3516OSYqrOUsM5aNO3kz5/jXLMJRpUsyhBKSklK2nMn389PufofI2n/EHxJpuvR6zDrV7/aKSeb5zzsxY5yQwJ5B7g8HNfoP4D8VR+NvBuj65Gqp9ut1ldFOQj9HUfRgw/Cvz4+IXhOXwN411jQpdx+x3DJGzdWjPzI34qVP419E/s0/EyPRfg/4qjuXDP4eEl5EjHqjqWVR9ZFb/AL7FRk2Jlh8ROjWemv3r/gXNuMctpY/L6OMwkU2nG1lvGWi/Fq3qebftFfFPU/FHxE1Kwtb+aHSNLla0hhhkKqzqcO5x1JYHB9AK9t/ZD8Vap4g8D6na6lcTXkdhdhLeaZizBWUEpk9QDz7bvTFfGs88l1NJNK5klkYu7N1JJyTX33+z74L/AOEH+Fuk20key8vF+3XPGDvkAIB9wgRf+A1WUVKuKx0qzemt/nsv67GXFtDC5ZkdLBRiua8Uu+mrfz6+p4J+1p4+1ZvHyaBa31xaafZWyM8MMrIJJHG4s2Dz8pUDPTn1rZ/Y98earqGvav4dvr2e8tPsn2yAXEhfymV1RguTwCHHH+zXn37VP/JaNW/642//AKKWtr9jf/kqd9/2CZf/AEbDWUK1T+13r9pr5bHVXweH/wBUV7i/hqW3XR3+8+zZpkt4XlldY40UszscBQBkkmviX4uftKeIPGGsXVroOoT6PoEblIRasY5p1HG93HzDP90YGDg5619R/HK+k074R+Kpom2ubF4sj0fCH9GNfnnXoZ9i6lNxoU3ZNXZ4HAeU4bExq42vFScXyq+qWl2/XVW7FyW81DUZWnlnubqReTKzs5HuTXSeE/i54v8ABd1HLpmu3ixqebaaQywsPQo2R+I596+pvg78U/h/4R+GmgabJr1hY3SWyvcwkkN5zcuW465NfMfxvutF1D4pa7d+H5objSriRJo5Lf7hZo1MhH/A91eFXw31SlDEUq15O10t1pfufc4LMv7WxVXAYnBuNON7OSupWdtnFJX3WrPsz4K/FaD4teE/t5hW11K2fyby3Qkqr4yGXPO1h0z0wRzjJ4b9sr/kl2nf9heL/wBEzVw/7FF06654otwf3b28EhHurMB/6Ea7j9sr/kl2nf8AYXi/9EzV9O8RLE5TKpPez/Bn5ksBSy3iynh6GkFJNeV1e3yPlL4expN4+8NRyIrxtqdsrKwyCDKuQRWt8ZvB/wDwgvxK1zS0TZaicz2wA48qT51A+gO36qay/hz/AMlC8L/9hS1/9HLX0L+2h4P3Q6H4ohTlCdPuGA7HLxn8/MH4ivlKOH9rgalRbxafy6n6ri8w+q53h8PJ+7VjJfNO6/VfM5jVPjAt1+y5Y6ILhTqzXA0mRN3ziCPEgbH93Z5afia4n9nnwYvjb4qaTbzRCaysyb65VhkFY8FQR3BcoCPQmvNa+u/2NfB/2Dwxq3iOZMS6hMLaAkf8so/vEexYkf8AAK6MG55ji6Uam0UvuX+Z52bxo8O5Tip0NJVZNr/FPTT0Wq9D5S1xQut6gqgBRcSAAdB8xr7S/ZL/AOSP23/X5P8A+hCvi7Xv+Q5qP/XzJ/6Ea+0f2S/+SP23/X5P/wChCt8j/wB9l6P80cPHH/Ilh/ij+TNr49fFn/hVPhFZ7VVk1m+ZobNHGVUgZaQjuFyOO5Yds18Rat468R69dNc6hrmoXczNu3SXLkA+wzgfhXuP7al07eKvDlsT+7jspJAPdnwf/QRXkvwZ0Oz8SfFLw3p1/CtxZzXQMkLjKuFBbaR3B24I9KM1rVcRjfq6dkmkvmPhXBYXL8l/tCcLyalJu2tlfRfJfedT4E/aM8SeE/C+uaRcX09809sRp9zcOZJLWYkDIY5+XaScHoVGOpzwGn+O/EWmatHqcGt363yOJPOa4dixBz82T8w9QetfUH7VXwu0WPwCPEOm6db6fe6bLGjtaxLGrwuwTawUDOGZcHtyO9fINcWYRxOFqRo1J35VoezkFTLs0w9TG4eioubtJNLdJfhaz+Z+jWq65f6r8K7vWNJRl1O50Zru1SMZYStAXQKO5yRivzxvdWv9Qkla7vbm5eQ5kM0rOWPqcnk1+i3w1/5Jz4V/7BVr/wCiUrz/APad8P6Wnwi8Qaium2a6gGt8XQgQSjNxGD8+M8gnv3r6jNMHPFUFX57csW7d9Ln5jwvnFLKsdPAulf2k1FO+q1t21XU+Ha0dP1zVbG6gksr+7guEYeU0EzBge2MGs6v0V+HPhfRrPwn4fvLfSLGC7bT7dzcR2yLIWMakncBnNfLZbgZY6clGfLY/UeIs9p5HShKpS9pz3Vr22+TOh8PyXcnh/TZNRXZftaxtcKRjEmwb+O3Oa+PvjR+0prfiXW7vTfDWoS6VoUDmJZrVikt1g4LlxyFPYDHHX0H1T8UdQk0v4beKbuFik0WmXDIw7N5bYP51+cNfQ57iqlGMKFOVr7n57wNleGxs62OrwT5XaK6JvVu33W7F6bXNSupGkm1C6lkbq7zMxP4k10Xhr4veMvCUwfTfEV8ig/6maUzRH/gD5H6V9c/s7+C9Dh+EOiztpVpNPfRNLczTQq7Sku3DEjkAAAD2r5j/AGgfAM3gr4jat9m0l7DQ53WWzeOMiAhkUsqkcDDbht7fTFeJWwNfB0IYqM/ittfS6vufbYLO8Bm+OrZXUor3Lpc1mpWdnp/w+h9Y/A/4vwfFrw088kaW2sWZWO9t0ztyc7XXP8LYPHUEEehPjf7bX/IQ8Jf9crn+cdQ/sYaNqkfiDXNTNtKmkPZiHz2UhHl8xSAp7kANnHTI9an/AG2v+Qh4S/65XP8AOOvbr16mIyd1Ku+nz95anxOBwNDL+L40MN8Grt2vBu3y/I8B8Da/H4V8YaPrM0bTR2F0lyY14L7TnaPrjFX/ABh8U/E/jjVJb3UtXujuYlLeGVkhiGchVQHAx69TjkmsLQdJk17XNO0yE4lvbmO2Q+jOwUfqa+0PjJ8LPC+k/BTV7ey0a0tm021EttcJCvnKykEkvjJLc5z1zXz+Dw1fE0KnJK0Y6+rt/wAA/QM3zLBZbj8P7alzVKnup6e6r76+b6b28j5y+FPx+8RfD/Wrf7Xf3Oq6G7gXNncyGQqvdoyTlWA5wOD39R93Wl1DfWsNzbyLLBMiyRyL0ZSMgj6g1+X9fob8Drp7z4R+FJJGLMLCOPJ9F+UfoBXu5Biqk3OhN3SV0fDcfZZh6MaWNpRUZN8rt10un66M7mvn/wDb1/5NP8c/9uP/AKX29fQFfP8A+3r/AMmn+Of+3H/0vt6+yPxs4D/gl/8A8kC1/wD7Ga4/9JbSvr+vkD/gl/8A8kC1/wD7Ga4/9JbSvr+gDkvi5/ySzxf/ANgm6/8ARTV+c1foz8XMn4WeL8f9Am6/9FNX5zV8JxF/Fp+n6n7r4ef7pX/xL8j9GfhfClx8KfCcUqLJFJo1qrIwyGBgUEGvhL4l+Ab74e+Mr/R7i3lWJZmNpIynE8JPyMp78YzjocivvD4Ugr8L/CAPB/se0/8ARKV1DRpIVLKrFTlcjOD6ivdxWXRzChTTlZpLXfofC5ZxDUyHH4mShzxm3dXtqm7O9n3fQ8k/Zj+H9x4F+HSy6hbtbanqkpupY5Fw8aY2xow7cAtjtvIr5w/am/5LVrP/AFyt/wD0SlfdlfCf7UwP/C6tY/65W/8A6JSuDOKMcPl8KUNk1+TPe4PxlTMM/r4qr8U4yf8A5NHT5LQ7v9ij/kOeKf8Ar3g/9Cau3/bMH/Fr9LP/AFGIv/RE9cR+xOD/AG14pOOPs8H/AKE9ezftEeB7nx58L7+0sY2mv7R1vYIVGTIyZDKPcqzYHc4p4SnKpk7jFa2f5snNa8MPxfGrUdopwu/WKR8DL94fWv1Er8uuVODwRX06v7aD/wDCMeUfD7HXvJ2ef5w8jzMY34xnHfb+Ge9eVkuMoYT2ntna9vwv/mfVcaZNjc2+rfU4c3LzX1Stfls9emjPmW4/4+JP94/zr7T/AGPwf+FTy8f8xKb/ANBjr4qG6R8AFmY/Uk1+gXwF8FXHgP4YaTp16hjv5A11cRtwUdznafcLtB9waWQQlLFOaWiX5j49rQp5XCi370pKy9E7v8vvPFf2zPBXkX2j+KoI8JOv2G6IH8a5aMn3I3j/AICK+c7DW73S7LUbS2naK31CJYLlB0dFdXA/76QfqO5r9CPi54LHj74eazoyoGuZITJbe0yfMnPbJGD7E1+dbK0bFWUqynBUjBBqc7oOhivax0U/z2f9eZrwTjo47LPq1TWVJ2+W8X8tl6HZ/BvwX/wn3xI0XSXTfaGXz7rjjyU+Zgfrjb9WFfoh04FfNX7Gfgk2ul6v4pnjw9032K1Yjny1IaQj2LbR9UNfS1fRZHh/Y4b2j3nr8un+fzPzvjfMPrmZ+wi/dpK3zer/AEXyPhX9qn/ktGrf9cbf/wBFLW1+xv8A8lTvv+wTL/6NhrI/asjaP4zakzDAe3t2X3HlgfzBra/Y1iZ/ifqTgfKmky5P1mhwP8+lfN0/+Rv/ANvv8z9HxDX+qS/69R/JH0X+0CCfg34pwM/6MP8A0Na/Puv0r8beHR4u8H6zopYIb61kgVz0Vip2n8Dg/hX5wavpN5oOqXWnX9u9re20hilhkGCrCuziKnL2sKnS1jyfD2vB4Wvh7+8pXt5NJfoe/eDf2RP+Eu8J6RrX/CWfZP7Qto7nyP7N3+XuUHbu80Zx64FbP/DEX/U6f+Ur/wC3VjfCz9qyHwV4LtND1XRp76WxQx29xbyqu9M5VWB6Y6ZGeAOK8t+I3xe1/wCI3iC4v7i8uLOzY4g0+GdvKgToABxk8ctjk+nAGEqmU06MZKnzSe6vJep10qHFeIxtWnKuqdJN2lywd1fSytfbv+Z9i/B34I6b8IIL5re9m1K+vdoluJUCAKucKqgnHJJPJ7elcf8Atlf8ku07/sLxf+iZqqfsc3GuXXhPW5NQmuJtL+0RrYmdiwDAN5u0nt9zpxnPfNXP2ygf+FW6d7avF/6Jmr3qkqcsplKlDlTW3zPhqMK9LiuFPE1faTU1eW19O3S21uh8p/Dn/koXhf8A7Clr/wCjlr73+K3g0ePvh/rWiKqm4ngLW5bjEyndHz2+YAH2Jr4I+HALfEPwuByf7Utf/Ry1+klcGQQjUoVYS2en4Hu8eVp4bHYStTdpRTa9U0z8z7bwrrF34hXQotNuW1hpfJ+xmMiQN6EHpjuTwBzX6JeA/C8Xgnwbo+hxbSLK3WN2Xo74y7fixY/jW35aeZ5mxfMxt3Y5x6Zp9evl+VxwEpS5uZv8j5HiDiarn0KdN0+SMdbXvd99lt09dz8yNe/5Duo/9fMn/oRr7R/ZL/5I/bf9fk//AKEK+LvEAK69qQPX7TJ/6Ga+0v2Swf8AhT1t/wBfk/8A6EK+YyP/AH2Xo/zR+m8cf8iWH+KP5M8m/bS/5HXQP+wef/RjV53+z3/yWbwv/wBfDf8Aotq9q/bP8JXF1p+heI4I2eC1L2lywGdgcgxk+gyGGfUr618yeGvEN54T1+w1jT2VbyymWaPeMqSD0I7g9D7Gscw/cZk6k1pdP5aHbw+ljuG40KT1cZx9HqtfvT9D7b/akukt/gnrcbHDTyW8a+5E6N/JTXwjXqfxO+OPiX4xaWljcWVvaadY4u5YrNWOWHyb2LE8AvgD/a715ZWObYqGMxCqU9krfmdnCmVVsowDoYi3O5NtJ3tdJfofpF8Nf+Sc+Ff+wTaf+iUrkP2nh/xZDxF9bb/0pirsfhzG0Pw98Lowwy6XaqR7iFaxvjnocviL4S+J7KBDJN9l85UUZLGNlkwPf5K+9rRcsFKK3cX+R+C4OpGnnVOpJ6Kqn/5OfnpX6T+AGEngPw2yncrabbEEd/3S1+bFd/4S+O3jfwXa2tpp2tyGwt8BLS5jWWPaP4PmGQvsCMdsV8LlWPp4GcnUTafY/dOKshr55Rpxw8kpQbet9bryTPtX4yAt8KPFuBn/AIlk/wD6Aa/Ouv0nkt08eeA2huUa3j1nTdkijrGJYsEfUbv0r87fFHhq/wDB/iC+0fU4TDeWkhjdccH0YeqkYIPcEV6XEMHKVOqtmrHzXh/WhCniMLJ++mnby2/Br8j7v/Z+/wCSN+Fv+vY/+htWb8SP2jvC3w11x9Hu473UNSjVWlis41IiyAQGZmHJBB4z1rw/4Q/tRxfD/wAFxaDqmkTah9jLC1mt5FXKsxba+emCTyM8YGOMnx3x94wn8feMNU1+5hW3lvZd/kodwRQoVVz3woAz3ratnEaWEpxw8vfsk9NrI5MJwfUxWbYipmMGqN5NNNatyuvO1r321PuX4YfG/wAOfFeS5t9J+1W17bp5klreRhX2ZA3AqSCMkDrnkcV4p+21/wAhHwl/1yuf5x1P+xj4Nu4bjWfFE0bR2kkX2G3Zh/rTuDOR7Aqoz6k+hqP9tqJheeEZMfIY7pc+4MX+NbYmtVxGUOrWWrt/6Ujky7B4XLuLYYbCO8Y33d7Pkd1fyPEvg+gk+K3hEHp/alufykBr7b+On/JIfFf/AF4v/MV8U/BaFpviz4SVBkjUYW/AMCf0FfbPxvhab4R+LFQbiLCRuPQDJ/QGufJ1/sVf5/kd/GDX9tYH/t3/ANLPzxr9B/gH/wAkd8K/9en/ALM1fnxX6FfAmJofg/4UVhgmyVvwJJH6Gubh7/eJ+n6o9HxC/wBwo/4//bWd5Xz/APt6/wDJp/jn/tx/9L7evoCvn/8Ab1/5NP8AHP8A24/+l9vX3x+CnAf8Ev8A/kgWv/8AYzXH/pLaV9f18gf8Ev8A/kgWv/8AYzXH/pLaV9f0AVtS0+DVtPurG6jEtrcxNDLGf4kYEMPxBNfP5/Yt8Pfbw41/UvsWf9Tsj8z/AL7xj/x2vomiuOvhKGKs60b2PXwObY7LFJYSq4KW+36lfT7GDS7C2s7ZPKtreJYYkH8KqAAPyFWKKK69tEeS25O73CvJPix+zno/xU1tNYk1G50vUBEsLtEiukiqTglTg5wcZz0A4r1uisa1CniIezqq6O3BY7E5fV9vhZ8su/8Aw5wPwl+DekfCKxvYtOuLi8uL1kae4uNuSFB2qoA4A3Me5569K76iiqpUoUYKnTVkjPFYqtjK0q+IlzTlu2eR/Eb9mfwr8QNQl1JfO0XU5TukmstuyVv7zoRgn3GM98151/wxGnmZ/wCEyby8/d/sznH187+lfUNFcFXK8HWlzzp6/Nfke9heJ83wdNUqNd8q2uk/zTPJPhv+zT4W+HmoRamxm1nVIjmKa8C7Im/vIgGAfckkdsV63RRXbRoUsPHkpRsjxcZjsTmFT22Km5y8/wBO3yCvCPG/7JeheLfFF1rFtqtxpKXchmntY4VdS5OWKEkbc9cc8n04r3eipxGGo4qKjWjdI1wGZYvLJuphKjg2rPb9boy/DHhux8IeH7HRtNi8mxs4xHGpOSe5JPckkkn1JrUooreMVFKMdkefOcqknObu3q35nl3xg+Aek/Fy5s72W8l0vUrdPJ+0xRhxJHkkKykjoScHPc9e1z4P/BXSvhDZ3gtbiTUL+8I868mUKdo6IqjoOSepyfoMei0VyrB0FW+sKPv9z1ZZvjpYNYB1X7L+XT133tfpewVw/wAQvgz4V+JiiTWLDbfKu1b+1by51HYbsYYD0YECu4oroqU4Vo8lRXXmcGHxNbCVFVw83GS6p2Pm28/Yp0h5CbXxNewx9lmtkkP5gr/Kt7wv+yF4O0WZZtUnvddkU5EcziKL/vlOT/31j2r3SivOjleCjLmVNfmfQVOKM5qw9nLEu3lZP70k/wASvp+n2uk2MNnZW8VpaQqEighQIiKOwA6Vg/ETwBpvxL8MT6Jqhljgd1kSaAgPG6nhhkEeo5HQmumor0ZU4zg6clo+h87Sr1aNVV6cmpp3T637nhfgf9k7QvB/iiy1qXV7zUnsplnt4HjREDrypbGScHB4xyBXulFFZUMNRwsXGjGyZ147MsXmc1UxdRzaVl6fIKKKK6TzTwTxR+yFoHiDxFd6nBrF7p8d1M08lssaOAzEkhDxgZPfNeu+B/Bmn/D/AML2WhaZ5htLUHDzEF3ZmLMzEAckk9q3qK46ODw9CbqUoWbPYxecY/HUY4fE1XKEdl+Hz+ZU1TS7TW9OuLC/t47uzuEMcsMq5V1PY14Drn7GOgXt+82l65eaZbMci3kiWcJ7BiQcfXJ96+iaKMRg6GKt7aN7CwGb47K2/qdVxvv1X3O6PMvBn7PfhTwf4Y1LSBA+oPqcBt7y8uCPNdD/AArjhADgjHcAknArhdL/AGMfD1pqyT3mt319Yo+4WnlrGWAP3WcdR64A/CvoeispZfhJqKdNe7t/XX5nVT4hzWjKpOGIlee/9dPlYZHGkMaRxqEjQBVVRgADoBT6KK9E+ePDfG/7JXhbxRqEt9plzceH5pWLSQ26iSDJ5JCHBX6A49AKp+Ff2O/DWj6jHdarqd1raRsGW2KLDE2OzgEkj2BFe/UV5jyzBuftHTV/66bH00eJc3jR9gsRLl26X++1/wARFUIoVQFUDAA6CuM+Ifwh8M/E6KP+2rIm6iG2O8t28uZB6bu45PBBHNdpRXfUpwqxcKiujwcPiK2FqKtQm4yXVOzPm+9/Yp0aSUm08S30EWeFmgSQ4+oK/wAq3/DP7IvgzRZ0n1CW+1x1OfLuJBHFx/soAT+LYr3GivPjleCjLmVNH0FTijOasPZyxMreVk/vST/Er2NhbaXZw2lnbxWtrCoSOGFAiIo6AAcAVyvxQ+Fuk/FbQU03VGlgeGTzbe6tyA8TYweowQR1H8iAa7Kiu+dOFSDpzV0+h4FHE1sPWWIpSamndPrc8e+Fv7NOhfDTXl1o31xq2oxBlgaZFRItwILBRnLYJGSe54r1u8tIdQtJ7W4jWa3mRo5I2GQysMEH2INTUVFHD0sPD2dKNkb4zMMVmFb6xiqjlPv/AJW2Pnt/2M/DTa19oXWNRXTd+77FhC2M/d8zHTt0z79698sLG30uxtrK0iWC1t41hiiXoiKAFUewAFWKKihhKGGbdGNrm2OzbHZkorF1XNR2v/X47hXz/wDt6/8AJp/jn/tx/wDS+3r6Ar5//b1/5NP8c/8Abj/6X29dZ5J5n/wS61i3m+DninS1Ym7ttea5kXBwElt4VQ5+sL/lX2ZRRQAUUUUAFFFFABRRRQAUUUUAFFFFABRRRQAUUUUAFFFFABRRRQAUUUUAFFFFABRRRQAUUUUAFFFFABRRRQAUUUUAFFFFABRRRQAUUUUAFFFFABRRRQAUUUUAFFFFABRRRQAV85f8FBNYt9N/ZZ8T287FZdQuLK2gABOXF1HKR7fLE/X0oooA/9k=;" parent="1" vertex="1">
          <mxGeometry y="211" width="109.59" height="61" as="geometry" />
        </mxCell>
        <mxCell id="S_6DLKTQYWsLQOd7YUJ0-11" style="edgeStyle=orthogonalEdgeStyle;rounded=0;orthogonalLoop=1;jettySize=auto;html=1;" edge="1" parent="1" source="S_6DLKTQYWsLQOd7YUJ0-1" target="S_6DLKTQYWsLQOd7YUJ0-10">
          <mxGeometry relative="1" as="geometry" />
        </mxCell>
        <mxCell id="S_6DLKTQYWsLQOd7YUJ0-1" value="" style="shape=image;verticalLabelPosition=bottom;labelBackgroundColor=default;verticalAlign=top;aspect=fixed;imageAspect=0;image=data:image/png,iVBORw0KGgoAAAANSUhEUgAAApIAAAF1CAYAAABbIQrBAAAACXBIWXMAAAsTAAALEwEAmpwYAAAgAElEQVR4nOzdd3zV1f3H8dd33Jncm5vBXsoQlKGAC1Dcigvrtlbt1Npf1dbVVmun1j3AbZ24cENBRSnirhNBhrJ3IASyc3P39/z+uEnIzc7NvblBPs/HIxqSe7/fc2/ueN8zPkdTSimEEEIIIYToID3TDRBCCCGEEHsmCZJCCCGEECIpEiSFEEIIIURSJEgKIYQQQoikSJAUQgghhBBJkSAphBBCCCGSIkFSCCGEEEIkRYKkEEIIIYRIigRJIYQQQgiRFAmSQgghhBAiKRIkhRBCCCFEUiRICiGEEEKIpEiQFEIIIYQQSZEgKYQQQgghkiJBUgghhBBCJEWCpBBCCCGESIoESSGEEEIIkRQJkkIIIYQQIikSJIUQQgghRFIkSAohhBBCiKRIkBRCCCGEEEmRICmEEEIIIZIiQVIIIYQQQiRFgqQQQgghhEiKBEkhhBBCCJEUCZJCCCGEECIpEiSFEEIIIURSJEgKIYQQQoikSJAUQgghhBBJkSAphBBCCCGSIkFSCCGEEEIkRYKkEEIIIYRIigRJIYQQQgiRFAmSQgghhBAiKRIkhRBCCCFEUiRICiGEEEKIpEiQFEIIIYQQSZEgKYQQQgghkiJBUgghhBBCJEWCpBBCCCGESIoESSGEEEIIkRQJkkIIIYQQIikSJIUQQgghRFIkSAohhBBCiKRIkBRCCCGEEEmRICmEEEIIIZIiQVIIIYQQQiRFgqQQQgghhEiKBEkhhBBCCJEUCZJCCCGEECIpEiSFEEIIIURSJEgKIYQQQoikSJAUQgghhBBJkSAphBBCCCGSIkFSCCGEEEIkRYKkEEIIIYRIigRJIYQQQgiRFAmSQgghhBAiKRIkhRBCCCFEUiRICiGEEEKIpEiQFEIIIYQQSZEgKYQQQgghkiJBUgghhBBCJEWCpBBCCCGESIoESSGEEEIIkRQJkkIIIYQQIikSJIUQQgghRFIkSAohhBBCiKRIkBRCCCGEEEmRICmEEEIIIZIiQVIIIYQQQiRFgqQQQgghhEiKBEkhhBBCCJEUCZJCCCGEECIpEiSFEEIIIURSJEgKIYQQQoikSJAUQgghhBBJkSAphBBCCCGSIkFSCCGEEEIkRYKkEEIIIYRIigRJIYQQQgiRFAmSQgghhBAiKRIkhRBCCCFEUiRICiGEEEKIpEiQFEIIIYQQSZEgKYQQQgghkiJBUgghhBBCJEWCpBBCCCGESIoESSGEEEIIkRQJkkIIIYQQIikSJIUQQgghRFIkSAohhBBCiKRIkBRCCCGEEEmRICmEEEIIIZIiQVIIIYQQQiRFgqQQQgghhEiKBEkhhBBCCJEUCZJCCCGEECIpEiSFEEIIIURSJEgKIYQQQoikSJAUQgghhBBJkSAphBBCCCGSIkFSCCGEEEIkRYKkEEIIIYRIigRJIYQQQgiRFAmSQgghhBAiKRIkhRBCCCFEUiRICiGEEEKIpEiQFEIIIYQQSZEgKYQQQgghkiJBUgghhBBCJEWCpBBCCCGESIoESSGEEEIIkRQJkkIIIYQQIikSJIUQQgghRFIkSAohhBBCiKRIkBRCCCGEEEmRICmEEEIIIZIiQVIIIYQQQiRFgqQQQgghhEiKBEkhhBBCCJEUCZJCCCGEECIpEiSFEEIIIURSzEw3QAghhBAiGbGYRTRmEbEUMUsRs2L4q6qpDIQJWzpaM9dRCnKyTHK92ei6galr8S9Tx9Clf62jJEgKIYQQotuLRGNUBsKU+8NsLipl685Ktu8sZ2tJFUuL/GyrCmPooNBAKVQrx9K0+GU0DQbluBhSkMWQXjn07eFlnz4++vf04XWYeFx2NAmXrdKUUq3d10IIIYQQGRGLxthVFWDrzjK+Wb2DBcsK+bKwHABDWXgMDZvNRsxSWLVpRmuuG7IZdelH10DXNILhEH6lo9BwGRrH7teTyaP6MXrfnvTO9ZLrdaXhFu75JEgKIYQQoltRlsX6ogreW7KBt77ewLJtFWTbNOw2O0op0DQ04qFRq/seWu2FbKzh5ZUChar9P/W9ldXBEOgGRw7pyamHDeHQ4f3om5+d2hu7h5MgKYQQQohuY1d5NW9/vYFH3vmWbf4IBS57fWjU29vdmAIKUEqhAcGYRWkgwkH9fPz6xFEcPXognixnl7WlO5MgKYQQQohuYU1hKfe++gnzvt9JntuBTddpdsVMF1OAhqIqFCOmLC44ZBCXnjKW/j18mW5axkmQFEIIIUTGrS0s5YpHF7BhZwXeLHdC76OuQUyBZSkMXaN2rUzGlFYFGTXAy92/mMyQvj0z15BuQJYiCSGEECKjyisD3Pjcx2zcWZkQIjUgYil2VAYJBsPYdaisCVNSHYr3EnbhUHdDBV4X32yu5A/PfcG20qqMtKG7kB5JIYQQQmTUHa99zhMfrCLbZuAw9PpFMPHV2Ir9Bxawf69s+vjcrCvxs6qwlA3by1GajsNmZKR3UkOjrCrA+ZOG8KdzJ+B22bu+Ed2A1JEUQgghRMZUB0K8vngLpgKnoWMR74mMWhYouOz4kfzi+JHYHbuD2o5d5dwzaxHzlmzCaTNpvWpkmmjgtOu8s2Qjh47oz2mHDun6NnQDMrQthBBCiIxZurYILRLGNLT6OBi1FGFLcfr4QVx+6tiEEAnQq8DHn86fwFEH9KPEH2p37ciUsiyynXYKywJ8+H0h4XA0A43IPAmSQgghhMiY6kAYh7IwtLrV0RCKxsBmcNnJB7V4vTyvm9MOGxq/rOr6JKmhUEqR4zDZtn0XW3aUd3kbugMJkkIIIYTImGy3g4hm1O9MUxcm810OCnxZrV63h9fNfgVZ8WHwLqShQAMNC7vNZGdliMKSvXPRjcyRFEIIIUTGKKUIKq1+bmTd8LamFLreek+jpRSRaKxLh7Y1FLqKB1cF2GwGUaVRI0PbQgghhBBdT2v8vaZR7A+xZXtZq9fbXFrNmtIazDYCZyrUBUit0RJxFe+c7NJdd7oTCZJCCCGE6DYU4DB0YtEYd8z5Bog1e7md5X5m/W8NHqejS9Zsq/hYNlomVoh3YxIkhRBCCNGtGLqG29RZuHwrf3/+Y7YWVyT8ftGa7dz43Kcs27iLXJetS+pI6spCMmRTMkdSCCGEEN2KAmy6jsdm8sr/1rGysJzcvBzQNDRlsXV7KWuKqvG67VhpTpEaCk0p6YlsgQRJIYQQQnQ7CjANnWy3k8UbS6lZsws0DR2Fx2GSk+Ug3ZvzNRci64e4ZWNAQIKkEEIIIbqpeCkgjdxsF3kNfqKUSnuIBOpXZzcUrx+pJVymucvtLSRICiGEEKJbU0ol9Al2hdbCYUIPpaah9tIV2yBBUgghhBAZZilV/5WOmKihdajWpK6sds+JjA98S5AUHRQsLsa/cRO+0aMwXK5MN0cIIUQH7NhRzPz577F+w0aystxMOPwwJk06PNPN2nspRUkggj+a+hhpKch1mmTZjDYX5tT1QnZkYY0MbYsOK/tmMUuu/yOhkhJyDtifcfdPx1GQn+lmiVqxWIytW7exefMWtm8voqS0FH+1n1jMwjB03Flu8vPz6NunNwMGDGDAgH4YhpHpZgshusjcufP4803/oLBwG7quo5TCtJlMPf0U7rn7Njye7Ew3ca8ypFcWt55/CDVhq82dbJLhttv4aNlmPvxuGxFLYbRyDqVpHQ6FlqZjaXtvNUUJkh0Ura5mxS23EqmsxJ6bS8XyFay8+x4OvP3WTDdtr1ZVVcUnn3zG+x98zJIl37JlSyFVVVWEIxHqCozV7d8ap2G32/B4PPTv34+xY8dwzDFHccSkCfImIkQ3VVi4jRtu/BsAWoM37uqqan70o9O4+OIft3mMzz77gst/cxWGYVDQoANAKcXLL7+OUop/P/YA2l48562r9e6Rxyk98knf6LDGztJKPv5uW4v9jIaKFz2vG6KOaUb9z9oiPZKiQ1Y/+DDV69djz8sDpbDn5VH07nx6TD6SvqecnOnm7XU2bNjECy++zJtvzmPjxk1YlsLpdGC323G73WS18maglCISibBq1Wq+/XYZzz77IvvsM4jTTz+FSy65kAH9+3XhLRFCtKW62s/8+e8BoOu7RxFKS8sYPmK/Nq+vFEyb/jDRaAyPx5Ow6lfTNHr16smcOW/zs59dxKSJMszdZbqgN88wWj5HwxBYN6TdUojUUE3mQzbbI6ksoD3hUgNtzx4RkyDZATs/+ZStr72Ozeer7+VC0zDcblbfN528ceNw9u6V2UbuJfz+Gh544BGemfECu3aVkJ2dRU5OToeOoWkahmHgcrlw1c5zLSrawX33PciLL77Cz39+MVde8WscDkc6boIQooN0Xcfj8dR/XycajeJ0tv08LSsrY/XqNWRluZstHaNpGrFYjC+//FqCZBKUUoQiMULRGFGrey0/qQpEWvyd0rR214RUCeNa8VDZbI9k9RIo/whUhFY3ETTc4BgA2aPA1jP+7z2MBMl2ilRWsvLue9FMs8mQh+5wECopZeXd93DQ3XdmqIV7j6+++oY//PEmli5dTk6Ol4KC/JTVE3M4HDidTgKBALfedhfz57/HPXffyujRI1NyfCFE96d1qwjU/VUHwuyoqOHr77eyZG0Ri7dWsKEiiC0N8x2TYSnIMjVMNMwGma65ldntGdKuC5CtRuXQFih/C6wK0FqLWnrtkH4QXJOg5yXxUKnvOR0YEiTbac0DD+HfuAl7Xi5NNvVUCluOl6IF71H4nzn0O2NqZhq5F3jjjf9w7XU3EgqF6dGjoNWitNFojGg0QjQaQykLpep6IXVM08Q0zYRejTpKKWw2Gz179GDZshWcfc5PuH/6XUyZckKn23/ftAfZtGkLDru9/mfhcJh+/fty7TVXybwsIdIoLy+XESP2Y+HCj8jN9TV57VBKYZomhx12cIeOu27deh588N/YbIkdDX5/DWedNZVjjz0qJe3vbgKhCMvXb+ephd/z9ndFODWFWwfdtOHCat/IbhdRMR2rHcG2PfMi29XXqqz4kLVuB83WyuUU8Rn8bgh8A5u+gpyp0PcyMPPaPk83IEGyHXZ+8ilbZ83G7stpGiIbMLOyWP3AQ+Qdcgiuvn26sIV7h1dfm81VV12Hw+HA6/U0GyDD4TA1NTXohkFebi69ew8gPz8ft9uNrutEo1EqKiooLt5JcfFOKioqMU0DtzuryRwapRQ5OV4CgQC/uvS3PP74g5w85cRO3YY5c97mq68WkZWVVf+zmkANB44ZxTVXXylBUog0+/3vr+Cjj/6H3+/H7d49jGhZFsXFO7nwwvOYMOGwDh1z+/YinnhqBi6nM+E5XFpaxtChg3+QQXL7zgoeW7CMZz5chdemk2+3o2mga6BrGja9e837a/hu0ZEake3R/KptjfiQtkGrQ9taw2+seEPLXoPgchh4Czj3SVk700WCZBviQ9r3oNlstFXNVHc4CJeWsvKeexl7z11d1MK9wyeffsbVV/8Rp9OBw+FoMkk+FApT7a9m330GceyxR3H0UZMZOXJ/evfuic3W9NNgZWUVm7dsYcnipcz/70L+97/PKS8vx+vNSSg/oZTC5XIRCAS54oprmTVrJmNGj0r6dng82eTm+hLewBwOe/28LyFEeh126ME8/viD3HTTP9m8eQuaFt9uz263c9FFF3DnHTd3+JimaZLr8+F0OhKCpFKqXXM390RX/fu/fL21mgK3E13T0LXEsNZdd6FOJkA2t8Am8fepUFtXRLODYUJwDWy6Hva5Nz6HshuTINmG1dMfwL9pM/bcZoa0G1MKW04OOxa+v0cPccciEYxmwlemlJSWcs01NwA0GyLLyyvo2bOA66+7igsuOJe8vNw2j+n1ehg18gBGjTyAiy66gOUrvuPxfz/Na6//B9M0cbmc9eeJh0knFRWVXHvtjcyZ8woupzM9N1YIkXannHwihx92CP9dsJD16zeSnZXF4YcfyiGHjMt00/YYX22toqfbXh+cu2twrKOh0JRKaU9kndSX/9FBz47Ps9x8M+x7D5jdt7MhvUGysBBuuw1CITjrLDjpJGhmTlp3VfzBh2yd/R/sOa0PaTdmut21Q9wH4+rbN40tTK2aigo+fX4mi2bPZcCYUZx789+xuzO/a8+0aQ+xbt36+jmRdTTiQ0eTJ0/irrv+xb77DEr6HKNGHsD02nmQ1//hJsrLK8jOzkoIkzk5XhYtWswTjz/NlVf+prM3SwiRQXl5uZx/3tmZbsYeq1fWHtbTquKrs1Et90oqtKSCZnpCtAaaAwLLYcdT0O93aTlLKqQ31X30EXz2GaxfHw+Uv/0tfPhhWk+ZKuGyMlbefS+G3d7mkHZjusNBuKyM7++8O02tS61wIMDHM57n/nMv5J37HqC8qIhFs+ewbdWqTDeNTZs28/LLr+Pz5TTpiSwtL+ekk47nxRee7lSIbOjkk0/kpZnPkJeXSyAQSPjTK6Xwer089czzlJWVp+R8Qggh0kuLp8c2eySV1jRItjWsnT4qPsxNGCrehKrlGWhD+6Q3SO6/P/h84HSC1wurV8Nf/wrXXANffpnWU3fW6ukPECgsRE9mH22lsHm9FH/4EVtefyP1jUsRKxrly9dn8cB5P2H2LbdRsaOYrPxcdNOkYNBACgalJpx1xiuvzqK0tBTTTOw8r6mpYb/9hvLgg/dgt6d2GH7UqAN44P67sSyLWCxxuMLhsLNl81beeuudlJ5TCCFEammo+mHn9iyw0ZVV3ytZd9n2hMj0xUwL9ByIVMOuZ2uLnHc/6Q2SBx4YD5PBYPzfLhd4PLB4Mfzxj/DnP8OyZWltQjJ2LHyfwjlzsXVwSLsxMyuLNQ8+TM2WLSlsXWosfWc+D15wMa/c8Bd2btxEVm4uNocDFIT9fg445miy2zHXMJ0sy2Lhwg/qi4XvFt+R5s83XE+O15uWcx911BGcf/45VFZWNvmdzWay4L0P0nJeIYQQqZHsnMg2a0Sye3g83mOZThpoUQisgOru2SuZ3iCpaXDssfE5kg1lZYHbDZ98Eu+dvOUWWLMmrU1pr3BZGavunYbucHZ4SLsx3W4nUlnZrYa4V338CY9c/Aue+911FK5chdvnw94gqCmlMB0Oxp1xWgZbGbdp0xbWr9/YZGeZQCDEqFEjOfGk49N6/l/98qdkZWVhWYmfAp1OJ99/v5Kqquq0nl8IIURy0rGopqXjxsNkGgOlng2RYiibna4zdEr6V74cfTT06AHRaOLPNS3eO2mzwfz5cNVVcPfdsHVr2pvUmlX3TSdQWIjhSsGq3Noh7p0ff8KWV1/r/PE6Yf1Xi3jqN1fy5GVXsGHRN7hyvDjcTbdiCgcCDBgzmgGdKHGTKuvWraeqqgrDSKxHFgwGmTTxcIw0L9waMWI/hg8fRklJKTU1gfqvcDjCli2FbN7S8cdqcwXQ4z/XWvydEKJ7a2kb1brNDUTXa2kou7PzHeuu33BhjtI0TE3D0NIRJRXxddFhCH0P0e7XgZH+8j95eXDYYfD22/F5ko3pevznsRj85z/xxTgnnwznnhsPoF2o6L8L2PbmW50e0m7MzM5mzcOPkn/YYbgHdm09qK3Lv+PDp55h2X/fIxaJ4vRkt1r0OhoKMe60U7pFYeyiHTuIRpvfZWDo0MFd0objjzsGv78Gjye7/mdKQSgYJNr4w1GtsrJyiot3NgnAAIFAsElg1DSNYDDM6tVrWwmTCstS9O/fD3crK+kDgSBbt26t/ftpja7bN6F+ZeM2f/bZF3y9aDGbNm2mvLwCy7IwTZNIJMoJJxzLb//v0hbP215r167ju+9XsX79BrZvK6KquppIJILdbifH66Vvvz4MGbwv++8/nH1StIAqWVVV1axZu461a9axZctWinfuorq6mkg4gm7ouN1u8vJy6devL/sNG8J++w2jR4+ClLahoqKSoqIdCY8lVfsWNmjQgBZDSigUYtmyFSxdupz1GzZRVlpGOBLG4XCQn5/H0KFDOHDMKMaMSf4DYyAQ5LvvvmfFiu/ZsHETJSWlBANBdEPH6/XQr19f9h8xnLFjD0z5/dJZ27cXUVmZ+CFVKYWu6wwaNKDJnOw6mzdvIRgMJTxPdV1j/fqNzb5mmqZJUdEO1q/f2GRko45lWTidDgZ28XvDD5ne2pY6GiiVuKimPQtqtPpnniJxdbdGJBrDadfxuhwJ10jd7EkFuhvCNVD5DeRNTtFxU6Nr6kiedBK8+y61e9Q1fxnDgJwciERg5kxYsACmToUzz4z/PM1CO3ex6t5pGM7OD2k3ptvtRCoq+P6uuxn/wPSUHrslOzds5IMnn2HJW/MI1dTg8ngShrCbE4tGyenVi1EnHtclbWxLTU2g2cECXddwZ3XNxvbXXnsV1157VYeu89rrs7nhxr+Rl9t0jqmmaTgb1aB0Op1s3VrIaaefQ/yFp5lP0UpRUxPglZefZdKkw1s894oV33H2OT/Bbm9Q3632ujNffIrJk49IuHxh4TYee+wp3nr7XQoLC4nF4uExvstPvC1lZeUUFCS/Vdf6DRuZNWsu7733AWvXrqOysopYLIau62iaVl8QWikLy1KYpkFOTg7Dh+/HiSccw9SppzJgQP+kz98Rfn8NCxYs5J13F7B48bdsL9pBMBDAslSD9sZfynZvzxkvZl1QkM+oUQcw9fRTOfXUKWSl4DE6b958rvrd9fh8u18DY7EYNpuNeW/PYt99E8N2SUkpz8x4gTlz3mLDho0EAkE0Tatvu1IKy7JQKLLcWey//3AuuOAcfnLh+Zhm+3YiWbN2HS++8DIL3vuAzZu3UBMIoKGh63V/S+rPY5omvXr1YOLEw/n5zy7ikEPGd/o+SYVbbrmT116fTU7O7s6NaDSK2+1mwX/n0rt3r2avd/nlv2PpshUJH+bqbnNzhce9Xg/PPjeTZ5+b2eJWrjU1AcaMHsnbb3ffhZl7irpFMpra3VPYuNyP1ujvkGyB8vrvNQhFomRnOenh293hgIqAipKyMKk5IFoI/v/tpUFyzBgYNixeBqitQs6mGQ+Ofj888QS88w6cfTacdlp8sU6arLxvGsGiImztKTzeUQ2GuDe//AoDzz8vtcdvoHx7ER89/Sxfz56Dv7wcl8eDu51BPOT3c+CUE/Hk56etfR1hGEazBbpiMYuKiqaLYLqLujfR5nogmuulrNNSj0XDY7b0ZtTcuRsGyeau++LMV7jttnvYtm07Xq+HnBYeJ9ForJkFT23bvHkLDz30b2b/501KSkpxuZw4HI6EN++WRKNRFi36hk8//YyHHn6cs886gyuu+DW9evXscDvaIxgM8fQzz/H88y+xdu060DTcLhcOux1nC8OWDSmlqKys4r33PuTdd99j+v0Pc/mvf8nFF/+4U+1q7rHU0mNrzpy3+efNt7Nhw0aysrJwOp2t/t0sy2LZsuV89dXXvPLK69xx+82MGnVAi5cPBALcddd0nnt+JmVl5WRlZeFwOJp8MGqssrKK116bzdy5b3Phhefz97/dkNTjKZVavl/b//xqKP4Bo/nRhLrrtKQ9z2vRtroV2sloz3B3872RoKPwRyzyfVn0zm8QJGOFECsBMxUdYQqwgQpCZEPrnXIZ0DWTsgyj+UU3rbHZ4qWDSkth+nS4/HJ48834EHiKbX9nPkXvvJvyIe3G6oa4/Rs3pvzY1aWlvDv9Qe4/90I+fHoGsWiUrNxc9FaCSwKl0A2zWyyyqZPr8zU71GsYOsuWrchAi9pH0zQMw2j2qzUtXafhV1tTDlo7d8Pr3nrb3Vx11fVUVVXRo0cBdrs9Jbe9zrPPvcgpp57Nk089SzQaJT8/D7fb3eZ9UMcwDLKyssjPzyMYDPHIo48z5eQzeeONOSltJ8S33zz1tLO56S//ZOvWQnw+H76cnIRe3bZomobNZsPr9ZCXl8uWLVv5/dV/5OJLLqWkpDTptrX3sTRt+kNcetkVFBcX06NHAS6Xs82267peex/ns2jREs46+0IWvt98nd9169Zzxo8uYNr0h7Asi4KC/CbbAbbEZrORm+vD4XDy+ONPc+55l1BcvLP9d0Ia6Lrewv3a+ltiS9drbX5za3/D9lxftE1XVpOeRmjfqu32zplsafjbUpBlMxjaJw+Xs8HraGQHKD+pi1kKNCfEQhAuTtExU6PrHr3HHBMPhh0NgnZ7/HqFhXDHHfGi5u+9l7JmhXbuYtW06WkZ0m5Mt9uJ+f18f/td0Mon1I4I+f18+NQM7j/nQuY/+Aghv5+svDwM0+xQKA4Hg/Q7YASDDz44Je1KhUGDBuJwOpp8Wne73bz//oeUlpZlqGV7tunTH+auu6bVvrk3vX87IxwOc/U1f+Kaa26gutpPQUF+i/PN2stmMykoKKC0tJTLf/M7bvnXnSlqLfz730/z4x//jJUrV1GQn99m71rdcPbuYe3muVwuCgrymTdvPuedfwlFRTtS1ubGnn76Of75z9vxeLJxuVxJ/T19vhyCwSCXXnoFi5d8m/C71avXcu65F7N06TJ69uyBaZpJncMwdHr27MHnn3/Jr371WwKBQIePIURjdYtqGgdGpWnxoe1OanzsxsPaFYEwIwfkcsLogbuvFA1ANAi6g5Tue6OZ8cU2we5VUrDr9tru1QsOPhgWLoyv1u4opzP+tWYN/POfMGcOnH8+TJzYqWatvG8aoeJibD5fWnsjAVAK0+Nh12efs/HFl9jnoguTPlQ0HObrWXP4eMZzFK1Zi8OdRVbdnLwkbkckGGTMlBPR2/hE3pX2Gz6UPr17UVy8M6HHzG63U1i4nWnTH+Kf/7gpgy1sXjAYpLS0FK2ZT69er6fJG7GmaUSjUSorq1o8plIKv7+GSKT5BT7tkZOTw9Jly7n9jnvJz89r0gsSiUSJRMJEozEsZaER70kJBoPE2vEBsKYmwKWXXcG8efMpKMivn5PX+HaEQiGCoRDKstB1o/Zy8eFCXTdwOp04HPYm13M6ndjtdu655378fj+33fqPpM/Pto0AACAASURBVO8LiG+9efO/7iDHm4Pdbms2HFmWRTAYJBQKo2kapmnWBmNFJBIlGo2i6zput6vZhS8FBfksXbqcSy+7kldefhZXKqpB1PJ4slm7dh1//8dt+Hw59b2UsViMmkCAaCRSf//WDZ86HHZcLleTnkSlFG63m8rKKn73uz/w5puv4fV4KCsr51eX/pbtRUX4fL76+ygSiRAIBBrMddXr/4aGYeJyubDZmr69KKUoKMjn408/41//uotbbvlryu6PrlBZWUlpaRmhRqNrpmni9XqaPIY0TaOmJkCwrpZyM/z+mmbr1Yq2tVpkvG5LRDo+D7K5IezmjqPiG+Zw6PB+jBjUYEFZYDWEtsXnNaaMAs0GVgDC21J43M7ruiAJ8UU377/fuWPUza1ZujT+deihcOGF8eLnHbTt7XkUzXsXW443/SGyAZsnm3X/fpyCiYeTPbjjq4+/mfsWHz39LFuWLcfucu0OkEmyYjGy8/I46JQpnTpOqnmys5k44TCef/EV8hoEybp9r594YgajR4/k3HPOzGArmzr44HHc8Kfrml0hPWfOW+zcuSuhly4SiZCfn8fPf35xy0OFShEORxg0KLmVnYZhEA5HuP+BRwDqw6xlWVRXVwMavXv1ZOCgAfTq1RO3y0U4EqG0tIy1a9e1WN6kjmVZXHHltcybN7/ZFbpKqfpSTsOGDWXs2AMZPnwYPXv0wOl04K+poWj7Dr5fuYrFi79l/fqNmGZ8eLshXdfp0aOARx99ktzcXP5w/e+Tuj+efW4mt/zrTnJ9PgzDaBIALMuisrIKl8vJmDGjOfSQ8QwfPow+fXvjdrtRlqKquopNm7awePG3/O9/X7Bly1Y8Hg822+4PCkop8vPz+PTT/3H3PdP5y01/TKq9jdUNw95+x70Eg0Fyc31YVnzusNfr4ZijJ3PwwWMZNHAgLpeTsvIK1q/bwJdffc3ixUuJxWIJlQjq2ur1eli+/DseeOBR/nzj9dx88+2sWPF9/d80EolQXe2nf/9+nHDCsYwaeQB9+vYmKyuLGn8N27ZvZ9myFXzxxdds316Ex5ONzZYY0pVSFOTn8cyMFzj77DMYO7bjr92ZcvHFF3Lc8ccm7KalaRrbt23nrbffbTKFJBAMMnHiYRx04GisFt5jwuEIffv0Tnvbf0jqFtS0FhA1VKv7aremuRI/jeka7KwMcPCQXlx49AGJI5o1X0BoFRg+UtsjaYNYFYT31h5JgPHjYd9947Ui2zGBvVVZWfHw98UXsGgRHHFEPFDut1+7rh7csYPV0++P14vs4kmrmt1OtLKS7++4m4MfeQhNb9/5V7z3Ph8+NYP1Xy3CtNs7HSDrhPx+Djx5Crl9+6TkeKl0wY/P5eVX3kAplfACres6TqeDa665gbLSci677OcZbGWiCYcfyoTDD232d199tYitWwsTgmQ4HKZnzwL+fOP1aWlPfKW4g2nTH2LRosV4vfERgepqP4ZhcMopJ3Hmj6ZyyCHjml3MEgqFqKlpfRjyttvvYfbsuU1CpKZpBAIBIpEIU6acwMUX/5hJEyc06XFsqLKqivcWfMATTz7Dl18uIifHm9CLq2ka+fl53HPP/YwdeyAnHH9Mh+6Pb79dxl//ejMej6fJXENN0/D7/WiaxgUXnMPFF13AwQePa/2AP7+YnTt38eyzL/LQw48TCAQShpiVUuTl5fHUU89y7rlnMmJ4+16jWlLXM/rYY0/x8cf/w+fLIRQKEQqFOf/8s7n817/kgANGtHj9jz7+lGnTHuKTTz7D58tJeF4ppcjN9fHGG/8h1+dj7pvzyKvd4aqqqgqfz8fVV1/B+eedTc+eLZdn2769iOeef4nHHnuSmpoAbnfikLth6IQjYR577CkefbRrKlmkQkuvM8uXf8es2W/iciU+nmr8NZw85Xh++tOLuqJ5e5X2BMS29s1u+O/G30PL8yd1DYqqggzolcufzj2cfgUNFhCGS8C/HIjFh6JbK0XUYQZYJRDbnsJjdl7XjmPabPEC5a1083eIpkF2djyUvv8+XHkl3HknbNrU5lVX3nUPoZ270NtaRZ4OtUPcJV98waaZM9u8+NrPv+SJX/2GGVf8no2Lv8Xty8HeSi3BZIybempKj5cqhx16MKeffjKlZWVNeuvsdjt2u42b/vJPfv7zy/nuu5UZamX7xWKxJrdD0zRiseZX4qbSRx99WruaG0pLyxg16gBmznyaJ594mNNOm9LiimiHw0Furq/F477//kc88MCj5OcnlgjSNI2KikryC/J57LEHePqpRzn2mKNaDZEAXo+HM888nf/MfoUbb7iuNiSFEu43wzCw2+385S83d2gFv2VZ/OWvtxAKhZu0Q9M0yssrGDhwAM8/9yTTp93Zdois1aNHAddeexUzZjyGy+VqduizqqqaGTNeaHdbW6LrOoFAgIcefrx+qoBpmjz4wD3cP/2uVkMkwOQjJ/Haq89z2aU/p7y8osnvbTYbFRWVtXNR49MbKioqGTZsKG+88SJXXnF5qyESoE+f3vzh+t/z/HNP4PFk15Yh2v17pcCT7eGDDz9m69bCZO6GbqW6urrZ0YT4B6kUvd8JYHdvZDIaB8OG/24cIht/D/HIEY5ZbCuvYcyAAu7+2WRGDW7Um1zxLlR9BkY+qQ2RdaJAOA3HTV7XT4g77rj4HMlUvmnW7ZJjGPGV3f/3f/Dgg1BU1OzFC+fMpei9hWlfpd0Wm8fDuscep3rd+mZ/v2XpcmZcdQ1P/OpyVn36P5zZ2Tizs5q9bLIiwRC9hg5lv4kt1ybMtL/+5U/07dOnvqeojlIK0zTJzfUx7535nHHm+VxzzZ/46qtFGWxt9+V2x+fGlZaWMXXqKcx6YyaTOvl3DwQC/OOft2GaiStPNU2jvKKC0aNHMvuNmZx+2skdPrZpGlx99RU8/PA0LEsRDie+eGZluVm9Zg3/fvypdh9zxowX+PDDT5rMZ6sLkePHHcSsN2YyefKkDrcX4MgjJnLnnbcQDIaaDOd6PNm8t+CDVufCdoTb7SIajX8wefKJhzjrrKntvq6u69xyy18588zTKS+vaPK8MgwDjycbXdeoqalh4MABvPjCUwzfb1iH2jhhwmE88vA0lLKIxRJf803ToKSklI8++rRDxxR7K4WmLBS797dO9RcNjgu768WiFJGYxdbyAGGlc83p47nvsuMYN6RRiKz+FkreAKK1vZHpoNfWp+w+uj5I9u8PBx0ENTWpP3bdLjmWBS+/DL/5DTz5JJSX118kuH07qx94CLOFHT66kmazEasJ8N3td6IaLGYoWrOOl/50E49c/AuWz1+AzeXC5fGkZQg+HKhhzJQTMDs71SCN+vXry0MP3ls/TNrcJ3+fz4eyFM+/+DLnnHsRp089j+n3P8ySJUub9A7trep6CI899mgee/T+VnfIaa8ZM15k2bIVZGfvnm+naRrV1dUMHTKYF55/stM7dpx+2sncdtvf8ftrmoSzHK+XF154mV27Stp1rMJt2+nVqwdlZeVUVVXX9xD7/X723XcfnpnxWJu9bW2ZevopHH/c0VRX+xN+brfb2VJYyKJFizt1/Iaqq6v5+99vbFJovr1uufmv9O7dq0lIr6OUIhaLcecdN9M3yakvkydP4rxzz2o2QOu6ztdff5PUccUPn6Xiu3LFvyCmIGZBRGlEW/iyLOq/Yqru+93HqftZw//Hrxc/R1TpRGPx1dgVwTAlNWGKaqL0z8vmD1PH8fzVJ3HZKeMY2LNRfcjQDih+BoJrwcgjPb2RABpYkZROveysrp0jWeekk+CTT9J3fMOIlwwKBODpp+N7eZ91FtaJJ7LsvumESkqwd8Uq7bYohenJpvSrr9j84ktkHXsMnzw9g0Wz5xKorMLl9WA62i7enCzLsnB5vd1ukU1zjjxyIo//+0F+e8U1VFZWNelRqutFyfX5sJRi8eJv+fzzL5mW/RCDBg1k7EFjmDjxcMaPH8vgwftk7oZkUCgUpmfPHky7745213Nsjd/vZ8azL5CdnZ3wt4hEIjgcDh55eFrKtsa78Mfn8eknn/Pa67PJzc2pf+ra7Xa2bClk1qy5XHrpz9o8zk1//gO/+uVPWbDgfd6e9y5ff72Y4uKd2Gwm995zKz0KUtPe8847i/n/Xdjk59FIlG+/XcYxx3R+Z4qqqmomT57ETy/5SdLH6NGjgDPOOLV28VLT6QtVVdWceOJxHHVUckG1ziWXXMhrr8+u3SFo9wdBu93GmrXrult9ZZFBClCWwlKwKxgBK0aew2BEHx+9PGY73rYbXiC+O5eW8Nu63cMa/j9xXqQGuJwOeuZmM7ivj349PPTO9dLbl9X8DlChHbDtPqj+sHaBTfM7lKVGbZCMBcHMwNS8ZmQmSB56KAwcCMXF8TqR6aBUfJccnw/KyuCRR1CzZ+Mp3kVVTg4Ry8LUmivQ0vXsOTlsfGYGi5+awcat28j2enD70r8tZNjvZ8RRR9Jz8L5pP1cqnHTS8bzy8rP87vd/4LvvVpKb62s2EOmaRlaWm6wsN5ZlsWHDRr7/fhUvznyF3Nxchg0bwsHjxzGhdjVlZ3ug9hTV1dVc/fvftrj9W0e9/fZ81q5dX78Yo05lZRU33ng9o0ePTMl56vzxT9ew4L33iURiCS/mLpeTN9+ax69+9dN2Fcju3bsXF110ARdddAFr1q5j9uw3iUQiTJhwWMraOn78WAoK8gkGgwkLqwzDYG0LU1k6om5rxv/7Tef3Pz/mmMk88cSMJgva4uexOOecH3X6HCNH7s/QoUNYs2ZtQq1O0zQpLt5FdXUVnmTKwokflHiPoaIqHOWQAblcOXYQBw7pgS87C7fDxG40XT6TDhq187BNHaej+f3s4xRUL4PCeyC4AnRP7ZB2ujupFOnr8ey4zARJlwsmT4bnnktfkGzIbge7HaO0lBEuBwOVYkM4SlE0RkSpzAdKXUdFo+wTjVLSyqKGVLMsi/FTu89ONu0xbtxBvDn3VW6/415eeOEVQqFqvF5PiztDxFd3O+vfvKLRKEuWLOWLL77m0ceepFevnhw4ZhRHH30kxx57FIMGDWz2OHu6aDRGz549OPfc1JVKmjV7bpNagaFQiCFDBnPZpalfRT9wQH9OO20Kzz//Ej7f7ueJy+VixYrvWbduPUOHDunQMYcNHcL11/0u1U2lZ88e9O7di7Vr1yUGSdNgR1Hnd6UIhUIMH75f0nM5G9p3n0F4vR6i0WjCB7NoNEpBQQEHjx/b6XMYhsGQIfuyYsV3CUFS13X8fj+VlRIk93aRmEVlJMYhA3K59KTRHDi4F7lZzm5V2xgAZcX30Q5ugZ0vQtV8sKKgZ8XL83SnMecukpkgCXD88fD66/FJCl21PVRtwWC3rjHSaWdgzGJDOEJx1CKKwpbBsRVL1ylwOBisRVgVimBPc1ui4TAFAwcy4qjutfl7e+Tk5HDbrf/g7LN/xEMPPsbC9z+kpiZAdnZ2Qn235hiGgdvtrq/xWFlZyfz/LuTt2iLakyYezjnnnslJJx7X7u3x9gTBYIBDDx1HnxTVq9u6tZDFi79tUivT76/hvHPPJCsrPXOQzzjjNF566bWE3jNd1yktK+OLL7/ucJBMl7oC1Y0XmBi6TlV1VbO9fx0RDIYYP35sp3cNgngQdzqdVFZW0bCDPxKJMnhw75T12Bfk5xNrZo/qeHFzWdm8t9KAYDRGMGZx7cmjOf/I/cnztjB/W8XiIU5F419WDenqlWxw0vi2hNFKiOyC4Hqo/gTCq0DZ4qOfupv4kpO9L0RCJoPk4MEwZgx8/XW8JmRXUvH/eAyNMS4HZdEYGyNRdkZjgIaZofwQUYp97Sa7ohZlsRhmGoNMyF/DqAuPxZGmN/yucPD4sTz99KN8880SXn7lDRYsWMjWrYVomla7s4atzTdrm81WvyNJOBzhzbfe4c233mHcuAO57NJf8KMf7Vk9ti2JRKIMGzY0Zcf7/IuvKCkpTZhXZ1kWOTleTktihXZ7jT1wDP369WXnzpKEDw26prF48VJ+cuH5aTt3R8V7yZvudBKJRInFYp0KgUpZ7L//8E62sHWWFUvYMaezHA5Hs++zdYXxxd4pHLMIRC3+fu4hnHfE8KaPN6UgVgGB9VD1Dfi/hfBKoAsXUSoFxGqnVNprl3MboJugGZCw1jvtjYmfU2u906QrZS5IQrxX8vPPM3f+2kCZa+rkmnZ2RS02hKOUxmLoaBhdHCgVYAAjHDa+DFgNpgGn+DyWhd3tYuzp3bN2ZEeNG3cQ48YdRGnp73n/g49ZsOB9vvlmCVu3FhIOR3A6HTgcjjbfEE3TICcnvrjp22+Xc9mvr+TFma/wl5v+mPL5fl0tXhQ7NQXsgWZXHgeDIUaN2p9hw9LXK+jxeth3330oLNyeECRtNhtr165L23k7qry8gg0bNiZs7ZlKum6kbCFTS+LTzDP7FiF+2DSgIhTh2lMO5JyJ+zV9jY6UQflC2PU8RLfHw5tSoOnp74hswoi3WBGfB1k/jJ2BXkjNAF2CZNykSdC3b7w8TzP71HaZ2sdBgWlQYOgU1fZQVsQsdE0jNZ/H2yeqINfQGWK3sTIUTssQdzgQYPAhB9Nv/9YLF+9p8vLyOPusMzj7rDOorKzkm2++5ZNPP+Pzz79i9eo1lJWVo+s6Lpezzd7K7Np6nR9+9AmLzlzMTTf9kZ//bM/dnULTSFnPEsDKlaubhKRwOMwB+49I+5SAfv36Eo0m1lGz2Wzs2FGM3+9vsq1iV/t+5SpuueVOiot3pqUtSsVXPqcrpDY+lxDpoAH+cJTTR/bi/CP2S5xvrSyoXgTbH4LgctDcgD0eIHW99tqZGDpULXzflawMBemWZTZIZmfDkUfGaz7mpH+VcptqXzR720x6mQbbojE2hqNU1a7w7qopv/EhboOSqEFJGoa4o+EIY087JaXH7G68Xi9HH30kRx99JABr1q7js8++5NNPPmPxkqUUbttGJByuX4jTUvjJ9fkIh8Ncd92NbN60mb/97cauvBkplapQUFlZxbZt2+unBNSxLIvBQ9JfASAv14elEodCdd2gsrKSkpKyLgmSVVXVVFZWsquklOIdxRQWbmP9+o2sWPE9y5avoNrvx+vxSBATogWWsgjHLC48YQz5vgb7vqsY7HoNiu4C5QTNEw9OTeylzy1Vt/Vi95H51hx/PMyeTbcqJKbilab62Ux6mwaFkRibIlH8XRQo64a0RzhsfJHiIe5YJEJuv76MOv7YFB1xzzBs6BCGDR3CJRf/mIqKSpZ8u5QPP/yEjz/+lJUr1xAKhfB4spsM5SmlsNls5OXlMv3+R9A0jb/+9YYM3YruoaSkhIqKSoxGqym9Xg+zZs3ls8++RKn0zHnTNJ1NmzbjbbTCV9fjW9FVVqVm1xiI7y1duG07mzdtYdOmzWzavIXt24oo3rmTkpJSKiur8PtrCIVC9T2kdrsNp9OJp1FtTSFEotLqAJdMGsoBAxot5tr1Omy/AzQX6N13o4zMsED3gpGaEm6pkvkgOWIEjBwJy5ZBN9htJoFSGMBAu0kf02BzJMrWSJSAiq/wTmfsjSrIMXSG2E2+T+Eq7pDfz7ipp3VJncruKifHy1GTj+CoyUcQjUb58stFzJo9h3nz/suOHcXk5HgxTTMhCOi6Tn5+HtPvf4TBQwZz0U+6z6KOrlZeXkEwGGwytGqz2Vi7bj3ffbcybZ8JlQKn04Hdbm+yxWE0GsNfXZ30sf3+GhZ9s5gvPv+KxUuWsmH9RnaVlFDt9xONRNG0+L7Tpmlgmia6rmOaBjZb1g9qhb8Q6aYBYaUzcWQ/sl0NwmL1Uii6B3DEg+Te2uvYoli8VqWtb6YbkiDzQRLivZLfdONtspTCpsEQh43+NoNNkSiFkRihNAfKiFLsYzfZGbUoTcEQt1IK025n/Bmnp6iFez7TNJk48TAmTjyMq678DU899SzPPjeTqqpqPJ7sJmHS6/Vw8823c+QRE36wNSfbUlVVTTQabRIklVI47HYcGZq7p5RqMneyPZYtW8HLr7zOwoUfsWnTZsLhMDabDYfDHi/jk0R9w2g0HjwbfyARQkA4FmN0bw+DejdYMKaiUPRovM624URCZGMaWCEwsrtdkOwelT6PPBJ69oQk3gS6lFI4NI39HHYOczkYVDs5OKJUWh7y9UPcThumpnW6jn0kEKT/qJEMGntgClr3wzNgQH/+9rcbee3V5xkxYj/Ky8ub9DQ5HA5KSkq5/4FHMtTKzAuFw1jWnv8iv3nLVq686jqmnnE+jz32FNu2bSMry01eXi4eTzZ2u73FQveNKaWIRCJUV1dTUlJKdnY2OTleYrFYmm+FEHuemkCQQ4f2pJevwXzm6uUQ+q62nE5XLnHdk0TB9IKje3VidI8g6fPBhAlQU5PplrSPUrgNjf2ddg51OehrM7FUPFCmWlSBT9cZ6rAR7eTxI6EgB50yRYbh2jB27IG8/trzHHLIwVRUVCbcX0opcnK8vPXWu2zdWpjBVmZOaz1slmURjUYz9tXe3r958+Zz6qlnM3PmqxiGTl5eLg6Ho9XnRt1tC4ZC+P1+KioqKS0to7y8nFAoTG6uj0mTJnDTTX9g9qyZDBs2lEAg0OH7V4gfurClMbBPLh53g9GLsrcgFo3XaZTeyGZoYAXBdIOzewXJ7jG0DXDiifD2291r0U1rGhQ1H23YGWDGSwYVR+M9EKlcaR1RikE2g11Rk53RaFI78FjRKN4ePRgz5cSUteuHzOfz8e/H7ufkU86ioqIiYRjXNE127Srh3fnv8ctfXJLBVmaG3WZD15t/DNoddgy963sT4iVxjHaVOHrttdlcedV12Gw2CgryWxwmj0QiBINBYrEYhmHicrnweLLw+XwUFBTQt29vBg7oz6B9BjJk8L7ss88g8vPz6o8RiURSehuF+CHQUdQojWx3gw9uKgo1XwMR0GRYu3kxwARbfzC6YGvpDug+QXLUKBg+HFavju/FvaeoDZQ+U+cg005Jg6Lmqdolp+4pNcJhUhGLEaPjXclBv59RJxyHN0Xbne0N+vTpzW9/exl//vPfm8wHNE2TL774aq8MkllZWc0GtvLyCv5w/e+58Cfn15fS6kpKqYQg15wl3y7juutvxOFw4HQ6moRIy1JUVVWh6zqDBg1g9OiRjB41kmHDhtCvX1969CjA5/PhdMpqUiE6SkOhY6FZMXKzG7zPh3fFe9tECzRQQTB7g/vwTDemie4TJHUdjj02vnp7TwqSdWrfj/JNg3xTpzgaY0M4SnnMSskuOTEFXl1nqN3Gig4XKlfouv6D2cmmK516yhSmTXuIUCiIYex+utjtdjZs2FTbW7V3zefJ8Xmx2+1YlsJo8MC2LAvdMOjTu3uVpqhjWRb/+MetBIMhfL6cJqu+a2pqUEpx6qlTOO/cM5kw4TC83o4vtBFCNKWh0GvLgikFesPXzfAOdu/tJprSwPKDayB4D850Y5roHnMk6xxzDOTnd/9FN61RChT0NE0OczkY7bSTpWtElKKz0+4jSjHQbtDLNDo0HzMSCNF3xHCGHn5oJ1uw9+nbtzf77DOQUChxmNI0DcrLy6msTF3dwj1Ffn4eHo8Hy0p8RBuGzpbNWzLUqrZ9/PGnfPbZF+TkeJuEyKqqanr37s0zTz/Gk088xEknHS8hUogUaRgimxWrBqXXFh6XYe2mYoABzqFgT+/WqMnoXkGyoAAOPRR+CBPUa9+o+tpMDnc72N9px6VphJVKevV13dNruMOGvQOruMOBAGOmnIgh++YmJScnp0lo0jSNUChMMLj3Dcfk+nz06tWTSCTxA59p2ti4cVOGWtW2OXPnYVlNnzWBQJC+fXvz6qvPcdxxR6fsfHvCVG8h0q3NEAl0tyjSvehgVYCZB7nnZboxzep+yeLEE2HBgky3InWUQgcG2kz6mgZbIlE2R2IEktwlp26Ie5jDxopgGL2NdysrFsOd6+PAU6YkfRO6WiAQYP5/FxKNRtEbbI2lUMRiMY45ejIFBfld1p5wKNTsal5N09pdHuaHRNd1hg0dzDffLMHt3j0NxW63s37DJkp2lZDfhX+f9ojFYixduhyn05nw8/iimjD//MdNDBo4IKXnDIcjkibFXk+TOqqdoAHReG9t1njwjM50g5rV/YLkuHEwZAhs3AiNXvT3aEphAvvabbWBMsaWSJSwUpgdLGoeUYqBNoNdUYMd0Virq7hD/hpGn3gc+QP6d/omdJVIJMoNN/yN7duLcDgaLmpQlFdU8vLMZzjjjNO6pC2hUIgdxTsxzab7SrtcTrKyutluTF1k3PixzHzptYSf2WwmRUU7+PLrbzh5ygkZalnzSkvL2Fm8E5st8SUvFApxwAH7c9JJx6f0fIFAgNLSMkyj+73ECtFVdGWhyVB1J2gQqwJbPvS8NNONaVH3604xDDj6aAiFMt2S9Kgtaj7UYeNwd3JFzVXt1wiHDUcbQ9xKKcZP7ZrQlSper4dhw4aQlZVFTo63wVcOnuxsli1b0WVtWblyNZs3b8VuTwyS0WiUHgUFZGVltXDNH7aJtQtRmhsqnjv37Qy0qHVV1dUEgkE0LfElLxQKMWrk/invWV6/YRPbtm1vElzF3mdv7ZSWENlZGqgAaCYUXAzuIZluUIu6X5AEOO44yMmBH/KuEErh0jRGOO0c7nLQz2aiaH+gjCnIrh3ijrUwdBAJheg1eF/2O2JiSpveFUaM2I9wONzk5263i4Xvf5TUVnjJeGPWXAKBQJOh7XA4zNChg1NW3N2y1B61ld6wYUMYOXL/JgW3s7OzWLDgfTZtSs+iG8uyWLVqTYdrNFqxGJZlNfl7WZbCl+tLZRMBWLjwA6qqqvfKqQ+iIUUstuc8r1NFQmRnaaDC8ZXaOVOh4PxMN6hV3fNVrk+f+BD3D2HRTVuUIsvQGOW0c4jLTm/TwFK0axebiFIMsBn0bmEVd7imhtEnHo9tD5wi2K1E4AAAGl9JREFUcMSkCc1+knc6naxY8T2zZs9NexvWrd/ASy+9iseT3eR3lqWYMOGwlJxH13UCgUCTxSvdmaZpnH7ayQQaLTYyTYPyikruvff+tJz3iy++5tjjTuWkKT/iT3/6K3PnzqOoaEeb13M4HNhstiZhXdM0/H5/StsYCoV47bXZCfNHxQ9bSx8CFVBVvfdUdqhbWCMhsjM0UBGwysE7Bfr8GnRb21fLoO4ZJCG+6GYP6qHpFAUoRY6hc6DLzniXnQLTIKriWyS2ejXiq7gbD3Ery8KZnc1Bp52c3ranyZFHTqJ//37N9kq6XE5uvfVutm8vStv5Q6Ew11xzA1VVVdhsiU/iSCRC7969OProIzt8XE3TmjysDcOkpKSEkpKSzjS5y5111lT690v8GykFvhwvr7w6i3nv/Dfl57z/gUeIxaKsXbeep55+jksvu4KTppzBj868gIULP2zxerm5uXi9Tfe+ttttrF69NqVtfPjhx/nuu5VNFvaIHy69hd2cDN1g8+atXdyarlFYkbilcXtDpIaKjwzsrWP+rdJA1YBVAnk/hX5Xg717LVxsTvcNkoceCoMGQTNB4gerNhnmmQbjXHbGuuzkGnqrNShbGuIO1dSw78Hj6T1saJc0PdV8vhymTj2VqqrqJsORTqeToqId/PJX/0dJSWnKz11TE+DSy67gs8++wOttWnOwsrKKk046np5J7BLU3LxC0zTYVVLKkiVLO932rpSfn89PfnIelZVVCX8jTdNwOOxce+0NKZ3P+sQTz/Deex+Q8//t3XecXWWB8PHfuX16SUJ6QgKBRIRAFhsIoa6I3SUKUhYlUuy6+35svAhKeUUXG0VRsQRXFtSI7WVhYcWliYJ0KQEEUieZ3m87+8eZSTIMJOSkzI3z+34+87nJZLjz3JnL3N8855znaWigKpejqamRhoZ6urt7uPXW32/x1IDa2hpmzZox6heTXC7Hgw8+zIMPPbJDxviHP9zB179xJfX19Tvk/rR7iBbpHz3jncvleOCBhxj8Ozzn/5xj96Olo4u+gTwBEIRlICB80XnIYZAY8b6QYGi95XEyUbRFm30Nyj1QXAupGTDzEph6DmT2GLuhbYPKDclMBhYvHh+Ht19saFHzSakkr6nKcEAuQ20iWoPypYIyOsSdYkoqtfEQd7lYZNFuvpPN0qWnM2nSRAYHR774h2FIQ0M9993/AEvec+oODbAHH3yYE5aczE033UJTU+OoF4Z8vkBjYyPnnH1GrPufPXsWxeLo8/tSyRTX/GBZrPscS2edeQbz5u1Fb9/I2YlcLkdXVzennLqUe+65d7s/zw0/W875F1xCXd3oRcL7+wc49tijOOqoxVu8j9e99uBRz6VEIkE+X+DCL335JS8c2ha3/+EOzjzzYwBeZDPOTJ0yhaamRorFkT+hs9kMK1Y8ww0/++UYjWzn+dQ7DubypUcyozHDC+299OWLlAgIy2XCMNz0Vi6PeF85DF/2vP6dZ2iLwXJ3FGyV9FZaB8WVULUQpv1fmPNlaH4bpHafFUEq+6fdMcfADTdAuRxtoTjeDP3PNjWdYnIqyepiiefyRXrKZZKbrUEZTWSG7JtN0VEq0Z/P0zxzBq/aygtrpZs+bSqf+MSH+exnv8CkSSNX8w/DkKbGRp544ilOWHIKp5x8Iv98+snM2XN2rM/11IqnuXbZdVz7k+vo7x+gubnpJWe42tvb+cJ5n2WvvebG+jyve+3BXH31D0a9v7a2hjvvvIfzzvsS55776VF7e1eqhoZ6zjvvs5x++lnkstmNF5eEYUhtbQ3t7e287+QP8LGPncMHl56+zVe59/f3881vfZtvfesqMpkM6XRqxPelPPQC9YmPf3irFz695S3HcfkV34m2ctzs50ldfS1/+J87+NCHP8lXv3IRtbWjz4ndknw+z9VX/4B/u+yblMtlqquryefzBEFAKpXarS6iUjwNDfUsWLAvt9xy26gVHmpqqrnookuZOnUyRx91xJiMb2eoyqZ5y+v35VWzJvDnp1Zx030vcOdT6+kuh1QnIEFIfxjtVFMVhBQJSBKSS4S09g0wWNq+X9xeuSAKtprXQXYvKFfKUc4QkvWQnQZV0yE9DdJT2Ka1ACtEZYfk7Nlw4IHwxz/COF1mBdi4qPmMdIopqSQrC0WeLxTpK4cbFzUfPsS9TzbDPe3tvGHJP5HbxhfESnTmB9/PXXfdw29/exMTJ04c8aIchiF1dbUUCkWuuPJqrr/hFyw+/I0cffQRHHDAq5k5czpVL7Nve09PL8899zwPPvgwt976e+68627a2tqpr6+nvr7uJS/K2LChleOOO5aPfvTs2I/n8MVvZNasmWzYsOFFa2RGh72v/u4PufdP93H88W/iVQvmU1tbQ6FYZOXKVWQyGf7p3e+I/bl3luPf/I+cc/ZSvnX5t0cEfxiGVFdXUygUuOiir7B8+a858cQTOPbYo9h7KyG+atVqbr7lNpYt+3ceeeQx6usbSKWSo04zaG1tY+nS0zn88EO3Os758/fhmKOP5MZf/Ybm5uZN9xVCY2Mjy5f/iiefXME5Zy99RVskrmtp4b9u+W9+vOyn3P+XB6ivqyObzZLP56mvryOVStPe3j7u9mIfr97+9rfyu9/dPOr9mUyG/v4BzjjjQxx33LEcsfgwpk2bSiaToa+/jyefWMHixW9kwYJ9x2DU22/OtInMmdbMEQv3prW7n9bufnr68iQTwcYjaEk2HcRNAr3FEv+w5y7c6q/UCU1HQsObIPbecjtBkIJEdusfV+EqOyQhuujmzjvHehSVYWhR8z0zaaankzyXL7GyUGQgDEkH0X7e05IBs6urOWA3Wzvy5QRBwNe/dilr17Zw//0PMGFC86iYTKWSNDc3MTg4yPJf/ppfLP8VDQ31TJkymcmT96ChoSG6gjaE3r5e2ts6WNfSwtq1LXR3d5NMJqmpqaapqWnjfb54DK2tbRx00AFccfll2xUGDfX1nHrKiZx/wcVMnrzHqDBqaKjnscce5/77HySVSpFKJSmXQ7q6u5i/77687a1vrsjZyvPO+wzPv7CSG2/8zaiYTKVSNDc38be/PccXvnAh3/j6lczbZy/mzdubGTOmUV9fTyII6O3tY83atTz11NM8/viTrFvXQi6Xfcnvy/D35JBDXsf5X/jcKx7npz/9KX5/+/8wODg46uvY1NTEihVP89GP/Stz5sxm0UEL2Xf+PkyfPo2qXI5SuUxPdw/PPf8Cjz36Vx5+5FFWr15DJpOhebMxdnZ2ccklF3Dzf97KTf95y7hda3S8edtbj+PKA17NE088RV1d7cbnaxiG5HIZSqUyN974W5Yv/zXpdIpEIkmxWKSlpYWLLzp/tw3JSIJJjTVMaqzU53oJkjWQdCWFnaHyQ/INb4BZs2DtWniZ2aVxJwxJEy1qPiOd5G+FIqsLJfIAnV0cvviN7Ln/fmM9yh2mqamRa5d9jzOWfog77rybCc0TSCRGz/+nUikaGqKLHEqlEs8//wJPP/Ms5VJ54w/1IAhIJpOkUinS6RRNW1lDsFwu09raxmGHHcJ3r76c5uam7X48Z575AW666Rbu/8uDL3keZlVVFVVVVSPen8vlaGtr49m/Pce++8zb7jHsaMlkkquu/BoQcuONv2XChOZRayjmcjlyuRzFUpEHHniIe++97yWiHdLpNNlsdovfmw0bWlm0aCHXXHPVNi2zs/feczn//M/z8Y//K42NjSN+KQjDcOPXfs3adfz8F7+iXC4RBAkSiUR0ftfQeZSpVIpcLktj46YxBgGsX7+BE054F+9Z8m5+9nd4XpxeXjab5bzzPsNJJ72fQqFAKrXp5TUMo/Nxh2e5Nz3vs8AkHnn0r7t+wONKAsr9O/ewdgCQgmD8nYZX+SFZVQVnnQXnnrvp74qEIbkgYH42w8x0mWc3tNG+xyT2+z+f2h1Ps9iiSZMmcv1//Jhzz/0iy669jnQ6vcXtCZPJJMlkctTh423R29tLsVhi6Rn/zBe/eO4OW86lqirHFVdcxglLTmHV6jU0NY6OSWDEOX/JZEB7RwePPPxYRYYkRKH4/e9dyaxZl/Dt73yfTDpNTU3NqMeWTCaprq6mehvPJQ+CgHw+T0dHJ8cddyzf+uZXmTCheZvHefL73kPLuhYuuvgr1NXVks1mR40xm8mQ3YaZ3zCE9etbOWLxG7ns3y4B2GWL5qtyHLH4MC644PN87nPnU1dXRzab2er/29lslieffIqenl5qayt1Rm93FkJ6MrRcD623sFMObYclCLIw6SRoeP2Ov/8Kt3uk8+GHw4UXwpQp0NkJXV3Q0xNd0T04CMVidEHO3/NJ7cPLJZRKUChEj7uvL/o6dHRQ09XFqxcdyBuu+CZVM2eO9Wh3ilwux1e/ejE/uOYq5s3bi7a2dnp7e3foxQxhGNLT20traxvz5+/Lj374HS699MIdvibg3LlzuP4/lrHwgP1paVn/ynZqCan4JYISiQQXnP95fvD9q5g9exbr129g4EWLlsdRKBRpbW0lnU7zxQvO5SfXXhMrIod98pMf4bLL/h+JRIL29vbteg4NDAzQ2trKkiXvZNmy7208lL2jdj3S7uXMD75/6JeJkPb2jq0+t1KpNGvWrGPFiqd3zQDHpTTkV0H/w9D/6A5+ewz6HoC+R6Orwsehyp+RHHb44XDwwXD33fDYY9DaGkVlZ+fIqCwUoqgslzcteJpIRG9BMPp2+GM2/6G/M14ANv9hMhyFL34bHvfmURwdE4n2IE+nIZeLZmXr6qCxEerroz8feCAcdhipcXBi//HHv4mjjz6C66//BT/96Q089PCjDA4Oks1lyWYyJJPJV/wiHoYhpVKJwcFBBgfzVFXlWHTQQk48cQlLTnjnTj0fce+95/LL5dfxjW9eybXXXse6dS1ksxmy2eyox1AulymXy9xx592USqWXPU+zWCzR0dlJNpMd8d93dHQwMLDr1rI7/vg3cdhhh/LDH13Lddf9jBUrngGi2dh0Or3VrQPDMKRYLNLfP0CxWGSPPSaxZMk7OevMM5g7d88dMsbTTj2JRYsO5NJLL+PWW39PoVCkpqaadDq91edPqVRmYKCfgYEB5syZw4UXns2pp5w04mN6enrp6OgcsSRMf38/3d2v/MVmeAZ28/GEYUh3d/c2bxP5csrlMl1dXXR2do1YfL+7u4eenh23609//wAdHZ0jvvelUpFEIknpFV7BWyqV6ezsBIIR99PR0Ul//yv/haWvr4+Ojs4R7ysWCxQKxe1eBgrgtNPex8KF+/PlS7/G7bffQT6fp6qqikxm5HM/+vlTpqVlPXff/UcOPPCA7f7ceinh0CHnnTTZlMhAIsduecn1DrD7hCRAdXW0D/fRR296X7EYhWRPTzRT2d0NHR3RbWdndDv87729MDAQvQ1HZ7EY3ZZKm2Ju89vttXmwDgftcBSmUtFtNhvFYS4XXZ1eWxu91ddHe44P39bVRbfV1dG/j8clkYZks1lOPfUkTjnlRO6+515uu/V2/njvn3j22edob++gUCgQEpIIAoIgsfF3g6jZy5TL0e4KmUyG5uZG9t9/P97w+tdy1FGLec1r/mGXPY7q6io++5l/4bRTT+LGG3/D72+/gxUrnqajo3NjKAwfCt7vVQs49NDXbzEkJ02awInvPYFUKjUiPnp6ethvvwW75DENq6ur5aMfOZsPvP80brvtdm6++b/4ywMPsWbNWrq7eyiXS4RAsPGH7/B5rAlyuSwTJ07k0EPnc+SRh/Omfzya6dOn7fAxvnq/Bfz4R9/lrrvu4YYblnPnXfewes1aBgcGCYIoVoa/jOVyOLR0UEB9fT2LFh3IW9/yZpYseddLns95zNFHMGvWjBGz2fl8nqlTp7ziX3Tmzp3DySe/d8RpHGEYMjAwwIwZ07fvwQ+pqqriXe96O/19/SRTm55XAwMDLFgwf4d8DoCDDlrIySe/d8Th2+H9z4fPbd6ahoY6lix5N8CIIOvp6WXRooWveCyHHPI6giCgerOva6lUIpvN7rCtLRcu3J9//8k13HXXH/n1b/4/f/rTfaxevYbe3j5KpRJBIiCTTtPQUMeCBfsw8+/0SFJliRN6AVsP0CDmff99CMLxtshZqRTtlpPPRzE5/Db89+F/e3FkDr8N/7Y6PHOYTG6awUwmo7hLpaI/D4diJrPpNpeLbof/nM1u+rdxHIY7yspVq3n66Wd4/rkXWLt2Ha1tbfT09FIoFDdeyFFXW0tTcxPTp01l1uyZ7DV3DlOnThnroW/U2trG2rXr6OzsIgzLVNfUMKG5ialTp4zarnF309/fz7PPPsczzzzL6tVraWtvZ2BggDAMyWQyNDbUM2XKFGbPnsncuXN2yMVN26Kzs4tHH/srj//1CV5YuYrW1jYGBwdJBAlqamuYPHkP9po7h/3334958/bapWPT7q1UKrFq9RrWr99AX18f6VSaurpaJk/eg4kTK38bvJ2q425Y9SUod0XnGlaKsACUgCQEW/jZGxYhUQ/TPg5Nx+yq0VWM8ReSkiSpclRUSAZRQJb7IVEVHbIuFyDshyAJQY5RM5RhERJ1QyF57JiMeiztXoe2JUmSdpawACSgej7UHgmZWVBYC713Qf8KKHdCopYRMRkEEOYraNecXcuQlCRJohQF4YT3wdQzR+46E54M638OLd+IZiCDF5+nHrLTLuapcJ6UJ0mSxlAlXKgSQliG2kNg2kdGb10YABPfARNOjw7BjxhzEK0lGY7PtWMNSUmSNHbCAmM+mxcWozFMOuXllwBMpKDhEEhNjmYuBRiSkiRpLIU7Zk3U7RaUIDt5yx+TbITsPAj7qIyZ1LFnSEqSpLGTmgBByE7ZvnCbhFDeyuHpMA+lbghevFmF50hKkiTtelVzhq58LjF2s3xBtDZ095+3/GH5tTD4OARVjAzHFATj8/plQ1KSJI2ddD3kFhEtJFPa2kfvHEEKSMKGZdC34qU/ptgFG66DcJARwVsuQKoRUpN2xUgrjiEpSZLG1uT3R3tWlwuMzaxkEC0+nl8Jqy6Gtpuh0BFNOhZ6oPNuWHkBdN8ByWY2zUamoLQBsntEa0+OQ+NzHlaSJFWO6r1hwhJo+TaEw1sS7spzDkMgAcl66Ls/OoTdsR+kclDshYFnIP90dMX2xnEloNwd7WpTfwSkG3fheCuHWyRKkqSxV+qHlRdC288hNWUoJsfiApzE0E413RAOAMkoFhM1m41n6GOKbdC8BKZ/ClK1YzDWsWdISpKkylBoh3XfhQ0/hqA6miEcs6uhAzYdZt/8quxkFJnlXmh8B0w9B7LTxmaIFcCQlCRJlaM0CG2/gJYfQ+EFSE0kOhNvrHMlAZSg2AKJBph4Gkx8N2TG50U2wwxJSZJUeXofgo7boP13UFwFiXpIVBPNEu7KdAmAIhTXR1d3N7wNmt8Cta+FxIv33B5/DElJklSZynnoexS674euP0D//UA4dM5iFTvvCu8ylPui8yDDQUjPhYZjoe4AqF4E6Yad9Hl3P4akJEmqbGEIg89D/gXo/xv0PQ19f4b8k0NrQKYhyA7tkMPQzjPpl+/MMBxaD3Jo3coQCPujv4cFSM+CqgOhZn+omgXpqZCdC8nsTn6gux9DUpIk7T5CoNgRHWoudUQLhQ+2QL4lugim2AGlLigPRHE4asecMDpMnqyO1o5MNkB6D8g0RQuLZyZEM57JCZBq9vD1VhiSkiRp9xaWh8KxGM0olgtAcSgiQ0aFZJCOZjKDoTUrgywkstFWjdomhqQkSZJicYtESZIkxWJISpIkKRZDUpIkSbEYkpIkSYrFkJQkSVIshqQkSZJiMSQlSZIUiyEpSZKkWAxJSZIkxWJISpIkKRZDUpIkSbEYkpIkSYrFkJQkSVIshqQkSZJiMSQlSZIUiyEpSZKkWAxJSZIkxWJISpIkKRZDUpIkSbEYkpIkSYrFkJQkSVIshqQkSZJiMSQlSZIUiyEpSZKkWAxJSZIkxWJISpIkKRZDUpIkSbEYkpIkSYrFkJQkSVIshqQkSZJiMSQlSZIUiyEpSZKkWAxJSZIkxWJISpIkKRZDUpIkSbEYkpIkSYrFkJQkSVIshqQkSZJiMSQlSZIUiyEpSZKkWAxJSZIkxWJISpIkKRZDUpIkSbEYkpIkSYrFkJQkSVIshqQkSZJiMSQlSZIUiyEpSZKkWAxJSZIkxWJISpIkKRZDUpIkSbEYkpIkSYrFkJQkSVIshqQkSZJiMSQlSZIUiyEpSZKkWAxJSZIkxWJISpIkKRZDUpIkSbEYkpIkSYrFkJQkSVIshqQkSZJiMSQlSZIUiyEpSZKkWAxJSZIkxWJISpIkKRZDUpIkSbEYkpIkSYrFkJQkSVIshqQkSZJiMSQlSZIUiyEpSZKkWAxJSZIkxWJISpIkKRZDUpIkSbEYkpIkSYrFkJQkSVIshqQkSZJiMSQlSZIUiyEpSZKkWAxJSZIkxWJISpIkKRZDUpIkSbEYkpIkSYrFkJQkSVIshqQkSZJiMSQlSZIUiyEpSZKkWAxJSZIkxWJISpIkKRZDUpIkSbEYkpIkSYrFkJQkSVIshqQkSZJiMSQlSZIUiyEpSZKkWAxJSZIkxWJISpIkKRZDUpIkSbEYkpIkSYrFkJQkSVIshqQkSZJiMSQlSZIUiyEpSZKkWAxJSZIkxWJISpIkKRZDUpIkSbEYkpIkSYrFkJQkSVIshqQkSZJiMSQlSZIUiyEpSZKkWAxJSZIkxWJISpIkKRZDUpIkSbEYkpIkSYrFkJQkSVIshqQkSZJiMSQlSZIUiyEpSZKkWAxJSZIkxWJISpIkKRZDUpIkSbEYkpIkSYrFkJQkSVIshqQkSZJiMSQlSZIUiyEpSZKkWAxJSZIkxWJISpIkKRZDUpIkSbEYkpIkSYrFkJQkSVIshqQkSZJiMSQlSZIUiyEpSZKkWAxJSZIkxWJISpIkKRZDUpIkSbEYkpIkSYrFkJQkSVIshqQkSZJiMSQlSZIUiyEpSZKkWAxJSZIkxfK/KkQQq63KBXoAAAAASUVORK5CYII=;" vertex="1" parent="1">
          <mxGeometry x="520" y="209" width="111.14" height="63" as="geometry" />
        </mxCell>
        <mxCell id="S_6DLKTQYWsLQOd7YUJ0-10" value="" style="shape=image;verticalLabelPosition=bottom;labelBackgroundColor=default;verticalAlign=top;aspect=fixed;imageAspect=0;image=data:image/png,iVBORw0KGgoAAAANSUhEUgAAAOEAAADhCAMAAAAJbSJIAAAA0lBMVEX///8AAAD7+/vm7vNleI/+/v7ZgoX8/Pz9/f0BAQHVgIPh6e5meZCZXF7n7/TdhYjs9fqAhYfPz8+Ojo709PTjiItbNjjf39/T09Pq6uoeHh7ExMQ5OTnw8PDk5OS9vb12dnaYmJhXV1dfcYeqqqovLy+Hh4egoKC0tLRqampVZXhNTU1+fn5iYmI9PT0sNT8gICBQX3EiKDBHVGQTFxs3QU0bICYfExPHd3oSEhJSUlI8R1QXGyAoMDmCTlClY2VPMDG2bnA1ICFyREYrGhqMVFakZ0ocAAAcyklEQVR4nN1daWPiONKWnThAYAht6MaEcAXCTe7kHXJM7+7M/v+/9EpWlS7LB7ZJz6w/JAZKVj2qkqpUksqkQsKr4lb5jet64X/PdfkXVdckqQBJFtoIiYckJdMmsFkEIEmjLYfpapG2PbxkrlpKlsoBtF4RgCSN1gIwu7RLkqCbsZZymP4FKhqS/C0HmWIAKwbAL+uDX6WiOu2XMf11g4zB5t+xD3oWCeZn8+/cBwuZCcMg/p36oE2CBazZlzNdbJDJXLWkzQrwl5qJQh7lEQH+cjNBsG2PxHQxX7QET0bQ/mP64BEB/vNcNY32f7kPctq/oYqW3LYH1HJcgMUMfSkA89QCJOTLXTVJewyARAKsOJfs2pOY5x7LVVNoMzKdSUXZ305vNBlLpqsOvxTaTXvW7ZC4x5WsoiFtSRKkBAO/vbtkeFwEyBHWAGFI22Pf7Hdzv6dwVOaM/lgASbB42zuApytoKcJaDRBy2lFIwVBuJgEpGaCVthQV9ed7UEcGx+mLflXlAB1JO+MkcG19crxRFGiLAwwEPADoTATTVfhGPnfs1DTa/byLanAcgCSuZKZaaN+b3TqOwbSzEtbBxZFGPPdKbwx2bWadw6vOTpu/JKXsjjVe8eaKCLUbdMJLiIeYAMP/te1QRoy+BmAW2Vf7G10Y/P/9W3uUMESOFrsbR7mw9DUOO2UH1VObJq6kN9qY2kb1bdvvZmi4YX/+FtFV59o3qi5qJjhJWsm4Wvq3ERbHox6nTfVF2dUbbZWm4SPuJqClS1XRkDZP03Q3ppLN/UoMbYIv6s81gPTaDUlmgFkH+xwlB2OjF618gtdBswn6ub/a67o6d0sGGPX6U2W/UJSLqdZsAOp+IEBsr9mN1l73y5JnHoeWZAqqdKDrfpZmTGSEuP03fVjtkdTHHeRRWhmJY3qu6dRqqJHknNHTX7o7R224Zdb2ytK2B5Xs3iqjgjPu6iRiHMwAkMjG4CQhRiFKJsajAEyR/UIVIJpoNVzQ830/oLPCRICdgBINzKrpyKo6ELWR6NsF5+UHlPRWCsD7PjImpbLkNnIPsrUBrJJgF/rpNd6BdWd7pLbgnJQC0LUxYpd991IxXItIkG64lcOPs63aAZLOSqGaDIhnMD1Xfr4dxDF9oFuXqWmqZKmMdrueEWZ1R9eaBXFuXRtAr3ejDZrO2DeqFr4EI9kHpQT/MgH0yEThbESIVktvIn1pFPKbZXG5Qm5UkrAtbtnMSWNarWmZw1xHpJ1F9oSsJGubgVILLezvhOTUgXZCooxsNQki7Rw9NaDtXknDgU8pEp/OAtDdSI4WCtMV6pDca2onVXU/iAAcWgEygY8qGg9Klx4XBijaKF72pHMlONv7CgnptB2Nafr73SN+0Q5Loy1gjxPT5c9HKXVe+GamNdxS/rTL2pMKABzcCEY2HbXk8MoA+Pp02misRbTGJdVet9sNut0hFWhnDoL7mDYa03czLnDdqSpVD++FkK/zzf6lHDS4NhXtXQqd2qolvaHB49260WicnjaeNMfV0F76y5oS0ZZ4eFQLUwvrqlVXr8VTboXBzaGinms0TRTgQAKcEU2VblSAr09Txnh47Z24K1RRoKPSftkrQxQTluohYWesOZtqAYBuiuxJR6roSKsFJlEc393DqcB3evpgKK8+tsiWoMr69KqQjNSqK0oF1ySFzQIA3SvBWqABrLj30MKO8z5tKPgo5y9WgPzmSSdtrO8EyUaKJ2R6KVplVyRAlVTS86SZGBpt4APA54eGjo/x/Z4RIBfkOypx19OZHonSY5JbRUmCBKtkh5ztuyZJmwPcT02WQ7Yfnq398HVtpX6CnxfEYLovSkoH4lCAJEm526LpVYC8lhWX7YuNZcr06dNdyNn++ePj+ZkL4u4hIm2ght44N5lGiDWcFOeJ3yQ0zVKoaBQgR2jROql9HE6jwe+mp1FtFrSfHMY8yvQIAPKJRp5oSQLAwAoQScZcuHdxXB9yNT64rrQtTC9DgKt4NlMAevavWcnOpWMxE4JkAZZsWgLANdQ0szE9ccADPNxMELT49pLXCFA19FK5AxgCHkpAiEPv0BpnGYcc5OuDuK+NWEpOUEXnMU0DTul7cTVt3HGA11amaXcxmD5EgvEAA5TgdVzJVakI2aO2ZYQsbABtsq9cYQS6Eyf7DW+DchCG16qMGX00fGsvuUV/KYhrxj5ocay5OAAhOjVyCbHIhNektQIMEOAsrmkQoGP1aUK+0RIa95Zr7WgQS95SZyvp3YA/uIsrOQND7DzGsE3dzfXD+8vd5+MrvR4/716e1uvTOJDP6DyNSMkqagfIxlFu7DoxzSgGWpuSUmFNH95fLbPE58d3i58Ok2bepsvSd2TYSg7Rpe/HNE1bAPyMsMsmfY+AyBJ04nPJyATjVdDOssTGskvQvq9thwufohmjADnJ82nDgHf68CmwRADizcvaLDeVEp+VC7BqKelDVfuBZy25ENx/TI3p7PRdmTUZezS0mOOjOc2YPgvaJee+jD4Ys68NA9gz+6xTzrwfTw2ALIAWKzhjKvz8pGFsTF8Fbb+0Pqi5NKIkxCqdW2kqxWKtaibotEJjkc9jo1P7yIW/PGtybLApFPwUiLbFK78ESWRfm4siDNBUVogbTLbj7azrgQrz6JMuwPVHBNfzZredLJaj0XLWHu+i21Ocu6kG8U78AMvc/nY8s46FhwAk5qcZVLLC2b9XFVsJbndvigS1fvRicL8fz4J6q9U6abaa9F+r2ax3/YlY5wXamqaqDRikamFgFrTptptnNhEPsOrizjqxXNK71dveoqIgQEFy+c1vMlDNer1+El70P/1IAY/Gjva4TzG/bExfxC+3rOIBUE6IVx5AsWKAIRPP6xnKBYOMBvBJI9n1KZgmxyUBws1Jq7l8U6W958Gpxum7UtGO1Y1jurPppgFM2ithlBSbI3lP8CquFtl2oA/qdvBFJfkWtE4ErghAekMl6Utt5aEeOkyhmQmf4qsIYfKfE6BrfMIo6BYeQYzVJS5BPYT4qZCM662TeiJAdjVP/Gvlce+N9atAzL5YhlX7yjfXnQJzR+3TGzTagBeoDsTebYWjVw2gEpffBK1mBoD0ptla3suGk24C+7ztcKZ9rW2XOPIdJkET4BCeOcaSM6z38+4DmHh+V/vgVAKsLSi+bADpn9bJVlmjqol/112Uiq/1DmfVyQdQn1a34Zmiliv+BR0OqMdJ50J3Lw+aAAVAOqzTDpgdIOuPy73eBeh105fc+4Y/dNnPBVDb18aGFbHWI5uRz5Ealnls41EAHIfDZ3aA9KZZv5WqH17C62Z//YgLSFWr4K6ovrnMtQP9O7XPXNELoWUmrYMBUhPZWqkAt67GtM+Z+ev/JNI9bvPMLkENIFlB9MmFkgPQj7jFiXcBcNk6ORwg09RvQkF3XcE9QYTs+x/n/1J6a7taBGAHenwba5lEFjU1gA+i3lE+gBRiEyBeKbvIPEQYXj++n/1X6a9X3UyejH1f2xKGtC6UrFw6MRN5PsrUCgOk/1sT9pClsggGTHuI8OL84vf/KP11Em4uzihBWCOFT+BpXGEteETpwS7CRwQ4KwCQunHBclnvVCJSETK8ODs7+/6HMuTeDg8AqG5W8eABC5xRXXOAH/ZO+CS6RiGArDNSD91VOALupZYyiP/+D3ZG8OIOBygWXIfwRRc+26PaXEdpdbs8o2iEtumZAEOE9Pkc4fnZ2Z+yMzIvLnP8RvZI2N5xD4Dxc826fsYNBa3u8qQMgNTHIaZtA4sfIjw/Z2L8S1HVJckmQWVfG8Zn2lC0A4+yroGGS35hdf3DPJl4WteUClh8hpABPDu7OP9TcfS4F5fx/EoIsAv9ikfWPTHZX8cOM6z+b2UBpBANIwcWnyLkABnGn4qjd9k/CKAHq/ZODZoGRfoRK0JWy309o7MdhjLCaIb+X7npEP0KwOJ/FwDPzy/Of8jO6Iw9kgpQWeUe85IrDhDm9jFrS0yE3L9rZQDYbNb9xbf0q61fY2EPBUA2qP7mSFW99FMBKqvcG870ApQb93nYXFKx/3CTDeAM42x5rtAeCoBUU3+PeHFps3/+qQdMB9r6YMw484ILGxlm9M067gGPiQ1bb6Q/jgiFrp6BF1dDLy4bQOzX+wH03j5/hM1ja1BbyK1SJoBiBp8SBbeTgD08UzrjGXpxnGSCI0oyQNw9ssHhKYBHWLxu6s7wh4+aGQDq57Z0gBmQosXXOuPFxR+K3QAvLm1fG9j3sZj0Y1gt6pVi5Paqnj6KyulR/EJNIkDn50UEIMPIzL+gmSUAFPEdCCMu0Skl4pDho7ndbgo/TJrpUTXcdpP7+tMKUHhxuFW6E59aDz5VSMdfzt/EJLpa7coWNywGbiUMTtIAnuD0z6n9+Vuu6/fvdoChF6fM/oUXFwdQfBJebFVZCNUhYuxi00oFWD+BIzB//f79gl1hH+I3FzE3Z9pNtA/KGzD/IAfuxUVX4wC3FCUAZCuL17KJVNetAc+ctFIB1k+Ag58XwNm5lVfbTQaSs7OfMAsPzUDfutyoA9TnIZ4Mvj9GumHN8ePWJtQbaGDkrFSA58yL+5cj5bB1rZtnkhbe+IkYxqMcbWAl1HFa6QCbiPD7cQCeMS+uJjvjvX8YwAqd0ExACWS4LYywMQe2lS7BEGENEB4FoOrFsYraXuwqd9xUec5L7iXCRz5ET1rp0yWKkA/n348GkNqNi/8KgOGKqoEkLdiBIUaJcC+mFanzwRChEyI8GkBmN5gXJ1QVN73ra6QJM0koF3FK6830CW+zDh7M92MCBC9OXJvhQQA9EyFus6ufpAKkN0D8/agAGUaMxYWiXMQCjG7wrOJqutBSQHiTLWQBpS+ODPBcenFhfdcDseSEAIGTyEQLnTeJEGL5m/RQjGLxvx8fIHhxqKojYQ9AgmD2TIAYoHJqJsLrMIqYAlC3h8cFCLE4YDfcWaXta3O4m24C9ODUhbQWfD2GBYIzSFCzh8cGyAzHT+iLNbY4AUigD8LXEYAYeX7WEKLBTwsbMoQ1afGPDfCc2g3ZGY1Vbvg6AhDn+hrCWg1kmBYX1S3+8QFe/JQAr3Avrj6jj06VA3DcNYSsHzbTAYYIYaT5AoDQD2E47Ys5sWbX5R5knId0gUeBcM0RbprNVICaxT86wHAsFcGfkQ6w6oobMyaOu75UhLo9zGLxL44OMLo2pQOMDThWKsCjMT2kPk2mtQlEeGyA6NNwgAu5pmbua4tEc4QvINfYYHGkmwHgSWaLXwzg2dkf0kwwv1TZ8J8C0BWLbDKIwQ9HwOJ9sgQzW/xiAHmEGCU4IUQ/0ZASE58Dj3L29MkfNUkxiPUDLH5BCcJejbAmtuO2khlgBfLqaNF9PC24SjaIdWnxnTSLXwhgdI5vnElJAOiRrVBuGfmmBpF351YqQHUGfCyALE4j8IVxGvNUUcLC20BmBFLWSRun0GR+gkGsC4vPr2MBvNA2TG0rFoAkFmC1o6Q8UhcvGrCYtGimAWQWn18/z44D8KeYLfF4aURFEwC6sHARAtQ2nDRg1zPGvOMBRmPeMZHt+Ch4EkBltuRgzDu7BF3lsLqZywJmiE4QM0NUZv+tNmpQ/nWLOIDcS8OLz3gtB99iAcqMEebaU+N0n2gvtI1AXaEHOa8/Y9T54kzdenIds4HY2NemhU5dYC3cHqxfbGkmnGOe2OYXxkagb9b1wcgX8Te/WXsn3z6EAGHnbczRRXUjZrffxr2luAfZtgYMEygeMk0ESNvgKoKn8Co3rAFjIVgDjjt8il+7y8mGaR+GjCFzinUd/xRG0+tWGkAKMczVFwMw5yr3hTUCHHe6Fr/GWRIuAsPWS/teDDzf0j9JA0iH0/p1HPeZRPnD9Icuwig+klx1UwCKfW0E9oTAWRKxU9ECUM6gblupANlu7mXe/TQMxQ/DH+JeGgJsR2a2sW8lw9Mxt4ZMn2wIIU9S1t3BrWaQa09UDRCqAMM9UQjw0icCVxpAT5w86PEWIdDu9n1tU6jl77KvLeGEu/zUqfGSbMmfTStgJ59jT3yEu6K+ZTnnlI2EcyZXGOQ+bwmQ703kVV/2SUU90GwHqOxrIxtecgczKhceZR9rpjgo9JNPqsUhjf7i6gCrnrrPOwR4dq6GYqiXFpkXxRwfNnZFOVjLnI92NXuuKxxOL+vouxUD2FI44t3EQHiOm4Q4wCWJpCJOAyj2dfdBubtg1+25PSB7ldznXUxFTzxdgvQGBoYfGOMBNzsESL00L0mCxAKQKiyEmFbQD9B+xOzVF/ug2xmWu5MANptU0d0IQH0nu74+ONMO9qZkmVA+QUhmzwe1qjgxG3Pe4h1t9qxVREXD8xYWgOo+7zOxxsu+2VizLWV5K1mARo7X4rk8KWTcmRmWzIJXu2zmlmBTnJmJLETLfd4iluZALO0QgKrCVpXDeVX1OGJMDhqZzCJLZDEGIJ578kUWcJm9AhBeYCyNAQy9tJwAGSKudkMoifuGYzIlKUe7lllWohIAOvLFD4J7HEujZ9cOAahnLMDRdIL+OJwL2tsR8u1RvDNOWhkWaiIAmytHuVgkUNlhAAj/Umby+0Brg0ypbNRPHoGoyh4LoPv9xNPGRrLnKEkuxycn8bhi3NW69MgjRq7i+Y55jXUhp5kJpFVzsC1BGZb4O2xhZhP9xvTp5eXlSU8tg1EpB88BZwcozwELgHSYxP2tFfMsN5wDPlSCFeMThi6usJYJQK7dvWDioFc97YqSbkA7y52moq265Sw3vVYDFI/9LPdBfVDb18Y/zaFf+VCyp9UCN4/TiBT5L5sgOum3Amzy8/j43BdtTjwB7n0N4JLoALOnk9I/4ei5wZJz2xRcy6nA01hhTwlaTQOXBWCrFeZUwEJ09vIiAYbnmRn3yllutgMopwTxEp9wcPPB2aE90RIpe1U7o4ifhte3IC3vQLPV3ymPY6mYGo31p6qq4RzVlzUuTDYPSQhmfMK99W9w1pZg1m49vPKp5TYRSZ74tKYPcrSpKDsjtFEfd8dVviET87JILEcIF+Y2KUOC1Hrgzmc4W+1ifhojfmRkGNKzP2N+Gg1gmJ+mjvlpkFaduDyJ6W3o/GMcZYInJnIB1Fe5mewhmO/cyJIix9DbSr4o6M5wb55VLWM5hhYB63A8QMFuTtQcQ2LMMjNFOTI3Oj8BeduNnMA7LGddtGl2coaCJSssT9R8ydyqkcBgJMI6fTG4Z2+p3I1ZnqjlbPFN5omSJDX9kMPpJ/5yX4HQUZgnKvaYb9aEYOYbJHHiq6YUxKgV1eKRYPHOyFM+/dTV2Ylc+pj1ovsO4lhqmMFJVB15n87BWQejU2UcTrfE6gPNUJWi+drWylsdkiLbIT4jm930Q9AGqUwbAG1sStpI04jMUI5vL7kQKD6MY94sh7wGQ8OlCPU5kqh+LV+/Zj8YkleC0VVuxVW7iik5EZxGM7KLvJCxEXtqaiK5IXnoLgPAXJk/o00T+tthBMbejPhuOUoSTV/aUJNfqmtIcN09TS2J+J8FwNEXAJR5aljePWtJ+WokWyCOIXh4//wwxpr9693T2pqKFg6p1L4MYJioJmTqxo15NZhog+coQETZmK7XT+/vdMr18v7+sF5bZAe0bFH5WCrqWgGKdHfOmMSUFKuC1oQEGlBxxRKtpc6UDRAsfnR1Xxj2ZUxJ4a+Wke0a45LdOKYX47wSdKN7pAg3MCvsafbQFiUBs1nCqwMwJ/s4jmmf7zcsESC9YS/QCau9tGW7q4gdYSUhDK92DNNhWrzayMZmMsCKtsptlvRxhH8Ta1h6SUjlFpMlKw/CXUz69Fve2PN8AKXFN5dOJ+Zoo8seE++X0Q/x6DQkZjWYXimWJNf7dOwAPbGwj5sdjKaZgBZbF1APvNbgFIxsTLfRX9jm6INJAF3SuUc7rB3oB1rI7RaXk90iqYSfeJZk3pQG0wuU4CaXisK0KKZkV3hdSqZ0JNnBFCE26zy1f1P5mplG4ntm7mRPM5heIg/7QT4JugkAuefCFXUUyZSebCwap+Cb7p8/Xj+eeej38SkuO+EjV4h2hOmRaOQgJ0A3CaD6+mZzrMY3htZi3uC0dxzLHNiSZOMUXrfHfp5ZAMJT+rlUNA1gFRZNwwYe6SXFkkbtyZIm/8WxzZusQy8t/A7nbuncPkZFnUVegF5q793iaKO+6oIxAsun7JcX23vX4rZyRd679iLktDEAzgTAdj4zAavctr2lSsmVmONNiJb6T339sTanxfN7VoCaqw69tSY6u1b1RACcF+iDxBxBoiXle3DHRKO9UuftSlyisXfUX8xLrJnjewaQdqeHDcfilzFbcs8MMGHbl72k50KQk9Z27SpNQ3q4OIZBYsjM/ZQEsMZ9hAa+w1LS3neqStXuRjx3lReggi8loirmGc5loHSESLZ255lFKNaYp4L5CZ3esNvtDnvsjUP4HlK2GBl9D+mmo0a2u3sBcKsCJLFsxqho0lvJlJJSYajtF7J1SXWyV3hk/2ufmMktXM8VWyPD+sc4pDyKOA4W3i8qKkDxGhvWBwtJMOmtZGpJ5XXZ46pK25FbR40h5UqtRd9kpSpt+AV7sbPSBytjqfqTYn0w6Z1WWklh+mmtN4FKSycZK+BVjx/2IwBl6ik9NrwK1Mh2lQT38nHLQqNoZNtXQkkw8NiuiuGiJJ3FjVAq5H4eBVitVPAUjhTl1WJA1McRry1Jan4ugEZCmqyy797Itr8V+bKA1hvhqpIY4CsRgPSmd+M46kC76nta1RUS3Erh3vQKeDKSNnPJjjSMdIDzNFpK2VNfbb9QAGrP7awUqnbPaHLi4rvJGcKVW8AXVWgPmElOVDkto7RLvh3nvt2xqCjeBDtuRt/Al1e6tDtzFICLnDP6CO0hJQP1Req3IgO3HJB6ge93SXQUVZ7rkQ4lCgaRqklffc33TZBzRh8d31JK6rV0xmo3uo68CM54XELam6rJtP+magh7A0QZfZDY30qW1DQiVMwjC4ESjozXk/Rhz99oz+0nM32AitrfSpboA3X0rQabkehF9rE6A0B3hO9+4Y8dp01bDwFYySF7Xx/ybxa9/ADpL8PJvWZBrvz4qlPZLAUg/bjQmpy9HYiIpf7DApnckKouwMIrANBKm2v8HQhVRdbGRra7LGmoXXNzDbxjplQVJfF7OZJKemS4MtqeghwJE5AMMPx+OBPGXzxl1UXaMsxEzK6o7GtYXemeCBY38/4wBSD7tbscK7trsPRKvmi1PBUtAJBhjChZOPLsFn0J0DOe6y7nG55uUnjq4Mni5rUyB5kEgJlsG/11ci95lUivxHOrnfAaVMSas0nLYweTDsySy3LVJG3upgFad2TuVXPEqRsKELPbEPG4W4OWXrsRO3ycdwE0XQ75VFTpV8OFMuORKywhbRV+kI8bGwCvJsO8VWelzdk0Gm13IrJ2K8ngKG0V4EjamQrwpm2k4i5dgiUBZNdwthMjSCBoqzCUSFqx2nN/vUw9pFzQTOj72grVwkk6wWIVytIVtFWQl6QNd83drBbdDpE7Y4upKEmmLQOgEn3tDPqTsaStipFGLstNRgPu/BWp+uBdUYVUNMFVc51Ldu0VWlIG04eweVSAGK1JYLqs13AnOVGl9MHkWkpWu4P3teXovQWlXUyCh7FZGtOlSTBz1VlUFBaBC9RSDOAXSDAGYKk9/Vf2wZCkkCfz9QBzsPnL+mAhM3FQtORLailfRUkabXGAxczEF/VBYqxy/wIzUbD7Z2Dz1wA8uqumP+6f1wcPZPPrXbWvG2RyA/wFEizQtv+MPlhEDv+zZkKwmZ/pf4SKfjnAL3PV5OO+ppZfZCYIWPxcTJvno4+vonnb9v8BJ4IqesT1WV8AAAAASUVORK5CYII=;" vertex="1" parent="1">
          <mxGeometry x="690" y="208" width="65" height="65" as="geometry" />
        </mxCell>
      </root>
    </mxGraphModel>
  </diagram>
</mxfile>
